<?xml version="1.0" encoding="utf-8"?>
<!-- Generator: Adobe Illustrator 24.1.0, SVG Export Plug-In . SVG Version: 6.00 Build 0)  -->
<svg version="1.1" id="Layer_1" xmlns="http://www.w3.org/2000/svg" xmlns:xlink="http://www.w3.org/1999/xlink" x="0px" y="0px"
	 viewBox="0 0 296 296" style="enable-background:new 0 0 296 296;" xml:space="preserve">
<style type="text/css">
	.st0{fill:#F3F3F3;}
	.st1{fill:#FFFFFF;}
</style>
<g>
	<circle class="st0" cx="153.5" cy="153.5" r="140"/>
	<g>
		<g>
			<path d="M143.5,285.5c-29.7,0-58.3-9.2-82.7-26.5l1.2-1.6c24,17.1,52.2,26.1,81.5,26.1c77.2,0,140-62.8,140-140
				s-62.8-140-140-140s-140,62.8-140,140c0,39.2,16.6,76.9,45.7,103.5l-1.3,1.5C18.4,221.5,1.5,183.3,1.5,143.5
				c0-78.3,63.7-142,142-142c78.3,0,142,63.7,142,142C285.5,221.8,221.8,285.5,143.5,285.5z"/>
		</g>
		<g>
			<path d="M82,45.6c-3.3,1.6-6.3,3.7-9,6.1c-2.7,2.4-5.2,5.1-7.4,8c-4.4,5.8-7.8,12.3-10.1,19.2c-2.4,6.9-3.4,14.1-3.6,21.4
				c-0.1,3.6,0,7.3,0.3,10.9s0.7,7.2,1.4,10.8c0.6,3.6,1.4,7.1,2.3,10.6c1.1,3.5,2,7.1,2.6,10.7c1.4,7.2,2,14.7,0.8,22.2
				c-0.2,0.9-0.4,1.8-0.6,2.8l-0.8,2.7c-0.4,0.9-0.8,1.7-1.2,2.6c-0.4,0.9-0.8,1.6-1.2,2.4c-1.6,3.2-3,6.6-3.9,10.1
				s-1.5,7.1-1.1,10.6c0.1,0.9,0.3,1.8,0.6,2.6s0.8,1.5,1.3,2.3c1.1,1.4,2.4,2.7,3.8,3.8l-0.1,0.2c-1.6-1-3-2.2-4.2-3.6
				c-0.6-0.7-1.2-1.5-1.6-2.4c-0.4-0.9-0.6-1.8-0.8-2.7c-0.6-3.7-0.1-7.5,0.7-11.1s2.2-7.1,3.7-10.5c0.4-0.8,0.8-1.7,1.2-2.5
				c0.3-0.8,0.7-1.6,1-2.4l0.7-2.5c0.2-0.9,0.3-1.7,0.5-2.6c0.6-3.5,0.6-7.1,0.5-10.7c-0.2-3.6-0.6-7.2-1.2-10.8
				c-0.6-3.6-1.4-7.1-2.4-10.6c-0.9-3.6-1.6-7.2-2.2-10.8c-0.6-3.6-0.9-7.3-1.2-11c-0.2-3.7-0.3-7.4-0.1-11c0.3-7.3,1.5-14.7,4-21.7
				c2.5-6.9,6.1-13.5,10.6-19.2c2.3-2.9,4.8-5.5,7.6-7.9C75.7,49.2,78.7,47.1,82,45.6L82,45.6z"/>
		</g>
		<g>
			<path d="M75.5,165c-0.6,6.6-1.8,13.2-4.1,19.5c-1.2,3.1-2.6,6.2-4.4,9c-0.9,1.4-1.8,2.8-2.9,4.2c-1,1.3-2.1,2.6-3.2,3.9
				c-4.3,5.1-8.6,10.1-11.3,15.9c-1.4,2.9-2.2,6.1-2.3,9.2c0,1.6,0.2,3.2,1.1,4.5c0.8,1.3,2.2,2.2,3.8,2.5v0.2
				c-1.7,0.1-3.5-0.8-4.6-2.2s-1.6-3.2-1.7-4.9c-0.2-3.5,0.5-6.9,1.9-10.1c0.7-1.6,1.5-3.1,2.4-4.5s1.9-2.8,3-4.1
				c2.1-2.6,4.4-5.1,6.6-7.5c2.2-2.5,4.4-4.9,6.2-7.7c1.8-2.7,3.3-5.7,4.5-8.7C73,178.1,74.5,171.6,75.5,165L75.5,165z"/>
		</g>
		<g>
			<path d="M84.7,45.4c5-3.3,10.5-5.9,16-8.1c5.6-2.2,11.3-3.9,17.2-5.2c11.7-2.6,23.9-3.1,35.8-1.7c6,0.7,11.9,2,17.6,3.6
				c5.8,1.7,11.4,4,16.6,7.2c10.4,6.3,18.8,15.4,24.9,25.8c6.1,10.5,9.9,22.2,11.4,34.2c0.8,6,1,12,0.9,18.1c-0.1,3-0.2,6-0.4,9
				c-0.2,3-0.2,5.9-0.1,8.9c0.3,5.9,1.2,11.8,3,17.4c0.9,2.8,2,5.5,3.4,8.1s3,5.1,4.5,7.7c3,5.2,6,10.4,8.5,15.9
				c1.1,2.8,2.2,5.7,2.1,8.8c0,0.7-0.1,1.6-0.4,2.3c-0.3,0.7-0.7,1.4-1.3,1.9c-1.2,1-2.7,1.5-4.2,1.6v-0.2c1.4-0.2,2.9-0.7,4-1.7
				c0.5-0.5,0.9-1.1,1.1-1.8c0.2-0.7,0.2-1.4,0.2-2.1c0-2.9-1.2-5.7-2.4-8.4c-2.6-5.4-5.7-10.5-8.8-15.5c-1.6-2.6-3.2-5-4.7-7.7
				s-2.7-5.5-3.6-8.3c-1.9-5.8-3-11.8-3.4-17.8c-0.2-3-0.1-6.1,0-9.1c0.2-3,0.3-5.9,0.4-8.9c0.1-5.9,0-11.9-0.7-17.8
				c-1.3-11.8-5-23.3-10.8-33.6s-14.1-19.3-24.2-25.5c-5-3.1-10.5-5.5-16.2-7.2s-11.5-3-17.4-3.8c-11.8-1.5-23.9-1.1-35.6,1.3
				c-5.8,1.2-11.6,2.9-17.2,5c-5.6,2.1-11,4.7-16.1,7.9L84.7,45.4z"/>
		</g>
		<g>
			<path d="M211.4,158.7c0.1,3.8,0.3,7.6,1.1,11.4c0.7,3.7,1.9,7.4,3.7,10.7c0.9,1.6,2,3.1,3.3,4.5c1.3,1.3,2.8,2.5,4.4,3.5
				c3.2,2.1,6.5,3.9,9.8,5.9c1.7,1,3.3,2,4.9,3c1.6,1,3.2,2.1,4.8,3.3s3.1,2.5,4.4,3.9c1.3,1.5,2.5,3.1,3.4,5c0.8,1.9,1.2,4,1.1,6
				c-0.1,2.1-0.8,4-1.7,5.8c-1.8,3.5-4.3,6.5-7.2,9.1l-0.1-0.1c1.2-1.5,2.4-3,3.4-4.6s2-3.2,2.7-5c0.7-1.7,1.2-3.5,1.2-5.3
				c0.1-1.8-0.4-3.5-1.1-5.1c-0.7-1.6-1.8-3.1-3.1-4.4c-1.2-1.4-2.6-2.6-4.1-3.8s-3-2.3-4.6-3.3c-1.6-1.1-3.1-2.1-4.8-3.2
				c-3.2-2-6.5-4-9.7-6.2c-1.6-1.1-3.2-2.3-4.5-3.8s-2.4-3.1-3.3-4.8c-1.8-3.5-2.8-7.3-3.4-11.1c-0.6-3.8-0.7-7.7-0.7-11.5
				L211.4,158.7z"/>
		</g>
		<g>
			<path d="M213.3,191.9c0.4,2.5,1,5.1,1.7,7.5c0.8,2.4,1.7,4.8,3,7.1c1.2,2.2,2.6,4.4,4.3,6.2c1.7,1.9,3.7,3.3,5.8,4.9
				c4.2,3.1,8.4,6,12.3,9.5c1.9,1.8,3.8,3.6,5.3,5.9c0.4,0.6,0.7,1.2,0.8,2c0.1,0.7,0.2,1.3,0.2,2c0,1.3-0.2,2.7-1,3.9l-0.2-0.1
				c0.4-1.2,0.4-2.5,0.2-3.7c-0.1-0.6-0.3-1.2-0.4-1.8c-0.2-0.5-0.5-1-0.9-1.5c-0.7-1-1.6-1.9-2.6-2.7c-0.9-0.9-1.9-1.7-2.9-2.5
				c-3.9-3.2-7.9-6.5-11.9-9.7c-2-1.6-4.1-3.2-5.8-5.3c-1.7-2-3.1-4.3-4.2-6.6c-1.1-2.4-2-4.8-2.6-7.3c-0.7-2.5-1.1-5.1-1.4-7.6
				L213.3,191.9z"/>
		</g>
		<g>
			<path d="M89.1,59.6c-1.6,3.6-3.3,7.1-5.2,10.5c-1.9,3.4-4,6.7-6.6,9.8c-2.7,3-5.5,5.6-8.6,8.1c-3.1,2.4-6.3,4.7-9.7,6.6l-0.1-0.2
				c2.7-2.8,5.6-5.4,8.5-8c1.4-1.3,2.9-2.5,4.4-3.8c1.5-1.2,3-2.5,4.3-3.8c2.6-2.8,4.8-6,6.9-9.2c2.1-3.3,4.1-6.6,5.9-10H89.1z"/>
		</g>
		<g>
			<path d="M87.5,62.7c1.1,3.2,2.7,6.1,4.7,8.8c1,1.3,2.1,2.6,3.3,3.8c1.2,1.1,2.5,2.2,4,3c5.8,3.4,12.1,5.9,18.4,8.1
				c6.4,2.2,12.8,4,19.4,5.5c3.3,0.8,6.5,1.5,9.8,2.2c3.3,0.8,6.6,1.6,9.8,2.6c6.5,2,12.8,4.4,19,7.3c3,1.5,6,3.1,8.9,4.9
				c1.4,0.9,2.9,1.8,4.3,2.8c1.4,1,2.8,2.1,4,3.2c2.5,2.3,4.8,5,6.6,8s2.9,6.4,3.2,9.8c0.4,3.4,0.1,6.9-0.4,10.2
				c-0.6,3.3-1.3,6.6-2.1,9.9h-0.2c0.5-3.3,1.1-6.6,1.4-10c0.3-3.3,0.4-6.7-0.1-9.9c-0.5-3.3-1.6-6.4-3.3-9.1
				c-1.8-2.8-4-5.2-6.4-7.4c-1.2-1.1-2.5-2.1-3.9-3s-2.8-1.9-4.2-2.7c-2.8-1.8-5.7-3.4-8.7-4.9c-6-3-12.2-5.5-18.6-7.6
				c-3.2-1-6.4-1.9-9.7-2.7c-3.2-0.8-6.6-1.6-9.8-2.4c-6.5-1.7-13-3.6-19.4-5.9c-6.3-2.3-12.6-5-18.4-8.5c-1.5-0.9-2.7-2-4-3.2
				c-1.2-1.2-2.3-2.5-3.3-3.9c-1.9-2.8-3.5-5.8-4.6-9L87.5,62.7z"/>
		</g>
		<g>
			<path d="M189.5,85.8c2.7,2.2,4.7,4.9,6.5,7.8s3.1,6.1,4.2,9.3c2.3,6.5,2.9,13.4,3.7,20.1c0.7,6.7,1.3,13.6,0.7,20.4
				s-2.2,13.6-5,19.8l-0.2-0.1c0.4-1.7,0.9-3.3,1.2-4.9c0.4-1.6,0.7-3.3,1-4.9c0.5-3.3,0.9-6.6,1.1-10c0.4-6.7,0.2-13.4-0.3-20.1
				c-0.6-6.7-1-13.5-3-19.9c-0.9-3.2-2.2-6.4-3.8-9.3s-3.6-5.8-6.1-8L189.5,85.8z"/>
		</g>
		<g>
			<path d="M199.6,102.5c1.1-1.7,2.5-3.2,4-4.5c1.5-1.4,3.2-2.5,5.3-3.1c1-0.3,2.1-0.4,3.2-0.3c1.1,0.2,2.1,0.5,3,1.2
				c0.9,0.6,1.6,1.6,2,2.6c0.4,1.1,0.5,2.2,0.5,3.2c0,2.2-0.6,4.2-1.3,6.1s-1.8,3.8-3.1,5.4c-2.6,3.3-5.8,5.8-9.2,7.9l-0.1-0.2
				c2.7-3,5.6-5.8,7.7-9c0.6-0.8,1.1-1.6,1.5-2.4c0.5-0.8,0.9-1.7,1.3-2.6c0.8-1.7,1.4-3.6,1.5-5.5c0.1-0.9,0-1.8-0.3-2.7
				c-0.3-0.8-0.8-1.6-1.5-2.1c-0.3-0.3-0.7-0.5-1.1-0.7c-0.4-0.2-0.9-0.3-1.3-0.4c-0.9-0.1-1.8-0.2-2.7,0.1
				c-1.8,0.4-3.6,1.4-5.1,2.6s-3,2.6-4.2,4.2L199.6,102.5z"/>
		</g>
		<g>
			<path d="M64.7,90c0.9,3.1,1.5,6.2,1.9,9.3c0.4,3.2,0.6,6.4,0.3,9.5c-0.1,0.8-0.2,1.6-0.4,2.4c-0.2,0.8-0.4,1.6-0.6,2.3
				c-0.5,1.5-0.9,3-1.2,4.6c-0.7,3.1-1.3,6.2-1.4,9.3c-0.1,3.1,0.2,6.3,1.4,9.1c1.4,2.7,3.2,5.4,5.2,7.7c4,4.8,9.3,8.4,14.8,11.2
				c5.6,2.8,11.6,4.6,17.8,6.1c1.5,0.4,3.1,0.7,4.6,1s3.1,0.6,4.6,0.8c1.6,0.2,3.1,0.5,4.7,0.6l2.3,0.3l2.3,0.2
				c6.3,0.5,12.5,0,18.7-1c3.1-0.6,6.2-1.2,9.2-2.1c3.1-0.8,6.1-1.8,9.1-2.8l0.1,0.2c-2.9,1.3-5.9,2.4-8.9,3.5c-3,1-6.1,1.8-9.2,2.6
				c-1.6,0.3-3.1,0.7-4.7,0.9l-2.4,0.3l-2.4,0.2c-1.6,0.2-3.2,0.2-4.8,0.3c-1.6,0-3.2,0-4.8-0.1l-2.4-0.1l-2.4-0.2
				c-1.6-0.1-3.2-0.4-4.8-0.6c-1.6-0.3-3.1-0.6-4.7-0.9c-1.6-0.4-3.1-0.7-4.7-1.1c-6.2-1.6-12.3-3.6-18-6.6s-11-6.8-15.1-11.8
				c-2-2.5-3.8-5.1-5.3-8.1c-1.3-3-1.6-6.4-1.4-9.6c0.2-3.2,0.9-6.4,1.7-9.4c0.4-1.5,0.9-3.1,1.3-4.6c0.5-1.5,0.9-3,1.1-4.6
				c0.4-3.1,0.3-6.3-0.1-9.4s-0.9-6.3-1.7-9.3L64.7,90z"/>
		</g>
		<g>
			<path d="M89.6,94c-1.7,0-3.2,0.4-4.8,0.6c-1.6,0.3-3.2,0.4-4.7,0.9c-1.6,0.5-3.1,1.1-4.6,1.7s-3,1.4-4.5,2.1l-0.1-0.2
				c1.3-1,2.8-2,4.2-2.8c1.5-0.9,3-1.7,4.6-2.3c0.8-0.3,1.6-0.7,2.5-0.9c0.9-0.3,1.7-0.4,2.6-0.4s1.8,0,2.6,0.2
				c0.9,0.2,1.8,0.4,2.5,1L89.6,94z"/>
		</g>
		<g>
			<path d="M97,109.2c-0.9-0.9-1.7-1.9-2.8-2.5c-0.5-0.3-1.1-0.5-1.6-0.5s-1.1,0.3-1.6,0.5c-2.2,1-4.2,2.7-6.6,3.8
				c-1.2,0.6-2.4,1.1-3.7,1.4c-1.3,0.4-2.6,0.6-3.9,0.6s-2.6-0.1-3.9-0.4c-0.6-0.1-1.3-0.3-1.9-0.5s-1.2-0.5-1.8-0.7v-0.2
				c2.5,0,5.1,0,7.5-0.3s4.8-0.6,7.1-1.5c2.3-0.8,4.4-2.4,6.9-3.3c0.6-0.2,1.2-0.4,2-0.4s1.4,0.4,1.9,0.7c1.1,0.8,1.9,1.8,2.6,2.9
				L97,109.2z"/>
		</g>
		<ellipse cx="90.3" cy="114.3" rx="4" ry="7.7"/>
		<ellipse cx="128.4" cy="113" rx="4" ry="8.3"/>
		<g>
			<path d="M122.2,107.8c0.9-1.2,1.9-2.2,3.3-2.9c0.7-0.3,1.4-0.6,2.2-0.6c0.8,0,1.5,0.2,2.2,0.3c2.8,0.6,5.6,1.4,8.3,2
				c2.8,0.6,5.6,0.9,8.3,1.1c1.4,0.1,2.8,0.2,4.2,0.3c1.4,0,2.8,0.1,4.1-0.2l0.1,0.2c-0.6,0.5-1.3,0.7-2,1c-0.7,0.2-1.4,0.4-2.2,0.5
				c-1.5,0.2-2.9,0.3-4.4,0.3c-3,0-5.8-0.8-8.6-1.6c-2.8-0.8-5.5-1.7-8.2-2.5c-0.7-0.2-1.4-0.4-2-0.5c-0.6,0-1.3,0.1-1.9,0.4
				c-1.3,0.5-2.4,1.4-3.4,2.5L122.2,107.8z"/>
		</g>
		<g>
			<path d="M102.1,127.7c0.2-0.7,0.7-1.2,1.3-1.7c0.6-0.4,1.3-0.7,2.1-0.8c0.7-0.1,1.5-0.3,2.3,0c0.7,0.3,1.5,1.1,1.4,2l-0.2,0.1
				c-0.8-0.2-1.2-0.1-1.8-0.2c-0.5,0-1-0.3-1.6-0.3s-1.1,0-1.7,0.1s-1.1,0.4-1.6,0.9L102.1,127.7z"/>
		</g>
		<g>
			<path d="M110.4,145.7c1.1,0.6,2.3,0.9,3.4,1.1c1.2,0.2,2.4,0.2,3.6,0.1c1.2-0.1,2.3-0.5,3.4-0.7s2.3-0.4,3.5-0.8l0.1,0.1
				c-0.7,1.3-1.9,2-3.1,2.5c-1.3,0.5-2.7,0.4-3.9,0.4c-1.3-0.1-2.6-0.3-3.8-0.7c-1.2-0.4-2.4-1-3.3-1.9L110.4,145.7z"/>
		</g>
		<g>
			<path d="M172.6,175.9c-1.1-1.6-1.5-3.9-0.7-5.8c0.4-0.9,1-1.8,1.7-2.5s1.4-1.4,2.2-2c2.9-2.6,6-5,9.2-7.4l-0.1,0.1
				c2-2,4-4.1,5.6-6.4c0.8-1.2,1.5-2.4,1.7-3.6c0.2-1.2,0.2-2.7,0.2-4.1c-0.1-2.8-0.4-5.7-0.8-8.5c-0.1-0.7-0.2-1.4-0.4-2.1
				c-0.1-0.7-0.3-1.4-0.5-2c-0.2-0.5-0.7-0.8-1.3-0.7s-1.3,0.4-1.9,0.7l-0.1-0.2c0.5-0.5,1.2-1,1.9-1.2c0.4-0.1,0.8-0.2,1.3,0
				c0.4,0.1,0.8,0.5,1.1,0.9c0.4,0.7,0.7,1.4,0.9,2.1c0.2,0.7,0.4,1.4,0.6,2.1c0.7,2.9,1.2,5.7,1.4,8.7c0.1,1.5,0.1,3-0.3,4.6
				c-0.4,1.7-1.3,2.9-2.2,4.1c-1.8,2.4-3.9,4.5-6.1,6.4l0,0l0,0c-3.2,2.2-6.4,4.5-9.4,6.9c-1.5,1.2-3.1,2.4-3.9,4.1
				c-0.8,1.7-0.6,3.8,0.4,5.5L172.6,175.9z"/>
		</g>
		<g>
			<path d="M184.3,150.8c1.2-1.8,2.6-3.6,3.5-5.6c0.5-1,0.8-2,0.9-3c0.1-1-0.1-2-0.4-3c-0.6-2-1.7-3.9-2.7-5.7
				c-0.2-0.5-0.5-0.9-0.8-1.3c-0.1-0.2-0.3-0.3-0.7-0.4c-0.8,0-1.9,0.5-2.5,1.3h-0.2c0-0.7,0.4-1.2,0.8-1.6c0.4-0.4,1-0.8,1.7-1
				s1.7-0.1,2.3,0.6c0.4,0.4,0.8,0.9,1.2,1.4c1.4,1.9,2.1,4.1,2.6,6.4c0.2,1.1,0.4,2.4,0.1,3.6c-0.2,1.2-0.7,2.3-1.3,3.3
				c-1.2,2-2.8,3.6-4.2,5.2L184.3,150.8z"/>
		</g>
		<g>
			<path d="M180.1,152.9c1.8-2.1,3.1-4.6,3.6-7.2c0.2-1.3,0.2-2.6-0.1-3.9c-0.2-1.3-0.6-2.6-1.1-3.8s-1.2-2.4-2-3.3
				c-0.8-0.9-1.8-1.7-2.7-1.9c-0.5-0.2-1-0.1-1.6,0s-1.1,0.4-1.7,0.7c-1.1,0.6-2,1.6-2.7,2.8l-0.2-0.1c0.2-1.4,0.9-2.8,2-3.9
				c0.6-0.5,1.3-1,2-1.2c0.4-0.1,0.7-0.3,1.2-0.3l0.7-0.1l0.7,0.1c1.8,0.3,3.1,1.5,3.9,2.7c0.9,1.3,1.5,2.6,1.9,4
				c0.5,1.4,0.8,2.8,0.9,4.2c0.2,1.4,0.1,2.9-0.2,4.3c-0.8,2.8-2.4,5.2-4.4,7.1L180.1,152.9z"/>
		</g>
		<g>
			<path d="M175.9,151.5c1.1-1.8,2.2-3.8,2.9-5.8c0.4-1,0.7-2.1,0.6-3.1c0-1-0.5-2-1.2-2.8c-1.4-1.6-3.6-2.2-5.6-2.1
				c-2.1,0.1-4.2,0.9-5.9,2c-0.9,0.6-1.6,1.3-2.1,2.1c-0.3,0.4-0.5,0.9-0.6,1.3c-0.1,0.2-0.1,0.5-0.1,0.7c0,0.1,0,0.1,0,0.2v0.1
				c0,0,0,0.1-0.1-0.2c-0.2-0.2-0.1-0.1-0.1-0.2h0.1c0.9,0.2,2,0.2,3.1,0.2s2.1-0.1,3.2-0.2c0.5,0,1.1-0.2,1.8-0.1
				c0.2,0,0.3,0.1,0.5,0.1s0.3,0.1,0.5,0.2c0.1,0.1,0.2,0.1,0.3,0.2c0.1,0.1,0.1,0.2,0.2,0.2c0.2,0.2,0.2,0.4,0.3,0.6
				c0.2,0.8,0,1.5-0.2,2.1s-0.6,1.1-0.9,1.5c-1.4,1.9-3,3.3-4.8,4.7c-1.7,1.4-3.5,2.7-5.3,3.9s-3.8,2.3-5.7,3.4
				c-0.9,0.5-1.9,1.1-2.8,1.6l-2.8,1.7c-1.8,1.1-3.6,2.3-4.7,3.9c-0.6,0.8-0.9,1.6-0.9,2.5c0,0.2,0,0.4,0,0.7c0,0.2,0.1,0.4,0.1,0.6
				c0.2,0.4,0.4,0.9,0.7,1.3c1.1,1.8,2.5,3.4,3.9,5.1c0.7,0.9,1.4,1.7,2,2.6c0.6,1,1.1,1.9,1.7,2.8c1.1,1.9,2.2,3.8,3.2,5.7
				l-0.2,0.1c-1.3-1.8-2.5-3.5-3.8-5.3c-0.6-0.9-1.2-1.8-1.8-2.6c-0.7-0.8-1.4-1.6-2.1-2.4c-1.5-1.6-2.9-3.2-4.3-5.1
				c-0.3-0.5-0.6-1-0.9-1.6c-0.1-0.3-0.2-0.7-0.3-1c0-0.3-0.1-0.6-0.1-1c0-1.3,0.5-2.6,1.1-3.6c1.4-2,3.4-3.3,5.2-4.5l2.8-1.7
				c0.9-0.6,1.9-1.1,2.9-1.6c1.9-1,3.8-2,5.7-3.1c1.8-1.1,3.6-2.3,5.3-3.6s3.3-2.7,4.6-4.3c0.3-0.4,0.6-0.8,0.8-1.2s0.3-0.9,0.2-1.1
				c0-0.2-0.3-0.4-0.7-0.4c-0.4-0.1-0.9,0-1.5,0c-1.1,0.1-2.2,0.1-3.3,0.1s-2.2,0-3.4-0.3c-0.1,0-0.2-0.1-0.3-0.1
				c-0.1-0.1-0.2,0-0.5-0.4c-0.1-0.4-0.1-0.3-0.1-0.4v-0.1c0-0.1,0-0.2,0-0.2c0-0.3,0.1-0.6,0.2-0.9c0.2-0.6,0.4-1.1,0.8-1.6
				c0.6-1,1.5-1.8,2.5-2.4c1-0.6,2-1.1,3.1-1.4c1.1-0.3,2.2-0.6,3.3-0.6c2.2-0.1,4.6,0.7,6.1,2.5c0.7,0.9,1.2,2,1.2,3.2
				s-0.4,2.2-0.8,3.2c-0.8,2-1.9,3.9-3.1,5.8L175.9,151.5z"/>
		</g>
		<g>
			<path d="M183,187.1c0.4-0.2,0.8-0.5,0.9-1c0.2-0.4,0.2-0.9,0.1-1.4c-0.1-1-0.3-1.9-0.6-2.9c-0.5-1.9-1.1-3.7-2.1-5.3
				c-0.5-0.8-1.2-1.5-2-1.8s-1.7,0.1-2.6,0.5c-1.7,0.8-3.3,2-4.8,3.2c-3,2.4-5.8,5.1-8.5,7.9c-2.6,2.8-5.1,5.8-6.9,9.1
				c-0.4,0.8-0.8,1.7-1,2.5s-0.3,1.8-0.2,2.7s0.2,1.7,0.5,2.5s0.8,1.5,1.4,2.2c0.6,0.6,1.3,1.2,2,1.6l0.1,0.1h0.1l0,0l0,0
				c0,0-0.4-0.2-0.6-0.1c-0.3,0.1-0.2,0.1-0.2,0.1l0,0l0,0l0,0l0.1-0.1l0.5-0.5l1-1l4.2-4c2.8-2.7,5.8-5.2,8.9-7.6
				c1.5-1.2,3.1-2.4,4.7-3.5C179.7,189.1,181.3,188,183,187.1z M183.1,187.3c-1.7,0.9-3.2,2.1-4.7,3.3c-1.5,1.3-2.9,2.6-4.3,4
				l-8.2,8.2l-4.2,4.1c-0.3,0.3-0.7,0.7-1.1,1l-0.6,0.5l-0.2,0.1l-0.1,0.1l-0.1,0.1h-0.1c-0.1,0,0,0-0.3,0.1c-0.2,0.1-0.6,0-0.7-0.1
				l0,0l0,0h-0.1l-0.2-0.1c-1-0.5-1.8-1.2-2.5-2s-1.3-1.8-1.6-2.8c-0.4-1-0.5-2.1-0.5-3.2c0-1.1,0.1-2.1,0.4-3.1
				c0.3-1.1,0.8-2,1.2-2.9c2-3.5,4.7-6.4,7.4-9.2s5.7-5.4,8.8-7.8c1.6-1.1,3.2-2.3,5.1-3.1c0.5-0.2,0.9-0.4,1.5-0.5
				c0.3-0.1,0.5-0.1,0.8-0.1c0.3,0.1,0.5,0.1,0.8,0.2c1,0.4,1.7,1.3,2.2,2.1c1,1.7,1.5,3.6,1.9,5.5c0.2,0.9,0.4,1.9,0.5,2.9
				c0.1,0.5,0.1,1-0.1,1.5C184,186.7,183.6,187.1,183.1,187.3z"/>
		</g>
		<g>
			<path d="M184.1,186.4l4.6,7.9c1.5,2.6,3.1,5.3,4.6,7.9c0.8,1.3,1.6,2.6,2.4,3.8c0.8,1.2,1.7,2.4,2.6,3.6c1.8,2.4,3.7,4.8,5.5,7.3
				l-0.1,0.1c-2.6-1.8-4.8-3.9-6.9-6.2c-1-1.2-2-2.4-2.8-3.8c-0.8-1.4-1.5-2.7-2.2-4.1c-1.4-2.7-2.8-5.5-4.1-8.2l-3.9-8.3H184.1z"/>
		</g>
		<g>
			<path d="M160.4,206.9c2.8,6.7,6.2,13.2,10.2,19.3c2,3,4.2,5.9,6.7,8.6c2.5,2.7,5.3,4.8,8.3,7c2.9,2.2,5.9,4.2,9.2,5.8
				c3.2,1.6,6.7,2.6,10.3,2.7c1.8,0,3.5-0.2,5.3-0.6l1.3-0.3l1.3-0.5l0.6-0.2c0.2-0.1,0.5-0.2,0.5-0.2c0.2-0.1,0.5-0.4,0.7-0.8
				c0.8-1.4,1.3-3.2,1.6-4.9c0.4-1.7,0.6-3.5,0.7-5.3c0.1-1.8,0.2-3.6,0-5.4c-0.1-1.8-0.4-3.5-0.9-5.1c-1.3-3.4-2.7-6.7-4.1-10.1
				c-1.4-3.4-2.9-6.7-4.4-10s-3.1-6.6-4.8-9.8c-3.5-6.3-7.6-12.4-11.9-18.2c-1.1-1.5-2.2-2.9-3.4-4.2c-0.6-0.6-1.2-1.3-1.9-1.8
				c-0.7-0.4-1.6-0.7-2.4-1c-3.5-1-7.1-1.2-10.7-2.1v-0.2c3.6,0.6,7.3,0.6,10.9,1.4c0.9,0.2,1.8,0.5,2.7,0.9
				c0.9,0.5,1.5,1.2,2.2,1.9c1.3,1.3,2.5,2.7,3.7,4.2c2.3,2.8,4.5,5.8,6.6,8.8s4.1,6.1,6,9.3c3.6,6.5,6.5,13.2,9.3,19.9
				c1.4,3.4,2.7,6.8,4,10.2c0.7,1.9,0.9,3.8,0.9,5.6c0.1,1.9,0,3.7-0.1,5.6c-0.2,1.8-0.4,3.7-0.8,5.5c-0.4,1.8-0.9,3.6-1.9,5.4
				c-0.3,0.4-0.6,0.9-1.2,1.2c-0.3,0.2-0.5,0.2-0.7,0.3l-0.7,0.2l-1.3,0.5l-1.4,0.3c-1.8,0.5-3.7,0.6-5.6,0.6
				c-3.8-0.2-7.4-1.3-10.7-2.9c-3.3-1.7-6.4-3.8-9.3-6c-2.9-2.2-5.8-4.5-8.3-7.3c-2.4-2.7-4.6-5.7-6.6-8.8
				c-3.9-6.2-7.2-12.8-9.9-19.6L160.4,206.9z"/>
		</g>
		<g>
			<path d="M112.4,164.5c-0.1,0.8-0.4,1.7-0.6,2.5c-0.3,0.8-0.6,1.6-1.1,2.4c-0.4,0.7-0.8,1.6-1.7,2.1c-0.8,0.5-1.8,0.8-2.8,0.5
				l-0.1-0.2c0.6-0.8,1.1-1.3,1.5-1.8c0.5-0.6,1.1-1,1.7-1.5c0.5-0.6,1-1.2,1.5-1.9s0.9-1.4,1.3-2.1H112.4z"/>
		</g>
		<g>
			<path d="M122.6,192c0.2-0.3,0.2-0.7,0-1s-0.5-0.5-0.8-0.8l-1.8-1.4c-1.2-1-2.4-1.9-3.6-3c-1.2-1-2.3-2.1-3.3-3.3s-2-2.5-2.8-3.7
				c-1.7-2.6-3.4-5.2-5.2-7.6c-0.2-0.3-0.5-0.6-0.7-0.8l-0.1-0.1h0.1c0.1,0,0,0,0,0.1c-0.3,0.4-0.6,1.1-0.8,1.8
				c-0.2,0.7-0.4,1.4-0.5,2.1c-0.1,0.7-0.2,1.4,0.1,1.9c1.1,2.9,2.2,5.7,3.5,8.5c0.6,1.4,1.3,2.7,2.1,4c0.4,0.6,0.8,1.3,1.2,1.9
				l1.2,2c0.8,1.3,1.5,2.7,2.3,4c0.2,0.3,0.4,0.6,0.6,0.9l0.3,0.4c0.1,0.1,0.3,0.3,0.2,0.3c0,0.1,0.3,0.1,0.6,0.1
				c0.3-0.1,0.6-0.2,1-0.3c1.3-0.6,2.6-1.6,3.7-2.6C120.8,194.5,121.8,193.4,122.6,192z M122.8,192.1c-0.7,1.4-1.7,2.6-2.7,3.8
				s-2.1,2.3-3.5,3.2c-0.4,0.2-0.7,0.4-1.2,0.6c-0.4,0.1-1,0.3-1.7-0.1c-0.3-0.2-0.4-0.4-0.6-0.5l-0.4-0.5c-0.3-0.3-0.5-0.6-0.8-0.9
				c-1-1.3-1.8-2.6-2.6-3.9l-1.2-1.9c-0.4-0.6-0.8-1.3-1.3-2c-0.8-1.4-1.5-2.8-2.1-4.3c-1.2-2.9-2.3-5.8-3.3-8.8l-0.1-0.3
				c0-0.2-0.1-0.3-0.1-0.4c0-0.2,0-0.5,0-0.7c0-0.4,0.1-0.9,0.1-1.3c0.1-0.8,0.3-1.6,0.6-2.4c0.3-0.8,0.5-1.5,1.2-2.3
				c0.2-0.2,0.4-0.4,0.9-0.5c0.2,0,0.5,0.1,0.7,0.2c0.2,0.1,0.2,0.2,0.3,0.3c0.3,0.3,0.6,0.6,0.8,1c1.9,2.6,3.3,5.3,5,7.9
				c1.6,2.7,3.4,5.1,5.6,7.3c1.1,1.1,2.2,2.1,3.4,3.1c0.6,0.5,1.2,1,1.8,1.5c0.3,0.3,0.7,0.4,0.9,0.8
				C122.9,191.3,122.9,191.7,122.8,192.1z"/>
		</g>
		<g>
			<path d="M145.9,173.5c-2.6,3.9-5.1,7.8-8.3,11.4c-1.6,1.8-3.2,3.4-4.8,5.2l-0.6,0.7l-0.3,0.3c0,0,0,0,0-0.1v-0.1l0,0l0.1,0.1
				l0.2,0.1l0.7,0.5l3,1.9l0.7,0.5c0.2,0.1,0.6,0.4,0.8,0.6c0.5,0.4,0.9,0.8,1.3,1.3l1.2,1.3l0.3,0.3l0.1,0.2l-0.1-0.1
				c-0.1,0-0.1-0.1-0.2-0.1c-0.3,0-0.3,0.1-0.3,0c0,0,0.1-0.1,0.2-0.2c0.7-0.7,1.3-1.7,2-2.6c0.6-0.9,1.3-1.9,1.9-2.9
				c2.4-4,5.2-7.8,6.6-12.2h0.2c-0.1,2.4-0.9,4.7-1.9,6.9s-2.1,4.2-3.2,6.3c-0.6,1-1.2,2-1.9,3s-1.3,2-2.4,2.9
				c-0.1,0.1-0.3,0.2-0.5,0.4c-0.2,0.1-0.5,0.3-1.1,0.2c-0.2,0-0.3-0.1-0.4-0.2c-0.1-0.1-0.3-0.2-0.3-0.3l-0.1-0.2l-0.3-0.3
				l-1.1-1.3c-0.4-0.4-0.7-0.8-1.1-1.2c-0.2-0.2-0.3-0.3-0.6-0.5l-0.7-0.5l-2.9-2l-0.7-0.5l-0.2-0.1l-0.1-0.1c0,0-0.1-0.1-0.2-0.1
				c-0.2-0.2-0.4-0.5-0.4-0.9c0-0.3,0.1-0.7,0.3-0.9l0.3-0.3l0.6-0.6c1.6-1.7,3.4-3.3,5-4.9c3.2-3.3,6-7.1,8.8-10.9L145.9,173.5z"/>
		</g>
		<g>
			<path d="M131.5,192.3c0,1.2-0.2,2.5-0.7,3.6s-1.3,2.2-2.4,3c-0.3,0.2-0.6,0.4-0.9,0.5s-0.6,0.3-0.9,0.4c-0.6,0.2-1.1,0.4-1.6,0.7
				c-1,0.5-2,1.2-2.6,2c-0.1,0.2-0.3,0.4-0.3,0.6l0,0c0,0.1,0-0.2,0-0.1v0.2v0.5l0.1,1.8c0.1,1.2,0.1,2.4,0.1,3.6
				c-0.1,2.4-0.3,4.8-0.5,7.2l-0.2,0.1c-0.5-1.2-0.7-2.4-0.9-3.6c-0.2-1.2-0.3-2.4-0.4-3.6c-0.1-1.2-0.1-2.4,0-3.6l0.1-1.8v-0.5
				v-0.2c0,0,0-0.3,0.1-0.3c0-0.1,0-0.1,0.1-0.2c0.2-0.4,0.4-0.7,0.6-1c1-1.1,2.1-1.7,3.3-2.1c0.6-0.2,1.2-0.4,1.8-0.6
				c0.3-0.1,0.5-0.2,0.8-0.3s0.5-0.2,0.8-0.4c1-0.5,1.8-1.4,2.3-2.4s0.9-2.2,1.1-3.4L131.5,192.3z"/>
		</g>
		<g>
			<path d="M122.9,192.7c0.3,0.6,0.5,1.2,0.8,1.8s0.6,1.1,1,1.6s0.9,0.8,1.1,1.3c0.3,0.5,0.5,1,0.8,1.7l-0.1,0.2
				c-0.8,0.2-1.7-0.1-2.3-0.6c-0.6-0.5-0.8-1.3-1-1.9c-0.2-0.7-0.4-1.3-0.5-2s-0.1-1.3-0.1-2L122.9,192.7z"/>
		</g>
		<g>
			<path d="M102.1,175.5c-0.4,0.3-0.8,0.6-1.2,1c-0.4,0.3-0.8,0.6-1.2,0.9c-0.4,0.3-0.7,0.7-1.2,0.8s-1,0.1-1.6,0h-0.2
				c-0.1-0.5,0.1-0.8,0.3-1.1c0.2-0.3,0.3-0.5,0.5-0.7c0.4-0.4,1-0.4,1.5-0.5s1-0.3,1.5-0.4c0.5-0.1,1-0.2,1.5-0.2L102.1,175.5z"/>
		</g>
		<g>
			<path d="M154.6,199.2c-4.1,4.4-8.4,8.5-13.2,12.1c-2.4,1.8-5,3.4-7.7,4.7c-1.4,0.6-2.9,1.1-4.4,1.3c-0.4,0-0.8,0.1-1.2,0.1
				c-0.4,0-0.8,0-1.2,0c-0.8-0.1-1.5-0.2-2.3-0.4c-3-0.7-5.7-2.2-8.2-4s-4.7-3.9-6.7-6.1c-2-2.2-3.9-4.6-5.5-7.2
				c-0.8-1.3-1.6-2.6-2.2-4c-0.7-1.3-1.3-2.7-1.9-4.1c-0.6-1.4-1.2-2.8-1.8-4.2l-0.8-2.1c-0.1-0.3-0.3-0.7-0.4-1s-0.3-0.7-0.5-1.1
				c-0.6-1.5-1-2.9-1.4-4.3c-0.1-0.4-0.2-0.7-0.3-1c-0.1-0.2-0.1-0.3-0.2-0.4c0-0.1-0.1-0.1-0.1-0.1l0,0l0,0l0.1,0.1
				c0.1,0,0,0,0.2,0.1c0.1,0,0.3,0.1,0.4,0.1s0,0,0,0s-0.2,0.1-0.4,0.1l-0.5,0.2c-0.3,0.1-0.6,0.3-0.9,0.5c-0.6,0.3-1.2,0.7-1.5,1.1
				c-0.1,0.1-0.1,0.2-0.1,0.2l0,0c0-0.1,0,0.1,0,0.1c0,0.2,0.1,0.5,0.2,0.8c0.2,0.6,0.6,1.3,0.8,2.1c0.3,0.7,0.5,1.4,0.7,2.2
				c1,2.9,1.4,6,1.6,9.1c0.1,3,0,6.1-0.1,9.1c-0.2,3-0.5,6.1-1.2,9c-0.7,3-1.7,5.9-3,8.6c-1.3,2.7-2.7,5.3-3.9,8.1l-0.2-0.1
				c0.9-2.9,2.2-5.6,3.3-8.4c1.2-2.7,2-5.6,2.5-8.5s0.8-5.8,0.8-8.8c0.1-3,0.1-6-0.1-8.9s-0.7-5.8-1.6-8.6l-0.7-2.1
				c-0.2-0.7-0.5-1.3-0.8-2.1c-0.1-0.4-0.2-0.8-0.3-1.3c0-0.1,0-0.2,0-0.4s0.1-0.4,0.1-0.6c0.1-0.3,0.3-0.5,0.5-0.8
				c0.7-0.7,1.4-1.1,2.1-1.5c0.4-0.2,0.7-0.3,1.1-0.5l0.6-0.2c0.2-0.1,0.3-0.1,0.7-0.2c0.1,0,0.1,0,0.2,0s0.3,0,0.5,0.1
				s0.2,0.1,0.2,0.1c0.1,0,0.1,0.1,0.2,0.1l0.1,0.1c0,0.1,0.1,0.1,0.1,0.2c0.1,0.2,0.1,0.3,0.2,0.4c0.1,0.2,0.2,0.4,0.2,0.6
				c0.1,0.4,0.2,0.7,0.3,1.1c0.4,1.5,0.8,2.9,1.2,4.2c0.1,0.4,0.2,0.6,0.4,1c0.2,0.4,0.3,0.7,0.4,1.1l0.8,2.1
				c0.5,1.4,1.1,2.8,1.6,4.1c0.6,1.4,1.2,2.7,1.8,4.1c0.6,1.3,1.3,2.6,2.1,3.9c1.5,2.5,3.3,4.9,5.3,7.1c2,2.2,4.1,4.3,6.4,6
				c2.4,1.7,5,3.2,7.8,3.9c1.4,0.3,2.8,0.6,4.3,0.4c1.4-0.2,2.8-0.6,4.2-1.2c2.7-1.1,5.3-2.7,7.7-4.4c4.8-3.5,9.3-7.5,13.4-11.8
				L154.6,199.2z"/>
		</g>
		<g>
			<path d="M91.2,181.3c-3,1.3-6,2.6-8.9,4.1c-0.7,0.4-1.2,1-1.8,1.5c-0.6,0.6-1.1,1.2-1.6,1.8c-1.1,1.2-2.1,2.5-3.1,3.8
				c-3.9,5.2-7.3,10.8-10.3,16.6s-5.5,11.8-8.1,17.8c-2.5,6-5,12.1-7,18.2l-0.8,2.3c-0.3,0.8-0.5,1.5-0.6,2.2s-0.1,1.4,0.1,1.9
				c0,0.1,0.1,0.2,0.2,0.3l0.4,0.4c0.3,0.2,0.5,0.5,0.9,0.7c2.5,1.7,5.8,2.4,8.8,3.4c6.2,1.7,12.7,2.6,19.1,3.5
				c6.4,1,12.9,1.6,19.3,1.4c6.5-0.2,12.9-1.5,19.1-3.3l0.1,0.2c-3.1,1.2-6.2,2.2-9.4,3c-3.2,0.8-6.5,1.3-9.7,1.6
				c-6.6,0.6-13.2,0-19.7-0.8c-3.3-0.4-6.5-0.9-9.7-1.4c-3.2-0.6-6.5-1.3-9.7-2.2c-1.6-0.5-3.1-1-4.7-1.5c-1.6-0.6-3.2-1.2-4.6-2.3
				c-0.4-0.3-0.7-0.6-1-0.9L48,253c-0.2-0.2-0.3-0.5-0.4-0.7c-0.5-1-0.4-2.1-0.2-2.9c0.2-0.9,0.4-1.7,0.7-2.5l0.8-2.3
				c2.1-6.2,4.7-12.3,7.3-18.2c2.7-6,5.2-12,8.4-17.8c3.1-5.8,6.7-11.3,10.7-16.5c1-1.3,2.1-2.6,3.2-3.8c0.5-0.6,1.1-1.2,1.7-1.8
				s1.2-1.2,1.9-1.6c2.9-1.5,6-2.7,9-3.9L91.2,181.3z"/>
		</g>
		<g>
			<path d="M115.3,231.4l-10.3,0.7c-3.4,0.1-6.9-0.1-10.3-0.4c-1.7-0.2-3.4-0.3-5.1-0.6c-1.7-0.2-3.3-0.5-4.9-0.5
				c-1.6-0.1-3.2,0.3-4.8,0.7c-1.6,0.4-3.2,1-4.8,1.6l-0.1-0.2c1.4-1.1,2.8-2,4.4-2.7s3.3-1.3,5.2-1.4c1.8-0.1,3.6,0.2,5.3,0.5
				c1.7,0.4,3.3,0.7,5,0.9c3.4,0.5,6.7,0.9,10.1,1l10.2,0.1L115.3,231.4z"/>
		</g>
		<g>
			<path d="M115.2,229c0-0.3,0.2-0.5,0.5-0.6c0.3,0,0.5,0,0.7-0.1l1.4-0.1l2.8-0.2c1.8-0.1,3.7-0.4,5.5-0.5c0.9,0,1.9,0,2.8,0.3
				c0.1,0,0.2,0.1,0.4,0.2c0.1,0.1,0.2,0.1,0.4,0.4c0.1,0.3,0.1,0.5,0.2,0.7c0.1,0.5,0.1,0.9,0.2,1.4c0.2,1.8,0.3,3.7,0.5,5.5
				c0.2,3.7,0.4,7.4,0.5,11.1c0,1.8,0.1,3.7,0.1,5.5c0,0.9,0,1.9,0,2.8c0,0.5,0,0.9,0,1.4c0,0.2,0,0.5-0.1,0.7c0,0.2,0,0.3-0.1,0.5
				s-0.2,0.4-0.3,0.5c-0.4,0.5-0.9,0.8-1.3,1.1c-0.4,0.3-0.9,0.5-1.3,0.6c-0.9,0.4-1.8,0.6-2.7,0.9c-1.9,0.4-3.7,0.8-5.8,0.6
				c-0.5-0.1-1.1-0.2-1.7-0.5c-0.3-0.2-0.7-0.5-0.9-0.8c-0.1-0.2-0.2-0.3-0.2-0.5c-0.1-0.1-0.1-0.3-0.1-0.4c-0.3-1-0.5-1.9-0.6-2.9
				c-0.2-1.9-0.4-3.7-0.5-5.6C114.7,243.7,115.3,236.3,115.2,229z M115.4,229c0.2,7.4,1.2,14.7,1.8,22c0.2,1.8,0.3,3.6,0.6,5.4
				c0.1,0.9,0.3,1.8,0.5,2.5c0,0.1,0.1,0.2,0.1,0.2c0,0.1,0.1,0.2,0.1,0.2c0,0.1,0,0.1,0.1,0.1c0.2,0.1,0.6,0.2,1,0.3
				c1.6,0.2,3.4,0,5.1-0.4c0.9-0.2,1.7-0.4,2.5-0.7c0.8-0.3,1.7-0.7,2-1.1c0.1-0.1,0.1-0.1,0.1-0.3c0-0.2,0.1-0.4,0.1-0.6
				c0-0.4,0.1-0.9,0.1-1.3c0-0.9,0.1-1.8,0.1-2.7c0-1.8,0-3.7,0-5.5c0-3.7,0-7.4-0.2-11c0-1.8-0.1-3.7-0.2-5.5
				c0-0.5-0.1-0.9-0.1-1.4c0-0.2-0.1-0.5-0.1-0.6c0,0,0.1,0,0,0l-0.1-0.1c-0.1,0-0.2-0.1-0.3-0.1c-0.8-0.3-1.7-0.4-2.6-0.4
				s-1.8,0-2.7,0.1l-2.8,0.2l-2.8,0.2l-1.4,0.1c-0.2,0-0.5,0-0.7,0.1C115.5,228.6,115.4,228.8,115.4,229z"/>
		</g>
		<g>
			<path d="M129.7,232.1c0.9,0.1,1.7,0.2,2.6,0.2c0.8,0,1.7,0,2.4-0.4c1.6-0.7,3.3-1.3,4.9-1.9c1.7-0.5,3.4-1,5.1-1.4
				c1.7-0.4,3.5-0.7,5.4-0.6c0.5,0,1,0.1,1.4,0.1l1.3,0.2l2.6,0.5c1.7,0.4,3.4,0.8,5.1,1.4c1.7,0.6,3.3,1.2,4.9,2.1
				c0.2,0.1,0.4,0.2,0.6,0.4l0.3,0.2c0.1,0.1,0.2,0.2,0.3,0.3c0.4,0.4,0.7,1,0.6,1.6c-0.1,0.6-0.4,1-0.7,1.4
				c-0.3,0.3-0.7,0.6-1.1,0.8l-0.1-0.2c0.6-0.6,1.1-1.4,1-2s-0.7-0.9-1.5-1.2c-1.5-0.6-3.2-1-4.9-1.5c-1.7-0.4-3.3-0.9-5-1.4
				c-0.8-0.2-1.7-0.5-2.5-0.7l-1.3-0.3c-0.4-0.1-0.8-0.2-1.2-0.2c-1.6-0.1-3.3,0.1-5,0.3c-1.7,0.3-3.4,0.7-5,1.1
				c-1.7,0.4-3.4,0.9-5,1.5c-0.9,0.3-1.8,0.3-2.7,0.2s-1.7-0.2-2.6-0.4L129.7,232.1z"/>
		</g>
		<g>
			<path d="M154.5,234.7c2.8,0.3,5.5,0.7,8.3,1.3c1.4,0.3,2.8,0.4,4.1,1.2c0.3,0.2,0.7,0.4,1,0.7c0.1,0.1,0.2,0.2,0.3,0.3
				s0.3,0.3,0.3,0.4c0.1,0.2,0.1,0.4,0.2,0.7c0.1,0.5,0,1-0.3,1.4s-0.6,0.6-1,0.7l-0.1-0.2c0.2-0.3,0.3-0.6,0.3-0.9
				c0-0.3-0.1-0.5-0.2-0.7c-0.1-0.1-0.1-0.2-0.2-0.3c-0.1-0.1,0,0,0,0h-0.1c-0.2-0.1-0.5-0.2-0.8-0.3c-1.2-0.4-2.5-1-3.8-1.5
				s-2.6-0.9-3.9-1.3l-4-1.3L154.5,234.7z"/>
		</g>
		<g>
			<path d="M155.7,239.4c1.5,0.2,3.1,0.4,4.6,0.7l4.6,0.7c0.8,0.1,1.6,0.3,2.4,0.6c0.4,0.2,0.8,0.4,1.2,0.7s0.7,0.8,0.9,1.3
				c0.1,0.3,0.1,0.6,0.1,0.9c0,0.3-0.1,0.6-0.2,0.9c-0.2,0.5-0.5,0.9-0.9,1.2c-0.7,0.6-1.4,1-2.2,1.2l-0.1-0.2
				c0.5-0.7,0.9-1.3,1.2-1.9c0.1-0.3,0.3-0.6,0.3-0.8c0-0.3,0-0.3-0.1-0.5c-0.4-0.7-1.7-1.5-3.1-1.9L160,241c-1.5-0.5-3-0.9-4.4-1.4
				L155.7,239.4z"/>
		</g>
		<g>
			<path d="M152.9,243.5c2.1,0.7,4.3,1.5,6.4,2.2c2.1,0.6,4.4,0.7,6.6,1.7c0.5,0.3,1.1,0.7,1.5,1.3c0.2,0.3,0.3,0.6,0.4,1
				c0,0.1,0,0.3,0,0.4c0,0.1-0.1,0.2-0.1,0.4c-0.1,0.2-0.3,0.4-0.4,0.5c-0.6,0.5-1.2,0.6-1.8,0.8c-0.6,0.1-1.2,0.2-1.7,0.3
				c-2.3,0.3-4.6,0.3-6.9,0.3c-2.3,0-4.6-0.1-6.8-0.1c-1,0-2,0.2-3,0.5s-2.1,0.6-3.1,1c-1.1,0.4-2.1,0.8-3.2,1.1
				c-1.1,0.3-2.4,0.7-3.7,0.5c-2.6-0.4-4.1-2.4-6.3-2.7v-0.2c1.2-0.1,2.3,0.3,3.4,0.7c1.1,0.4,2,0.8,3,0.8s1.9-0.3,2.9-0.7
				s2-0.9,3.1-1.3c2.1-0.9,4.4-1.7,6.9-1.6c2.3,0.2,4.5,0.4,6.8,0.5c2.2,0.1,4.5,0.1,6.7,0c0.5,0,1.1-0.1,1.6-0.2
				c0.5-0.1,1-0.2,1.3-0.5c0.1-0.1,0.2-0.1,0.2-0.2c0-0.2-0.1-0.4-0.2-0.6c-0.2-0.4-0.6-0.7-1-0.9c-1.8-1-4.2-1.3-6.3-2
				c-2.1-0.8-4.2-1.7-6.3-2.6L152.9,243.5z"/>
		</g>
		<g>
			<path d="M127.4,205.1c0,0.3-0.1,0.6-0.3,0.9c-0.1,0.3-0.5,0.6-0.9,0.7c-0.4,0.1-0.9-0.1-1.2-0.3c-0.3-0.3-0.6-0.7-0.6-1.2
				s0.1-1,0.4-1.4s0.9-0.7,1.4-0.6c0.5,0,1,0.5,1.1,0.9C127.6,204.5,127.5,204.9,127.4,205.1z M127.2,205.1c0-0.3-0.3-0.4-0.6-0.4
				c-0.3,0.1-0.4,0.3-0.4,0.3c0,0.1,0,0,0,0c-0.1,0-0.2,0-0.2,0c-0.1,0.1-0.1,0.4,0.2,0.5c0.1,0.1,0.3,0.1,0.6,0
				C127.1,205.7,127.3,205.4,127.2,205.1z"/>
		</g>
		<g>
			<path d="M193,141c0.7-0.8,1.4-1.6,2.1-2.4c0.7-0.8,1.3-1.7,1.9-2.5c0.6-0.9,1-1.9,1.7-2.6c0.7-0.8,1.4-1.6,2.4-2.2l0.2,0.1
				c-0.1,1.2-0.5,2.3-1,3.3s-1.4,1.7-2.1,2.5c-0.8,0.8-1.6,1.5-2.4,2.2c-0.9,0.7-1.7,1.3-2.7,1.9L193,141z"/>
		</g>
		<g>
			<path d="M168.1,242.3c1.3-0.2,2.6-0.4,3.9-0.5l4-0.4c1.3-0.1,2.6-0.4,4-0.3c1.3,0.1,2.7,0.3,4,0.8v0.2c-1.3,0.6-2.6,0.9-3.9,1
				c-1.3,0.2-2.6,0-4-0.1l-4-0.2c-1.3-0.1-2.6-0.2-4-0.3V242.3z"/>
		</g>
		<g>
			<path d="M217.3,240.6c2.4-0.2,4.8-0.4,7.2-0.6l7.2-0.5c2.4-0.1,4.8-0.5,7.2-0.4s4.8,0.2,7.3,0.7v0.2c-2.4,0.6-4.8,0.9-7.2,1.1
				c-2.4,0.2-4.8,0-7.2,0l-7.2-0.1c-2.4-0.1-4.8-0.1-7.2-0.2L217.3,240.6z"/>
		</g>
		<ellipse transform="matrix(0.5 -0.866 0.866 0.5 -51.2144 133.0156)" class="st1" cx="89.6" cy="110.9" rx="2.3" ry="1.4"/>
		<ellipse transform="matrix(0.5 -0.866 0.866 0.5 -31.0153 164.7511)" class="st1" cx="127.2" cy="109.2" rx="2.3" ry="1.4"/>
	</g>
</g>
</svg>
