<?xml version="1.0" encoding="utf-8"?>
<!-- Generator: Adobe Illustrator 24.1.0, SVG Export Plug-In . SVG Version: 6.00 Build 0)  -->
<svg version="1.1" id="Layer_1" xmlns="http://www.w3.org/2000/svg" xmlns:xlink="http://www.w3.org/1999/xlink" x="0px" y="0px"
	 viewBox="0 0 32 32" style="enable-background:new 0 0 32 32;" xml:space="preserve">
<style type="text/css">
	.st0{fill:none;}
</style>
<g>
	<g>
		<rect class="st0" width="32" height="32"/>
	</g>
	<g>
		<path d="M8,22c-0.2,0-0.5-0.1-0.6-0.2l-6-5C1.1,16.6,1,16.3,1,16s0.1-0.6,0.4-0.8l6-5c0.4-0.4,1.1-0.3,1.4,0.1
			c0.4,0.4,0.3,1.1-0.1,1.4L3.6,16l5.1,4.2c0.4,0.4,0.5,1,0.1,1.4C8.6,21.9,8.3,22,8,22z"/>
	</g>
	<g>
		<path d="M24,22c-0.3,0-0.6-0.1-0.8-0.4c-0.4-0.4-0.3-1.1,0.1-1.4l5.1-4.2l-5.1-4.2c-0.4-0.4-0.5-1-0.1-1.4c0.4-0.4,1-0.5,1.4-0.1
			l6,5c0.2,0.2,0.4,0.5,0.4,0.8s-0.1,0.6-0.4,0.8l-6,5C24.5,21.9,24.2,22,24,22z"/>
	</g>
	<g>
		<path d="M12,28c-0.1,0-0.2,0-0.3-0.1c-0.5-0.2-0.8-0.8-0.6-1.3l8-22c0.2-0.5,0.8-0.8,1.3-0.6c0.5,0.2,0.8,0.8,0.6,1.3l-8,22
			C12.8,27.7,12.4,28,12,28z"/>
	</g>
</g>
</svg>
