<?xml version="1.0" encoding="utf-8"?>
<!-- Generator: Adobe Illustrator 24.1.0, SVG Export Plug-In . SVG Version: 6.00 Build 0)  -->
<svg version="1.1" id="Layer_1" xmlns="http://www.w3.org/2000/svg" xmlns:xlink="http://www.w3.org/1999/xlink" x="0px" y="0px"
	 viewBox="0 0 32 32" style="enable-background:new 0 0 32 32;" xml:space="preserve">
<g id="_05-Email">
	<g>
		<path d="M28.3,25H3.7c-0.5,0-0.8-0.4-0.8-0.8V7.8C2.9,7.4,3.3,7,3.7,7h24.5c0.5,0,0.8,0.4,0.8,0.8v16.4C29.1,24.6,28.7,25,28.3,25
			z M4.5,23.4h22.9V8.6H4.5V23.4z"/>
	</g>
	<g>
		<path d="M16,17.6c-0.2,0-0.3-0.1-0.5-0.2l-12.3-9l1-1.3L16,15.8l11.8-8.6l1,1.3l-12.3,9C16.3,17.6,16.2,17.6,16,17.6z"/>
	</g>
	<g>
		<rect x="1.7" y="18.5" transform="matrix(0.7071 -0.7071 0.7071 0.7071 -11.0983 11.7517)" width="13.9" height="1.6"/>
	</g>
	<g>
		<rect x="22.5" y="12.3" transform="matrix(0.7071 -0.7071 0.7071 0.7071 -6.7848 22.1654)" width="1.6" height="13.9"/>
	</g>
</g>
</svg>
