<?xml version="1.0" encoding="utf-8"?>
<!-- Generator: Adobe Illustrator 25.0.1, SVG Export Plug-In . SVG Version: 6.00 Build 0)  -->
<svg version="1.1" id="Layer_1" xmlns="http://www.w3.org/2000/svg" xmlns:xlink="http://www.w3.org/1999/xlink" x="0px" y="0px"
	 viewBox="0 0 200 172" style="enable-background:new 0 0 200 172;" xml:space="preserve">
<style type="text/css">
	.st0{fill:#F5A228;}
	.st1{fill:#1D1D1B;}
</style>
<g>
	<g>
		<g>
			<path class="st0" d="M9.3,144.1c-1.2,0-2.4-0.2-3.5-0.7s-2.1-1.2-2.9-2c-0.9-0.9-1.5-1.9-2-3.1c-0.5-1.2-0.7-2.6-0.7-4
				c0-1.3,0.2-2.6,0.7-3.7c0.5-1.2,1.2-2.2,2-3.1c0.9-0.9,1.9-1.6,3.1-2.1c1.2-0.5,2.4-0.7,3.8-0.7c1.8,0,3.3,0.4,4.7,1.1
				c1.4,0.8,2.4,1.8,3,3.1l-3.3,2.5c-0.4-0.9-1.1-1.5-1.9-2c-0.8-0.5-1.7-0.7-2.7-0.7c-0.7,0-1.4,0.1-2,0.4
				c-0.6,0.3-1.1,0.7-1.6,1.2c-0.4,0.5-0.8,1.2-1,1.9c-0.2,0.7-0.4,1.5-0.4,2.3c0,0.8,0.1,1.6,0.4,2.3c0.3,0.7,0.6,1.3,1.1,1.8
				c0.5,0.5,1,0.9,1.6,1.2c0.6,0.3,1.3,0.4,2,0.4c0.9,0,1.8-0.2,2.7-0.7c0.9-0.5,1.6-1.1,2.3-2v4.4C13.1,143.3,11.3,144.1,9.3,144.1
				z M14.3,137.1h-3.7v-3.2H18V144h-3.7V137.1z"/>
			<path class="st0" d="M29.4,144.1c-1.4,0-2.7-0.3-3.9-0.8c-1.2-0.6-2.2-1.3-3-2.2c-0.9-0.9-1.5-2-2-3.1c-0.5-1.2-0.7-2.4-0.7-3.6
				c0-1.3,0.2-2.5,0.7-3.7c0.5-1.2,1.1-2.2,2-3.1c0.9-0.9,1.9-1.6,3.1-2.2c1.2-0.5,2.5-0.8,3.9-0.8c1.4,0,2.7,0.3,3.9,0.8
				c1.2,0.6,2.2,1.3,3,2.2c0.8,0.9,1.5,2,1.9,3.2c0.5,1.2,0.7,2.4,0.7,3.6c0,1.3-0.2,2.5-0.7,3.7c-0.5,1.2-1.1,2.2-2,3.1
				c-0.9,0.9-1.9,1.6-3.1,2.2C32.1,143.9,30.8,144.1,29.4,144.1z M24.4,134.3c0,0.7,0.1,1.5,0.3,2.2c0.2,0.7,0.6,1.3,1,1.9
				c0.4,0.5,0.9,1,1.6,1.3c0.6,0.3,1.4,0.5,2.2,0.5c0.8,0,1.6-0.2,2.2-0.5c0.6-0.3,1.2-0.8,1.6-1.4c0.4-0.6,0.7-1.2,0.9-1.9
				c0.2-0.7,0.3-1.4,0.3-2.1c0-0.7-0.1-1.5-0.3-2.1c-0.2-0.7-0.6-1.3-1-1.9c-0.4-0.6-1-1-1.6-1.3c-0.6-0.3-1.3-0.5-2.1-0.5
				c-0.9,0-1.6,0.2-2.2,0.5c-0.6,0.3-1.2,0.8-1.6,1.3c-0.4,0.6-0.7,1.2-1,1.9C24.5,132.9,24.4,133.6,24.4,134.3z"/>
			<path class="st0" d="M50,144.1c-1.4,0-2.7-0.3-3.9-0.8c-1.2-0.6-2.2-1.3-3-2.2c-0.9-0.9-1.5-2-2-3.1c-0.5-1.2-0.7-2.4-0.7-3.6
				c0-1.3,0.2-2.5,0.7-3.7c0.5-1.2,1.1-2.2,2-3.1c0.9-0.9,1.9-1.6,3.1-2.2c1.2-0.5,2.5-0.8,3.9-0.8c1.4,0,2.7,0.3,3.9,0.8
				c1.2,0.6,2.2,1.3,3,2.2c0.8,0.9,1.5,2,1.9,3.2c0.5,1.2,0.7,2.4,0.7,3.6c0,1.3-0.2,2.5-0.7,3.7c-0.5,1.2-1.1,2.2-2,3.1
				c-0.9,0.9-1.9,1.6-3.1,2.2C52.7,143.9,51.4,144.1,50,144.1z M45,134.3c0,0.7,0.1,1.5,0.3,2.2c0.2,0.7,0.6,1.3,1,1.9
				c0.4,0.5,0.9,1,1.6,1.3c0.6,0.3,1.4,0.5,2.2,0.5c0.8,0,1.6-0.2,2.2-0.5c0.6-0.3,1.2-0.8,1.6-1.4c0.4-0.6,0.7-1.2,0.9-1.9
				c0.2-0.7,0.3-1.4,0.3-2.1c0-0.7-0.1-1.5-0.3-2.1c-0.2-0.7-0.6-1.3-1-1.9c-0.4-0.6-1-1-1.6-1.3c-0.6-0.3-1.3-0.5-2.1-0.5
				c-0.9,0-1.6,0.2-2.2,0.5c-0.6,0.3-1.2,0.8-1.6,1.3c-0.4,0.6-0.7,1.2-1,1.9C45.1,132.9,45,133.6,45,134.3z"/>
			<path class="st0" d="M62.2,144v-19.3h7.2c2.1,0,3.9,0.4,5.3,1.3c1.4,0.9,2.5,2,3.2,3.5c0.7,1.5,1.1,3.1,1.1,4.8
				c0,2-0.4,3.7-1.2,5.1c-0.8,1.4-1.9,2.6-3.4,3.4c-1.4,0.8-3.1,1.2-5.1,1.2H62.2z M74.5,134.3c0-1.1-0.2-2.1-0.6-3
				c-0.4-0.9-1-1.5-1.7-2c-0.8-0.5-1.7-0.7-2.7-0.7h-2.7v11.5h2.7c1.1,0,2-0.2,2.8-0.7c0.8-0.5,1.3-1.2,1.7-2.1
				C74.3,136.4,74.5,135.4,74.5,134.3z"/>
		</g>
		<g>
			<path class="st1" d="M88,144v-19.3H101v3.9h-8.6v4.1h7.1v3.7h-7.1v7.6H88z"/>
			<path class="st1" d="M103.4,144v-19.3h8.7c0.9,0,1.8,0.2,2.6,0.6c0.8,0.4,1.4,0.9,2,1.5c0.6,0.6,1,1.3,1.3,2.1
				c0.3,0.8,0.5,1.6,0.5,2.4c0,0.8-0.1,1.5-0.4,2.3c-0.3,0.7-0.6,1.4-1.1,1.9c-0.5,0.6-1,1-1.7,1.4l4.2,7.2h-4.9l-3.7-6.2h-3v6.2
				H103.4z M107.9,133.9h4.1c0.3,0,0.7-0.1,0.9-0.3c0.3-0.2,0.5-0.5,0.7-0.9c0.2-0.4,0.3-0.9,0.3-1.4c0-0.5-0.1-1-0.3-1.4
				c-0.2-0.4-0.5-0.7-0.8-0.9c-0.3-0.2-0.6-0.3-1-0.3h-3.9V133.9z"/>
			<path class="st1" d="M121.6,144v-19.3h4.5V144H121.6z"/>
			<path class="st1" d="M143.3,140.1v3.9h-13.5v-19.3H143v3.9h-8.8v3.7h7.6v3.6h-7.6v4.1H143.3z"/>
			<path class="st1" d="M150.4,132.9v11H146v-19.3h3.5l8.9,11.3v-11.3h4.4V144h-3.6L150.4,132.9z"/>
			<path class="st1" d="M166.6,144v-19.3h7.2c2.1,0,3.9,0.4,5.3,1.3c1.4,0.9,2.5,2,3.2,3.5c0.7,1.5,1.1,3.1,1.1,4.8
				c0,2-0.4,3.7-1.2,5.1c-0.8,1.4-1.9,2.6-3.4,3.4c-1.4,0.8-3.1,1.2-5.1,1.2H166.6z M178.9,134.3c0-1.1-0.2-2.1-0.6-3
				c-0.4-0.9-1-1.5-1.7-2c-0.8-0.5-1.7-0.7-2.7-0.7H171v11.5h2.7c1.1,0,2-0.2,2.8-0.7c0.7-0.5,1.3-1.2,1.7-2.1
				C178.7,136.4,178.9,135.4,178.9,134.3z"/>
			<path class="st1" d="M197.5,130.4c-0.1-0.1-0.2-0.2-0.6-0.4c-0.3-0.2-0.7-0.4-1.2-0.6c-0.5-0.2-1-0.4-1.6-0.6
				c-0.6-0.2-1.2-0.2-1.7-0.2c-0.8,0-1.3,0.1-1.8,0.4c-0.4,0.3-0.6,0.7-0.6,1.2c0,0.4,0.2,0.7,0.5,1c0.3,0.3,0.8,0.5,1.4,0.7
				c0.6,0.2,1.3,0.4,2.2,0.6c1.2,0.3,2.3,0.7,3.2,1.2c0.9,0.5,1.6,1,2.1,1.8c0.5,0.7,0.7,1.7,0.7,2.9c0,1.1-0.2,2-0.6,2.7
				c-0.4,0.8-0.9,1.4-1.6,1.8c-0.7,0.5-1.5,0.8-2.3,1c-0.9,0.2-1.8,0.3-2.7,0.3c-0.9,0-1.9-0.1-2.9-0.3c-1-0.2-1.9-0.5-2.8-0.8
				s-1.7-0.8-2.5-1.2l1.9-3.9c0.1,0.1,0.3,0.3,0.7,0.5c0.4,0.2,0.9,0.5,1.5,0.7c0.6,0.3,1.2,0.5,2,0.7c0.7,0.2,1.4,0.3,2.2,0.3
				c0.8,0,1.4-0.1,1.8-0.4s0.6-0.6,0.6-1c0-0.5-0.2-0.8-0.6-1.1c-0.4-0.3-1-0.5-1.7-0.8c-0.7-0.2-1.5-0.5-2.4-0.7
				c-1.2-0.4-2.1-0.8-2.9-1.2c-0.8-0.4-1.3-1-1.7-1.6c-0.4-0.6-0.6-1.4-0.6-2.4c0-1.4,0.3-2.5,1-3.4c0.6-0.9,1.5-1.6,2.6-2.1
				c1.1-0.5,2.3-0.7,3.6-0.7c0.9,0,1.8,0.1,2.6,0.3c0.8,0.2,1.6,0.5,2.4,0.8c0.7,0.3,1.4,0.7,1.9,1L197.5,130.4z"/>
		</g>
	</g>
	<g>
		<path class="st1" d="M55.4,164.5c0-2.8,0.8-5,2.1-7.2l1,0.4c-1.2,2-1.8,4.4-1.8,6.7c0,2.4,0.6,4.7,1.8,6.7l-1,0.4
			C56.2,169.6,55.4,167.3,55.4,164.5z"/>
		<path class="st1" d="M71.3,165.6h-5v4.4h-1.4v-4.4h-5v-1.2h11.4L71.3,165.6z M60.5,162.4c2.4-0.3,4.2-1.7,4.3-3.2h-3.9v-1.2h9.3
			v1.2h-3.8c0.1,1.5,1.9,2.9,4.3,3.2l-0.5,1.1c-2.1-0.3-3.8-1.3-4.6-2.7c-0.8,1.4-2.5,2.4-4.6,2.7L60.5,162.4z"/>
		<path class="st1" d="M72.6,171.3c1.2-2,1.8-4.4,1.8-6.7c0-2.3-0.6-4.7-1.8-6.7l1-0.4c1.3,2.1,2.1,4.4,2.1,7.2c0,2.8-0.8,5-2.1,7.2
			L72.6,171.3z"/>
		<path class="st1" d="M89.1,162.7v1.2H77.7v-1.2h5v-0.8c-2.4-0.1-3.8-0.9-3.8-2.2c0-1.4,1.7-2.2,4.5-2.2c2.8,0,4.5,0.8,4.5,2.2
			c0,1.3-1.4,2-3.8,2.2v0.8H89.1z M80.5,168.8h7.6v1.1h-9v-3.2h7.2v-0.9H79v-1.1h8.7v3h-7.2V168.8z M83.4,160.8c2,0,3-0.4,3-1.1
			s-1.1-1.1-3-1.1c-2,0-3,0.4-3,1.1S81.4,160.8,83.4,160.8z"/>
		<path class="st1" d="M96.6,163.8c-1.5,0.3-2.8,0.4-4.6,0.4h-0.9v-5.8H96v1.2h-3.5v3.4c1.5,0,2.6-0.1,3.9-0.4L96.6,163.8z
			 M97.7,165.5c0,1.5,1.7,2.9,4.2,3.3l-0.6,1.1c-1.9-0.3-3.5-1.3-4.3-2.6c-0.8,1.3-2.4,2.2-4.3,2.6l-0.6-1.1
			c2.4-0.4,4.2-1.8,4.2-3.3v-0.4h1.4V165.5z M98.5,164.6h-1.3v-7h1.3v3h1.4v-3.2h1.4v8.4h-1.4v-4h-1.4V164.6z"/>
		<path class="st1" d="M118.8,162.8v1.1h-11.5v-1.1H118.8z M110.2,158.8h-1.8v-1.1h9.4v1.1H116v2h1.7v1.1h-9.2v-1.1h1.7V158.8z
			 M110.2,168.8h7.6v1.1h-9v-3h7.2V166h-7.2v-1.1h8.7v2.9h-7.2V168.8z M114.5,158.8h-2.9v2h2.9V158.8z"/>
		<path class="st1" d="M126.3,164.3c-1.5,0.3-2.8,0.4-4.7,0.4h-0.9v-3.8h3.4v-1.5h-3.4v-1.1h4.8v3.7h-3.4v1.6c1.5,0,2.7-0.1,4-0.4
			L126.3,164.3z M127.4,165.6c0,1.5,1.7,2.9,4.2,3.2L131,170c-1.9-0.3-3.5-1.2-4.3-2.5c-0.8,1.3-2.4,2.2-4.3,2.5l-0.6-1.1
			c2.4-0.3,4.2-1.7,4.2-3.2v-0.3h1.4V165.6z M128.2,164.8h-1.3v-7.3h1.3v3h1.4v-3.2h1.4v8.6h-1.4v-4.2h-1.4V164.8z"/>
		<path class="st1" d="M144.6,163.6v1.1h-11.5v-1.1h5v-1.2h-3.9v-1.2h1.7v-2.3h-1.8v-1.2h9.4v1.2h-1.8v2.3h1.7v1.2h-3.9v1.2H144.6z
			 M134.5,165.8h8.7v4h-8.7V165.8z M136,168.7h5.8v-1.8H136V168.7z M137.4,161.2h2.9v-2.3h-2.9V161.2z"/>
	</g>
	<g>
		<path d="M87.3,16.5c0.4-1.7,2.2-3.1,4-3.1l30.5-0.8L117.5,35l7.8-5.5l0,0l0,0l0,0l6,6.1l5.1-30.1c0.5-3.1-2.2-5.5-6-5.2L85.6,3
			c-2.8,0.2-5.6,2.4-6.3,5.1l-9,35.5l-9.1-0.7l10.3,16.3l19.2-14l-10.1-0.8L87.3,16.5z"/>
		<path class="st0" d="M124.7,33.1l-18.8,13.3l9.4,0.7L110,74.7c-0.4,2.2-2.6,3.7-4.9,3.3L74,72.4l3.3-13.7l-6.9,4.9l-3.6-5.9
			l-6.5,25.7c-0.8,3.3,0.8,6.5,3.8,7.3l47.9,11.9c4.1,1,8.1-1.4,8.8-5.5l8.4-48.9l10.8,0.8L124.7,33.1z M86.1,89.9
			c-2.4-0.5-3.8-3-3.3-5.4c0.5-2.4,2.9-4,5.2-3.6c2.4,0.5,3.9,2.9,3.4,5.4C90.9,88.8,88.5,90.4,86.1,89.9z"/>
	</g>
</g>
</svg>
