<?xml version="1.0" encoding="utf-8"?>
<!-- Generator: Adobe Illustrator 24.1.0, SVG Export Plug-In . SVG Version: 6.00 Build 0)  -->
<svg version="1.1" id="Layer_1" xmlns="http://www.w3.org/2000/svg" xmlns:xlink="http://www.w3.org/1999/xlink" x="0px" y="0px"
	 viewBox="0 0 350 66" style="enable-background:new 0 0 350 66;" xml:space="preserve">
<style type="text/css">
	.st0{fill:#12172B;}
	.st1{display:none;fill:none;}
</style>
<g>
	<g>
		<path class="st0" d="M87.2,11c6.4,0,11.3,1.1,14.8,3.4c3.4,2.3,5.1,5.8,5.1,10.6c0,3-0.7,5.4-2.1,7.3c-1.4,1.9-3.4,3.3-6,4.4
			c0.9,1.1,1.8,2.3,2.7,3.7c0.9,1.4,1.9,2.8,2.8,4.3c0.9,1.5,1.8,3.1,2.7,4.7c0.9,1.6,1.7,3.2,2.4,4.8H98.9
			c-0.8-1.4-1.6-2.8-2.4-4.3c-0.8-1.4-1.6-2.8-2.5-4.2c-0.8-1.4-1.7-2.6-2.5-3.9c-0.8-1.2-1.7-2.3-2.5-3.3h-4.8v15.6h-9.6V12.1
			c2.1-0.4,4.3-0.7,6.5-0.9C83.4,11.1,85.4,11,87.2,11z M87.7,19.2c-0.7,0-1.3,0-1.9,0.1c-0.6,0-1.1,0.1-1.6,0.1V31H87
			c3.6,0,6.2-0.5,7.8-1.4c1.6-0.9,2.3-2.4,2.3-4.6c0-2.1-0.8-3.6-2.4-4.5C93.1,19.6,90.8,19.2,87.7,19.2z"/>
		<path class="st0" d="M118.3,38.3c0-2.9,0.4-5.4,1.3-7.6c0.9-2.2,2-4,3.5-5.4c1.4-1.4,3.1-2.5,5-3.3c1.9-0.7,3.8-1.1,5.8-1.1
			c4.6,0,8.3,1.4,10.9,4.2c2.7,2.8,4,7,4,12.4c0,0.5,0,1.1-0.1,1.8c0,0.6-0.1,1.2-0.1,1.7h-20.9c0.2,1.9,1.1,3.4,2.7,4.5
			s3.7,1.7,6.3,1.7c1.7,0,3.3-0.2,5-0.5c1.6-0.3,3-0.7,4-1.1l1.2,7.5c-0.5,0.2-1.2,0.5-2,0.7c-0.8,0.2-1.7,0.5-2.7,0.6
			c-1,0.2-2.1,0.3-3.2,0.5c-1.2,0.1-2.3,0.2-3.5,0.2c-2.9,0-5.5-0.4-7.6-1.3c-2.2-0.9-3.9-2-5.4-3.6c-1.4-1.5-2.5-3.3-3.1-5.3
			C118.6,42.9,118.3,40.7,118.3,38.3z M139.9,34.8c0-0.8-0.2-1.5-0.4-2.3c-0.2-0.7-0.6-1.4-1.1-2s-1.1-1-1.8-1.4
			c-0.7-0.4-1.6-0.6-2.7-0.6c-1,0-1.9,0.2-2.7,0.5c-0.7,0.4-1.4,0.8-1.9,1.4c-0.5,0.6-0.9,1.2-1.1,2c-0.3,0.8-0.5,1.5-0.6,2.3H139.9
			z"/>
		<path class="st0" d="M162,22.9c1.6-0.5,3.6-0.9,6-1.3c2.5-0.4,5.1-0.6,7.8-0.6c2.8,0,5,0.4,6.9,1.1c1.8,0.7,3.3,1.7,4.4,3.1
			c1.1,1.3,1.8,2.9,2.3,4.7c0.5,1.8,0.7,3.8,0.7,6v18.3h-9.2V37c0-3-0.4-5.1-1.2-6.3c-0.8-1.2-2.2-1.9-4.4-1.9c-0.7,0-1.4,0-2.1,0.1
			c-0.7,0.1-1.4,0.1-2,0.2v25.1H162V22.9z"/>
		<path class="st0" d="M204.3,13.7l9.2-1.5v9.6h11.1v7.7h-11.1v11.4c0,1.9,0.3,3.5,1,4.6c0.7,1.2,2,1.7,4.1,1.7c1,0,2-0.1,3.1-0.3
			c1-0.2,2-0.4,2.9-0.8l1.3,7.2c-1.1,0.5-2.3,0.8-3.7,1.2c-1.4,0.3-3,0.5-5,0.5c-2.5,0-4.6-0.3-6.2-1c-1.6-0.7-3-1.6-4-2.8
			c-1-1.2-1.7-2.7-2.1-4.4c-0.4-1.7-0.6-3.6-0.6-5.7V13.7z"/>
		<path class="st0" d="M268.3,38c0,2.5-0.3,4.8-0.9,6.9c-0.6,2.1-1.5,3.8-2.7,5.3c-1.2,1.5-2.7,2.6-4.4,3.5
			c-1.8,0.8-3.8,1.2-6.1,1.2c-1.3,0-2.5-0.1-3.6-0.4c-1.1-0.2-2.2-0.6-3.2-1v12.2h-9.2V22.9c0.8-0.2,1.8-0.5,2.8-0.7
			c1.1-0.2,2.2-0.4,3.4-0.6c1.2-0.2,2.4-0.3,3.6-0.4c1.2-0.1,2.4-0.2,3.5-0.2c2.7,0,5.1,0.4,7.2,1.2c2.1,0.8,3.9,1.9,5.3,3.4
			c1.4,1.5,2.5,3.2,3.3,5.3C268,33.1,268.3,35.4,268.3,38z M258.9,38.3c0-2.8-0.6-5.1-1.9-6.8c-1.3-1.7-3.2-2.6-5.7-2.6
			c-0.8,0-1.6,0-2.3,0.1c-0.7,0.1-1.3,0.1-1.7,0.2v16.6c0.6,0.4,1.3,0.7,2.2,0.9c0.9,0.2,1.9,0.4,2.8,0.4
			C256.8,47.1,258.9,44.2,258.9,38.3z"/>
		<path class="st0" d="M293.3,20.9c2.7,0,5,0.3,6.8,0.9c1.8,0.6,3.3,1.5,4.4,2.7c1.1,1.2,1.9,2.5,2.3,4.2c0.5,1.6,0.7,3.5,0.7,5.5
			v19.1c-1.3,0.3-3.2,0.6-5.5,1c-2.3,0.4-5.2,0.6-8.5,0.6c-2.1,0-4-0.2-5.7-0.6c-1.7-0.4-3.2-1-4.4-1.8c-1.2-0.8-2.2-1.9-2.8-3.3
			c-0.7-1.4-1-3-1-5c0-1.9,0.4-3.5,1.1-4.8c0.8-1.3,1.8-2.4,3.1-3.1c1.3-0.8,2.7-1.3,4.4-1.7c1.6-0.3,3.4-0.5,5.1-0.5
			c1.2,0,2.3,0.1,3.2,0.2c0.9,0.1,1.7,0.2,2.2,0.4v-0.9c0-1.6-0.5-2.8-1.4-3.8c-0.9-0.9-2.6-1.4-4.9-1.4c-1.6,0-3.1,0.1-4.6,0.3
			c-1.5,0.2-2.8,0.5-4,1l-1.2-7.4c0.5-0.2,1.2-0.3,2-0.5c0.8-0.2,1.7-0.4,2.6-0.5c0.9-0.1,1.9-0.3,3-0.4
			C291.1,21,292.2,20.9,293.3,20.9z M294,47.8c0.9,0,1.8,0,2.6-0.1c0.8,0,1.5-0.1,2-0.2v-7c-0.4-0.1-0.9-0.2-1.7-0.2s-1.4-0.1-2-0.1
			c-0.9,0-1.7,0.1-2.4,0.2s-1.4,0.3-2,0.6c-0.6,0.3-1,0.7-1.4,1.2c-0.3,0.5-0.5,1.1-0.5,1.9c0,1.4,0.5,2.4,1.4,3
			C291,47.6,292.3,47.8,294,47.8z"/>
		<path class="st0" d="M350,21.8c-1.9,6.3-3.8,12.1-5.8,17.6c-2,5.5-4.2,10.8-6.6,15.9c-0.9,1.9-1.7,3.4-2.6,4.7
			c-0.9,1.3-1.8,2.4-2.8,3.2c-1,0.8-2.2,1.5-3.5,1.9c-1.3,0.4-2.8,0.6-4.5,0.6c-1.4,0-2.8-0.1-4-0.4c-1.2-0.3-2.2-0.6-3-0.9l1.6-7.3
			c0.9,0.3,1.8,0.6,2.5,0.7c0.7,0.1,1.5,0.2,2.3,0.2c1.6,0,2.9-0.4,3.8-1.3c0.9-0.9,1.6-2.1,2.3-3.7c-2.1-4.1-4.2-8.7-6.3-13.9
			s-4.1-10.9-5.9-17.3h9.8c0.4,1.6,0.9,3.3,1.5,5.2c0.6,1.9,1.1,3.8,1.8,5.7c0.6,1.9,1.3,3.8,1.9,5.6c0.6,1.8,1.2,3.5,1.8,4.9
			c0.5-1.5,1.1-3.1,1.7-4.9c0.6-1.8,1.1-3.7,1.7-5.6c0.6-1.9,1.1-3.8,1.6-5.7c0.5-1.9,1-3.6,1.4-5.2H350z"/>
	</g>
	<g>
		<path class="st0" d="M23.9,39.7h5c0.4,0,0.7-0.3,0.7-0.7c0-0.4-0.3-0.7-0.7-0.7h-5c-0.4,0-0.7,0.3-0.7,0.7
			C23.2,39.4,23.5,39.7,23.9,39.7z"/>
		<path class="st0" d="M57.8,24.8L57.8,24.8L57.8,24.8c-0.1-0.1-0.1-0.1-0.2-0.2l-3.5-2.9v-8.6c0-1.2-1-2.2-2.2-2.2h-2.2
			c-1.2,0-2.2,1-2.2,2.2v3.2L33.5,4.9c-0.4-0.4-0.9-0.6-1.5-0.6c-0.6,0-1.1,0.2-1.5,0.6L6.4,24.6c-0.1,0-0.1,0.1-0.2,0.1l0,0l0,0
			c-0.4,0.4-0.7,1-0.7,1.6c0,1.2,1,2.2,2.2,2.2h2.2v24.3c0,2.4,2,4.4,4.4,4.4h35.3c2.4,0,4.4-2,4.4-4.4V28.6h2.2
			c1.2,0,2.2-1,2.2-2.2C58.5,25.7,58.2,25.2,57.8,24.8z M43,43.7c0,0.6-0.5,1.1-1.1,1.1H22.1c-0.6,0-1.1-0.5-1.1-1.1v-8.2h22V43.7z
			 M43,32.6H21v-2.9c0-0.6,0.5-1.1,1.1-1.1H42c0.6,0,1.1,0.5,1.1,1.1V32.6z"/>
		<path class="st0" d="M23.9,42.4h2.5c0.4,0,0.7-0.3,0.7-0.7S26.8,41,26.4,41h-2.5c-0.4,0-0.7,0.3-0.7,0.7S23.5,42.4,23.9,42.4z"/>
	</g>
</g>
<rect x="0" class="st1" width="66" height="66"/>
</svg>
