<?xml version="1.0" encoding="utf-8"?>
<!-- Generator: Adobe Illustrator 25.0.1, SVG Export Plug-In . SVG Version: 6.00 Build 0)  -->
<svg version="1.1" id="Layer_1" xmlns="http://www.w3.org/2000/svg" xmlns:xlink="http://www.w3.org/1999/xlink" x="0px" y="0px"
	 viewBox="0 0 320 160" style="enable-background:new 0 0 320 160;" xml:space="preserve">
<style type="text/css">
	.st0{fill:#0E78AC;}
	.st1{fill:#FEC24F;}
	.st2{fill:#B41F85;}
	.st3{fill:#2D095C;}
</style>
<g>
	<g>
		<path class="st0" d="M81,42L49.5,56.8l-14.1-6.6v13.2L5,77.7V35.9h0V12.3C5,9.1,8.3,7,11.1,8.4l68.2,32.1C80,40.8,80.6,41.3,81,42
			z"/>
		<path class="st1" d="M81,71.7c-0.4,0.6-1,1.2-1.7,1.5L35.4,93.8v43.7c0,1.7-1,3.2-2.5,3.9l-21.8,10.3C8.3,153,5,150.9,5,147.7v-70
			l30.4-14.3v0l14.1-6.6L81,71.7z"/>
		<path class="st2" d="M81.8,44.3v24.9c0,0.9-0.3,1.7-0.7,2.4L49.5,56.8L81,42C81.5,42.7,81.8,43.5,81.8,44.3z"/>
		<path class="st3" d="M81.8,44.3v24.9c0,0.9-0.3,1.7-0.7,2.4L49.5,56.8L81,42C81.5,42.7,81.8,43.5,81.8,44.3z"/>
	</g>
	<g>
		<path class="st3" d="M188.2,87.8c-1-3.8-1.7-5.7-1.9-5.7h-23.6l-19.2,66.2l0.2,0.2h18.2l0.1-0.1l3.4-15.3h17.4l2.7,10
			c0.9,3.6,1.4,5.4,1.6,5.4h19l0.1-0.1L188.2,87.8z M168.3,119.9l5.5-24.9h0.1l6.4,24.9H168.3z"/>
		<path class="st3" d="M215.7,130.9c2.2,1.2,4.7,2.1,7.6,2.8c3.3,0.9,6.5,1.3,9.6,1.3c6,0,9-1.8,9-5.4c0-2.7-3.5-5.2-10.4-7.6
			c-6-2.2-10.5-4.7-13.5-7.8c-3.4-3.4-5.1-7.5-5.1-12.2c0-6,2.4-10.9,7.1-14.7c4.8-4,11.4-6,19.5-6c3.7,0,7.1,0.3,10.3,1
			c2.7,0.5,5.2,1.3,7.6,2.4L253.5,99c-0.4-0.2-0.8-0.4-1.2-0.5c-0.5-0.2-0.9-0.4-1.4-0.5c-1-0.5-2.1-0.8-3.2-1.1
			c-2.8-0.7-5.7-1.1-8.5-1.1c-5.6,0-8.3,1.6-8.3,4.9c0,2.2,4,4.7,11.9,7.8c11.5,4.3,17.2,10.9,17.2,19.9c0,6.1-2.3,11-6.9,14.8
			c-5,4.2-12.1,6.3-21.3,6.3c-3.7,0-7.5-0.4-11.3-1.3c-3.4-0.8-6.1-1.7-8.1-2.7L215.7,130.9z"/>
		<path class="st3" d="M270.7,130.9c2.2,1.2,4.7,2.1,7.6,2.8c3.3,0.9,6.5,1.3,9.6,1.3c6,0,9-1.8,9-5.4c0-2.7-3.5-5.2-10.4-7.6
			c-6-2.2-10.5-4.7-13.5-7.8c-3.4-3.4-5.1-7.5-5.1-12.2c0-6,2.4-10.9,7.1-14.7c4.8-4,11.4-6,19.5-6c3.7,0,7.1,0.3,10.3,1
			c2.7,0.5,5.2,1.3,7.6,2.4L308.6,99c-0.4-0.2-0.8-0.4-1.2-0.5c-0.5-0.2-0.9-0.4-1.4-0.5c-1-0.5-2.1-0.8-3.2-1.1
			c-2.8-0.7-5.7-1.1-8.5-1.1c-5.6,0-8.3,1.6-8.3,4.9c0,2.2,4,4.7,11.9,7.8c11.5,4.3,17.2,10.9,17.2,19.9c0,6.1-2.3,11-6.9,14.8
			c-5,4.2-12.1,6.3-21.3,6.3c-3.7,0-7.5-0.4-11.3-1.3c-3.4-0.8-6.1-1.7-8.1-2.7L270.7,130.9z"/>
		<path class="st3" d="M139.5,97.4L139.5,97.4l0-6.7l-33.9-11L99,77.4h-9.8v13.2v58.7h16.4v-24.5l33.9-11V97.4z M105.6,95.9
			l19.1,6.2l-19.1,6.2V95.9z"/>
	</g>
</g>
</svg>
