<?xml version="1.0" encoding="utf-8"?>
<!-- Generator: Adobe Illustrator 25.0.1, SVG Export Plug-In . SVG Version: 6.00 Build 0)  -->
<svg version="1.1" id="Layer_1" xmlns="http://www.w3.org/2000/svg" xmlns:xlink="http://www.w3.org/1999/xlink" x="0px" y="0px"
	 viewBox="0 0 226.8 39.7" style="enable-background:new 0 0 226.8 39.7;" xml:space="preserve">
<style type="text/css">
	.st0{fill:#292E67;}
	.st1{fill:#F2931C;}
</style>
<g>
	<g>
		<polygon class="st0" points="0,38.7 5.6,38.7 5.6,21.3 18.3,21.3 18.3,17.6 5.6,17.6 0,17.6 		"/>
		<polygon class="st0" points="20.4,12.1 20.4,8 0,8 0,12.1 5.6,12.1 		"/>
	</g>
	<rect x="26.5" y="8" class="st0" width="5.6" height="30.7"/>
	<polygon class="st0" points="67.2,39.2 45.5,17.7 45.5,38.7 41.8,38.7 41.8,7.5 43.2,7.5 65,28.9 65,8 68.7,8 68.7,39.2 	"/>
	<path class="st0" d="M139.4,38.7l-4-8.5h-13l-3.6,8.5h-3.9l13-30.7h3.2l14.3,30.7H139.4z M133.7,26.5l-5.1-10.9L124,26.5H133.7z"/>
	<polygon class="st0" points="151.2,38.7 151.2,12.1 140.2,12.1 140.2,8 167.8,8 167.8,12.1 156.8,12.1 156.8,38.7 	"/>
	<path class="st0" d="M182.8,39.2c-2.9,0-5.4-0.5-7.5-1.4c-2.1-0.9-3.9-2.1-5.3-3.6c-1.4-1.5-2.4-3.2-3.1-5.2c-0.6-1.9-1-3.9-1-5.9
		c0-2.3,0.4-4.5,1.2-6.4c0.8-1.9,2-3.6,3.5-4.9c1.5-1.4,3.3-2.4,5.4-3.1c2.1-0.7,4.4-1.1,6.8-1.1c1.7,0,3.3,0.2,4.6,0.5
		c1.4,0.3,2.6,0.8,3.6,1.5c1,0.6,1.9,1.4,2.6,2.3c0.7,0.9,1.3,1.8,1.7,2.8l0.6,1.3H191l-0.2-0.6c-0.2-0.5-0.4-0.9-0.8-1.4
		c-0.4-0.5-1-0.9-1.6-1.3c-0.7-0.4-1.5-0.7-2.4-1c-0.9-0.3-1.9-0.4-3-0.4c-1.6,0-3.1,0.3-4.4,0.9c-1.4,0.6-2.5,1.4-3.5,2.4
		c-1,1-1.8,2.3-2.3,3.7c-0.5,1.4-0.8,3.1-0.8,4.8c0,1.6,0.3,3.3,0.8,4.8c0.5,1.5,1.3,2.8,2.3,4c1,1.1,2.3,2.1,3.8,2.7
		c1.5,0.7,3.3,1,5.3,1c3.6,0,6.7-1.2,9.4-3.7l0.6-0.6l2.5,2.3l-0.6,0.7c-0.4,0.5-0.9,1-1.7,1.6c-0.7,0.6-1.7,1.2-2.8,1.7
		c-1.1,0.5-2.4,0.9-3.8,1.3C186.3,39,184.7,39.2,182.8,39.2z"/>
	<polygon class="st0" points="221.2,38.7 221.2,24.3 205.8,24.3 205.8,38.7 200.2,38.7 200.2,8 205.8,8 205.8,20.6 221.2,20.6 
		221.2,8 226.8,8 226.8,38.7 	"/>
	<polygon class="st0" points="76.8,8 76.8,38.7 80.4,38.7 80.4,17.6 80.4,8 	"/>
	<polygon class="st0" points="106.7,8 105.4,8 105.4,17.6 105.4,38.7 111,38.7 111,8 	"/>
	<g>
		<polygon class="st1" points="89.3,29.7 76.8,17 80.4,13.4 90.2,23.2 112.9,0.5 115.7,3.3 		"/>
	</g>
</g>
</svg>
