<?xml version="1.0" encoding="utf-8"?>
<!-- Generator: Adobe Illustrator 25.0.1, SVG Export Plug-In . SVG Version: 6.00 Build 0)  -->
<svg version="1.1" id="Layer_1" xmlns="http://www.w3.org/2000/svg" xmlns:xlink="http://www.w3.org/1999/xlink" x="0px" y="0px"
	 viewBox="0 0 1800 280" style="enable-background:new 0 0 1800 280;" xml:space="preserve">
<style type="text/css">
	.st0{fill:url(#SVGID_1_);}
	.st1{fill:#F5E4FF;}
	.st2{fill:#BFBDF0;}
	.st3{fill:#FFFFFF;}
</style>
<g>
	<path d="M1764,191.8h-20.5v-73.4c0-1.4-0.3-2.8-0.8-4c-0.5-1.2-1.3-2.3-2.2-3.3c-0.9-0.9-2-1.7-3.3-2.2c-1.2-0.5-2.6-0.8-4-0.8
		c-1.4,0-2.8,0.3-4,0.8c-1.2,0.5-2.3,1.3-3.3,2.2s-1.7,2-2.2,3.3s-0.8,2.6-0.8,4v73.4h-20.6v-73.4c0-1.4-0.3-2.8-0.8-4
		c-0.5-1.2-1.3-2.3-2.2-3.3s-2-1.7-3.3-2.2c-1.2-0.5-2.6-0.8-4-0.8s-2.8,0.3-4,0.8c-1.2,0.5-2.3,1.3-3.3,2.2s-1.7,2-2.2,3.3
		c-0.5,1.2-0.8,2.6-0.8,4v73.4h-20.6v-73.4c0-4.3,0.8-8.3,2.4-12c1.6-3.8,3.8-7,6.6-9.8c2.8-2.8,6.1-5,9.8-6.6
		c3.8-1.6,7.8-2.4,12-2.4c3.8,0,7.5,0.7,11,2c3.5,1.4,6.7,3.3,9.5,5.9c2.8-2.6,6-4.5,9.5-5.9s7.2-2,11-2c4.3,0,8.3,0.8,12,2.4
		c3.7,1.6,7,3.8,9.8,6.6c2.8,2.8,5,6.1,6.6,9.8c1.6,3.8,2.4,7.8,2.4,12V191.8z"/>
	<g>
		<linearGradient id="SVGID_1_" gradientUnits="userSpaceOnUse" x1="66.2824" y1="213.5844" x2="224.0173" y2="55.8494">
			<stop  offset="0" style="stop-color:#571AC8"/>
			<stop  offset="1" style="stop-color:#F6B6F9"/>
		</linearGradient>
		<path class="st0" d="M236,67.8L136,10.1L36,67.8v115.5l150,86.6c0,0,0-32.1,0-57.7l50-28.9V67.8z"/>
		<g>
			<g id="XMLID_23_">
				<g>
					<path class="st1" d="M193.5,96v63.5l-55,31.8v-30l9.2-5.3v12.4c0,0.5,0.3,1,0.8,1.3c0.2,0.1,0.5,0.2,0.7,0.2
						c0.3,0,0.5-0.1,0.8-0.2l18.2-11.3c1.1,0.9,2.6,1,3.9,0.3c1.7-1,2.2-3.1,1.3-4.8c-1-1.7-3.1-2.2-4.8-1.3
						c-1.1,0.6-1.8,1.9-1.8,3.1l-16.2,10.1v-11.4l32.3-18.7c1.1,0.7,2.5,0.8,3.7,0.2c1.7-1,2.2-3.1,1.3-4.8c-1-1.7-3.1-2.2-4.8-1.3
						c-1.2,0.7-1.8,2-1.7,3.3l-9.7,5.6V127l8.9-5.2c1.1,0.8,2.5,0.9,3.7,0.1c1.7-1,2.2-3.1,1.3-4.8c-1-1.7-3.1-2.2-4.8-1.3
						c-1.2,0.7-1.8,2-1.7,3.3l-9.7,5.6c-0.5,0.3-0.8,0.8-0.8,1.3v14.1l-30.4,17.5v-30L193.5,96z"/>
				</g>
				<g>
					<path class="st2" d="M133.5,127.7v63.5l-55-31.8V96l26,15v51.4c-1.2,0.6-2,1.8-2,3.2c0,1.9,1.6,3.5,3.5,3.5
						c1.9,0,3.5-1.6,3.5-3.5c0-1.4-0.8-2.6-2-3.2v-49.7L133.5,127.7z"/>
				</g>
				<g>
					<path class="st3" d="M136,59.9l-26,15l43,24.8c1.1-0.8,2.5-0.9,3.7-0.2c1.7,1,2.2,3.1,1.3,4.8c-1,1.7-3.1,2.2-4.8,1.3
						c-1.2-0.7-1.8-2-1.7-3.3L107,76.6l-26,15l55,31.8l55-31.8L136,59.9z"/>
				</g>
			</g>
		</g>
	</g>
	<path d="M382.6,190.9h-20.6v-20.6h-41.1v20.6h-20.5v-61.6c0-5.7,1.1-11,3.2-16c2.1-5,5.1-9.4,8.8-13.1c3.7-3.7,8-6.7,13-8.8
		c5-2.1,10.3-3.2,16-3.2c5.7,0,11,1.1,16,3.2c5,2.1,9.4,5.1,13.1,8.8c3.7,3.7,6.7,8.1,8.8,13.1c2.1,5,3.2,10.3,3.2,16V190.9z
		 M362.1,149.9v-20.6c0-2.8-0.5-5.5-1.6-8s-2.5-4.7-4.4-6.6s-4-3.3-6.6-4.4c-2.5-1.1-5.2-1.6-8-1.6c-2.8,0-5.5,0.5-8,1.6
		c-2.5,1.1-4.7,2.5-6.6,4.4s-3.3,4-4.4,6.6c-1.1,2.5-1.6,5.2-1.6,8v20.6H362.1z"/>
	<path d="M472.4,190.9h-71.9V88.2H421v82.2h51.4V190.9z"/>
	<path d="M555,190.9h-71.9V88.2h20.6v82.2H555V190.9z"/>
	<path d="M649.9,190.9h-20.5v-82.2h-30.9V88.2h82.2v20.6h-30.8V190.9z"/>
	<path d="M712.2,190.9h-20.6V88.2h20.6v41.1h41.1V88.2h20.6v102.7h-20.6v-41.1h-41.1V190.9z"/>
	<path d="M873.9,190.9h-20.6v-20.6h-41.1v20.6h-20.5v-61.6c0-5.7,1.1-11,3.2-16c2.1-5,5.1-9.4,8.8-13.1c3.7-3.7,8-6.7,13-8.8
		s10.3-3.2,16-3.2c5.7,0,11,1.1,16,3.2c5,2.1,9.4,5.1,13.1,8.8c3.7,3.7,6.7,8.1,8.8,13.1c2.1,5,3.2,10.3,3.2,16V190.9z M853.3,149.9
		v-20.6c0-2.8-0.5-5.5-1.6-8c-1.1-2.5-2.5-4.7-4.4-6.6s-4-3.3-6.6-4.4c-2.5-1.1-5.2-1.6-8-1.6c-2.8,0-5.5,0.5-8,1.6
		c-2.5,1.1-4.7,2.5-6.6,4.4c-1.9,1.9-3.3,4-4.4,6.6c-1.1,2.5-1.6,5.2-1.6,8v20.6H853.3z"/>
	<path d="M931.8,190.9h-20.5v-82.2h-30.9V88.2h82.2v20.6h-30.8V190.9z"/>
	<path d="M1035.1,190.9h-20.6V88.2h41.1c3.8,0,7.4,0.5,10.9,1.5c3.5,1,6.7,2.4,9.8,4.2c3,1.8,5.8,3.9,8.3,6.4s4.7,5.3,6.4,8.3
		c1.8,3.1,3.2,6.3,4.2,9.8c1,3.5,1.5,7.1,1.5,10.9c0,5.6-1.1,11-3.2,15.9c-2.1,5-5.1,9.4-8.8,13.1c-3.7,3.7-8.1,6.7-13.1,8.8
		c-5,2.1-10.3,3.2-15.9,3.2h-20.6V190.9z M1035.1,108.7v41.1h20.6c2.8,0,5.5-0.5,8-1.6c2.5-1.1,4.7-2.5,6.5-4.4
		c1.9-1.9,3.3-4,4.4-6.6c1.1-2.5,1.6-5.2,1.6-8c0-2.8-0.5-5.5-1.6-8c-1.1-2.5-2.5-4.7-4.4-6.6s-4-3.3-6.5-4.4
		c-2.5-1.1-5.1-1.6-8-1.6H1035.1z"/>
	<path d="M1180.7,190.9h-71.9V88.2h20.6v82.2h51.4V190.9z"/>
	<path d="M1272.4,190.9h-20.6v-20.6h-41.1v20.6h-20.5v-61.6c0-5.7,1.1-11,3.2-16c2.1-5,5.1-9.4,8.8-13.1c3.7-3.7,8-6.7,13-8.8
		s10.3-3.2,16-3.2c5.7,0,11,1.1,16,3.2c5,2.1,9.4,5.1,13.1,8.8c3.7,3.7,6.7,8.1,8.8,13.1c2.1,5,3.2,10.3,3.2,16V190.9z
		 M1251.8,149.9v-20.6c0-2.8-0.5-5.5-1.6-8c-1.1-2.5-2.5-4.7-4.4-6.6s-4-3.3-6.6-4.4c-2.5-1.1-5.2-1.6-8-1.6c-2.8,0-5.5,0.5-8,1.6
		c-2.5,1.1-4.7,2.5-6.6,4.4c-1.9,1.9-3.3,4-4.4,6.6c-1.1,2.5-1.6,5.2-1.6,8v20.6H1251.8z"/>
	<path d="M1330.3,190.9h-20.5v-82.2h-30.9V88.2h82.2v20.6h-30.8V190.9z"/>
	<path d="M1552.9,140c0,4.9-0.6,9.6-1.9,14.1c-1.3,4.5-3,8.7-5.3,12.7c-2.3,3.9-5.1,7.5-8.3,10.8c-3.2,3.2-6.8,6-10.7,8.3
		c-3.9,2.3-8.1,4.1-12.7,5.4c-4.5,1.3-9.2,1.9-14.1,1.9c-4.9,0-9.6-0.6-14.1-1.9c-4.5-1.3-8.7-3.1-12.7-5.4
		c-3.9-2.3-7.5-5.1-10.8-8.3c-3.2-3.2-6-6.8-8.3-10.8c-2.3-3.9-4.1-8.2-5.4-12.7c-1.3-4.5-1.9-9.2-1.9-14.1c0-4.9,0.6-9.6,1.9-14.1
		c1.3-4.5,3.1-8.8,5.4-12.7c2.3-3.9,5.1-7.5,8.3-10.7c3.2-3.2,6.8-6,10.8-8.3c3.9-2.3,8.2-4.1,12.7-5.3c4.5-1.3,9.2-1.9,14.1-1.9
		c4.9,0,9.6,0.6,14.1,1.9c4.5,1.3,8.8,3,12.7,5.3c3.9,2.3,7.5,5.1,10.7,8.3c3.2,3.2,6,6.8,8.3,10.7c2.3,3.9,4.1,8.1,5.3,12.7
		C1552.3,130.4,1552.9,135.1,1552.9,140z M1532.5,140c0-4.5-0.9-8.7-2.6-12.7c-1.7-4-4-7.5-7-10.4c-2.9-2.9-6.4-5.3-10.4-7
		c-4-1.7-8.2-2.6-12.7-2.6c-4.5,0-8.8,0.9-12.8,2.6s-7.4,4-10.4,7c-3,2.9-5.3,6.4-7,10.4c-1.7,4-2.6,8.2-2.6,12.7
		c0,4.5,0.9,8.7,2.6,12.6c1.7,3.9,4.1,7.4,7,10.4c3,3,6.4,5.3,10.4,7s8.2,2.6,12.8,2.6c4.5,0,8.7-0.9,12.7-2.6c4-1.7,7.5-4.1,10.4-7
		c2.9-3,5.3-6.4,7-10.4C1531.6,148.7,1532.5,144.5,1532.5,140z"/>
	<path d="M1587,190.9h-20.6V88.2h41.1c3.8,0,7.4,0.5,10.9,1.5c3.5,1,6.7,2.4,9.8,4.2c3,1.8,5.8,3.9,8.3,6.4s4.7,5.3,6.4,8.3
		c1.8,3.1,3.2,6.3,4.2,9.8c1,3.5,1.5,7.1,1.5,10.9c0,3.5-0.4,7-1.3,10.3c-0.9,3.3-2.1,6.5-3.8,9.5c-1.6,3-3.7,5.8-6.1,8.3
		c-2.4,2.5-5.1,4.7-8,6.6l11.4,26.9h-21.9l-9-20.7l-23,0.1V190.9z M1587,108.7v41.1h20.6c2.8,0,5.5-0.5,8-1.6
		c2.5-1.1,4.7-2.5,6.5-4.4c1.9-1.9,3.3-4,4.4-6.6c1.1-2.5,1.6-5.2,1.6-8c0-2.8-0.5-5.5-1.6-8c-1.1-2.5-2.5-4.7-4.4-6.6
		s-4-3.3-6.5-4.4c-2.5-1.1-5.1-1.6-8-1.6H1587z"/>
	<polygon points="1372,129.3 1372,190.9 1392.6,190.9 1392.6,149.9 1423.4,149.9 1423.4,129.3 	"/>
	<rect x="1372" y="88.2" width="71.9" height="20.6"/>
</g>
</svg>
