<?xml version="1.0" encoding="utf-8"?>
<!-- Generator: Adobe Illustrator 24.1.0, SVG Export Plug-In . SVG Version: 6.00 Build 0)  -->
<svg version="1.1" id="Layer_1" xmlns="http://www.w3.org/2000/svg" xmlns:xlink="http://www.w3.org/1999/xlink" x="0px" y="0px"
	 viewBox="0 0 24 34" style="enable-background:new 0 0 24 34;" xml:space="preserve">
<style type="text/css">
	.st0{enable-background:new    ;}
	.st1{fill-rule:evenodd;clip-rule:evenodd;fill:#E44D26;}
	.st2{fill-rule:evenodd;clip-rule:evenodd;fill:#EBEBEB;}
	.st3{fill-rule:evenodd;clip-rule:evenodd;fill:#F16529;}
	.st4{fill-rule:evenodd;clip-rule:evenodd;fill:#FFFFFF;}
	.st5{fill-rule:evenodd;clip-rule:evenodd;}
</style>
<g>
	<g id="形状_1_9_" class="st0">
		<g id="形状_1">
			<g>
				<polygon class="st1" points="0,6.7 2.2,31.2 12,33.9 21.8,31.2 24,6.7 				"/>
			</g>
		</g>
	</g>
	<g id="形状_1_8_" class="st0">
		<g id="形状_1_1_">
			<g>
				<path class="st2" d="M12,11.7H4.5l0.1,0.8l0.7,8.3H12v-3H8l-0.3-3.1H12V11.7z M8.6,24.7l-0.2-2.4h-3L5.8,27l6.2,1.7l0,0v-3.1
					l0,0L8.6,24.7z"/>
			</g>
		</g>
	</g>
	<g id="形状_1_7_" class="st0">
		<g id="形状_1_2_">
			<g>
				<polygon class="st3" points="12,8.7 12,31.9 19.9,29.7 21.8,8.7 				"/>
			</g>
		</g>
	</g>
	<g id="形状_1_6_" class="st0">
		<g id="形状_1_3_">
			<g>
				<path class="st4" d="M12,20.8h3.7l-0.3,3.9L12,25.6v3.1l6.2-1.7l0-0.5l0.7-7.9l0.1-0.8h-7L12,20.8L12,20.8z M12,11.7v3h7.3
					l0.1-0.7l0.1-1.5l0.1-0.8L12,11.7L12,11.7z"/>
			</g>
		</g>
	</g>
	<g id="形状_1_5_" class="st0">
		<g id="形状_1_4_">
			<g>
				<path class="st5" d="M5.2,1.6H3.8V0.1H2.2v4.6h1.5V3.1h1.4v1.5h1.5V0.1H5.2L5.2,1.6L5.2,1.6z M7.3,1.6h1.3v3.1h1.5V1.6h1.3V0.1
					H7.3V1.6z M14.8,1.7l-1-1.6h-1.6v4.6h1.5V2.4L14.8,4h0l1.1-1.6v2.3h1.5V0.1h-1.6L14.8,1.7z M19.7,3.1V0.1h-1.5v4.6h3.7V3.1H19.7
					z"/>
			</g>
		</g>
	</g>
</g>
</svg>
