<?xml version="1.0" encoding="utf-8"?>
<!-- Generator: Adobe Illustrator 24.1.0, SVG Export Plug-In . SVG Version: 6.00 Build 0)  -->
<svg version="1.1" id="Layer_1" xmlns="http://www.w3.org/2000/svg" xmlns:xlink="http://www.w3.org/1999/xlink" x="0px" y="0px"
	 viewBox="0 0 508 115" style="enable-background:new 0 0 508 115;" xml:space="preserve">
<style type="text/css">
	.st0{fill:#131B28;}
</style>
<g id="Layer_5">
	<path d="M217.3,45L217.3,45L214,56.5L217.3,45L217.3,45z"/>
	<path d="M234,70l-3.6,0L234,70z"/>
	<path d="M233.1,87.2L233.1,87.2l-21.5,0.1L233.1,87.2L233.1,87.2z"/>
	<path d="M237.5,70l-3.6,0L237.5,70z"/>
	<path d="M234.9,85.7l3.7-14.3L234.9,85.7L234.9,85.7L234.9,85.7z"/>
	<path d="M313.9,20.1l-7,32.7L313.9,20.1z"/>
	<path d="M296,20.1l-5.3,24.5L296,20.1L296,20.1z"/>
	<path d="M312.7,18.6h-14.9c-0.8,0-1.6,0.7-1.8,1.5l-5.3,24.5L285.5,69c-0.2,0.8-1,1.5-1.8,1.5h-9h-1.5c-10.4,0-9.2-7.2-7.1-17.1
		c0-0.1,0-0.2,0.1-0.3l0.2-1.2c0-0.1,0-0.2,0-0.2l0.5-2.5l0.5-2.7c0.2-0.8,0.4-2,0.5-2.8l2.4-11.7l2.4-11.7c0.2-0.8-0.4-1.5-1.2-1.5
		h-15.3c-0.8,0-1.6,0.7-1.8,1.5l-3.3,15.6l-3.3,15.6c0,0,0,0,0,0l-0.3,1.4c-3.8,17.3-2.8,33.8,17.8,34.3c0.3,0,0.6,0,0.6,0h32.3
		c0.8,0,1.6-0.7,1.8-1.5l7-32.7l7-32.7C314.1,19.3,313.6,18.6,312.7,18.6L312.7,18.6z"/>
	<path d="M372.1,70.6c0.8,0,1.4,0.7,1.2,1.5l-1.4,7.1"/>
	<path d="M370.5,86.2l1.4-7.1L370.5,86.2C370.4,86.2,370.5,86.2,370.5,86.2L370.5,86.2z"/>
	<path d="M368.6,87.7C368.6,87.7,368.6,87.7,368.6,87.7c-4.4,0-17.5,0.1-27.4,0.1C353.2,87.8,368.6,87.7,368.6,87.7L368.6,87.7z"/>
	<path d="M332.3,61.5c0-0.8,0.9-2.1,1.7-2.1l-1.9,0C331.3,67.8,332.3,61.5,332.3,61.5L332.3,61.5z"/>
	<path d="M342.6,87.8c-0.1,0-0.2,0-0.3,0C342.4,87.8,342.5,87.8,342.6,87.8z"/>
	<path d="M372.1,70.6c0.8,0,1.4,0.7,1.2,1.5l-1.4,7.1l-0.2,1.2"/>
	<path d="M349.6,87.8L349.6,87.8L349.6,87.8z"/>
	<path d="M345.9,87.8h-0.2H345.9z"/>
	<path d="M344.8,87.8c-0.1,0-0.2,0-0.4,0C344.6,87.8,344.7,87.8,344.8,87.8z"/>
	<path d="M343.7,87.8h-0.3H343.7z"/>
	<path d="M345.7,87.8c-0.3,0-0.6,0-0.9,0C345.1,87.8,345.4,87.8,345.7,87.8z"/>
	<path d="M349.5,87.8c-1.2,0-2.4,0-3.6,0C347.1,87.8,348.3,87.8,349.5,87.8z"/>
	<path d="M368.6,87.7L368.6,87.7c-3.2,0-11.1,0.1-19,0.1C357.5,87.8,365.4,87.7,368.6,87.7z"/>
	<path d="M370.5,86.2l1.2-5.9L370.5,86.2C370.4,86.2,370.5,86.2,370.5,86.2L370.5,86.2z"/>
	<path d="M344.5,87.8h-0.8H344.5z"/>
	<path d="M342.3,87.8h-1.1H342.3z"/>
	<path d="M343.4,87.8h-0.8H343.4z"/>
	<path class="st0" d="M125.6,61.7l2.3-10.3l-2.6,11.7l-2.5,11.9l2.2-10.5C125.1,63.8,125.4,62.5,125.6,61.7L125.6,61.7z"/>
	<path d="M153.3,18.4h-16.4c-0.8,0-1.7,0.7-1.8,1.5l-1.6,6.8l-1.6,6.8c-0.2,0.8,0.3,1.5,1.2,1.5h16.5c0.8,0,1.6-0.7,1.8-1.5l1.5-6.8
		l1.5-6.8v0C154.6,19.1,154.1,18.4,153.3,18.4L153.3,18.4z"/>
	<path d="M149.7,41.2L149.7,41.2l-4.8,22.2L149.7,41.2z"/>
	<path class="st0" d="M102.2,114.7c0,0,8.2,0.1,13.5,0.1C111.7,114.8,105.1,114.7,102.2,114.7C102.2,114.7,102.2,114.7,102.2,114.7
		L102.2,114.7z"/>
	<path class="st0" d="M130.2,41.2l-2.3,10.3L130.2,41.2z"/>
	<path d="M148.5,39.7h-16.5c-0.8,0-1.7,0.7-1.8,1.5l-2.3,10.3l-2.3,10.3c-0.2,0.8-0.5,2.1-0.6,2.9l-2.2,10.5l-2.2,10.5
		c-0.2,0.8-0.5,2.1-0.8,2.9c0,0-3.1,9.2-8.3,9.1c-0.2,0-0.4,0-0.6,0c-2.5,0-4.5-0.1-4.5-0.1h0c-0.8,0-1.7,0.6-1.8,1.4l-1.7,7.2
		l-1.7,7.2c-0.2,0.8,0.3,1.5,1.1,1.5c2.9,0,9.5,0.1,13.5,0.1c12.9,0,19.7-7.2,24.1-27.8l5.1-23.7l4.8-22.2
		C149.9,40.4,149.4,39.7,148.5,39.7L148.5,39.7z"/>
	<path d="M382.6,87c-0.8,0-1.4-0.7-1.2-1.5l12.4-58.1"/>
	<path d="M399.9,85.5l5-24.8L399.9,85.5z"/>
	<path d="M381.6,86.3c-0.1-0.4,0-1.4,0.1-2.2l5.9-27.6l-6.2,29c-0.2,0.8,0.4,1.5,1.2,1.5h1.5C383.3,87,381.7,86.7,381.6,86.3
		L381.6,86.3z"/>
	<path d="M398.9,86.7c-0.5,0.2-1.5,0.3-2.3,0.3h1.5c0.8,0,1.6-0.7,1.8-1.5l0.3-1.5C400,84.9,399.3,86.5,398.9,86.7L398.9,86.7z"/>
	<path d="M402.4,73.1l2.2-10.9c0,0,0,0,0,0L402.4,73.1L402.4,73.1z"/>
	<path d="M451.3,31.3l0.7,2.8c0.2,0.8-0.3,1.5-1.2,1.5"/>
	<path d="M400.2,84.1l2.2-10.9L400.2,84.1z"/>
	<path d="M450.6,28.5l0.7,2.9L450.6,28.5z"/>
	<path d="M404.6,62.2c0.2-0.8,0.4-2.1,0.6-2.9l2.4-11.1l-2.7,12.5L404.6,62.2L404.6,62.2z"/>
	<path d="M394.1,26.5c-0.2,0.8-0.4,1.8-0.5,2.4l-5.9,27.6l6.2-29L394.1,26.5L394.1,26.5z"/>
	<path d="M452,34.2l-0.7-2.8l-0.7-2.9l-0.3-1.5c-1.3-5.2-5.3-8.2-13.8-8.2l-13.3,0l-12.2,0h-1h-12.7c-0.8,0-1.6,0.7-1.8,1.5l0,0
		l-0.6,2.9l-0.7,3.4l-0.2,1l-6.2,29l-5.9,27.6c-0.2,0.8-0.2,1.8-0.1,2.2c0.1,0.4,1.7,0.7,2.5,0.7h12.4c0.8,0,1.9-0.1,2.3-0.3
		c0.5-0.2,1.1-1.8,1.3-2.6l2.2-10.9l2.2-10.9c0,0,0,0,0,0l0.3-1.5l2.7-12.5l2.4-11.1c0.2-0.8,1-1.5,1.8-1.5l39.1,0
		C451.6,35.6,452.2,35,452,34.2L452,34.2z"/>
	<path d="M502.3,8.7c-0.8,0-2.2,0-3,0h-12.5c-0.8,0-1.9,0.6-2.4,1.2l-27.7,40.5c-0.5,0.7-1,0.6-1.2-0.2l-2-8.9
		c-0.2-0.8-1-1.5-1.8-1.5h-17.8c-0.8,0-1.3,0.6-1.1,1.4l8,27.9c0.2,0.8,0.2,2.1,0,2.9l-3.5,13.5c-0.2,0.8,0.3,1.5,1.1,1.5h17.6
		c0.8,0,1.7-0.7,1.9-1.5l3.5-13.5c0.2-0.8,0.8-2,1.3-2.7l44.9-59.6c0.5-0.7,0.2-1.2-0.6-1.2L502.3,8.7L502.3,8.7z"/>
	<path d="M361,43.6L361,43.6c-0.1,0.9-0.9,1.5-1.8,1.5h-22.5c-0.8,0-1.2-0.5-1.1-1.2c0,0,0,0,0-0.1c0,0,0,0,0,0c0,0,0,0,0-0.1
		c0,0,0-0.2,0.1-0.4c2.2-5.7,6.5-9.5,14.8-9.5C359.8,34,361.7,38.5,361,43.6L361,43.6z M354.4,17.6c-28.9,0-35.8,17.6-39.6,35.3
		c-3.8,18.1-3.5,35,26.4,35h1.1c0.1,0,0.2,0,0.3,0h0.8h0.3h0.8c0.1,0,0.2,0,0.4,0c0.3,0,0.6,0,0.9,0h0.2c1.2,0,2.4,0,3.6,0h0.1
		c7.9,0,15.8-0.1,19.1-0.1c0.8,0,1.6-0.7,1.8-1.5l1.2-5.9l0.2-1.2l1.4-7.1c0.2-0.8-0.4-1.5-1.2-1.5h-26.9
		c-10.7,0-13.9-2.8-12.7-11.2h43l0,0c0,0,0,0,0,0c0.7,0,1.3-0.5,1.6-1.1c0-0.1,0.1-0.2,0.1-0.4l0,0
		C383.6,33.8,381.8,17.6,354.4,17.6L354.4,17.6z"/>
	<path d="M217.7,43.5l-0.4,1.4c0,0,0,0,0,0L214,56.5L210.8,68c-0.2,0.8-1.1,1.4-1.9,1.4h-17.2c-13,0-16.2-10.2-13-25.2
		c3.2-15.4,9.4-25,22.2-25.9C218.4,16.9,221.9,29.3,217.7,43.5L217.7,43.5z M229.5,68.6c0,0,8.1-19.7,9.9-31.1
		c2.5-15.2-5.1-37.3-34.5-37.3c-29.3,0-42,21.1-46.8,44c-4.8,23.1,1.5,43.3,30.6,43.2l23-0.1l21.5-0.1c0.8,0,1.7-0.7,1.9-1.5
		l3.7-14.3c0.2-0.8-0.3-1.5-1.1-1.5l-3.6,0l-3.6,0c-0.7,0-1.1-0.5-1-1.1C229.4,68.8,229.4,68.7,229.5,68.6L229.5,68.6z"/>
	<path d="M374.3,55.4c0,0.5-0.4,1-1,1c-0.5,0-1-0.4-1-1c0-0.5,0.4-1,1-1C373.9,54.4,374.3,54.8,374.3,55.4z"/>
	<path d="M6,29.8c-8.1,11.6-7.1,26.7-0.9,39.1c0.1,0.3,0.3,0.6,0.5,0.9c0.1,0.2,0.2,0.4,0.3,0.6c0.1,0.1,0.1,0.2,0.2,0.3
		c0.1,0.2,0.2,0.4,0.3,0.6c0.2,0.3,0.4,0.7,0.6,1c0.1,0.2,0.2,0.4,0.3,0.6c0.2,0.4,0.5,0.7,0.7,1.1C8,74,8.1,74.1,8.2,74.3
		c0.3,0.5,0.7,1,1,1.4c0,0,0,0,0,0c0.1,0.1,0.1,0.1,0.2,0.2c0.3,0.4,0.6,0.8,0.9,1.2c0.1,0.1,0.2,0.3,0.3,0.4c0.3,0.3,0.6,0.7,0.8,1
		c0.1,0.1,0.2,0.3,0.3,0.4c0.4,0.4,0.8,0.9,1.2,1.3c0,0,0,0,0,0c0,0,0,0,0,0c0.4,0.4,0.8,0.8,1.2,1.2c0.1,0.1,0.3,0.3,0.4,0.4
		c0.3,0.3,0.6,0.6,0.9,0.9c0.1,0.1,0.3,0.2,0.4,0.4c0.4,0.4,0.9,0.8,1.3,1.2c0,0,0,0,0,0c0.1,0.1,0.2,0.1,0.2,0.2
		c0.4,0.3,0.8,0.7,1.2,1c0.2,0.1,0.3,0.3,0.5,0.4c0.3,0.3,0.6,0.5,1,0.8c0.2,0.1,0.3,0.3,0.5,0.4c0.4,0.3,0.7,0.5,1.1,0.8
		c0.1,0.1,0.3,0.2,0.4,0.3c0,0,0.1,0.1,0.1,0.1c0.4,0.2,0.7,0.5,1.1,0.7c0.2,0.1,0.3,0.2,0.5,0.3c0.5,0.3,1.1,0.7,1.7,1
		c0.2,0.1,0.3,0.2,0.5,0.3c0.4,0.2,0.8,0.5,1.3,0.7c0.2,0.1,0.5,0.2,0.7,0.4c0.3,0.2,0.6,0.3,0.9,0.5c0.1,0,0.1,0.1,0.2,0.1
		c0.1,0.1,0.2,0.1,0.4,0.2c0.5,0.2,0.9,0.4,1.4,0.7c0.1,0,0.2,0.1,0.3,0.1c0.5,0.2,1.1,0.5,1.7,0.7c0.1,0.1,0.3,0.1,0.4,0.2
		c0.5,0.2,1,0.4,1.6,0.6c0.1,0,0.1,0,0.2,0.1c0.6,0.2,1.2,0.4,1.7,0.6c0.1,0,0.3,0.1,0.4,0.1c0.6,0.2,1.2,0.4,1.8,0.5
		c39.1,7.1,50.4-23.5,50.4-23.5c-9.5,12.4-26.5,15.7-42.5,12.1c-0.6-0.1-1.2-0.3-1.8-0.5c-0.2,0-0.3-0.1-0.4-0.1
		c-0.6-0.2-1.2-0.4-1.7-0.6c-0.1,0-0.2-0.1-0.2-0.1c-0.5-0.2-1-0.4-1.5-0.6c-0.1-0.1-0.3-0.1-0.4-0.2c-0.6-0.2-1.1-0.4-1.6-0.7
		c-0.1,0-0.2-0.1-0.3-0.1c-0.5-0.2-0.9-0.4-1.4-0.6c-0.1-0.1-0.3-0.1-0.4-0.2c-0.4-0.2-0.7-0.4-1.1-0.5c-0.2-0.1-0.5-0.2-0.7-0.4
		c-0.4-0.2-0.9-0.5-1.3-0.7c-0.1-0.1-0.3-0.2-0.4-0.2c-0.6-0.3-1.1-0.7-1.7-1c-0.2-0.1-0.3-0.2-0.5-0.3c-0.4-0.3-0.8-0.5-1.2-0.8
		c-0.1-0.1-0.3-0.2-0.4-0.3c-0.4-0.3-0.8-0.5-1.1-0.8c-0.2-0.1-0.3-0.3-0.5-0.4c-0.3-0.3-0.7-0.5-1-0.8c-0.2-0.1-0.3-0.2-0.5-0.4
		c-0.4-0.4-0.8-0.7-1.3-1.1c0,0-0.1-0.1-0.1-0.1c-0.4-0.4-0.9-0.8-1.3-1.2c-0.1-0.1-0.2-0.2-0.4-0.4c-0.3-0.3-0.6-0.6-1-0.9
		c-0.1-0.1-0.3-0.2-0.4-0.4c-0.4-0.4-0.8-0.8-1.2-1.2c0,0,0,0-0.1-0.1c-0.4-0.4-0.8-0.9-1.2-1.4c-0.1-0.1-0.2-0.2-0.3-0.4
		c-0.3-0.3-0.6-0.7-0.9-1.1c-0.1-0.1-0.2-0.3-0.3-0.4c-0.3-0.4-0.7-0.9-1-1.3c-8.9-12.1-12.1-28.9-5-42.6"/>
	<path d="M31,20c-5.8,8.4-5.5,19.7-1,28.6c0.8,1.5,1.6,2.9,2.6,4.3c0.9,1.3,1.8,2.7,3,3.8c0.4,0.5,0.9,0.9,1.3,1.4
		c0.1,0.1,0.2,0.2,0.3,0.3c0.4,0.4,0.9,0.8,1.3,1.2c0,0,0,0,0.1,0c0,0,0,0,0,0c0.5,0.4,1,0.9,1.6,1.3c0.1,0.1,0.2,0.2,0.4,0.3
		c0.5,0.4,1.1,0.8,1.6,1.2c0,0,0,0,0,0c0.2,0.2,0.5,0.3,0.7,0.5c0.1,0.1,0.2,0.2,0.4,0.2c0.4,0.3,0.8,0.5,1.2,0.7
		c0.1,0,0.1,0.1,0.2,0.1c0.4,0.2,0.7,0.4,1.1,0.6c0.1,0.1,0.3,0.1,0.4,0.2c0.2,0.1,0.5,0.3,0.8,0.4c0,0,0.1,0,0.1,0.1
		c0.5,0.3,1,0.5,1.6,0.7c0.1,0,0.2,0.1,0.3,0.1c0.4,0.2,0.9,0.4,1.3,0.5c0.2,0.1,0.4,0.1,0.5,0.2c0.4,0.1,0.8,0.3,1.2,0.4
		c0.2,0.1,0.4,0.1,0.5,0.2c0.6,0.2,1.1,0.4,1.7,0.5c30.2,5,37.1-18.2,37.1-18.2C85.2,58.7,73,63,60,59.7c-0.6-0.2-1.1-0.3-1.7-0.5
		c-0.2-0.1-0.3-0.1-0.5-0.2c-0.4-0.1-0.8-0.3-1.2-0.4c-0.2-0.1-0.4-0.1-0.5-0.2c-0.4-0.2-0.9-0.3-1.3-0.5c-0.1,0-0.2-0.1-0.3-0.1
		c-0.5-0.2-1.1-0.5-1.6-0.7c-0.3-0.1-0.5-0.3-0.8-0.4c-0.2-0.1-0.3-0.2-0.5-0.2c-0.3-0.2-0.7-0.4-1-0.6c-0.1,0-0.2-0.1-0.2-0.1
		c-0.4-0.2-0.8-0.5-1.2-0.7c-0.1-0.1-0.2-0.2-0.4-0.2c-0.3-0.2-0.5-0.3-0.8-0.5c-0.6-0.4-1.1-0.8-1.6-1.2c-0.1-0.1-0.2-0.2-0.4-0.3
		c-5.7-4.5-10.2-10.6-12.3-17.6c-2.2-7.2-1.8-15.3,2.1-21.9"/>
	<path d="M52.1,12.7c-3.4,5.1-3.8,11.4-1.4,17c2.5,5.9,7.7,10.6,13.7,12.8c0.2,0.1,0.5,0.2,0.7,0.3c0.1,0,0.2,0.1,0.3,0.1
		c0.4,0.1,0.7,0.2,1.1,0.3c16.7,3.2,21.2-8.6,22.4-10.3c-4,5.7-10.6,7.1-18.8,5.1c-0.6-0.2-1.4-0.4-2-0.6c-0.8-0.3-1.6-0.6-2.3-1
		c-1.4-0.7-2.8-1.5-4.1-2.5C54.5,28.3,50,17.7,54.7,9.1"/>
</g>
</svg>
