<?xml version="1.0" encoding="utf-8"?>
<!-- Generator: Adobe Illustrator 24.1.0, SVG Export Plug-In . SVG Version: 6.00 Build 0)  -->
<svg version="1.1" id="Layer_1" xmlns="http://www.w3.org/2000/svg" xmlns:xlink="http://www.w3.org/1999/xlink" x="0px" y="0px"
	 viewBox="0 0 24 36" style="enable-background:new 0 0 24 36;" xml:space="preserve">
<style type="text/css">
	.st0{fill:#0ACF83;}
	.st1{fill:#A259FF;}
	.st2{fill:#F24E1E;}
	.st3{fill:#FF7262;}
	.st4{fill:#1ABCFE;}
</style>
<desc></desc>
<g>
	<path id="path0_fill" class="st0" d="M6,36c3.3,0,6-2.7,6-6v-6H6c-3.3,0-6,2.7-6,6S2.7,36,6,36z"/>
	<path id="path1_fill" class="st1" d="M0,18c0-3.3,2.7-6,6-6h6v12H6C2.7,24,0,21.3,0,18z"/>
	<path id="path1_fill_1_" class="st2" d="M0,6c0-3.3,2.7-6,6-6h6v12H6C2.7,12,0,9.3,0,6z"/>
	<path id="path2_fill" class="st3" d="M12,0h6c3.3,0,6,2.7,6,6s-2.7,6-6,6h-6V0z"/>
	<path id="path3_fill" class="st4" d="M24,18c0,3.3-2.7,6-6,6s-6-2.7-6-6s2.7-6,6-6S24,14.7,24,18z"/>
</g>
</svg>
