<?xml version="1.0" encoding="utf-8"?>
<!-- Generator: Adobe Illustrator 24.1.0, SVG Export Plug-In . SVG Version: 6.00 Build 0)  -->
<svg version="1.1" id="Layer_1" xmlns="http://www.w3.org/2000/svg" xmlns:xlink="http://www.w3.org/1999/xlink" x="0px" y="0px"
	 viewBox="0 0 24 24" style="enable-background:new 0 0 24 24;" xml:space="preserve">
<style type="text/css">
	.st0{fill:url(#SVGID_1_);}
	.st1{fill:#00B5EF;}
	.st2{fill:url(#SVGID_2_);}
</style>
<g>
	
		<radialGradient id="SVGID_1_" cx="8.5455" cy="20.3636" r="19.1872" gradientTransform="matrix(1 0 0 -1 0 26)" gradientUnits="userSpaceOnUse">
		<stop  offset="0" style="stop-color:#193458;stop-opacity:0.98"/>
		<stop  offset="0.9334" style="stop-color:#210021"/>
	</radialGradient>
	<rect x="0.5" y="0.5" class="st0" width="22.9" height="22.9"/>
	<path class="st1" d="M24,24H0V0h24V24z M1.1,22.9h21.8V1.1H1.1V22.9z"/>
	<path class="st1" d="M7.6,18.5H5.5V5.5l3.1,0c2.3,0,4.3,1.7,4.5,3.9c0.3,2.6-1.8,4.8-4.3,4.8H7.6V18.5z M7.6,12h1.1
		c1.2,0,2.2-1,2.2-2.2s-1-2.2-2.2-2.2H7.6V12z"/>
	<path class="st1" d="M15.5,18.5c-1.3-0.1-2.3-0.6-2.4-0.6l1-2c0,0,0.9,0.4,2,0.4c0.4,0,0.8-0.4,0.8-0.8c0-0.3-0.2-0.7-0.6-0.8
		l-0.5-0.2c-1.1-0.4-2-1.3-2.2-2.5c-0.3-1.8,1.2-3.4,3-3.4c1.6,0,2.8,0.6,2.9,0.7l-1,2c0,0-0.9-0.4-2-0.4c-0.4,0-0.8,0.4-0.8,0.8
		c0,0.3,0.2,0.7,0.6,0.8l0.7,0.2c1.3,0.4,2.2,1.7,2,3.1C18.9,17.6,17.2,18.7,15.5,18.5z"/>
	
		<linearGradient id="SVGID_2_" gradientUnits="userSpaceOnUse" x1="-2.453" y1="20.7395" x2="26.453" y2="7.2605" gradientTransform="matrix(1 0 0 -1 0 26)">
		<stop  offset="0" style="stop-color:#FFFFFF;stop-opacity:0.2"/>
		<stop  offset="1" style="stop-color:#FFFFFF;stop-opacity:0"/>
	</linearGradient>
	<path class="st2" d="M24,24H0V0h24V24z"/>
</g>
</svg>
