<?xml version="1.0" encoding="utf-8"?>
<!-- Generator: Adobe Illustrator 24.1.0, SVG Export Plug-In . SVG Version: 6.00 Build 0)  -->
<svg version="1.1" id="Layer_1" xmlns="http://www.w3.org/2000/svg" xmlns:xlink="http://www.w3.org/1999/xlink" x="0px" y="0px"
	 viewBox="0 0 24 34" style="enable-background:new 0 0 24 34;" xml:space="preserve">
<style type="text/css">
	.st0{enable-background:new    ;}
	.st1{fill-rule:evenodd;clip-rule:evenodd;fill:#1758A7;}
	.st2{fill-rule:evenodd;clip-rule:evenodd;fill:#379AD6;}
	.st3{fill-rule:evenodd;clip-rule:evenodd;fill:#E8E8E7;}
	.st4{fill-rule:evenodd;clip-rule:evenodd;fill:#FBFBFA;}
	.st5{fill-rule:evenodd;clip-rule:evenodd;fill:#E5E4E2;}
	.st6{fill-rule:evenodd;clip-rule:evenodd;fill:#EEEEEE;}
	.st7{fill-rule:evenodd;clip-rule:evenodd;fill:#FFFFFF;}
	.st8{fill-rule:evenodd;clip-rule:evenodd;fill:#E7E7E6;}
	.st9{fill-rule:evenodd;clip-rule:evenodd;fill:#F8F8F7;}
	.st10{fill-rule:evenodd;clip-rule:evenodd;fill:#1B1B1B;}
</style>
<g>
	<g id="形状_1_19_" class="st0">
		<g id="形状_1">
			<g>
				<polygon class="st1" points="0,6.8 2.2,31.2 12,33.8 21.7,31.2 24,6.8 				"/>
			</g>
		</g>
	</g>
	<g id="形状_1_18_" class="st0">
		<g id="形状_1_1_">
			<g>
				<polygon class="st2" points="12,8.8 12,31.7 12,31.7 19.9,29.6 21.7,8.8 				"/>
			</g>
		</g>
	</g>
	<g id="形状_1_17_" class="st0">
		<g id="形状_1_2_">
			<g>
				<polygon class="st3" points="12,25.5 12,25.5 8.7,24.7 8.5,22.3 5.5,22.3 5.9,26.9 12,28.7 12,25.5 				"/>
			</g>
		</g>
	</g>
	<g id="形状_1_16_" class="st0">
		<g id="形状_1_3_">
			<g>
				<polygon class="st4" points="12,17.8 12,20.7 12,20.7 15.6,20.7 15.4,24.5 12,25.5 12,25.5 12,28.7 12,28.7 12,28.7 18.1,26.9 
					18.9,17.8 				"/>
			</g>
		</g>
	</g>
	<g id="形状_1_15_" class="st0">
		<g id="形状_1_4_">
			<g>
				<polygon class="st5" points="5.1,17.8 5.3,20.7 5.3,20.7 12,20.7 12,17.8 				"/>
			</g>
		</g>
	</g>
	<g id="形状_1_14_" class="st0">
		<g id="形状_1_5_">
			<g>
				<polygon class="st6" points="5.1,17.8 12,17.8 12,17.7 12,14.8 				"/>
			</g>
		</g>
	</g>
	<g id="形状_1_13_" class="st0">
		<g id="形状_1_6_">
			<g>
				<polygon class="st7" points="12.4,14.7 12,14.8 12,17.8 19.2,14.7 				"/>
			</g>
		</g>
	</g>
	<g id="形状_1_12_" class="st0">
		<g id="形状_1_7_">
			<g>
				<polygon class="st8" points="4.4,11.7 4.8,14.7 12,14.7 12,11.7 				"/>
			</g>
		</g>
	</g>
	<g id="形状_1_11_" class="st0">
		<g id="形状_1_8_">
			<g>
				<path class="st9" d="M12,14.7l7.4-2.9H12V14.7z M12,14.7h7.1l0.3-2.9L12,14.7z"/>
			</g>
		</g>
	</g>
	<g id="形状_1_10_" class="st0">
		<g id="形状_1_9_">
			<g>
				<path class="st10" d="M4.9,4.7h3.7V3.2H6.5V1.8h2.1V0.2H4.9V4.7z M10.2,1.8c0.5,0.5,0.8,0.7,1.5,1.4c-0.4,0-1.5,0-1.5,0v1.4h3.7
					V3.2l-1.5-1.5h1.5V0.2h-3.7C10.2,0.2,10.2,1,10.2,1.8z M19.1,0.2h-3.7c0,0,0,0.8,0,1.6c0.5,0.5,0.8,0.7,1.5,1.4
					c-0.4,0-1.5,0-1.5,0v1.4h3.7V3.2l-1.5-1.5h1.5V0.2z"/>
			</g>
		</g>
	</g>
</g>
</svg>
