<?xml version="1.0" encoding="utf-8"?>
<!-- Generator: Adobe Illustrator 25.0.1, SVG Export Plug-In . SVG Version: 6.00 Build 0)  -->
<svg version="1.1" id="Layer_1" xmlns="http://www.w3.org/2000/svg" xmlns:xlink="http://www.w3.org/1999/xlink" x="0px" y="0px"
	 viewBox="0 0 512 512" style="enable-background:new 0 0 512 512;" xml:space="preserve">
<style type="text/css">
	.st0{fill:#222222;}
</style>
<g>
	<path class="st0" d="M438.8,451.3L316.7,287.2L376,189l0.2-0.4c22.3-39.6,21.9-86.6-1-125.9C352.3,23.4,311.5,0,266,0h-20
		c-45.4,0-86.3,23.4-109.2,62.7c-22.9,39.2-23.3,86.3-1,125.9l59.5,98.6L73.2,451.3L181.1,512L256,387.8L330.9,512L438.8,451.3z
		 M350.1,173.6l-52.8,87.5l-22.6-30.4l51.3-71.2c19.5-27.1,25.1-61,16.1-92.3c2.6,3.4,5,6.9,7.2,10.7
		C366.7,107.7,367,143.5,350.1,173.6L350.1,173.6z M210.5,141.9c-4.7-6.6-8.3-13.7-10.8-21.1c12.5-19.1,33.3-30.4,56.2-30.4
		s43.8,11.3,56.2,30.4c-2.4,7.4-6,14.6-10.8,21.1L256,205L210.5,141.9z M307.9,62.2c2.8,5.5,4.8,11.3,6.2,17.2
		C297.6,67,277.4,60.2,256,60.2s-41.6,6.8-58.1,19.1c1.4-5.9,3.4-11.6,6.2-17.2C214,42.3,233.9,30,256,30S298,42.4,307.9,62.2z
		 M162.8,77.8c2.2-3.8,4.6-7.3,7.2-10.7c-9,31.3-3.4,65.3,16.1,92.3l208.2,282.4l-52.6,29.6L161.9,173.6
		C145,143.5,145.3,107.7,162.8,77.8L162.8,77.8z M170.4,471.4l-52.6-29.6L212.1,315l26.3,43.6L170.4,471.4z"/>
</g>
</svg>
