<?xml version="1.0" encoding="utf-8"?>
<!-- Generator: Adobe Illustrator 25.0.1, SVG Export Plug-In . SVG Version: 6.00 Build 0)  -->
<svg version="1.1" id="Layer_1" xmlns="http://www.w3.org/2000/svg" xmlns:xlink="http://www.w3.org/1999/xlink" x="0px" y="0px"
	 viewBox="0 0 360 120" style="enable-background:new 0 0 360 120;" xml:space="preserve">
<style type="text/css">
	.st0{fill:#696A6C;}
	.st1{fill:#F29C9C;}
</style>
<g>
	<g>
		<path class="st0" d="M245.7,65c-1.6,0.2-4.4,0.3-8.3,0.5s-8.5,0.3-13.6,0.4c-5.1,0.1-10.5,0.2-16.3,0.3c-5.8,0-11.3,0.1-16.6,0.1
			c-5.3,0-10.1,0-14.4,0s-7.6,0-9.9-0.1c-1.8,0-3.7-0.1-5.6-0.4c-1.9-0.3-3.7-1-5.2-2.3c-1.5-1.3-2.1-2.3-1.7-3
			c0.4-0.8,1.3-1.1,2.7-0.9l8.3,1.1c1.2,0.1,2.9,0.2,5.2,0.3c2.3,0.1,5,0.1,8.1,0.1s6.4,0,10.1,0c3.7,0,7.4,0,11.3,0
			c0.5-4.2,0.5-8.8,0-13.8H189c-1.6-0.1-3.1-0.2-4.5-0.3s-2.4-0.3-3.2-0.5c-0.6-0.3-1.2-0.8-1.7-1.5c-0.5-0.7-0.8-2-0.9-3.8
			c0-1.6-0.1-3.5-0.2-5.6c-0.1-2.1-0.3-4.2-0.4-6.4c-0.1-2.1-0.3-4.2-0.5-6c-0.2-1.9-0.4-3.4-0.7-4.6c-0.4-2.1-1-3.8-1.7-4.8
			c-0.7-1.1-1.4-1.8-2.1-2.1c-1.2-0.7-1.8-1.3-1.9-1.9c-0.1-0.5-0.1-1,0-1.5c0.1-0.7,0.6-1.2,1.4-1.3c0.9-0.2,1.6-0.2,2.4,0
			c0.7,0.2,1.6,0.5,2.6,1c1,0.5,2.2,1.4,3.4,2.8c1,1,1.6,2.4,1.9,4.2c0.3,1.8,0.6,3.2,0.7,4.3l0.4,3.5c2.8,0,5.8,0,9.1-0.1
			c3.3,0,6.6-0.1,10-0.2c3.4-0.1,6.6-0.2,9.8-0.3c3.2-0.1,6.1-0.2,8.7-0.4c0-2.4-0.1-5.1-0.4-8.1c-0.2-2.1-0.6-3.6-1.3-4.6
			c-0.7-1-1.4-1.7-2.1-1.9c-1.2-0.7-1.8-1.4-1.9-1.9c-0.1-0.6,0-1.1,0.1-1.5c0.1-0.8,0.6-1.3,1.4-1.4c0.9-0.1,1.6-0.1,2.4,0.1
			c0.7,0.2,1.6,0.5,2.6,1c1,0.5,2.1,1.4,3.4,2.8c1,1,1.6,2.4,1.9,4.2c0.3,1.8,0.4,3.3,0.5,4.4c0.1,1.3,0.1,3.1,0.1,5.4
			c0,2.2-0.1,4.6-0.2,7.1c-0.1,2.5-0.2,5-0.4,7.5c-0.2,2.5-0.4,4.6-0.5,6.5c-0.3,1.8-0.8,3.2-1.5,4.2c-0.8,1-1.6,1.4-2.5,1.3
			c-0.8,0-1.4-0.3-1.7-0.9c-0.2,0-0.4,0-0.5,0.1c-0.2,0.1-0.4,0.1-0.5,0.1c-1.5,0.4-3.4,0.7-5.7,0.9c-2.3,0.1-4.7,0.2-7.3,0.3
			c0.4,5.4,0.4,10,0,14c3.9-0.1,7.7-0.2,11.4-0.3c3.8-0.1,7.3-0.2,10.5-0.3c3.2-0.1,6.1-0.2,8.6-0.3c2.5-0.1,4.5-0.2,5.9-0.4
			c1.3-0.2,2.4-0.4,3.1-0.7c0.7-0.3,1.6-0.5,2.6-0.5c0.7,0,1.4,0.2,2,0.6c0.6,0.4,0.9,1.1,0.9,2.1c0,1.1-0.4,1.9-1.3,2.6
			C250.3,64.4,248.4,64.8,245.7,65z M205,74.5c0.4-0.4,1-0.8,1.6-0.9c0.6-0.2,1.3,0,2,0.4c0.7,0.4,1.1,1.4,1.1,3l2.1,0.4
			c3,0.8,5.7,1.7,7.9,2.8c2.2,1.1,4.1,2.4,5.5,3.9c1.4,1.5,2.5,3.3,3.3,5.4c0.8,2.1,1.3,4.6,1.5,7.5c0.3,3.7-0.2,6.8-1.4,9.5
			c-1.2,2.6-2.9,4.8-5.2,6.5c-2.2,1.7-4.9,3-8,3.8c-3.1,0.9-6.4,1.3-9.9,1.3c-3,0-6-0.3-9-0.9c-3-0.6-5.8-1.6-8.2-3.2
			c-2.4-1.5-4.4-3.6-5.8-6.2c-1.5-2.6-2.2-6-2.1-10c0.2-5.7,2-10.2,5.4-13.5c3.4-3.3,8.6-5.8,15.4-7.6c0.8-0.3,1.5-0.5,2.1-0.7
			C204,75.7,204.5,75.2,205,74.5z M220.8,40.7c0.2-2.4,0.4-4.7,0.5-7c0.2-2.2,0.3-4.5,0.4-6.9c-2.5,0.1-5.3,0.2-8.5,0.3
			c-3.1,0.1-6.4,0.2-9.7,0.3c-3.3,0.1-6.6,0.2-9.9,0.3c-3.3,0.1-6.4,0.2-9.1,0.3c0.2,2.2,0.3,4.4,0.4,6.4c0.1,2.1,0.2,3.9,0.4,5.6
			c0.1,0.4,0.3,0.8,0.7,1.1c0.4,0.3,1.4,0.6,3.1,0.7c1.7,0,3.9,0,6.6,0s5.4,0,8.3-0.1c2.8-0.1,5.5-0.2,8.1-0.3
			c2.6-0.1,4.7-0.3,6.3-0.5L220.8,40.7z M208.8,82.4c-0.4-0.2-0.9-0.4-1.2-0.6c-0.4-0.2-0.7-0.4-1.1-0.6c-0.4,0.2-1,0.4-1.5,0.5
			c-0.6,0.2-1.3,0.4-2.2,0.7c-2.9,0.8-5.3,1.7-7.3,2.6c-2,0.9-3.6,2-4.8,3.3c-1.2,1.3-2.1,2.7-2.6,4.2c-0.5,1.6-0.7,3.4-0.7,5.6
			c0,2.9,0.5,5.2,1.6,7c1.1,1.8,2.4,3.2,4.1,4.2c1.7,1,3.6,1.7,5.7,2c2.1,0.4,4.3,0.5,6.4,0.5c5.6,0,10.1-1.1,13.3-3.2
			c3.2-2.1,4.7-5.8,4.6-11.2c-0.1-2.6-0.5-4.7-1.2-6.4c-0.7-1.7-1.7-3-2.9-4.1s-2.7-1.9-4.4-2.6C212.9,83.7,211,83.1,208.8,82.4z"/>
		<path class="st0" d="M351.9,70.8c-1.2,0.2-2.9,0.3-5.3,0.5c-2.4,0.1-5.2,0.2-8.4,0.3c-3.2,0.1-6.7,0.2-10.5,0.2
			c-3.8,0-7.7,0.1-11.7,0.2c0,3.2,0,6,0,8.3c0,2.3,0,4.6,0,6.7c0,2.1,0,4.3-0.1,6.6c0,2.2-0.1,4.9-0.2,7.9c0,1.2-0.1,2.4-0.4,3.8
			c-0.3,1.3-0.6,2.6-0.9,3.8c-0.4,1.2-0.8,2.1-1.3,3c-0.5,0.8-1,1.3-1.4,1.3c-0.4,0.1-0.9-0.2-1.2-0.9c-0.4-0.7-0.7-1.7-0.9-2.9
			c-0.2-1.2-0.4-2.6-0.5-4.1c-0.1-1.5-0.1-3-0.1-4.6c0-2.7,0-5,0-7.1c0-2,0-4.1,0-6.1c0-2.1,0-4.3,0-6.7c0-2.4,0-5.4,0-9
			c-3.9,0-7.6,0-11.4,0.1c-3.7,0-7.2,0.1-10.3,0.1c-3.2,0-6,0-8.5,0c-2.5,0-4.5,0-6,0c-1.8,0-3.7-0.1-5.6-0.4
			c-1.9-0.3-3.7-1-5.2-2.3c-1.5-1.3-2.1-2.3-1.7-3c0.4-0.8,1.3-1.1,2.7-0.9l8.3,1.1c1.7,0.2,4.5,0.3,8.5,0.3c3.9,0,8.5,0,13.6,0
			c5.1,0,10.6-0.1,16.4-0.1c5.8,0,11.3-0.1,16.6-0.3c5.3-0.1,10.1-0.3,14.3-0.5c4.3-0.2,7.4-0.4,9.5-0.5c1.3-0.2,2.4-0.4,3.1-0.7
			c0.7-0.3,1.6-0.5,2.6-0.5c0.7,0,1.4,0.2,2,0.6c0.6,0.4,0.9,1.1,0.9,2.1c0,1-0.4,1.8-1.3,2.5C356.5,70.2,354.7,70.6,351.9,70.8z
			 M329.3,11.1c-2.6,0.2-5.5,0.3-8.7,0.5c-3.2,0.1-6.5,0.3-9.9,0.5c-3.4,0.2-7,0.3-10.6,0.4c-3.6,0.1-7.1,0.1-10.5,0.1
			c-1.8,0-3.7-0.1-5.6-0.3c-1.9-0.2-3.6-0.9-5.2-2.1c-1.5-1.3-2.1-2.3-1.7-3c0.4-0.8,1.3-1.1,2.7-0.9l8.3,0.8
			c3.2,0.1,6.5,0.1,9.9,0.1c3.4,0,6.8-0.1,10.3-0.3c3.4-0.1,6.8-0.3,10.1-0.5c3.3-0.2,6.3-0.4,9.2-0.5c1.3-0.2,2.4-0.4,3.1-0.7
			c0.7-0.3,1.6-0.5,2.6-0.5c0.7,0,1.4,0.2,2,0.6c0.6,0.4,0.9,1.1,0.9,2.1c0,1-0.4,1.8-1.3,2.5S332.1,10.9,329.3,11.1z M328.4,30.5
			c-2.5,0.2-5.3,0.3-8.3,0.5c-3,0.1-6.2,0.3-9.5,0.5c-3.3,0.2-6.7,0.3-10.2,0.4c-3.5,0.1-6.9,0.1-10.2,0.1c0,1.7,0,3.5-0.1,5.3
			c0,1.8-0.2,4-0.3,6.4c0,0.4,0.2,0.9,0.5,1.3c0.4,0.4,1.2,0.7,2.6,0.7c3,0,6.3,0,9.7-0.1c3.4,0,6.8-0.1,10.3-0.3
			c3.4-0.1,6.8-0.3,10.1-0.4c3.3-0.1,6.4-0.3,9.3-0.6c1.3-0.2,2.4-0.4,3.1-0.5c0.7-0.2,1.6-0.3,2.6-0.3c0.7,0,1.4,0.1,2,0.3
			c0.6,0.2,0.9,0.8,0.9,1.8c0,1-1.1,1.9-3.3,2.6c-2.2,0.8-4.7,1.2-7.5,1.4c-5.2,0.3-10.4,0.6-15.7,0.9c-5.2,0.3-11.1,0.4-17.5,0.3
			c-2.3,0-4.5,0-6.6-0.1c-2.1-0.1-3.5-0.4-4.4-0.8c-0.7-0.3-1.4-0.8-1.9-1.5c-0.6-0.7-0.8-1.9-0.7-3.6c0.1-2.2,0.2-4.3,0.3-6
			c0.1-1.8,0.1-3.4,0.1-4.9c0-1.5,0-2.9-0.1-4.2c-0.1-1.3-0.2-2.8-0.4-4.3c-0.3-2.1-0.7-3.6-1.4-4.6c-0.7-1-1.4-1.7-2.1-2.1
			c-1.2-0.6-1.8-1.2-1.9-1.7c-0.1-0.5-0.1-1,0-1.5c0.1-0.8,0.6-1.3,1.4-1.5c0.9-0.2,1.6-0.2,2.4,0c0.7,0.2,1.6,0.5,2.6,1.1
			c1,0.5,2.1,1.5,3.4,2.8c1,0.9,1.6,2,1.8,3.4c0.2,1.4,0.4,2.6,0.6,3.7c0,0.7,0,1.3,0.1,1.6c6.1,0.2,12.4,0.1,18.9-0.2
			c6.5-0.3,12.5-0.7,17.9-1.1c1.3-0.2,2.4-0.4,3.1-0.7c0.7-0.3,1.6-0.4,2.6-0.4c0.7,0,1.4,0.2,2,0.5c0.6,0.4,0.9,1,0.9,2
			c0,1.1-0.4,1.9-1.3,2.6C333,29.9,331.2,30.3,328.4,30.5z"/>
	</g>
	<g>
		<path class="st1" d="M86,9.5c-7.5-3.3-17.3,3.8-23,8.4c-4,3.3-6.9,7.6-9.6,11.8c-0.6,0.9-1.2,1.9-1.7,2.9
			c-0.3,0.4-0.5,0.8-0.8,1.3c-0.3,0.4-0.5,0.8-0.9,1.2c-0.1,0.1-0.1,0.1-0.2,0.2c0,0-0.1,0.1-0.2,0.1c0-0.1,0-0.2-0.1-0.3
			c0-0.1-0.1-0.3-0.1-0.4c-0.1-0.3-0.2-0.7-0.4-1c-0.1-0.3-0.2-0.6-0.4-0.9c0-0.1-0.1-0.2-0.1-0.3c-0.4-0.9-0.6-1.3-1-2.2
			c-0.7-1.4-1.3-2.7-2.1-4c-1.8-3.2-4-6.2-6.5-9c-3.4-3.7-7.9-6.7-12.9-7.7c-3-0.6-6.2-0.3-8.9,1.1c-3.1,1.6-5.4,4.7-6.7,8
			c-5,13,0.1,29.2,6.5,40.7c6.6,11.9,16.6,23.2,26.6,32.4c0.5,0.5,1,1.1,1.7,1.1c2.4,0.1,6.1-2.4,8-3.6c2.1-1.4,4.2-2.9,6.2-4.4
			c4.1-3.1,7.9-6.6,11.4-10.3c3.5-3.7,6.7-7.7,9.5-12c0.9-1.4,1.8-2.8,2.6-4.2c4.1-7,7.1-14.7,8.5-22.7c1.4-7.6,3.9-18.1-2.5-24.3
			C88.1,10.6,87.1,9.9,86,9.5z"/>
		<g>
			<path class="st0" d="M124.3,84.6c-8.4,3.1-16.8,6.1-25.3,8.9l-12.7,4.2l-12.7,4.1c-8.5,2.8-17,5.3-25.5,7.9
				c-8.5,2.7-17.1,5.1-25.6,7.6c-2.9,0.9-6-0.8-6.8-3.7l0,0l-0.1-0.2l-3.7-12.7L8.4,88.1L4.9,75.3c-1.2-4.2-2.4-8.5-3.5-12.7l0-0.1
				c-0.8-3.2,1.1-6.5,4.4-7.4l25.8-6.7c8.6-2.3,17.3-4.3,25.9-6.4c8.6-2.2,17.3-4.2,26-6.2c8.7-2.1,17.4-3.9,26.1-5.8l0.3-0.1
				c1.8-0.4,3.6,0.8,4,2.6c1.7,7.5,3.1,15.1,4.7,22.7c1.5,7.6,2.9,15.2,4.2,22.8l0,0c0,0.2-0.1,0.4-0.3,0.4c-0.2,0-0.3-0.1-0.4-0.2
				l-12.1-44.6l0.5,0.3L7.6,61.7L8,60.9l13.6,51l-0.7-0.4L124.1,84c0.2,0,0.4,0.1,0.4,0.2C124.6,84.4,124.5,84.6,124.3,84.6
				L124.3,84.6z"/>
			<path class="st0" d="M117.1,34.8c1-0.2,2-0.3,3-0.4c1-0.1,1.9-0.2,2.9-0.2l2.9-0.1l2.8,0.1c0.8,0,1.4,0.5,1.8,1.1l1,1.7
				c0.8,1.3,1.3,2.7,2,4c0.6,1.3,1.3,2.7,1.8,4.1c1.1,2.7,2,5.5,2.9,8.3c0.8,2.8,1.6,5.6,2.2,8.5c0.6,2.8,1,5.8,1.5,8.7l0.2,1.4
				c0.2,1.4-0.4,2.8-1.5,3.6l-3.6,2.6c-1.2,0.8-2.6,1.6-3.8,2.4c-1.3,0.8-2.7,1.5-4,2.2c-1.4,0.7-2.8,1.3-4.4,1.9l-0.1,0
				c-0.2,0.1-0.4,0-0.4-0.2c0-0.1,0-0.2,0.1-0.3c4-4.3,8.2-8.5,12.3-12.7l-0.1,0.6c-1.5-5.6-3.1-11.2-4.6-16.9l-4.4-16.9l0.4,0.4
				c-3.5-1-7-2-10.5-3.1c-0.2-0.1-0.3-0.2-0.2-0.4c0-0.1,0.1-0.2,0.3-0.2L117.1,34.8z"/>
		</g>
	</g>
</g>
</svg>
