<?xml version="1.0" encoding="utf-8"?>
<!-- Generator: Adobe Illustrator 25.0.1, SVG Export Plug-In . SVG Version: 6.00 Build 0)  -->
<svg version="1.1" id="Layer_1" xmlns="http://www.w3.org/2000/svg" xmlns:xlink="http://www.w3.org/1999/xlink" x="0px" y="0px"
	 viewBox="0 0 120 120" style="enable-background:new 0 0 120 120;" xml:space="preserve">
<style type="text/css">
	.st0{fill:#CFCFCF;}
	.st1{fill:#B6B6B6;}
	.st2{fill:#FFFFFF;}
	.st3{fill:#222222;}
</style>
<g>
	<g>
		<path class="st0" d="M4.3,44.6h111.5v68.6H4.3L4.3,44.6z"/>
		<path class="st1" d="M115.7,44.6l-9.2,8.2H13.3l-9-8.2L60,6.8L115.7,44.6z"/>
		<path class="st2" d="M89.8,34H30.2c-0.6,1.6-1.8,2.8-3.4,3.4v26.4l17.8,15l31.3,0.3L93.2,64V37.3C91.6,36.8,90.3,35.5,89.8,34z"/>
		<path class="st2" d="M101.8,24.4H18.2v32l4.9,4.2V35.8c0-1,0.8-1.8,1.8-1.8c1,0,1.8-0.8,1.8-1.8c0-1,0.8-1.8,1.8-1.8h62.6
			c1,0,1.8,0.8,1.8,1.8c0,1,0.8,1.8,1.8,1.8c1,0,1.8,0.8,1.8,1.8v24.9l4.9-4.3V24.4z"/>
		<path class="st3" d="M95,34c-1,0-1.8-0.8-1.8-1.8c0-1-0.8-1.8-1.8-1.8H28.7c-1,0-1.8,0.8-1.8,1.8c0,1-0.8,1.8-1.8,1.8
			c-1,0-1.8,0.8-1.8,1.8v24.8l3.7,3.1V37.3c1.6-0.6,2.8-1.8,3.4-3.4h59.6c0.6,1.6,1.8,2.8,3.4,3.4V64l3.7-3.2V35.8
			C96.8,34.8,96,34,95,34z"/>
	</g>
	<g>
		<path class="st3" d="M117,42.7l-13-8.8v-9.5c0-1.3-1-2.3-2.3-2.3H86.6L61.3,4.9c-0.8-0.5-1.8-0.5-2.5,0L33.4,22.1H18.2
			c-1.3,0-2.3,1-2.3,2.3v9.5L3,42.7c-0.6,0.4-1,1.1-1,1.9v68.6c0,1.3,1,2.3,2.3,2.3h111.5c1.3,0,2.3-1,2.3-2.3V44.6
			C118,43.8,117.6,43.1,117,42.7L117,42.7z M6.5,50l34.3,28.9L6.5,107.8V50z M45.2,81.2h29.6l35.3,29.7H9.9L45.2,81.2z M79.2,78.9
			L113.5,50v57.8L79.2,78.9z M112.3,45l-8.3,7V39.4L112.3,45z M60,9.6l18.6,12.6H41.4L60,9.6z M99.5,26.7v29.1L74.8,76.6H45.2
			L20.5,55.8V26.7L99.5,26.7z M16,52l-8.3-7l8.3-5.6V52z"/>
		<circle class="st3" cx="74.5" cy="104.1" r="2.3"/>
		<path class="st3" d="M64.4,101.8H43.2c-1.3,0-2.3,1-2.3,2.3c0,1.3,1,2.3,2.3,2.3h21.2c1.3,0,2.3-1,2.3-2.3
			C66.7,102.8,65.6,101.8,64.4,101.8z"/>
	</g>
</g>
</svg>
