<?xml version="1.0" encoding="utf-8"?>
<!-- Generator: Adobe Illustrator 25.0.1, SVG Export Plug-In . SVG Version: 6.00 Build 0)  -->
<svg version="1.1" id="Layer_1" xmlns="http://www.w3.org/2000/svg" xmlns:xlink="http://www.w3.org/1999/xlink" x="0px" y="0px"
	 viewBox="0 0 120 120" style="enable-background:new 0 0 120 120;" xml:space="preserve">
<style type="text/css">
	.st0{fill:#DFEDFF;}
	.st1{fill:#9EC7FF;}
	.st2{fill:#FFFFFF;}
	.st3{fill:#F29C9C;}
	.st4{fill:#222222;}
</style>
<g>
	<g>
		<path class="st0" d="M4.2,44.6h111.6v68.6H4.2L4.2,44.6z"/>
		<path class="st1" d="M115.8,44.6l-9.2,8.2H13.3l-9.1-8.2L60,6.8L115.8,44.6z"/>
		<path class="st2" d="M75.9,79.1l-31.4-0.3L18.2,56.4v-32h83.6v32L75.9,79.1z"/>
		<path class="st3" d="M74.4,52.3c-0.2,0.3-0.4,0.5-0.7,0.8L60,66.8l0,0l0,0L46.2,53.1c-0.2-0.2-0.5-0.5-0.7-0.8
			c-1.3-1.7-2-3.7-2-5.7c0-1.3,0.3-2.5,0.8-3.7c0.4-1,1.1-1.9,1.9-2.7c3.6-3.6,9.3-3.6,12.9,0l0.9,0.9l0.9-0.9
			c3.6-3.6,9.3-3.6,12.9,0c0.8,0.8,1.4,1.7,1.9,2.7C77,46,76.6,49.6,74.4,52.3L74.4,52.3z"/>
	</g>
	<g>
		<path class="st4" d="M117.1,42.7l-13-8.8v-9.5c0-1.3-1-2.3-2.3-2.3H86.7L61.3,4.9c-0.8-0.5-1.8-0.5-2.5,0L33.3,22.1H18.2
			c-1.3,0-2.3,1-2.3,2.3v9.5l-13,8.8c-0.6,0.4-1,1.1-1,1.9v68.6c0,1.3,1,2.3,2.3,2.3h111.6c1.3,0,2.3-1,2.3-2.3V44.6
			C118.1,43.8,117.7,43.1,117.1,42.7L117.1,42.7z M6.5,50l34.3,28.9L6.5,107.8V50z M45.2,81.2h29.6l35.3,29.8H9.8L45.2,81.2z
			 M79.2,78.9L113.5,50v57.9L79.2,78.9z M112.3,45l-8.3,7V39.4L112.3,45z M60,9.5l18.6,12.6H41.4L60,9.5z M99.5,26.7v29.1L74.8,76.6
			H45.2L20.5,55.8V26.7L99.5,26.7z M15.9,52l-8.3-7l8.3-5.6V52z"/>
		<path class="st4" d="M58.4,68.4c0.9,0.9,2.3,0.9,3.2,0c0,0,14.3-14.4,14.6-14.7c0,0,0,0,0,0c2.7-3.3,3.2-7.8,1.5-11.7
			c-0.6-1.3-1.4-2.4-2.4-3.4c-2.1-2.1-5-3.3-8-3.3c-2.7,0-5.3,0.9-7.3,2.7c-4.5-3.8-11.2-3.6-15.4,0.6c-1,1-1.8,2.1-2.3,3.4
			c-0.6,1.5-1,3-1,4.6c0,2.6,0.9,5.1,2.5,7.1C44.1,54.1,58.4,68.4,58.4,68.4L58.4,68.4z M46.4,43.9c0.3-0.8,0.8-1.5,1.4-2.1
			c1.3-1.3,3.1-2,4.8-2c1.7,0,3.5,0.7,4.8,2c0.7,0.7,1.4,1.6,2.5,1.6c1.1,0,1.8-0.8,2.5-1.6c1.3-1.3,3-2,4.8-2c1.8,0,3.5,0.7,4.8,2
			c2.6,2.6,2.6,7,0,9.7L60,63.6L47.8,51.5C45.9,49.5,45.3,46.4,46.4,43.9L46.4,43.9z"/>
		<circle class="st4" cx="74.5" cy="104.1" r="2.3"/>
		<path class="st4" d="M64.4,101.9H43.2c-1.3,0-2.3,1-2.3,2.3s1,2.3,2.3,2.3h21.2c1.3,0,2.3-1,2.3-2.3S65.6,101.9,64.4,101.9z"/>
	</g>
</g>
</svg>
