<?xml version="1.0" encoding="utf-8"?>
<!-- Generator: Adobe Illustrator 25.0.1, SVG Export Plug-In . SVG Version: 6.00 Build 0)  -->
<svg version="1.1" id="Layer_1" xmlns="http://www.w3.org/2000/svg" xmlns:xlink="http://www.w3.org/1999/xlink" x="0px" y="0px"
	 viewBox="0 0 25 27.7" style="enable-background:new 0 0 25 27.7;" xml:space="preserve">
<style type="text/css">
	.st0{fill:#696A6C;}
</style>
<g id="Icon_feather-power" transform="translate(-3.193 -1.5)">
	<g id="패스_1527">
		<path class="st0" d="M15.7,25.4c-2.6,0-5.1-1-7.1-2.9c-3.9-3.9-3.9-10.2,0-14.1c0.1-0.1,0.2-0.2,0.3-0.2c0.6-0.3,1.2-0.1,1.5,0.5
			c0.2,0.5,0.1,1-0.2,1.3c-3,3-3,7.9,0,10.9c3,3,7.9,3,11,0c1.5-1.5,2.3-3.4,2.3-5.5c0-2.1-0.8-4-2.3-5.5c-0.4-0.4-0.4-1.2,0-1.6
			c0.4-0.4,1.2-0.4,1.6,0c1.9,1.9,2.9,4.4,2.9,7.1s-1,5.2-2.9,7.1C20.8,24.4,18.3,25.4,15.7,25.4z"/>
	</g>
	<g id="패스_1528">
		<path class="st0" d="M15.7,15.7c-0.7,0-1.3-0.6-1.3-1.3V4.6c0-0.7,0.6-1.3,1.3-1.3c0.7,0,1.3,0.6,1.3,1.3v9.9
			C17,15.1,16.4,15.7,15.7,15.7z"/>
	</g>
</g>
</svg>
