<?xml version="1.0" encoding="utf-8"?>
<!-- Generator: Adobe Illustrator 25.0.1, SVG Export Plug-In . SVG Version: 6.00 Build 0)  -->
<svg version="1.1" id="Layer_1" xmlns="http://www.w3.org/2000/svg" xmlns:xlink="http://www.w3.org/1999/xlink" x="0px" y="0px"
	 viewBox="0 0 24 24" style="enable-background:new 0 0 24 24;" xml:space="preserve">
<style type="text/css">
	.st0{fill:#222222;}
</style>
<g>
	<path class="st0" d="M18,10c-0.6,0-1-0.4-1-1V3H7v6c0,0.6-0.4,1-1,1S5,9.6,5,9V2c0-0.6,0.4-1,1-1h12c0.6,0,1,0.4,1,1v7
		C19,9.6,18.6,10,18,10z"/>
</g>
<g>
	<path class="st0" d="M20,19h-2c-0.6,0-1-0.4-1-1s0.4-1,1-1h2c0.6,0,1-0.4,1-1v-5c0-0.6-0.4-1-1-1H4c-0.6,0-1,0.4-1,1v5
		c0,0.6,0.4,1,1,1h2c0.6,0,1,0.4,1,1s-0.4,1-1,1H4c-1.7,0-3-1.3-3-3v-5c0-1.7,1.3-3,3-3h16c1.7,0,3,1.3,3,3v5C23,17.7,21.7,19,20,19
		z"/>
</g>
<g>
	<path class="st0" d="M18,23H6c-0.6,0-1-0.4-1-1v-8c0-0.6,0.4-1,1-1h12c0.6,0,1,0.4,1,1v8C19,22.6,18.6,23,18,23z M7,21h10v-6H7V21z
		"/>
</g>
</svg>
