<?xml version="1.0" encoding="utf-8"?>
<!-- Generator: Adobe Illustrator 25.0.1, SVG Export Plug-In . SVG Version: 6.00 Build 0)  -->
<svg version="1.1" id="Capa_1" xmlns="http://www.w3.org/2000/svg" xmlns:xlink="http://www.w3.org/1999/xlink" x="0px" y="0px"
	 viewBox="0 0 512 512" style="enable-background:new 0 0 512 512;" xml:space="preserve">
<style type="text/css">
	.st0{fill:#F29C9C;}
</style>
<g>
	<g>
		<path class="st0" d="M505.9,244.3C505.9,244.3,505.9,244.3,505.9,244.3L397.1,136c-8.1-8.1-21.3-8.1-29.4,0.1
			c-8.1,8.1-8.1,21.3,0.1,29.4l73,72.7h-420C9.3,238.2,0,247.5,0,259s9.3,20.8,20.8,20.8h420l-73,72.7c-8.1,8.1-8.2,21.3-0.1,29.4
			c8.1,8.1,21.3,8.2,29.4,0.1l108.8-108.2c0,0,0,0,0,0C514,265.6,514,252.4,505.9,244.3z"/>
	</g>
</g>
</svg>
