<?xml version="1.0" encoding="utf-8"?>
<!-- Generator: Adobe Illustrator 25.0.1, SVG Export Plug-In . SVG Version: 6.00 Build 0)  -->
<svg version="1.1" id="Layer_1" xmlns="http://www.w3.org/2000/svg" xmlns:xlink="http://www.w3.org/1999/xlink" x="0px" y="0px"
	 viewBox="0 0 120 120" style="enable-background:new 0 0 120 120;" xml:space="preserve">
<style type="text/css">
	.st0{fill:#CFCFCF;}
	.st1{fill:#B6B6B6;}
	.st2{fill:#FFFFFF;}
	.st3{fill:#9E9E9E;}
	.st4{fill:#E7E7E7;}
	.st5{fill:#222222;}
</style>
<g>
	<path class="st0" d="M23.2,21.7h73.6v95.9H23.2V21.7z"/>
	<path class="st1" d="M30.3,29.6h59.5v80.2H30.3V29.6z"/>
	<path class="st2" d="M35.9,34.7h48.2v69.5H35.9V34.7z"/>
	<polygon class="st3" points="19.5,46.4 19.5,61.7 63.7,17.5 48.4,17.1 	"/>
	<polygon class="st3" points="100.5,46.4 100.5,61.7 56.3,17.5 71.6,17.1 	"/>
	<circle class="st2" cx="60" cy="13.3" r="10.7"/>
	<circle class="st4" cx="60" cy="13.3" r="3.7"/>
	<g>
		<path class="st5" d="M98.3,42.4v-22h-22l-4.1-4.1c0.2-0.9,0.3-1.8,0.3-2.8C72.4,6.6,66.9,1,60,1c-6.9,0-12.4,5.6-12.4,12.4
			c0,1,0.1,1.9,0.3,2.8l-4.1,4.1h-22v22l-3.7,3.7v18.7l3.7-3.7v58h76.5V61l3.7,3.7V46.1L98.3,42.4z M93.5,23.1l-4.6,4.6h-5.3
			L79,23.1H93.5z M95.5,25.1v14.5L90.9,35v-5.3L95.5,25.1z M88.1,30.5v1.7l-1.7-1.7H88.1z M60,3.8c5.3,0,9.7,4.3,9.7,9.7
			s-4.3,9.7-9.7,9.7s-9.7-4.3-9.7-9.7S54.7,3.8,60,3.8z M85.4,106.1v-58l2.8,2.8v58H31.9v-58l2.8-2.8v58H85.4z M82.6,103.3H37.4v-58
			l9.3-9.3h26.5l9.3,9.3V103.3z M49.5,33.3l2.8-2.8h15.4l2.8,2.8H49.5z M55,27.7l2.2-2.2c0.9,0.2,1.8,0.3,2.8,0.3
			c1,0,1.9-0.1,2.8-0.3l2.2,2.2H55z M41,23.1l-4.6,4.6h-5.3l-4.6-4.6H41z M33.6,30.5l-1.7,1.7v-1.7H33.6z M24.5,25.1l4.6,4.6V35
			l-4.6,4.6V25.1z M20.8,58V47.2l28.1-28.1c1.2,2.3,3.1,4.2,5.4,5.4L20.8,58z M24.5,58.3l4.6-4.6v56l-4.6,4.6V58.3z M26.5,116.2
			l4.6-4.6h57.9l4.6,4.6H26.5z M95.5,114.3l-4.6-4.6v-56l4.6,4.6V114.3z M99.2,58L65.7,24.5c2.3-1.2,4.2-3.1,5.4-5.4l28.1,28.1V58z"
			/>
		<path class="st5" d="M60,18.5c2.8,0,5.1-2.3,5.1-5.1S62.8,8.4,60,8.4s-5.1,2.3-5.1,5.1S57.2,18.5,60,18.5z M60,11.1
			c1.3,0,2.3,1,2.3,2.3s-1,2.3-2.3,2.3s-2.3-1-2.3-2.3S58.7,11.1,60,11.1z"/>
	</g>
</g>
</svg>
