<?xml version="1.0" encoding="utf-8"?>
<!-- Generator: Adobe Illustrator 25.0.1, SVG Export Plug-In . SVG Version: 6.00 Build 0)  -->
<svg version="1.1" id="Layer_1" xmlns="http://www.w3.org/2000/svg" xmlns:xlink="http://www.w3.org/1999/xlink" x="0px" y="0px"
	 viewBox="0 0 120 120" style="enable-background:new 0 0 120 120;" xml:space="preserve">
<style type="text/css">
	.st0{fill:#747576;}
	.st1{fill:#8BD9CA;}
	.st2{fill:#FFE066;}
	.st3{fill:#E6A9A5;}
	.st4{fill:#FAB9A9;}
	.st5{fill:#222222;}
</style>
<g>
	<g>
		
			<rect x="48" y="96.8" transform="matrix(0.4472 -0.8944 0.8944 0.4472 -48.9095 116.302)" class="st0" width="43.2" height="1.9"/>
		
			<rect x="47.4" y="71.6" transform="matrix(0.8779 -0.4788 0.4788 0.8779 -39.9637 34.8537)" class="st0" width="1.9" height="48.5"/>
		<rect x="59" y="66.8" class="st0" width="1.9" height="50.3"/>
	</g>
	<circle class="st1" cx="87" cy="45.5" r="29"/>
	<circle class="st2" cx="32.9" cy="43.6" r="29"/>
	<path class="st3" d="M54.2,70.7l3.9-9.7l1.3,0c0.1,0,0.3,0,0.4,0h0.4c0.1,0,0.3,0,0.4,0l1.3,0l3.9,9.7H54.2z"/>
	<circle class="st4" cx="60" cy="32" r="29"/>
	<path class="st2" d="M32.9,72.6l1.8-0.1c0.9-0.1,1.7-0.2,2.6-0.3l1-0.1l6.3,6.3l-11.9,3.9L32.9,72.6z"/>
	<path class="st1" d="M71.6,80.3l7-7l1.1,0.3c0.6,0.2,1.3,0.3,1.9,0.4l1.6,0.3v9.9L71.6,80.3z"/>
	<path class="st5" d="M30.9,74.4l-0.3,7.9c0,1.1,0.8,2,1.9,2c0.2,0,0.5,0,0.7-0.1l4.6-1.5L58.3,118c0.3,0.6,1,1,1.7,1H60
		c0.7,0,1.4-0.4,1.7-1.1l16.7-33.3l4.2,1.4c0.2,0.1,0.4,0.1,0.6,0.1c1.1,0,1.9-0.9,1.9-1.9v-7.8c0.6,0,1.3,0.1,1.9,0.1
		c17.1,0,31-13.8,31-30.9c0-15.5-11.5-28.6-26.8-30.7l-0.5,3.8c14.8,2,25.2,15.6,23.2,30.5S98.2,74.3,83.4,72.3
		c-3.8-0.5-7.5-1.9-10.8-3.9l-2.1,3.3c1.5,0.9,3,1.7,4.6,2.4L70.2,79c-0.8,0.8-0.8,2,0,2.7c0.2,0.2,0.5,0.4,0.8,0.5l3.7,1.2
		l-12.7,25.5V72.6h3.9c1.1,0,1.9-0.9,1.9-1.9c0-0.2,0-0.5-0.1-0.7l-3-7.4c16.9-2.6,28.5-18.3,26-35.2C88,10.4,72.2-1.2,55.3,1.4
		s-28.5,18.3-26,35.2c2,13.4,12.6,23.9,26,26l-3,7.4c-0.4,1,0.1,2.1,1.1,2.5c0.2,0.1,0.5,0.1,0.7,0.1H58v37.3L41.6,81.4l3.6-1.2
		c1-0.3,1.6-1.4,1.2-2.4c-0.1-0.3-0.3-0.5-0.5-0.8L42,73.1c2.1-0.6,4.1-1.5,6-2.6l-1.9-3.4c-13.1,7.3-29.5,2.6-36.8-10.5
		S6.7,27.2,19.8,19.9c3-1.6,6.2-2.7,9.6-3.2l-0.5-3.8C11.9,15.2,0,30.7,2.3,47.7C4.2,62.3,16.2,73.5,30.9,74.4L30.9,74.4z
		 M79.2,75.4c0.7,0.2,1.4,0.3,2,0.5v5.6l-6.1-2L79.2,75.4z M32.9,32C32.9,17,45,4.9,60,4.9S87,17,87,32S74.9,59.1,60,59.1
		C45,59,32.9,46.9,32.9,32z M57,68.7l2.3-5.8c0.2,0,0.4,0,0.6,0c0.2,0,0.4,0,0.6,0l2.3,5.8H57z M34.8,74.5c0.9-0.1,1.8-0.2,2.8-0.3
		l3.4,3.4l-6.3,2.1L34.8,74.5z"/>
</g>
</svg>
