<?xml version="1.0" encoding="utf-8"?>
<!-- Generator: Adobe Illustrator 25.0.1, SVG Export Plug-In . SVG Version: 6.00 Build 0)  -->
<svg version="1.1" id="Layer_1" xmlns="http://www.w3.org/2000/svg" xmlns:xlink="http://www.w3.org/1999/xlink" x="0px" y="0px"
	 viewBox="0 0 120 120" style="enable-background:new 0 0 120 120;" xml:space="preserve">
<style type="text/css">
	.st0{fill:#D0DFEE;}
	.st1{fill:#548BB9;}
	.st2{fill:#E5F0FB;}
	.st3{fill:#FFD964;}
	.st4{fill:#EECB61;}
	.st5{fill:#222222;}
</style>
<g>
	<g>
		<polygon class="st0" points="43.3,15.8 49.2,25.6 35.4,25.6 		"/>
		<polygon class="st0" points="55.1,15.8 59,25.6 49.2,25.6 		"/>
	</g>
	<polygon class="st1" points="59,25.6 47.2,35.4 37.4,35.4 25.6,25.6 35.4,25.6 49.2,25.6 	"/>
	<g>
		<polygon class="st2" points="55.1,15.8 49.2,25.6 43.3,15.8 		"/>
		<polygon class="st2" points="43.3,15.8 35.4,25.6 29.5,15.8 		"/>
	</g>
	<polygon class="st0" points="29.5,15.8 35.4,25.6 25.6,25.6 	"/>
	<path class="st3" d="M68.6,45.3c17.2,13.9,19.9,39.2,6,56.4s-39.2,19.9-56.4,6s-19.9-39.2-6-56.4C23.7,37.1,43.4,32.4,60,40
		c-3.1,1.4-6.1,3.3-8.7,5.4L51,45.2c-17.4-4.3-35,6.3-39.3,23.7s6.3,35,23.7,39.3c2.5,0.6,5.2,0.9,7.8,0.9c5.9,0,11.7-1.6,16.7-4.6
		C75.4,95.3,80.3,75.4,71.1,60c-2.7-4.4-6.3-8.1-10.7-10.8l-0.2-0.4C62.8,47.2,65.6,46.1,68.6,45.3z"/>
	<path class="st4" d="M76.7,36.4C99,36.4,117,54.5,117,76.7C117,99,98.9,117,76.7,117c-5.8,0-11.4-1.2-16.7-3.6
		c3.1-1.4,5.9-3.2,8.6-5.3c2.7,0.7,5.4,1,8.2,1c17.9,0,32.4-14.5,32.4-32.4S94.6,44.3,76.7,44.3c-5.8,0-11.5,1.6-16.5,4.5
		c-15.4,9.1-20.5,29-11.4,44.4c2.7,4.6,6.6,8.5,11.2,11.3c-2.7,1.6-5.5,2.8-8.6,3.6c-17.3-13.9-20.1-39.3-6.2-56.6
		C52.9,41.9,64.5,36.4,76.7,36.4z"/>
	<g>
		<rect x="65.1" y="8.9" transform="matrix(0.7071 -0.7071 0.7071 0.7071 12.2083 51.1666)" class="st2" width="5.6" height="3.9"/>
		<rect x="14.8" y="8.1" transform="matrix(0.7071 -0.7071 0.7071 0.7071 -2.7662 15.021)" class="st2" width="3.9" height="5.6"/>
		<rect x="40.3" y="1" class="st2" width="3.9" height="5.9"/>
	</g>
	<path class="st5" d="M76.7,34.4c-5.7,0-11.4,1.2-16.7,3.5c-3-1.3-6.1-2.2-9.3-2.8l9.6-8c0.7-0.5,0.9-1.5,0.6-2.2L56.9,15
		c-0.3-0.7-1-1.2-1.8-1.2H29.5c-0.8,0-1.5,0.5-1.8,1.2l-3.9,9.8c-0.3,0.8-0.1,1.7,0.6,2.2l10,8.3C11.5,40.4-3,62.9,2,85.7
		S29.4,123,52.2,118c2.7-0.6,5.3-1.4,7.8-2.5c21.4,9.2,46.3-0.6,55.5-22.1s-0.6-46.3-22.1-55.5C88.2,35.6,82.5,34.4,76.7,34.4z
		 M54.7,20.2l1.4,3.5h-3.4L54.7,20.2z M51.6,17.7l-2.4,4l-2.4-4H51.6z M43.1,19.2l2.7,4.4h-6.2L43.1,19.2z M39.2,17.7l-3.5,4.4
		L33,17.7H39.2z M29.9,20.2l2.1,3.5h-3.5L29.9,20.2z M31,27.6h22.6l-7.1,5.9h-8.4L31,27.6z M43.3,115C22.1,115,5,97.8,5,76.7
		c0-21.2,17.2-38.3,38.4-38.3c4.1,0,8.1,0.7,12,1.9c-1.5,0.9-2.9,1.8-4.3,2.9C32.5,38.9,14,50.4,9.6,68.9s7.2,37.1,25.7,41.4
		s37.1-7.2,41.4-25.7c3.1-13.4-2-27.3-13-35.5c1.4-0.7,2.8-1.2,4.3-1.6c16.1,13.7,18.1,37.9,4.4,54C65.2,110.1,54.6,115,43.3,115z
		 M47.2,46.5c-16.7,16.2-17.1,43-0.8,59.6c0.2,0.3,0.5,0.5,0.8,0.8c-16.7,2.1-32-9.6-34.1-26.3s9.6-32,26.3-34.1
		c1.3-0.2,2.6-0.3,3.9-0.2C44.6,46.2,45.9,46.3,47.2,46.5z M60,102.2c-14.1-9.2-18-28-8.8-42.1c2.3-3.5,5.3-6.5,8.8-8.8
		c14.1,9.2,18,28.1,8.8,42.1C66.5,96.9,63.5,99.9,60,102.2z M72.8,46.5c16.7-2.1,31.9,9.7,34.1,26.4c2.1,16.7-9.7,31.9-26.4,34.1
		c-2.6,0.3-5.2,0.3-7.8,0C89.5,90.7,89.9,64,73.6,47.3C73.4,47,73.1,46.8,72.8,46.5L72.8,46.5z M76.7,115c-4.1,0-8.2-0.6-12-1.9
		c1.5-0.9,2.9-1.8,4.3-2.9c18.6,4.3,37.1-7.2,41.4-25.8S103.2,47.4,84.6,43s-37.1,7.2-41.4,25.8c-3.1,13.4,2,27.3,13,35.5
		c-1.4,0.7-2.8,1.2-4.3,1.6c-16.1-13.7-18.1-37.9-4.4-54s37.9-18.1,54-4.4s18.1,37.9,4.4,54C98.6,110.1,88,115,76.7,115z"/>
	<rect x="65.1" y="8.9" transform="matrix(0.7071 -0.7071 0.7071 0.7071 12.2083 51.1666)" class="st5" width="5.6" height="3.9"/>
	<rect x="14.8" y="8.1" transform="matrix(0.7071 -0.7071 0.7071 0.7071 -2.7662 15.021)" class="st5" width="3.9" height="5.6"/>
	<rect x="40.3" y="1" class="st5" width="3.9" height="5.9"/>
</g>
</svg>
