<?xml version="1.0" encoding="utf-8"?>
<!-- Generator: Adobe Illustrator 25.0.1, SVG Export Plug-In . SVG Version: 6.00 Build 0)  -->
<svg version="1.1" id="Layer_1" xmlns="http://www.w3.org/2000/svg" xmlns:xlink="http://www.w3.org/1999/xlink" x="0px" y="0px"
	 viewBox="0 0 120 120" style="enable-background:new 0 0 120 120;" xml:space="preserve">
<style type="text/css">
	.st0{fill:#A1C4D4;}
	.st1{fill:#F2BE80;}
	.st2{fill:#FFE066;}
	.st3{fill:#222222;}
</style>
<g>
	<path class="st0" d="M96.4,31.4c-4.5,1.1-9.2,1.5-13.8,1.3c-4.3-0.2-8.6,0.2-12.8,1.2l5.6,22.7c1.7,7.1,8.9,11.4,16,9.7
		c7.1-1.7,11.4-8.9,9.7-16c0,0,0,0,0-0.1L96.4,31.4z M82.6,28.6c4.3,0.2,8.6-0.2,12.8-1.2L91,9.7L65.4,16l3.4,13.9
		C73.3,28.8,78,28.4,82.6,28.6z M117.5,107.9l-27.6,6.8c-1.1,0.3-2.2-0.4-2.5-1.5c-1.4-5.4,2-11,7.4-12.3c0,0,0,0,0,0l3.9-1
		l-7.3-29.7c-1,0.2-2.1,0.3-3.2,0.3c-7.9,0-14.8-5.4-16.8-13.1L60.9,15c-0.3-1.1,0.4-2.2,1.5-2.5L92,5.2c0.5-0.1,1.1,0,1.5,0.2
		c0.5,0.3,0.8,0.7,0.9,1.3L105,49.2c2,8.1-2.1,16.5-9.7,19.9l7.4,29.9l4-1c5.5-1.3,11,2,12.3,7.4
		C119.2,106.6,118.5,107.7,117.5,107.9z M92,107.7c-0.5,0.8-0.7,1.7-0.8,2.6l23-5.7c-1.1-1.7-3-2.7-5.1-2.7c-0.5,0-1,0-1.5,0.2
		l-11.9,2.9C94.2,105.3,92.8,106.3,92,107.7z"/>
	<g>
		<path class="st1" d="M92.6,55.9c0.7-1.1,0.9-2.5,0.6-3.8l-2.5-10l3.9-1l2.5,10c1.2,4.9-1.8,9.9-6.7,11.1c0,0,0,0,0,0l-1-3.9
			C90.8,58,91.9,57.1,92.6,55.9z"/>
		<path class="st1" d="M85.5,57.6l-2.2,3.5c-2-1.3-3.4-3.3-4-5.6l3.9-1C83.6,55.8,84.4,56.9,85.5,57.6z"/>
	</g>
	<path class="st2" d="M91.4,66.2c-7.1,1.8-14.2-2.5-16-9.6c0,0,0,0,0,0l-5.6-22.7c4.2-1,8.5-1.4,12.8-1.2c4.6,0.2,9.3-0.2,13.8-1.3
		l4.7,18.8C102.8,57.2,98.5,64.4,91.4,66.2z M79.3,55.5c0.6,2.3,2,4.3,4,5.6l2.2-3.5c-1.1-0.7-1.9-1.8-2.2-3.1L79.3,55.5z
		 M96.1,58.1c1.3-2.1,1.6-4.6,1.1-6.9l-2.5-10l-3.9,1l2.5,10c0.7,2.7-1,5.5-3.7,6.2l1,3.9C92.8,61.6,94.8,60.1,96.1,58.1z"/>
	<g>
		<path class="st1" d="M35.8,56.5l3.2,2.5c-1.7,2.3-4.4,3.6-7.2,3.6v-4.1C33.4,58.4,34.8,57.7,35.8,56.5z"/>
		<path class="st1" d="M23.9,58.1c-1.3-2.1-1.6-4.6-1.1-6.9l3.2-12.9l3.9,1l-3.2,12.9c-0.3,1.3-0.1,2.7,0.6,3.8L23.9,58.1z"/>
	</g>
	<path class="st2" d="M22.9,51.1c-0.6,2.4-0.2,4.9,1.1,6.9l3.5-2.1c-0.7-1.1-0.9-2.5-0.6-3.8L30,39.2l-3.9-1L22.9,51.1z M31.8,58.4
		v4.1c2.8,0,5.5-1.3,7.2-3.6l-3.2-2.5C34.8,57.7,33.4,58.4,31.8,58.4z M38.6,64.7c-6.2,3.8-14.4,1.8-18.2-4.5c-1.8-3-2.4-6.6-1.5-10
		l5.6-22.7c4.2,1.1,8.1,2.8,11.9,4.9c4,2.3,8.4,4.1,12.9,5.3l-4.7,18.8C43.8,59.9,41.6,62.8,38.6,64.7z"/>
	<path class="st0" d="M24.3,104.9l-11.9-3c-2.5-0.6-5.1,0.4-6.6,2.6l23,5.7c-0.1-0.9-0.4-1.8-0.8-2.6
		C27.2,106.3,25.8,105.3,24.3,104.9z M38.4,28.8c3.7,2.2,7.7,3.8,11.9,4.9L54.6,16L29,9.7l-3.4,13.9C30,24.7,34.4,26.5,38.4,28.8z
		 M49.3,37.7c-4.5-1.2-8.8-3-12.9-5.3c-3.7-2.2-7.7-3.8-11.9-4.9l-5.6,22.7c-1.8,7.1,2.5,14.3,9.6,16s14.3-2.5,16-9.6c0,0,0,0,0-0.1
		L49.3,37.7z M48.6,57.5c-1.9,7.7-8.8,13.1-16.8,13.1c-1.1,0-2.1-0.1-3.2-0.3L21.3,100l3.9,1c5.4,1.3,8.8,6.8,7.4,12.3c0,0,0,0,0,0
		c-0.3,1.1-1.4,1.8-2.5,1.5l-27.6-6.8c-1.1-0.3-1.8-1.4-1.5-2.5c1.3-5.5,6.9-8.8,12.3-7.4l4,1l7.4-29.9C17.1,65.7,13,57.3,15,49.2
		L25.5,6.7c0.1-0.5,0.5-1,0.9-1.3c0.5-0.3,1-0.3,1.5-0.2l29.6,7.3c1.1,0.3,1.8,1.4,1.5,2.5L48.6,57.5z"/>
	<path class="st3" d="M83.3,54.6l-3.9,1c0.6,2.3,2,4.3,4,5.6l2.2-3.4C84.4,56.9,83.6,55.8,83.3,54.6z"/>
	<path class="st3" d="M97.1,51.1l-2.5-10l-4,1l2.5,10c0.7,2.7-1,5.5-3.7,6.2c0,0,0,0,0,0l1,4C95.3,61,98.3,56,97.1,51.1
		C97.1,51.1,97.1,51.1,97.1,51.1z"/>
	<path class="st3" d="M118.7,107c0.3-0.5,0.4-1,0.2-1.5c-1.4-5.5-6.9-8.8-12.3-7.4l-3.9,1l-7.4-29.9c7.6-3.4,11.7-11.8,9.7-19.9
		L94.5,6.7C94.2,5.6,93.1,5,92,5.2l-29.6,7.3c-1.1,0.3-1.8,1.4-1.5,2.5l0,0l10.5,42.5c2.1,8.9,10.9,14.6,19.9,12.8l7.3,29.7l-3.9,1
		c-5.5,1.3-8.8,6.9-7.4,12.3c0.2,0.9,1,1.5,2,1.5c0.2,0,0.3,0,0.5-0.1l27.6-6.8C118,107.8,118.4,107.5,118.7,107z M65.4,16L91,9.7
		l4.4,17.7c-4.2,1-8.5,1.4-12.8,1.2c-4.6-0.2-9.3,0.2-13.8,1.3L65.4,16z M81.4,64.6c-3-1.8-5.2-4.7-6-8.1l-5.6-22.7
		c4.2-1,8.5-1.4,12.8-1.2c4.6,0.2,9.3-0.2,13.8-1.3l4.7,18.8c1.8,7.1-2.6,14.3-9.7,16C88,67,84.4,66.5,81.4,64.6L81.4,64.6z
		 M91.1,110.2c0.3-2.6,2.1-4.7,4.6-5.3l11.9-2.9c2.5-0.6,5.1,0.4,6.6,2.6L91.1,110.2z"/>
	<path class="st3" d="M31.8,70.6c7.9,0,14.8-5.4,16.8-13.1L59.1,15c0.3-1.1-0.4-2.2-1.5-2.5l0,0L28,5.2c-1.1-0.3-2.2,0.4-2.5,1.5
		L15,49.2c-2,8.1,2.1,16.5,9.7,19.9L17.3,99l-3.9-1c-5.5-1.3-11,2-12.3,7.4c-0.3,1.1,0.4,2.2,1.5,2.5l27.6,6.8
		c0.2,0,0.3,0.1,0.5,0.1c0.9,0,1.7-0.6,2-1.5c1.3-5.5-2-11-7.4-12.3l-3.9-1l7.3-29.7C29.7,70.5,30.7,70.6,31.8,70.6z M24.3,104.9
		c2.5,0.6,4.4,2.8,4.6,5.3l-23-5.7c1.4-2.2,4-3.2,6.6-2.6L24.3,104.9z M29,9.7L54.6,16l-4.4,17.7c-4.2-1.1-8.1-2.8-11.9-4.9
		c-4-2.3-8.3-4.1-12.8-5.3L29,9.7z M18.9,50.2l5.6-22.7c4.2,1.1,8.1,2.8,11.9,4.9c4,2.3,8.3,4.1,12.8,5.3l-4.7,18.8
		c-1.7,7.1-8.9,11.5-16,9.8c-7.1-1.7-11.5-8.8-9.8-16C18.9,50.3,18.9,50.2,18.9,50.2L18.9,50.2z"/>
	<path class="st3" d="M39,58.9l-3.2-2.5c-1,1.2-2.4,2-4,2v4.1C34.6,62.5,37.3,61.2,39,58.9z"/>
	<path class="st3" d="M22.9,51.1c-0.6,2.4-0.2,4.9,1,6.9l3.5-2.1c-0.7-1.2-0.9-2.5-0.6-3.8L30,39.2l-4-1L22.9,51.1z"/>
</g>
</svg>
