<?xml version="1.0" encoding="utf-8"?>
<!-- Generator: Adobe Illustrator 25.0.1, SVG Export Plug-In . SVG Version: 6.00 Build 0)  -->
<svg version="1.1" id="Layer_1" xmlns="http://www.w3.org/2000/svg" xmlns:xlink="http://www.w3.org/1999/xlink" x="0px" y="0px"
	 viewBox="0 0 32 32" style="enable-background:new 0 0 32 32;" xml:space="preserve">
<style type="text/css">
	.st0{fill:#00205B;}
</style>
<g id="Layer_2_1_">
	<path class="st0" d="M9.1,10c0.4,0.4,1,0.4,1.4,0l0,0l4.6-4.6V29c0,0.6,0.4,1,1,1s1-0.4,1-1V5.5l4.6,4.6c0.4,0.4,1,0.4,1.4,0
		s0.4-1,0-1.4l-6.4-6.4c-0.3-0.4-0.9-0.4-1.2,0l0,0L9.1,8.6C8.7,9,8.7,9.6,9.1,10C9,10,9.1,10,9.1,10z"/>
</g>
</svg>
