<?xml version="1.0" encoding="utf-8"?>
<!-- Generator: Adobe Illustrator 25.0.1, SVG Export Plug-In . SVG Version: 6.00 Build 0)  -->
<svg version="1.1" id="Outlined" xmlns="http://www.w3.org/2000/svg" xmlns:xlink="http://www.w3.org/1999/xlink" x="0px" y="0px"
	 viewBox="0 0 32 32" style="enable-background:new 0 0 32 32;" xml:space="preserve">
<g id="Fill">
	<path d="M7,30h9v-2H7c-0.6,0-1-0.4-1-1V5c0-0.6,0.4-1,1-1h9V2H7C5.3,2,4,3.3,4,5v22C4,28.7,5.3,30,7,30z"/>
	<path d="M10.4,15v2H25l-4,4l1.4,1.5l5-5c0.8-0.8,0.8-2,0-2.8c0,0,0,0,0,0l-5-5L21,11l4,4H10.4z"/>
</g>
</svg>
