<?xml version="1.0" encoding="utf-8"?>
<!-- Generator: Adobe Illustrator 25.0.1, SVG Export Plug-In . SVG Version: 6.00 Build 0)  -->
<svg version="1.1" id="Layer_1" xmlns="http://www.w3.org/2000/svg" xmlns:xlink="http://www.w3.org/1999/xlink" x="0px" y="0px"
	 viewBox="0 0 48 43" style="enable-background:new 0 0 48 43;" xml:space="preserve">
<style type="text/css">
	.st0{fill:#DDEAF7;}
	.st1{fill:#FFFFFF;}
	.st2{fill:#969696;}
</style>
<g>
	<ellipse class="st0" cx="37.1" cy="23.1" rx="9.9" ry="4"/>
	<circle class="st0" cx="15.8" cy="27.4" r="8.3"/>
	<path class="st1" d="M21.8,9.4h-12c-1.1,0-2,0.9-2,2s0.9,2,2,2h11.9c1.1,0,2-0.9,2-2S22.9,9.4,21.8,9.4z"/>
	<g>
		<path class="st2" d="M16.5,32.9v-0.5c1.3-0.3,2.2-1.5,2.2-2.8c0-1.6-1.3-3-3-3c-0.8,0-1.4-0.6-1.4-1.5s0.6-1.5,1.4-1.5
			s1.5,0.6,1.5,1.5c0,0.4,0.3,0.8,0.8,0.8s0.8-0.3,0.8-0.8c0-1.4-0.9-2.5-2.2-2.8v-0.5c0-0.4-0.3-0.8-0.8-0.8S15,21.4,15,21.8v0.5
			c-1.3,0.3-2.2,1.5-2.2,2.8c0,1.6,1.3,3,2.9,3c0.8,0,1.5,0.7,1.5,1.5S16.6,31,15.8,31s-1.4-0.7-1.4-1.5c0-0.4-0.3-0.8-0.8-0.8
			s-0.8,0.3-0.8,0.8c0,1.4,0.9,2.5,2.2,2.8v0.5c0,0.4,0.3,0.8,0.8,0.8C16.3,33.6,16.5,33.3,16.5,32.9z"/>
		<path class="st2" d="M24.8,27.4c0-5-4-9-9-9s-9,4-9,9s4,9,9,9S24.8,32.3,24.8,27.4z M8.3,27.4c0-4.1,3.4-7.5,7.5-7.5
			s7.5,3.4,7.5,7.5s-3.4,7.5-7.5,7.5S8.3,31.5,8.3,27.4z"/>
		<path class="st2" d="M47.8,23.1c0-3.1-5.5-4.7-10.7-4.7c-3.4,0-7,0.7-9,2.1c-1.4-2.7-3.2-4.9-5.1-6.6c0.9-0.4,1.6-1.4,1.6-2.5
			c0-1.5-1.2-2.8-2.8-2.8h-0.3L24.1,2c0.1-0.4,0-0.8-0.4-0.9c-2.5-1.2-5.2-0.4-7.8,0.3c-2.8,0.8-5.2,1.5-7.2-0.2
			C8.4,0.9,8.1,0.9,7.8,1.1S7.4,1.7,7.5,2l2.6,6.7H9.8C8.3,8.7,7,9.9,7,11.5c0,1.1,0.6,2,1.6,2.5c-2.2,1.9-4.2,4.5-5.7,7.7
			C1.3,25.1,0.3,29,0.2,32.3v0.1c0,0.4,0.3,0.8,0.7,0.8l0,0c0.4,0,0.8-0.3,0.8-0.8c0,0,0,0,0-0.1c0-5.6,3.7-14.4,9-18.1h10.2
			c2.3,1.6,4.4,4.2,6,7.4c-0.3,0.5-0.5,1-0.5,1.6v4.9l0,0V33l0,0v4.9c0,0.4,0.1,0.7,0.2,1c-2.6,1.5-6.7,1.7-10.5,1.7h-0.6
			C8.8,40.5,4,39.7,2.4,36c-0.2-0.4-0.6-0.5-1-0.4c-0.4,0.2-0.5,0.6-0.4,1c1,2.3,2.9,3.8,5.8,4.6c2.7,0.8,6.1,0.8,9,0.8
			c4.5,0,8.7-0.2,11.7-2c1.9,1.6,5.8,2.5,9.5,2.5c5.2,0,10.7-1.7,10.7-4.7L47.8,23.1L47.8,23.1z M9.7,3.4c2.1,0.7,4.4,0,6.7-0.6
			c2.2-0.6,4.2-1.2,6.1-0.7L20,8.6h-8.2L9.7,3.4z M9.8,10.2h1.4h9.2h1.4c0.7,0,1.2,0.6,1.2,1.2c0,0.7-0.6,1.2-1.2,1.2h-0.7l0,0H10.5
			l0,0H9.9c-0.7,0-1.2-0.6-1.2-1.2S9.1,10.2,9.8,10.2z M37.1,31.2c-5.2,0-9.2-1.7-9.2-3.2v-2.4c2,1.5,5.7,2.2,9.2,2.2
			s7.2-0.8,9.2-2.2V28C46.2,29.5,42.3,31.2,37.1,31.2z M46.2,32.9c0,1.5-3.9,3.2-9.2,3.2s-9.2-1.7-9.2-3.2v-2.4
			c2,1.5,5.7,2.2,9.2,2.2s7.2-0.8,9.2-2.2V32.9z M46.2,23.1c0,1.5-3.9,3.2-9.2,3.2s-9.2-1.7-9.2-3.2s3.9-3.2,9.2-3.2
			S46.2,21.6,46.2,23.1z M46.2,37.8c0,1.5-3.9,3.2-9.2,3.2c-4.3,0-7.7-1.1-8.8-2.3l0,0l0,0c-0.2-0.3-0.3-0.5-0.3-0.8v-2.4
			c2,1.5,5.7,2.2,9.2,2.2s7.2-0.8,9.2-2.2v2.3H46.2z"/>
		<path class="st2" d="M1.3,35.1C1.7,35,2,34.6,1.9,34.2c-0.1-0.4-0.5-0.7-0.9-0.6s-0.7,0.5-0.6,0.9l0,0c0.1,0.3,0.4,0.6,0.7,0.6
			C1.2,35.1,1.2,35.1,1.3,35.1z"/>
	</g>
</g>
</svg>
