<?xml version="1.0" encoding="utf-8"?>
<!-- Generator: Adobe Illustrator 25.0.1, SVG Export Plug-In . SVG Version: 6.00 Build 0)  -->
<svg version="1.1" id="Capa_1" xmlns="http://www.w3.org/2000/svg" xmlns:xlink="http://www.w3.org/1999/xlink" x="0px" y="0px"
	 viewBox="0 0 512 512" style="enable-background:new 0 0 512 512;" xml:space="preserve">
<style type="text/css">
	.st0{fill:#467EB7;}
	.st1{fill:#EFEFEF;}
	.st2{fill:#DDDDDD;}
	.st3{fill:#2E3842;}
	.st4{fill:#F4B74A;}
	.st5{fill:#FFD488;}
	.st6{fill:#F9C662;}
</style>
<circle class="st0" cx="220.2" cy="220.8" r="212.6"/>
<path class="st1" d="M385.3,220.8c0,91.2-73.9,165.1-165.1,165.1c-6.2,0-12.3-0.3-18.2-1c-82.7-9-147-79.1-147-164.1
	S119.3,65.7,201.9,56.7c6-0.7,12.1-1,18.2-1C311.4,55.7,385.3,129.6,385.3,220.8z"/>
<path class="st2" d="M348.8,220.8c0,85-64.3,155.1-146.9,164.1C119.3,375.9,55,305.8,55,220.8S119.3,65.7,201.9,56.7
	C284.6,65.7,348.8,135.7,348.8,220.8z"/>
<g>
	<path class="st3" d="M235.9,221.1V105c0-8.7-7-15.7-15.7-15.7l0,0c-8.7,0-15.7,7-15.7,15.7v116.1"/>
	<path class="st3" d="M216.6,205.3l-88.3,59.4c-7.2,4.9-9,14.7-4.1,21.8l0,0c4.9,7.2,14.7,9,21.8,4.1l88.3-59.4"/>
</g>
<circle class="st0" cx="220.2" cy="220.8" r="26.3"/>
<circle class="st4" cx="390.9" cy="390.3" r="113.5"/>
<path class="st5" d="M471.1,390.3c0,44.3-35.9,80.3-80.3,80.3c-21.2,0-40.6-8.3-54.9-21.7c-10.5-9.9-18.4-22.5-22.4-36.8
	c-1.9-6.9-3-14.2-3-21.7c0-44.3,35.9-80.3,80.3-80.3c7.5,0,14.8,1,21.7,3c14.3,4,27,11.9,36.8,22.4
	C462.9,349.7,471.1,369,471.1,390.3z"/>
<path class="st6" d="M449.4,335.3L336,448.8c-10.5-9.9-18.4-22.5-22.4-36.8l99-99C426.9,317,439.5,324.8,449.4,335.3z"/>
<path d="M257.3,422.4c-12.1,2.2-24.6,3.3-37.1,3.3c-113,0-205-91.9-205-205c0-47.8,16.8-94.3,47.3-131c2.7-3.2,2.2-8-1-10.7
	s-8-2.2-10.7,1C18,119.5,0,169.5,0,220.8c0,58.8,22.9,114.1,64.5,155.7S161.4,441,220.2,441c13.4,0,26.8-1.2,39.8-3.6
	c4.1-0.8,6.9-4.7,6.1-8.8S261.4,421.7,257.3,422.4z"/>
<path d="M79.1,72.1c38.2-36.3,88.3-56.3,141.1-56.3c113,0,205,91.9,205,205c0,11.8-1,23.6-3,35.1c-0.7,4.1,2.1,8.1,6.2,8.8
	c0.4,0.1,0.9,0.1,1.3,0.1c3.6,0,6.8-2.6,7.5-6.3c2.1-12.4,3.2-25,3.2-37.6c0-58.8-22.9-114.1-64.5-155.7
	C334.3,23.5,279,0.6,220.2,0.6C163.6,0.6,109.7,22.1,68.7,61c-3,2.9-3.2,7.7-0.3,10.7C71.3,74.9,76.1,75,79.1,72.1z"/>
<path d="M380,263c4.1,0.9,8.1-1.7,9-5.8c2.6-11.9,3.8-24.1,3.8-36.4c0-95.2-77.5-172.7-172.7-172.7S47.4,125.5,47.4,220.8
	s77.5,172.7,172.7,172.7c13.5,0,26.9-1.6,39.9-4.6c4.1-1,6.6-5.1,5.6-9.1c-1-4.1-5.1-6.6-9.1-5.6c-9.4,2.2-19.1,3.6-28.8,4v-18.5
	c0-4.2-3.4-7.6-7.6-7.6s-7.6,3.4-7.6,7.6v18.5c-23.1-1.1-45-7.2-64.5-17.3l9.2-16c2.1-3.6,0.9-8.3-2.8-10.4
	c-3.6-2.1-8.3-0.9-10.4,2.8l-9.2,16c-18.9-12.2-35-28.3-47.2-47.2l16-9.2c3.6-2.1,4.9-6.7,2.8-10.4c-2.1-3.6-6.7-4.9-10.4-2.8
	l-16,9.2c-10.1-19.5-16.2-41.3-17.3-64.5h18.5c4.2,0,7.6-3.4,7.6-7.6s-3.4-7.6-7.6-7.6H62.8c1.1-23.1,7.2-45,17.3-64.5l16,9.2
	c1.2,0.7,2.5,1,3.8,1c2.6,0,5.2-1.4,6.6-3.8c2.1-3.6,0.9-8.3-2.8-10.4l-16-9.2c12.2-18.9,28.3-35,47.2-47.2l9.2,16
	c1.4,2.4,4,3.8,6.6,3.8c1.3,0,2.6-0.3,3.8-1c3.6-2.1,4.9-6.7,2.8-10.4l-9.2-16c21.6-11.2,46.1-17.5,72.1-17.5s50.5,6.3,72.1,17.5
	l-9.2,16c-2.1,3.6-0.9,8.3,2.8,10.4c1.2,0.7,2.5,1,3.8,1c2.6,0,5.2-1.4,6.6-3.8l9.2-16c18.9,12.2,35,28.3,47.2,47.2l-16,9.2
	c-3.6,2.1-4.9,6.7-2.8,10.4c1.4,2.4,4,3.8,6.6,3.8c1.3,0,2.6-0.3,3.8-1l16-9.2c10.1,19.5,16.2,41.3,17.3,64.5H359
	c-4.2,0-7.6,3.4-7.6,7.6s3.4,7.6,7.6,7.6h18.5c-0.4,8.6-1.5,17.2-3.3,25.6C373.3,258.1,375.9,262.1,380,263z"/>
<path d="M254.1,220.8c0-18.7-15.2-33.9-33.9-33.9s-33.9,15.2-33.9,33.9s15.2,33.9,33.9,33.9S254.1,239.5,254.1,220.8z M201.5,220.8
	c0-10.3,8.4-18.7,18.7-18.7s18.7,8.4,18.7,18.7s-8.4,18.7-18.7,18.7S201.5,231.1,201.5,220.8z"/>
<path d="M235.9,183.1c4.2,0,7.6-3.4,7.6-7.6V105c0-12.9-10.5-23.3-23.3-23.3s-23.3,10.5-23.3,23.3v70.4c0,4.2,3.4,7.6,7.6,7.6
	c4.2,0,7.6-3.4,7.6-7.6V105c0-4.5,3.6-8.1,8.1-8.1s8.1,3.6,8.1,8.1v70.4C228.3,179.7,231.7,183.1,235.9,183.1z"/>
<path d="M132.6,271l45.6-31.2c3.5-2.4,4.3-7.1,2-10.6c-2.4-3.5-7.1-4.3-10.6-2L124,258.4c-5.1,3.5-8.6,8.8-9.7,15
	c-1.1,6.1,0.2,12.3,3.7,17.5c3.5,5.1,8.8,8.6,15,9.7c1.4,0.3,2.9,0.4,4.3,0.4c4.7,0,9.2-1.4,13.1-4.1l45.6-31.2
	c3.5-2.4,4.3-7.1,2-10.6c-2.4-3.5-7.1-4.3-10.6-2l-45.6,31.2c-1.8,1.2-3.9,1.7-6.1,1.3c-2.1-0.4-4-1.6-5.2-3.4s-1.7-3.9-1.3-6.1
	S130.8,272.2,132.6,271z"/>
<path d="M390.9,269.1c-66.8,0-121.1,54.3-121.1,121.1s54.3,121.1,121.1,121.1S512,457,512,390.3S457.7,269.1,390.9,269.1z
	 M390.9,496.2c-58.4,0-105.9-47.5-105.9-105.9s47.5-105.9,105.9-105.9s105.9,47.5,105.9,105.9S449.3,496.2,390.9,496.2z"/>
<path d="M476.3,369.8c-1-4.1-5.1-6.6-9.2-5.6s-6.6,5.1-5.6,9.2c3.2,13.4,2.5,27.4-2,40.5c-6.3,18.4-19.4,33.2-36.8,41.7
	s-37.2,9.8-55.5,3.5c-37.9-13-58.2-54.4-45.2-92.3c6.3-18.4,19.4-33.2,36.8-41.7s37.2-9.8,55.5-3.5c16.8,5.8,30.8,17.4,39.6,32.8
	c2.1,3.7,6.7,4.9,10.4,2.9c3.7-2.1,4.9-6.7,2.9-10.4c-10.6-18.6-27.6-32.7-47.9-39.7c-22.2-7.6-46-6.1-67.1,4.2
	c-21.1,10.3-36.9,28.2-44.5,50.4c-15.7,45.8,8.8,95.9,54.6,111.6c9.4,3.2,19,4.8,28.6,4.8c13.2,0,26.3-3,38.5-9
	c21.1-10.3,36.9-28.2,44.5-50.4C479.4,402.9,480.2,386,476.3,369.8z"/>
</svg>
