<?xml version="1.0" encoding="utf-8"?>
<!-- Generator: Adobe Illustrator 25.0.1, SVG Export Plug-In . SVG Version: 6.00 Build 0)  -->
<svg version="1.1" id="Capa_1" xmlns="http://www.w3.org/2000/svg" xmlns:xlink="http://www.w3.org/1999/xlink" x="0px" y="0px"
	 viewBox="0 0 512 512" style="enable-background:new 0 0 512 512;" xml:space="preserve">
<style type="text/css">
	.st0{fill:#F4B74A;}
	.st1{fill:#FFD488;}
	.st2{fill:#F9C662;}
</style>
<g>
	<path d="M395.2,236l21.4-21.4c3-3,3-7.8,0-10.8s-7.8-3-10.8,0l-8.5,8.5v-5.8c0-55.4-45.1-100.5-100.5-100.5c-4.2,0-7.6,3.4-7.6,7.6
		c0,4.2,3.4,7.6,7.6,7.6c47,0,85.3,38.3,85.3,85.3v5.8l-8.5-8.5c-3-3-7.8-3-10.8,0c-1.5,1.5-2.2,3.4-2.2,5.4c0,1.9,0.7,3.9,2.2,5.4
		l21.4,21.4c1.4,1.4,3.4,2.2,5.4,2.2C391.9,238.4,393.8,237.5,395.2,236z"/>
	<g>
		<circle class="st0" cx="153" cy="134.5" r="91.4"/>
		<path class="st1" d="M217.6,134.4c0,35.7-28.9,64.7-64.7,64.7c-17.1,0-32.7-6.7-44.2-17.5c-8.5-8-14.8-18.1-18-29.6
			c-1.5-5.6-2.4-11.4-2.4-17.5c0-35.7,28.9-64.7,64.7-64.7c6,0,11.9,0.8,17.5,2.4c11.5,3.2,21.7,9.6,29.6,18
			C211,101.8,217.6,117.3,217.6,134.4z"/>
		<path class="st2" d="M200.1,90.2l-91.3,91.4c-8.5-8-14.8-18.1-18-29.6l79.7-79.7C182,75.5,192.2,81.8,200.1,90.2z"/>
		<path d="M153,36.8c-53.8,0-97.5,43.7-97.5,97.5s43.7,97.5,97.5,97.5s97.5-43.7,97.5-97.4S206.8,36.8,153,36.8z M153,219.8
			c-47,0-85.3-38.3-85.3-85.3S106,49.2,153,49.2s85.3,38.3,85.3,85.3S200.1,219.8,153,219.8z"/>
		<path d="M221.8,118c-0.8-3.3-4.1-5.3-7.4-4.5c-3.3,0.8-5.3,4.1-4.5,7.4c2.6,10.8,2,22.1-1.6,32.6c-5.1,14.8-15.6,26.7-29.6,33.6
			s-30,7.9-44.7,2.8c-30.5-10.5-46.9-43.8-36.4-74.3c5.1-14.8,15.6-26.7,29.6-33.6s30-7.9,44.7-2.8c13.5,4.7,24.8,14,31.9,26.4
			c1.7,3,5.4,3.9,8.4,2.3c3-1.7,3.9-5.4,2.3-8.4c-8.5-15-22.2-26.3-38.6-32c-17.9-6.1-37-4.9-54,3.4s-29.7,22.7-35.8,40.6
			c-12.6,36.9,7.1,77.2,44,89.9c7.6,2.6,15.3,3.9,23,3.9c10.6,0,21.2-2.4,31-7.2c17-8.3,29.7-22.7,35.8-40.6
			C224.3,144.6,224.9,131,221.8,118z"/>
	</g>
	<path d="M113.8,278.9l-21.4,21.4c-3,3-3,7.8,0,10.8s7.8,3,10.8,0l8.5-8.5v5.8c0,55.4,45.1,100.5,100.5,100.5c4.2,0,7.6-3.4,7.6-7.6
		s-3.4-7.6-7.6-7.6c-47,0-85.3-38.3-85.3-85.3v-5.8l8.5,8.5c3,3,7.8,3,10.8,0c1.5-1.5,2.2-3.4,2.2-5.4c0-1.9-0.7-3.9-2.2-5.4
		l-21.4-21.4c-1.4-1.4-3.4-2.2-5.4-2.2C117.2,276.8,115.2,277.5,113.8,278.9z"/>
	<g>
		<circle class="st0" cx="359" cy="377.5" r="91.4"/>
		<path class="st1" d="M294.4,377.5c0-35.7,28.9-64.7,64.7-64.7c17.1,0,32.7,6.7,44.2,17.5c8.5,8,14.8,18.1,18,29.6
			c1.5,5.6,2.4,11.4,2.4,17.5c0,35.7-28.9,64.7-64.7,64.7c-6,0-11.9-0.8-17.5-2.4c-11.5-3.2-21.7-9.6-29.6-18
			C301,410.2,294.4,394.6,294.4,377.5z"/>
		<path class="st2" d="M311.9,421.9l91.3-91.4c8.5,8,14.8,18.1,18,29.6l-79.7,79.7C330,436.5,319.9,430.2,311.9,421.9z"/>
		<path d="M359,475.1c53.8,0,97.5-43.7,97.5-97.5s-43.7-97.5-97.5-97.5s-97.5,43.7-97.5,97.4S305.2,475.1,359,475.1z M359,292.2
			c47,0,85.3,38.3,85.3,85.3S406,462.9,359,462.9s-85.3-38.3-85.3-85.3S312,292.2,359,292.2z"/>
		<path d="M290.3,394c0.8,3.3,4.1,5.3,7.4,4.5c3.3-0.8,5.3-4.1,4.5-7.4c-2.6-10.8-2-22.1,1.6-32.6c5.1-14.8,15.6-26.7,29.6-33.6
			c14-6.8,30-7.9,44.7-2.8c30.5,10.5,46.9,43.8,36.4,74.3c-5.1,14.8-15.6,26.7-29.6,33.6s-30,7.9-44.7,2.8
			c-13.5-4.7-24.8-14-31.9-26.4c-1.7-3-5.4-3.9-8.4-2.3c-3,1.7-3.9,5.4-2.3,8.4c8.5,15,22.2,26.3,38.6,32c17.9,6.1,37,4.9,54-3.4
			s29.7-22.7,35.8-40.6c12.6-36.9-7.1-77.2-44-89.9c-7.6-2.6-15.3-3.9-23-3.9c-10.6,0-21.2,2.4-31,7.2c-17,8.3-29.7,22.7-35.8,40.6
			C287.8,367.4,287.1,381,290.3,394z"/>
	</g>
</g>
</svg>
