<?xml version="1.0" encoding="utf-8"?>
<!-- Generator: Adobe Illustrator 25.0.1, SVG Export Plug-In . SVG Version: 6.00 Build 0)  -->
<svg version="1.1" id="Capa_1" xmlns="http://www.w3.org/2000/svg" xmlns:xlink="http://www.w3.org/1999/xlink" x="0px" y="0px"
	 viewBox="0 0 512 512" style="enable-background:new 0 0 512 512;" xml:space="preserve">
<style type="text/css">
	.st0{fill:#DDDDDD;}
	.st1{fill:#F4B74A;}
	.st2{fill:#FFD488;}
	.st3{fill:#C17F49;}
	.st4{fill:#A56637;}
	.st5{fill:#2E3842;}
	.st6{fill:none;stroke:#000000;stroke-width:14;stroke-linecap:round;stroke-linejoin:round;stroke-miterlimit:10;}
</style>
<g>
	<path class="st0" d="M396.4,198.3h4.8c7.2,0,13,5.8,13,13v35.2V302H114.3c-17.1,0-30.9-13.8-30.9-30.9v-41.9
		c0-17.1,13.8-30.9,30.9-30.9h42L396.4,198.3L396.4,198.3L396.4,198.3z"/>
	<path class="st1" d="M401.1,90.5c0,45.8-37.1,82.9-82.9,82.9c-3.3,0-6.6-0.2-9.8-0.6c-10.5-1.2-20.3-4.4-29.2-9.2
		c-8.1-4.4-15.5-10-21.7-16.7c-12.3-13.3-20.4-30.6-21.9-49.8c-0.2-2.2-0.3-4.3-0.3-6.6c0-45.8,37.1-82.9,82.9-82.9
		c2.2,0,4.4,0.1,6.6,0.3c19.2,1.5,36.5,9.5,49.8,21.9c6.7,6.2,12.4,13.5,16.7,21.7c4.8,8.9,7.9,18.8,9.2,29.2
		C400.9,83.9,401.1,87.2,401.1,90.5z"/>
	<path class="st2" d="M373.6,90.5c0,30.6-24.8,55.3-55.3,55.3c-2.2,0-4.4-0.1-6.6-0.4c-7-0.8-13.6-2.9-19.5-6.1
		c-5.4-2.9-10.3-6.7-14.5-11.2c-8.2-8.9-13.6-20.4-14.6-33.2c-0.1-1.4-0.2-2.9-0.2-4.4c0-30.5,24.8-55.3,55.3-55.3
		c1.5,0,2.9,0.1,4.4,0.2c12.8,1,24.4,6.4,33.2,14.6c4.5,4.1,8.3,9,11.2,14.5c3.2,5.9,5.3,12.5,6.1,19.5
		C373.4,86.1,373.6,88.3,373.6,90.5z"/>
	<path class="st1" d="M286.9,189.7c0,45.8-37.1,82.9-82.9,82.9c-3.3,0-6.6-0.2-9.8-0.6c-10.5-1.2-20.3-4.4-29.2-9.2
		c-8.1-4.4-15.5-10-21.7-16.7c-12.3-13.3-20.4-30.6-21.9-49.8c-0.2-2.2-0.3-4.3-0.3-6.6c0-45.8,37.1-82.9,82.9-82.9
		c2.2,0,4.4,0.1,6.6,0.3c19.2,1.5,36.5,9.5,49.8,21.9c6.7,6.2,12.4,13.5,16.7,21.7c4.8,8.9,7.9,18.8,9.2,29.2
		C286.7,183.1,286.9,186.3,286.9,189.7z"/>
	<path class="st2" d="M260.5,189.7c0,31.2-25.3,56.5-56.5,56.5c-2.3,0-4.5-0.1-6.7-0.4c-7.1-0.8-13.9-3-19.9-6.3
		c-5.5-3-10.5-6.8-14.8-11.4c-8.4-9.1-13.9-20.9-14.9-33.9c-0.1-1.5-0.2-3-0.2-4.5c0-31.2,25.3-56.5,56.5-56.5c1.5,0,3,0.1,4.5,0.2
		c13.1,1,24.9,6.5,33.9,14.9c4.6,4.2,8.4,9.2,11.4,14.8c3.2,6.1,5.4,12.8,6.3,19.9C260.4,185.2,260.5,187.4,260.5,189.7z"/>
	<path class="st3" d="M414.2,278.7v207.1c0,10.3-8.3,18.6-18.6,18.6H114.3c-17.1,0-30.9-13.8-30.9-30.9V229.2
		c0,17.1,13.8,30.9,30.9,30.9h281.3C405.9,260.1,414.2,268.4,414.2,278.7z"/>
	<path class="st4" d="M121.6,260.1v244.3h-7.3c-17.1,0-30.9-13.8-30.9-30.9V229.2c0,17.1,13.8,30.9,30.9,30.9L121.6,260.1
		L121.6,260.1z"/>
	<path class="st5" d="M360.8,414.5h54.4c7.4,0,13.5-6,13.5-13.5v-49.4c0-7.4-6-13.5-13.5-13.5h-54.4c-21.1,0-38.2,17.1-38.2,38.2
		l0,0C322.6,397.4,339.7,414.5,360.8,414.5z"/>
	<circle class="st2" cx="359.9" cy="376.3" r="15.3"/>
	<path d="M235.4,98.1c4.2,0,7.6-3.4,7.6-7.6c0-41.5,33.7-75.2,75.2-75.2s75.2,33.7,75.2,75.2s-33.7,75.2-75.2,75.2
		c-3,0-6-0.2-8.9-0.5c-4.2-0.5-8,2.5-8.5,6.7c-0.5,4.2,2.5,8,6.7,8.5c3.5,0.4,7.1,0.6,10.7,0.6c49.9,0,90.5-40.6,90.5-90.5
		S368.1,0,318.2,0s-90.5,40.6-90.5,90.5C227.8,94.7,231.2,98.1,235.4,98.1z"/>
	<path d="M137.4,246.5c1.6,0,3.2-0.5,4.5-1.5c3.4-2.5,4.1-7.3,1.6-10.7c-9.6-13-14.7-28.4-14.7-44.6c0-26.7,13.7-50.8,36.6-64.6
		c3.6-2.2,4.8-6.9,2.6-10.5c-2.2-3.6-6.9-4.8-10.5-2.6c-27.1,16.3-44,46-44,77.7c0,19.5,6.1,38.1,17.7,53.7
		C132.7,245.4,135,246.5,137.4,246.5z"/>
	<path d="M188.3,116.1c5.1-1.1,10.5-1.7,15.8-1.7c41.5,0,75.2,33.7,75.2,75.2c0,16.2-5.1,31.6-14.7,44.6c-2.5,3.4-1.8,8.2,1.6,10.7
		c1.4,1,3,1.5,4.5,1.5c2.3,0,4.6-1.1,6.1-3.1c11.6-15.6,17.7-34.2,17.7-53.7c0-49.9-40.6-90.5-90.5-90.5c-6.4,0-12.8,0.7-19,2
		c-4.1,0.9-6.7,4.9-5.9,9.1C180.1,114.3,184.1,117,188.3,116.1z"/>
	<path d="M309.1,190.7c-4.2,0-7.6,3.4-7.6,7.6s3.4,7.6,7.6,7.6h92.1c2.9,0,5.3,2.4,5.3,5.3v9.8H304.3c-4.2,0-7.6,3.4-7.6,7.6
		s3.4,7.6,7.6,7.6h102.2v5.1c0,4.2,3.4,7.6,7.6,7.6s7.6-3.4,7.6-7.6v-30.2c0-11.4-9.2-20.6-20.6-20.6L309.1,190.7L309.1,190.7z"/>
	<path d="M414.2,428.2c-4.2,0-7.6,3.4-7.6,7.6v50c0,6-4.9,11-11,11H114.3c-12.8,0-23.3-10.4-23.3-23.3V259.9
		c6.5,4.9,14.5,7.8,23.3,7.8h281.3c6,0,11,4.9,11,11v38.1c0,4.2,3.4,7.6,7.6,7.6s7.6-3.4,7.6-7.6v-38.1c0-14.5-11.8-26.2-26.2-26.2
		H114.3c-12.8,0-23.2-10.4-23.3-23.2v-0.1c0,0,0,0,0,0c0-9.1,5.4-17.4,13.7-21.2c3.8-1.7,5.5-6.3,3.8-10.1
		c-1.7-3.8-6.3-5.5-10.1-3.8c-13.8,6.2-22.7,20-22.7,35.1c0,0,0,0.1,0,0.1v244.2c0,21.2,17.3,38.5,38.5,38.5h281.3
		c14.5,0,26.2-11.8,26.2-26.2v-50C421.8,431.6,418.4,428.2,414.2,428.2z"/>
	<path d="M415.1,330.5h-54.4c-25.3,0-45.8,20.5-45.8,45.8s20.5,45.8,45.8,45.8h13.8c4.2,0,7.6-3.4,7.6-7.6s-3.4-7.6-7.6-7.6h-13.8
		c-16.8,0-30.5-13.7-30.5-30.5s13.7-30.5,30.5-30.5h54.4c3.2,0,5.8,2.6,5.8,5.8V401c0,3.2-2.6,5.8-5.8,5.8H400
		c-4.2,0-7.6,3.4-7.6,7.6c0,4.2,3.4,7.6,7.6,7.6h15.1c11.6,0,21.1-9.5,21.1-21.1v-49.4C436.2,340,426.8,330.5,415.1,330.5z"/>
	<path d="M337,376.3c0,12.6,10.3,22.9,22.9,22.9s22.9-10.3,22.9-22.9c0-12.6-10.3-22.9-22.9-22.9S337,363.7,337,376.3z M367.5,376.3
		c0,4.2-3.4,7.6-7.6,7.6c-4.2,0-7.6-3.4-7.6-7.6s3.4-7.6,7.6-7.6C364.1,368.7,367.5,372.1,367.5,376.3z"/>
	<path class="st6" d="M261.3,89.4c0.5-13.7,5.9-27.3,16.4-37.7c21.9-21.9,57.5-21.9,79.4,0c21.9,21.9,21.9,57.5,0,79.4
		c-11,11-25.3,16.4-39.7,16.4"/>
	<path class="st6" d="M163,227.6c-9.4-10-15.1-23.5-15.1-38.3c0-31,25.1-56.1,56.1-56.1s56.1,25.1,56.1,56.1
		c0,15.5-6.3,29.5-16.4,39.7"/>
</g>
</svg>
