<?xml version="1.0" encoding="utf-8"?>
<!-- Generator: Adobe Illustrator 25.0.1, SVG Export Plug-In . SVG Version: 6.00 Build 0)  -->
<svg version="1.1" id="Layer_1" xmlns="http://www.w3.org/2000/svg" xmlns:xlink="http://www.w3.org/1999/xlink" x="0px" y="0px"
	 viewBox="0 0 100 76" style="enable-background:new 0 0 100 76;" xml:space="preserve">
<style type="text/css">
	.st0{fill:#FFFFFF;}
</style>
<g>
	<polygon class="st0" points="27.8,36.5 27.5,40.8 30.7,43.3 26.7,44.6 25.3,48.8 23.1,45.3 18.9,45.4 21.6,41.9 20.5,37.8 
		24.3,39.1 	"/>
	<polygon class="st0" points="75,36.4 78.2,39.3 82.2,38.2 80.8,42.2 83.2,45.9 79,45.5 76.6,48.9 75.5,44.6 71.5,43 75,40.8 	"/>
	<polygon class="st0" points="21.6,23.8 23.4,27.7 27.5,28.4 24.5,31.4 25.2,35.8 21.6,33.7 18,35.8 18.7,31.4 15.8,28.4 19.8,27.7 
			"/>
	<polygon class="st0" points="32.6,13.1 32.1,17.4 35.3,20 31.2,21.2 29.7,25.3 27.6,21.7 23.4,21.7 26.2,18.3 25.2,14.1 29,15.6 	
		"/>
	<polygon class="st0" points="38.5,2.6 40.3,6.5 44.3,7.2 41.4,10.2 42.1,14.6 38.5,12.5 34.9,14.6 35.6,10.2 32.7,7.2 36.7,6.5 	
		"/>
	<polygon class="st0" points="49.7,0.5 51.5,4.5 55.6,5.1 52.6,8.2 53.3,12.5 49.7,10.5 46.1,12.5 46.8,8.2 43.9,5.1 47.9,4.5 	"/>
	<polygon class="st0" points="62,2.6 63.8,6.5 67.8,7.2 64.9,10.2 65.6,14.6 62,12.5 58.4,14.6 59.1,10.2 56.2,7.2 60.2,6.5 	"/>
	<polygon class="st0" points="69.2,12.9 72.4,16 76.3,15.1 74.8,19 77,22.8 72.9,22.2 70.3,25.4 69.3,21.1 65.5,19.3 69,17.3 	"/>
	<polygon class="st0" points="78.3,23.8 80.1,27.7 84.2,28.4 81.2,31.4 81.9,35.8 78.3,33.7 74.7,35.8 75.4,31.4 72.5,28.4 
		76.5,27.7 	"/>
	<polygon class="st0" points="35.9,38.9 37.2,41.7 39.9,42.1 37.9,44.2 38.4,47.2 35.9,45.8 33.4,47.2 33.9,44.2 31.9,42.1 
		34.7,41.7 	"/>
	<polygon class="st0" points="64.6,38.9 65.8,41.7 68.6,42.1 66.6,44.2 67,47.2 64.6,45.8 62.1,47.2 62.6,44.2 60.6,42.1 63.3,41.7 
			"/>
	<g>
		<path class="st0" d="M11.4,73.8c0,0.5-0.2,0.9-0.5,1.2c-0.4,0.3-0.8,0.5-1.4,0.5H2.9c-0.6,0-1-0.2-1.4-0.5C1.2,74.7,1,74.3,1,73.8
			V54.6c0-0.5,0.2-0.9,0.5-1.2c0.4-0.3,0.8-0.5,1.4-0.5h6.6c0.6,0,1,0.2,1.4,0.5c0.4,0.3,0.5,0.7,0.5,1.2v5.2H9.1v-5.1H3.3v19h5.8
			v-7.8H6.4v-1.7h5V73.8z"/>
		<path class="st0" d="M23.7,54.7h-6v8.6h5.5V65h-5.5v10.4h-2.3V52.9h8.3V54.7z"/>
		<path class="st0" d="M29.3,75.5H27V52.9h2.3V75.5z"/>
		<path class="st0" d="M44.1,75.5h-1.6l-6.9-16.6v16.6h-2.2V52.9h1.7L42,69.2V52.9h2.2V75.5z"/>
		<path class="st0" d="M58.6,75.5h-2.3l-0.9-5h-5.1l-0.9,5h-2.2v-0.1l4.6-22.6H54L58.6,75.5z M55.1,68.7l-2.2-12.2l-2.3,12.2H55.1z"
			/>
		<path class="st0" d="M72.2,75.5h-1.6l-6.9-16.6v16.6h-2.2V52.9h1.7l6.7,16.3V52.9h2.2V75.5z"/>
		<path class="st0" d="M86.6,73.8c0,0.5-0.2,0.9-0.5,1.2c-0.4,0.3-0.8,0.5-1.4,0.5h-6.5c-0.6,0-1-0.2-1.4-0.5
			c-0.4-0.3-0.5-0.7-0.5-1.2V54.6c0-0.5,0.2-0.9,0.5-1.2c0.4-0.3,0.8-0.5,1.4-0.5h6.5c0.5,0,1,0.2,1.4,0.5c0.4,0.3,0.5,0.7,0.5,1.2
			v5.2h-2.3v-5.1h-5.7v19h5.7v-5.6h2.3V73.8z"/>
		<path class="st0" d="M99,75.5h-8.4V52.9h8.3v1.8h-6.1v8.4h5.5v1.8h-5.5v8.8H99V75.5z"/>
	</g>
	<g>
		<path class="st0" d="M57.6,45.8c0,1.6-0.8,2.3-2.3,2.3h-9.9c-1.6,0-2.3-0.8-2.3-2.3V21c0-1.6,0.8-2.3,2.4-2.3h9.9
			c1.6,0,2.3,0.8,2.3,2.3v6.7h-4.4v-5.2h-5.8v22h5.8v-8.3h-3.3v-3.8h7.7V45.8z"/>
	</g>
</g>
</svg>
