<?xml version="1.0" encoding="utf-8"?>
<!-- Generator: Adobe Illustrator 24.1.0, SVG Export Plug-In . SVG Version: 6.00 Build 0)  -->
<svg version="1.1" id="Layer_1" xmlns="http://www.w3.org/2000/svg" xmlns:xlink="http://www.w3.org/1999/xlink" x="0px" y="0px"
	 viewBox="0 0 425 407" style="enable-background:new 0 0 425 407;" xml:space="preserve">
<style type="text/css">
	.st0{fill:#C01C2E;}
</style>
<path class="st0" d="M423,372.4l-32.9-90c10.3-24.3,15.9-50.9,15.9-78.9c0-112.1-90.9-203-203-203S0,91.4,0,203.5s90.9,203,203,203
	c48.1,0,92.2-16.8,127-44.8l74.2,29.1C420.6,397.2,429.1,389,423,372.4z M190,292.6v-74.3h-74.3c-8.2,0-14.9-6.7-14.9-14.9
	s6.6-14.9,14.9-14.9H190v-74.3c0-8.2,6.6-14.9,14.9-14.9c8.2,0,14.9,6.7,14.9,14.9v74.3H294c8.2,0,14.9,6.7,14.9,14.9
	s-6.6,14.9-14.9,14.9h-74.3v74.3c0,8.2-6.6,14.9-14.9,14.9C196.7,307.5,190,300.8,190,292.6z"/>
</svg>
