<?xml version="1.0" encoding="utf-8"?>
<!-- Generator: Adobe Illustrator 24.1.0, SVG Export Plug-In . SVG Version: 6.00 Build 0)  -->
<svg version="1.1" id="Layer_1" xmlns="http://www.w3.org/2000/svg" xmlns:xlink="http://www.w3.org/1999/xlink" x="0px" y="0px"
	 viewBox="0 0 425 407" style="enable-background:new 0 0 425 407;" xml:space="preserve">
<style type="text/css">
	.st0{fill:#C01C2E;}
</style>
<path class="st0" d="M423,372.4l-32.9-90c10.3-24.3,15.9-50.9,15.9-78.9c0-112.1-90.9-203-203-203C90.9,0.5,0,91.4,0,203.5
	s90.9,203,203,203c48.1,0,92.2-16.8,127-44.8l74.2,29.1C420.6,397.2,429.1,389,423,372.4z M257.4,277l-52.5-52.5L152.4,277
	c-5.8,5.8-15.2,5.8-21,0c-5.8-5.8-5.8-15.2,0-21l52.5-52.5L131.3,151c-5.8-5.8-5.8-15.2,0-21c5.8-5.8,15.2-5.8,21,0l52.5,52.5
	l52.5-52.5c5.8-5.8,15.2-5.8,21,0c5.8,5.8,5.8,15.2,0,21l-52.5,52.5l52.5,52.5c5.8,5.8,5.8,15.2,0,21
	C272.6,282.8,263.2,282.8,257.4,277z"/>
</svg>
