<?xml version="1.0" encoding="utf-8"?>
<!-- Generator: Adobe Illustrator 24.1.0, SVG Export Plug-In . SVG Version: 6.00 Build 0)  -->
<svg version="1.1" id="Layer_1" xmlns="http://www.w3.org/2000/svg" xmlns:xlink="http://www.w3.org/1999/xlink" x="0px" y="0px"
	 viewBox="0 0 512 512" style="enable-background:new 0 0 512 512;" xml:space="preserve">
<style type="text/css">
	.st0{clip-path:url(#SVGID_2_);fill:#2A6433;}
</style>
<g>
	<defs>
		<rect id="SVGID_1_" x="0.4" y="0.1" width="512" height="512"/>
	</defs>
	<clipPath id="SVGID_2_">
		<use xlink:href="#SVGID_1_"  style="overflow:visible;"/>
	</clipPath>
	<path class="st0" d="M477.5,136.1c-16.4,7.3-34,12.2-52.4,14.4c18.9-11.3,33.3-29.2,40.1-50.5c-17.6,10.5-37.2,18.1-58,22.2
		c-16.6-17.7-40.4-28.8-66.6-28.8c-50.4,0-91.3,40.9-91.3,91.3c0,7.1,0.8,14.1,2.4,20.8c-75.9-3.8-143.1-40.1-188.1-95.4
		c-7.9,13.5-12.4,29.2-12.4,45.9c0,31.7,16.1,59.6,40.6,76c-15-0.5-29-4.6-41.3-11.4c0,0.4,0,0.8,0,1.2c0,44.2,31.5,81.1,73.2,89.5
		c-7.7,2.1-15.7,3.2-24,3.2c-5.9,0-11.6-0.6-17.2-1.6c11.6,36.3,45.3,62.7,85.3,63.4c-31.2,24.5-70.6,39.1-113.4,39.1
		c-7.4,0-14.6-0.4-21.8-1.3c40.4,25.9,88.4,41,139.9,41c167.9,0,259.7-139.1,259.7-259.7c0-4-0.1-7.9-0.3-11.8
		C449.8,170.5,465.3,154.4,477.5,136.1z"/>
</g>
</svg>
