<?xml version="1.0" encoding="utf-8"?>
<!-- Generator: Adobe Illustrator 24.1.0, SVG Export Plug-In . SVG Version: 6.00 Build 0)  -->
<svg version="1.1" id="Layer_1" xmlns="http://www.w3.org/2000/svg" xmlns:xlink="http://www.w3.org/1999/xlink" x="0px" y="0px"
	 viewBox="0 0 512 512" style="enable-background:new 0 0 512 512;" xml:space="preserve">
<style type="text/css">
	.st0{clip-path:url(#SVGID_2_);fill:#2A6433;}
</style>
<g>
	<defs>
		<rect id="SVGID_1_" x="0.4" y="0.1" width="512" height="512"/>
	</defs>
	<clipPath id="SVGID_2_">
		<use xlink:href="#SVGID_1_"  style="overflow:visible;"/>
	</clipPath>
	<path class="st0" d="M208.9,318.8V193.4l123.7,62.7L208.9,318.8z M465.6,166.6c-2.6-28.9-25.5-51.7-54.4-54.2
		c-33.4-2.8-83-5.7-144.2-5.7c-73.7,0-129.3,3-165.2,5.8c-29,2.3-52.1,25.2-54.7,54.2C44.9,190,43,220.5,43,257
		c0,35.5,1.9,65.6,4.1,88.4c2.6,29,25.7,51.8,54.7,54.2c35.9,2.8,91.6,5.8,165.2,5.8c61.2,0,110.7-2.9,144.2-5.7
		c28.9-2.5,51.8-25.3,54.4-54.2c2.2-23,4.1-53.4,4.1-89.5S467.8,189.6,465.6,166.6z"/>
</g>
</svg>
