<?xml version="1.0" encoding="utf-8"?>
<!-- Generator: Adobe Illustrator 24.1.0, SVG Export Plug-In . SVG Version: 6.00 Build 0)  -->
<svg version="1.1" id="Layer_1" xmlns="http://www.w3.org/2000/svg" xmlns:xlink="http://www.w3.org/1999/xlink" x="0px" y="0px"
	 viewBox="0 0 512 512" style="enable-background:new 0 0 512 512;" xml:space="preserve">
<style type="text/css">
	.st0{clip-path:url(#SVGID_2_);fill:#2A6433;}
	.st1{clip-path:url(#SVGID_4_);fill:#2A6433;}
	.st2{clip-path:url(#SVGID_6_);fill:#2A6433;}
</style>
<g>
	<defs>
		<rect id="SVGID_1_" y="0" width="512" height="512"/>
	</defs>
	<clipPath id="SVGID_2_">
		<use xlink:href="#SVGID_1_"  style="overflow:visible;"/>
	</clipPath>
	<path class="st0" d="M416,330.7c-0.1,47.1-38.2,85.3-85.3,85.3H181.3c-47.1-0.1-85.3-38.2-85.3-85.3V181.3
		c0.1-47.1,38.2-85.3,85.3-85.3h149.3c47.1,0.1,85.3,38.2,85.3,85.3V330.7z M330.7,64H181.3C116.5,64,64,116.5,64,181.3v149.3
		C64,395.5,116.5,448,181.3,448h149.3c64.8,0,117.3-52.5,117.3-117.3V181.3C448,116.5,395.5,64,330.7,64z"/>
</g>
<g>
	<defs>
		<rect id="SVGID_3_" y="0" width="512" height="512"/>
	</defs>
	<clipPath id="SVGID_4_">
		<use xlink:href="#SVGID_3_"  style="overflow:visible;"/>
	</clipPath>
	<path class="st1" d="M256,320c-35.3,0-64-28.7-64-64s28.7-64,64-64s64,28.7,64,64C320,291.3,291.3,320,256,320z M256,160
		c-53,0-96,43-96,96s43,96,96,96s96-43,96-96S309,160,256,160z"/>
</g>
<g>
	<defs>
		<rect id="SVGID_5_" y="0" width="512" height="512"/>
	</defs>
	<clipPath id="SVGID_6_">
		<use xlink:href="#SVGID_5_"  style="overflow:visible;"/>
	</clipPath>
	<circle class="st2" cx="356.3" cy="155.7" r="21.3"/>
</g>
</svg>
