<?xml version="1.0" encoding="utf-8"?>
<!-- Generator: Adobe Illustrator 24.1.0, SVG Export Plug-In . SVG Version: 6.00 Build 0)  -->
<svg version="1.1" id="Layer_1" xmlns="http://www.w3.org/2000/svg" xmlns:xlink="http://www.w3.org/1999/xlink" x="0px" y="0px"
	 viewBox="0 0 540 190" style="enable-background:new 0 0 540 190;" xml:space="preserve">
<style type="text/css">
	.st0{fill:#FFFFFF;}
	.st1{fill:#2A6433;}
	.st2{fill:#FFFFFF;stroke:#FFFFFF;stroke-width:7.000000e-02;stroke-linecap:round;stroke-linejoin:round;}
	.st3{fill:#C01C2D;}
	.st4{fill:#296433;}
</style>
<g>
	<polygon class="st0" points="8.7,10.6 41.3,155.9 47.9,165.5 121.3,165.5 126.5,182.6 410.4,182.6 427.4,168.5 487.5,168.5 
		497.8,160.4 531.2,10.6 270.3,38.8 8.7,8.4 	"/>
	<path class="st0" d="M537.6,3.7c-2.2-2.5-5.5-3.7-8.7-3.3l0,0L269.6,29.6L11.4,0.3C5.8-0.3,0.8,3.7,0.2,9.3
		c-0.1,1.1-0.1,2.3,0.2,3.4C2,19.6,4.4,30.1,7.3,42.8c7.1,31.5,16.9,74.7,25.8,113.4c2.9,12.7,11.8,19.3,25.6,19.3h46.3
		c1.9,8.7,9.6,14.8,18.5,14.7h292.4c8.9,0.1,16.6-6.1,18.5-14.7h46.4c13.9,0,22.5-6.5,25.5-19.3c9.3-39.7,20.1-85.5,27.3-115.8
		c2.7-11.6,5-21.2,6.5-27.6C540.6,9.5,539.7,6.2,537.6,3.7z"/>
	<path class="st1" d="M58.6,171.8c-12.2,0-19.4-5.4-21.9-16.5C24.1,100.5,9.4,35.2,4.1,11.8C3.3,8.3,5.5,4.9,9,4.1
		c0.7-0.1,1.4-0.2,2-0.1l258.7,29.4L529.3,4c3.5-0.4,6.7,2.1,7.1,5.6c0.1,0.8,0,1.5-0.1,2.3c-5.5,23.2-21,88.8-33.8,143.4
		c-2.6,11-9.8,16.5-21.9,16.5L58.6,171.8L58.6,171.8z"/>
	<path class="st0" d="M480.1,162.6c7.9,0.1,11.6-2.1,13.3-9.3c16.1-68.8,32.9-139.6,32.9-139.6l-256.6,29l-255.9-29
		c0,0,15.6,70.9,31.7,139.6c1.7,7.3,5.4,9.5,13.3,9.4L480.1,162.6z"/>
	<path class="st1" d="M430.8,171.9c0,8.1-6.7,14.6-15.1,14.6H123.4c-8.3,0-15.1-6.5-15.1-14.6v-7.3c0-8.1,6.7-14.6,15.1-14.6h292.4
		c8.3,0,15.1,6.5,15.1,14.6L430.8,171.9L430.8,171.9z"/>
	<path class="st2" d="M133.9,159.1c0-0.3,0.2-0.5,0.5-0.5c0,0,0,0,0,0h6.7c5.3,0,9.7,4.3,9.7,9.7c0,5.3-4.3,9.7-9.7,9.7h-6.7
		c-0.3,0-0.5-0.2-0.5-0.5c0,0,0,0,0,0V159.1z M141,173.8c3.1,0,5.6-2.5,5.6-5.6c0-3.1-2.5-5.6-5.6-5.6h-2.7v11.2H141z"/>
	<path class="st2" d="M175.6,158.4c5.5,0,9.9,4.4,9.9,9.9c0,5.5-4.4,9.9-9.9,9.9c-5.5,0-9.9-4.4-9.9-9.9
		C165.7,162.8,170.2,158.4,175.6,158.4z M175.6,173.8c3,0,5.5-2.4,5.6-5.5c0-3.1-2.5-5.5-5.6-5.6c-3,0-5.5,2.5-5.5,5.6
		c0,3,2.4,5.5,5.4,5.5C175.6,173.8,175.6,173.8,175.6,173.8z"/>
	<path class="st2" d="M201.4,159.1c0-0.3,0.2-0.5,0.5-0.5c0,0,0,0,0,0h3.4c0.3,0,0.5,0.2,0.5,0.5c0,0,0,0,0,0v11.2
		c-0.1,1.9,1.4,3.4,3.3,3.5c0.1,0,0.1,0,0.2,0c1.9,0,3.5-1.5,3.5-3.4c0,0,0-0.1,0-0.1v-11.2c0-0.3,0.2-0.5,0.5-0.5c0,0,0,0,0,0h3.4
		c0.3,0,0.5,0.2,0.5,0.5c0,0,0,0,0,0v11.4c-0.2,4.4-3.9,7.7-8.2,7.6c-4.1-0.2-7.4-3.5-7.6-7.6V159.1L201.4,159.1z"/>
	<path class="st2" d="M242.8,158.4c2.5,0.1,4.9,1,6.7,2.6c0.2,0.2,0.3,0.5,0.1,0.7c0,0,0,0,0,0l-2.2,2.3c-0.2,0.2-0.5,0.2-0.7,0
		c0,0,0,0,0,0c-1-0.9-2.3-1.4-3.6-1.3c-3,0-5.5,2.5-5.5,5.6c0,3,2.4,5.5,5.5,5.5c0,0,0,0,0,0c0.8,0,1.7-0.1,2.4-0.4v-1.6h-1.8
		c-0.3,0-0.5-0.2-0.5-0.5c0,0,0,0,0,0v-2.7c0-0.3,0.2-0.5,0.5-0.5c0,0,0,0,0,0h5.6c0.3,0,0.5,0.2,0.5,0.5c0,0,0,0,0,0v7.4
		c0,0.2-0.1,0.3-0.2,0.4c-2.1,1.2-4.5,1.8-6.9,1.8c-5.5,0-9.9-4.4-9.9-9.8c0,0,0,0,0,0C232.9,162.7,237.4,158.4,242.8,158.4z"/>
	<path class="st2" d="M266.5,159.1c0-0.3,0.2-0.5,0.5-0.5c0,0,0,0,0,0h3.3c0.3,0,0.5,0.2,0.5,0.5c0,0,0,0,0,0v7h8v-7
		c0-0.3,0.2-0.5,0.5-0.5c0,0,0,0,0,0h3.3c0.3,0,0.5,0.2,0.5,0.5c0,0,0,0,0,0v18.2c0,0.3-0.2,0.5-0.5,0.5c0,0,0,0,0,0h-3.3
		c-0.3,0-0.5-0.2-0.5-0.5c0,0,0,0,0,0v-7.3h-7.9v7.3c0,0.3-0.2,0.5-0.5,0.5c0,0,0,0,0,0h-3.3c-0.3,0-0.5-0.2-0.5-0.5c0,0,0,0,0,0
		L266.5,159.1L266.5,159.1z"/>
	<path class="st2" d="M300.5,158.8c0-0.3,0.2-0.5,0.5-0.5c0,0,0,0,0,0h0.7l11,10.6l0,0v-9.8c0-0.3,0.2-0.5,0.5-0.5c0,0,0,0,0,0h3.3
		c0.3,0,0.5,0.2,0.5,0.5c0,0,0,0,0,0v18.5c0,0.3-0.2,0.5-0.5,0.5c0,0,0,0,0,0h-0.4c-0.1,0-0.3-0.1-0.4-0.1l-11-11l0,0v10.3
		c0,0.3-0.2,0.5-0.5,0.5c0,0,0,0,0,0H301c-0.3,0-0.5-0.2-0.5-0.5c0,0,0,0,0,0V158.8z"/>
	<path class="st2" d="M334.2,159.1c0-0.3,0.2-0.5,0.5-0.5c0,0,0,0,0,0h3.4c0.3,0,0.5,0.2,0.5,0.5c0,0,0,0,0,0v11.2
		c-0.1,1.9,1.4,3.4,3.3,3.5c0.1,0,0.1,0,0.2,0c1.9,0,3.5-1.5,3.5-3.4c0,0,0-0.1,0-0.1v-11.2c0-0.3,0.2-0.5,0.5-0.5c0,0,0,0,0,0h3.4
		c0.3,0,0.5,0.2,0.5,0.5c0,0,0,0,0,0v11.4c-0.2,4.4-3.9,7.7-8.2,7.6c-4.1-0.2-7.4-3.5-7.6-7.6V159.1L334.2,159.1z"/>
	<path class="st2" d="M369.5,162.7h-3.9c-0.3,0-0.5-0.2-0.5-0.5c0,0,0,0,0,0v-3c0-0.3,0.2-0.5,0.5-0.5c0,0,0,0,0,0h12.3
		c0.3,0,0.5,0.2,0.5,0.5c0,0,0,0,0,0v3c0,0.3-0.2,0.5-0.5,0.5c0,0,0,0,0,0h-3.9v14.8c0,0.3-0.2,0.5-0.5,0.5c0,0,0,0,0,0H370
		c-0.3,0-0.5-0.2-0.5-0.5c0,0,0,0,0,0V162.7z"/>
	<path class="st2" d="M393,175.3l1.3-2.3c0.2-0.3,0.6-0.3,1-0.1c1.2,0.8,2.5,1.4,3.9,1.5c0.9,0.1,1.8-0.6,1.9-1.5c0,0,0-0.1,0-0.1
		c0-1.2-1-2.1-2.8-2.8c-2.4-1-5.3-2.8-5.3-6.1c0-2.7,2.1-5.5,6.4-5.5c2.1,0.1,4.2,0.8,5.9,2.1c0.3,0.2,0.3,0.6,0.1,0.9l-1.4,2.2
		c-0.2,0.3-0.6,0.5-1,0.4c-0.2-0.1-2.3-1.6-3.9-1.6c-0.9-0.1-1.6,0.5-1.8,1.4c0,1,0.8,1.8,3,2.7c2.2,0.9,5.6,2.5,5.6,6.3
		c0,2.8-2.4,5.7-6.5,5.7c-3.6,0-5.6-1.5-6.2-2.1C392.8,175.8,392.7,175.7,393,175.3z"/>
	<path class="st3" d="M351.4,66.2h137.3c7.4-0.1,13.4-6.1,13.3-13.6c0-0.1,0-0.2,0-0.3c0-0.3,0-0.6-0.1-0.9c-0.1-1-1.6-1.9-2.1-1
		c-1.6,2.4-7.2,2.4-10.7,2.4H351.2c-23,0-42.5,27.5-47,33.3c2.2-6.4,6.6-19.7,6.5-24.8c-0.2-11.9-13.9-12.5-20.8-9.9
		c-0.7,0.3-0.4,1.6,0.3,1.7c2.3,0.4,6.7,2.1,5,8.7c-0.1,1-18.3,67.5-18.3,67.5c-0.2,0.6,0.1,1.2,0.7,1.4c0.1,0,0.2,0,0.3,0h12.8
		c0.5,0,0.9-0.3,1-0.7c1.3-4.5,6.4-22.6,6.4-22.8c3.3-9.2,8.2-15.2,12.2-15.2c1.9,0,2.8,1.1,2.9,2.4c0.1,3-4.2,16.2-5.9,23.1
		c-2.2,8.7,3,14.8,11.3,14.8c8.7,0,12.5-4.5,17.1-13.2c1.9-3.6,9.4-25.3,10.8-29.9c1.8,0.3,3.7,0.6,5.6,0.7
		c-0.1,0.2-2.4,9.2-3.2,12.6c-0.9,3.6-1.9,7-1.9,10.8c-0.1,5.4,1.8,11.3,8.2,11.3c7,0,11.4-4.7,14-7.9c2.2,4.8,7,7.9,12.3,7.9
		c6.7,0,12.2-2.5,16.3-7.8l-1.7,6c-0.1,0.5,0.2,1.1,0.7,1.2c0.1,0,0.2,0,0.3,0h9.3c0.4,0,0.8-0.3,0.9-0.7l7-25.8
		c1.3-3.6,5.7-6.7,8.2-6.7c1.2,0,1.9,0.7,1.4,2.4l-7.7,29.4c-0.1,0.5,0.2,1.1,0.7,1.2c0.1,0,0.2,0,0.3,0h9.4c0.4,0,0.8-0.3,0.9-0.7
		l6.7-25.8c1.6-3.5,5.7-6.7,8.2-6.7c1.1,0,1.7,0.8,1.3,2.5c-0.1,0.3-2.4,9-3,11.6c-4,15.1-0.3,19.6,7.6,19.6c5.5,0,9.9-3,12.7-7
		c2.3,5.5,7.6,7,12.2,7c9.9,0,14.9-6.6,17-9.9c0.3-0.5,0.3-1.2-0.1-1.6c-0.4-0.4-0.9-0.7-1.4-1c-0.4-0.3-1-0.2-1.4,0.1
		c-2.4,3-5.3,5.6-10.7,5.6c-4.7,0-6.5-4.9-6.6-8.3c0-0.4,0-0.8,0.1-1.3c13.5,0,19.6-8.7,19.5-15.3c-0.1-5.2-2.7-10.5-10.3-10.5
		c-13,0-20.5,14.4-20.2,25.6c0.1,1.8,0.2,3.6,0.5,5.4c-1.3,1.6-3.8,3.6-6,3.6c-2.2,0-2.7-2.4-2.4-5.2c0.8-7.8,4.3-16.6,4.2-22.5
		c-0.1-2.5-1.3-6.9-7.2-6.9c-4.8,0-9.9,3-13.1,7c-0.3-2.5-0.6-7-6.7-7c-3,0-7.9,1.6-11.9,6.1l1.2-4.4c0.1-0.5-0.2-1.1-0.7-1.2
		c-0.1,0-0.2,0-0.3,0h-8.9c-0.4,0-0.8,0.3-0.9,0.7c0,0-5.2,19-5.3,19.6c-5.6,13.4-11.9,14.5-16.7,14.5c-4.4,0-6.7-5.3-6.3-9.6
		c11.2,0,19.6-6.7,19.5-15.4c-0.1-5.6-3.1-10.3-10.5-10.3c-14.2,0-20,17.3-19.9,25.9c0,1.3,0.1,2.6,0.3,3.9
		c-0.4,0.9-2.8,3.6-5.7,3.6c-4.3,0-4.2-10,2.6-30.5l0.3-0.7c0.2-0.5-0.1-1-0.6-1.2c-0.1,0-0.2-0.1-0.3-0.1c-3,0.1-11.3,0.9-15.9-0.9
		c0-0.1,1.6-7.4-5.9-7.4c-3.6,0-6.3,2.4-6.2,5.5c0.1,4.6,3.5,6.4,5.4,7.3c-3.2,9.6-6.5,19.1-9.6,26.2c-3,6.7-5.6,8.7-7.6,8.7
		c-1.8,0-2.3-1.3-2.4-2.7c-0.1-5.3,7.3-18.9,7.1-30.8c-0.1-4.7-3.5-7.4-7.9-7.4c-3.3,0-6.6,1.1-9.3,3
		C312.2,84.7,325.3,66.2,351.4,66.2z M479.2,87.3c1.6,0,2,2,2,3.4c0.1,7.6-4.6,13-11,13.5C471.2,95.7,474.8,87.3,479.2,87.3z
		 M387.7,87.3c2.1,0,2.2,3,2.1,4.9c-0.4,5.1-3.4,11.1-11,11.9C379.8,95.7,383.6,87.3,387.7,87.3z"/>
	<path class="st3" d="M169.3,66.2h99.5c7.4-0.1,13.4-6.1,13.3-13.6c0-0.1,0-0.2,0-0.3c0-0.3,0-0.6-0.1-0.9c-0.1-1-1.5-2.1-2.2-1
		c-1.4,2.2-5.9,2.4-9.4,2.4H169.2c1.4,2,2.2,4.3,2.1,6.7C171.4,61.9,170.7,64.3,169.3,66.2z"/>
	<path class="st3" d="M159.8,52.7c3.7,0,6.7,3,6.7,6.7c0,3.7-3,6.7-6.7,6.7c-3.7,0-6.7-3-6.7-6.7C153,55.8,156.1,52.7,159.8,52.7z"
		/>
	<path class="st3" d="M271,82.8h-9.3c-0.4,0-0.8,0.3-1,0.7l-6.4,23.3c-2.1,6.9-4.7,10.5-7.4,10.5c-2.7,0-3-3.4-2.4-6.4l7.3-26.8
		c0.2-0.6-0.2-1.1-0.7-1.3c-0.1,0-0.2,0-0.2,0h-9.3c-0.4,0-0.8,0.3-1,0.7l-0.4,1.6l-3.7,13.6c-0.7,2.7-1.4,5.2-2,7.5l0,0
		c-1,3.4-3.2,6.4-6.1,8.5c-1.5,1-3.1,1.9-4.7,2.6c2.6-3.9,4.4-9.2,5.7-15.1c2.2-11.1-0.3-19.9-8.4-19.9c-3.7-0.1-7.2,1.6-9.4,4.5
		l0.7-2.7c0.1-0.5-0.2-1.1-0.7-1.2c-0.1,0-0.2,0-0.3,0h-8.7c-0.4,0-0.8,0.3-0.9,0.7l-0.4,1.1l-6.4,23.6c-0.8,2.8-2.6,5.3-5,7
		c-1,0.7-2,1.2-3,1.7c1.2-2.4,1.8-5.1,1.8-7.8c-0.1-8.4-3.6-16.8-3.6-22.6c-0.1-1.9,0.4-3.9,1.5-5.5c0.4-0.6,0.1-1.3-0.5-1.3h-5.1
		c-0.7,0-1.3,0.3-1.6,0.9c-2.3,3.9-10.4,18.5-15.3,26.5c-3.2,0.4-6.2,3.9-5,7.8c-0.5,0.7-1.9,2.5-3.9,2.5c-1.5,0-1.9-2.6-0.5-8
		c0-0.1,0.1-0.3,0.1-0.4l6.7-24.8c0.1-0.5-0.2-1-0.7-1.2c-0.1,0-0.1,0-0.2,0h-8.7c-0.8-0.1-1.5,0.4-1.9,1.1l-0.3,1.2
		c0,0-5.6,20.7-6.5,24.2c-1,3.6-4,6.4-6.4,6.4c-4.2,0-4.1-10.8,2.4-30.5l0.3-0.7c0.2-0.5-0.1-1-0.6-1.2c-0.1,0-0.2-0.1-0.3-0.1
		c-3,0.1-11.2,0.9-15.9-0.9c0.3-1.5,0.6-7.4-6.4-7.4c-3.6,0-6.5,3-5.9,6.7c0.5,3.3,3.5,5.1,5.5,6c-3.3,10.3-8.3,23.6-10.8,28.9
		c-1,2.1-3.8,6.1-6.7,6.1c-1.9,0-2.1-1.7-2.1-3.2c-0.1-3.6,7.2-19.7,7.1-29.9c0-2.5-1.5-8-7.7-8c-3.4-0.1-6.8,1-9.5,3.1
		c0,0,12.7-18.5,38.8-18.5h25.3c-1.4-2-2.1-4.3-2.1-6.7c0-2.4,0.7-4.8,2.1-6.7H125c-23,0-42,27.5-46.5,33.3
		c2.2-6.4,6.6-19.7,6.5-24.8C84.7,49.5,71,48.8,64.1,51.5c-0.7,0.3-0.4,1.6,0.3,1.7c2.3,0.4,6.7,2.1,5,8.7
		c-0.1,1-18.3,67.5-18.3,67.5c-0.2,0.6,0.1,1.2,0.7,1.4c0.1,0,0.2,0,0.3,0H65c0.5,0,0.9-0.3,1-0.7c1.3-4.5,6.4-22.6,6.4-22.8
		c3-8.2,7.7-15.2,12.2-15.2c3.9,0,3,3.9,2.1,7c-1.9,6.2-3.4,12.2-5.1,18.6c-2.7,10,5.3,14.7,12.2,14.7c9.7,0,13.3-7,16.2-13.2
		c3.3-6.9,9.5-25.4,10.8-29.9c1.9,0.3,3.7,0.6,5.6,0.7c-0.1,0.2-2.4,9.2-3.2,12.6c-0.9,3.6-1.9,7-1.9,10.8
		c-0.1,4.7,1.7,11.5,8.7,11.5c4.2,0.1,8.1-1.8,10.8-5c0.2-0.3,0.4-0.5,0.7-0.8c0.2,1,0.7,1.9,1.3,2.7c1.8,2.2,4.5,3,7.4,3
		c4.7,0,8.8-3.2,10.5-5.2c1.6,2.7,5,5.2,11.6,5.2c0.5,0,1,0,1.6-0.1c6.5-0.3,13.3-2.4,18.3-5.9l-0.8,2.9l-4.2,15.4
		c-0.2,0.6,0.1,1.2,0.7,1.4c0.1,0,0.2,0,0.3,0h9.2c0.5,0,0.9-0.3,1-0.7l4.3-16.3c1.5,2.1,4.1,3.3,9.6,3.3l0,0
		c8.2,0,15.9-3.2,20.8-8.4c0.6,5.2,4.4,8.4,8.2,8.4c2.4,0,6.3-0.3,9.5-4.1c0,0-1.2,4.4-1.6,5.6c-10.2,0-17.8,5.6-17.6,11.6
		c0.1,4.1,4.7,7.1,9.8,7.1c11.6,0,15.3-7.7,17.8-13.7c1.7,0.3,6.1,1.4,7.3,1.8c0.5,0.1,0.9-0.1,1.1-0.6c0,0,0-0.1,0-0.1l0.6-1.9
		c0.1-0.5-0.1-1.3-0.5-1.4l-7-1.9L272,84.5C272.1,83.5,271.6,82.8,271,82.8z M171.5,119.8c-1.6,0-3-0.9-3-1.7c0-1.3,1.9-2.1,1.8-5
		c0-1.6-0.7-3.9-2.2-4.7c1-1.6,7.1-12.7,7.8-14.1c1.3,5.2,2,10.5,2,15.9C177.9,115.7,174.8,119.8,171.5,119.8z M218.4,97.6
		c-1.8,10.9-5.1,20.2-10.3,20.2c-2.7,0-3.9-3-2.7-7.2c1.6-5.6,2.8-10.7,3.2-12.1c1.3-4.5,3.4-9.1,7.3-9.1
		C217.9,89.5,219.4,91.7,218.4,97.6L218.4,97.6z M239.8,138.6c-1.2,0.1-2.2-0.8-2.3-2c-0.1-3.9,5.9-6.2,9.9-6.3
		C245.4,135.4,243.9,138.6,239.8,138.6z"/>
	<path class="st1" d="M514.5,164.1c0-1.1-0.8-1.9-1.9-1.9c-0.1,0-0.2,0-0.2,0h-3.2v6.7h1.3v-2.5h1.4c1,0,1.1,0.8,1.2,2.5h1.3
		c-0.1-1.2,0.1-2.4-1.1-3C514.1,165.5,514.5,164.8,514.5,164.1z M512.1,165.2h-1.6v-2.1h1.7c0.5,0.1,0.9,0.5,0.9,1
		c0.1,0.5-0.3,1-0.8,1.1C512.2,165.2,512.2,165.2,512.1,165.2z"/>
	<path class="st4" d="M517.9,165.5c0,3.4-2.8,6.2-6.2,6.2c-3.4,0-6.2-2.8-6.2-6.2c0-3.4,2.8-6.2,6.2-6.2
		C515.1,159.3,517.9,162.1,517.9,165.5z M511.7,160.4c-2.9,0-5.2,2.3-5.2,5.2c0,2.9,2.3,5.2,5.2,5.2c2.9,0,5.2-2.3,5.2-5.2l0,0
		C516.9,162.7,514.6,160.4,511.7,160.4L511.7,160.4z"/>
</g>
</svg>
