<?xml version="1.0" encoding="utf-8"?>
<!-- Generator: Adobe Illustrator 24.1.0, SVG Export Plug-In . SVG Version: 6.00 Build 0)  -->
<svg version="1.1" id="Layer_1" xmlns="http://www.w3.org/2000/svg" xmlns:xlink="http://www.w3.org/1999/xlink" x="0px" y="0px"
	 viewBox="0 0 425 407" style="enable-background:new 0 0 425 407;" xml:space="preserve">
<style type="text/css">
	.st0{fill:#C01C2E;}
	.st1{fill:#FFFFFF;}
</style>
<path class="st0" d="M423,372.4l-32.9-90c10.3-24.3,15.9-50.9,15.9-78.9c0-112.1-90.9-203-203-203C90.9,0.5,0,91.4,0,203.5
	s90.9,203,203,203c48.1,0,92.2-16.8,127-44.8l74.2,29.1C420.6,397.2,429.1,389,423,372.4z M115.7,188.6H294
	c8.2,0,14.9,6.6,14.9,14.9c0,8.2-6.7,14.9-14.9,14.9H115.7c-8.2,0-14.9-6.6-14.9-14.9C100.9,195.3,107.5,188.6,115.7,188.6z"/>
<circle class="st1" cx="204.9" cy="292.9" r="22.5"/>
<circle class="st1" cx="204.9" cy="114.2" r="22.5"/>
</svg>
