<?xml version="1.0" encoding="utf-8"?>
<!-- Generator: Adobe Illustrator 24.1.0, SVG Export Plug-In . SVG Version: 6.00 Build 0)  -->
<svg version="1.1" id="Layer_1" xmlns="http://www.w3.org/2000/svg" xmlns:xlink="http://www.w3.org/1999/xlink" x="0px" y="0px"
	 viewBox="0 0 696 138" style="enable-background:new 0 0 696 138;" xml:space="preserve">
<style type="text/css">
	.st0{fill-rule:evenodd;clip-rule:evenodd;fill:#2A6433;}
	.st1{fill:#2A6433;}
</style>
<path class="st0" d="M63.4,36.3c-4.7,24.5-6.2,31.9-6.9,45.1c-0.1,6.9-0.5,15.5,2.3,17.8c1.3,0.9,4.1,1.1,5.5,0.5
	c2.5-1.1,2.4-3.3,2.7-5.1c0.1-2.7,0.1-3.8,0.3-6c1.5-23.2,3.7-35.2,10.6-58.5c1.3-4.5,3.2-11.1,3.7-12.1c0.8-1.9,2-2.9,0.6-4.6
	c-1.7-2.3-7.8-2-10.4-1.8c-4.3,0.1-5.1,0.8-7.6,4.6c-5,7.8-16.6,29.4-27.9,59.1c-1.8-24.3,0.6-41.5,2-48.4c0.5-2.5,2-6,0.8-7.4
	c-1.7-2-7.3-1.5-9.6-1.1c-4.2,0.9-6,2.8-7.3,6C12.3,50.7,1.6,94,1.6,94c-0.6,2.2-3.4,10.6-1.3,12.7c1.4,1.4,3.9,2,5.4,1.9
	c2.5-0.5,2.7-3.4,3.1-5.4l16.4-55.8l-0.3,30.3c0,2.3,0,11,2.7,12.6c1.5,1.3,6.9,1.4,8.7,0.9c4.8-1.4,6.1-8.5,7.8-12.2
	C44.1,79.2,54.8,50.2,63.4,36.3"/>
<path class="st0" d="M103.6,55.4c-3.2-2.4-4.7-3.1-6.8-2.9c-6,0.5-10.1,5.6-13.6,11.7c-3.8,7.1-9.7,24.1-6.1,30.6
	c1.7,2.8,3.4,4.1,6.2,4.1c6.6,0.4,10.3-4.8,14.5-11.1c1,3.9,2,6.1,3.9,7.1c1.7,1.1,5,0.6,7.3-0.3c4.7-2.5,11.7-15.7,12.2-18.2
	c0.4-2,0.1-3.2-0.5-3.9l-2.9-0.6l-5.2,8.2l-2.8,4.6c-1.5,2.2-2.9,3.6-3.8,3.4c-1.1-0.1-1-2.8-0.6-4.5c0.1-0.5,0.6-5.2,3.9-12.7
	l0.8-2.3c1-1.8,4.7-8.9,2.8-11.2C110.8,54,107.1,55,103.6,55.4 M97.5,61.4c1.1-0.5,2.9-1,3.8,0.6C99.8,72.9,88,93.5,84.6,91.9
	C82.5,90.7,90.9,65,97.5,61.4"/>
<path class="st0" d="M132.3,64.3l8.8-35.7c0.5-1.4,1.3-4.2,2.3-5.5c1.3-1.8,3.2-3.2,3.3-5.2l-2.5-3.1c-2.5-0.6-4.2-0.9-6.8-0.1
	c-2.3,0.8-3.9,3.6-5.9,12.2l-12.9,57.6c-1.5,6.6-2.8,9.8-0.6,11.6l5.4,1.1c1.7-0.8,2.2-3.1,2.8-5.6c0.8-4.8,2.2-11.2,2.5-12.9l1.4-1
	c1.8,5,3.9,9.4,6.8,12.6c3.7,3.9,8,3.8,11,3.1c7.8-2.4,13.1-15.8,15-22.4c0.8-2.3-0.4-3.4-2.3-3.7c-1.4-0.3-2.5,0.6-3.4,2.3
	c-3.7,10.6-6.4,17.1-9.8,17.2c-1.7,0.1-3.2-2.5-3.7-4.1c-0.8-1.7-3.4-8.9-4.2-14.1c2.8-3.4,17.5-17.5,17.5-17.5
	c1.9-3.6-3.1-5-3.9-5.1c-1.9-0.3-2.9,0.5-4.1,1.5C149.1,47.5,143.6,51.6,132.3,64.3"/>
<path class="st0" d="M169.6,74c1.1,0.5,1.9,0.9,3.3,1.3c1.5,0.3,2.3,0.1,2.8,0c7-2.5,10.1-10.3,11.7-16.6c0.6-3.4,1.8-10.6-0.3-12.2
	c-1.4-1.3-4.1-1.1-6.4-1.8c-2.2-0.6-3.6-1.8-5.1-1.5c-5.4,0.9-8.4,7-10.6,12.5c-2.4,5.7-7.8,25.2-2.8,32.4c2.5,3.6,6.6,4.7,9.7,4.6
	c9.6-0.8,17.1-7.4,22.2-18.1c2-4.1,3.4-6.8,2.2-8.7c-0.8-1.5-1.8-2.2-2.7-2.2c-1.7-0.4-2,0.3-2.9,2c-4.3,6.6-6.5,17.5-15.7,20.8
	c-2.4,1-3.6,0.4-4.3-0.4C168,83.7,169,76.3,169.6,74 M173.4,60c1.8-4.3,3.6-7.3,5-6.5c1.1,0.5-0.5,17.1-4.7,15.7
	c-1-0.1-1.7-1.7-1.8-3.1C171.7,65.9,172,63.4,173.4,60"/>
<path class="st0" d="M280.7,9.8c2.3,0,1.9-1.3,2-2.4l-0.4-2.5c-1.8-3.1-11.6-4-19.2-4c-13.5,0-34.7-1.1-41.3,5.2
	c-1.1,1.1,0.4,5.7,2.2,6.4c2.2,0.9,5,0.8,14,0.6l5-0.1l-17.7,67.4c-0.9,3.1-1.9,5.2-0.9,7.5c0.4,0.9,0.8,1.5,2.7,2.2
	c2,0.8,3.2,0.3,3.6,0.3c3.4-0.8,3.9-4.1,5-7.1l19.4-67.4c1.4-5.2,0.9-5.5,5.9-5.7L280.7,9.8z"/>
<path class="st0" d="M265.7,46.1c-1,0.4-2.5,1.7-4.3,3.8c-5.7,7.4-11.8,25.4-9.4,32.4c1,3.8,3.9,6,6.8,6.5c3.8,0.9,7.5,0.4,11.8-3.7
	c8.3-7.9,12.5-21.9,11.2-29.8c-0.8-3.7-2.8-6.5-6.2-7.9c-2.5-0.9-3.1,0.3-4.3-0.1l-2.9-1.4L265.7,46.1 M275.4,59.5
	c-0.6,5.6-9,22.4-13.2,22.4c-1.5,0-2.4-2.2-2.4-3.7c-0.1-0.6-0.3-1.8,0.1-3.6c0.6-4.2,1.8-6.5,2.7-8.5c1.1-2.4,6.1-11.3,9.2-12.1
	l2.7,0.5C275.2,55.2,275.6,56.2,275.4,59.5"/>
<path class="st0" d="M330.4,11.7c-7.1-1.7-8.9,3.7-11.6,12.1l-8.5,24.6c-3.8-3.4-5-4.3-8.3-3.4c-7.3,1.7-15.3,18.5-16.7,22.9
	c-2.2,6.4-5,19.2,3.1,22.3l1.1,0.4c5.1,1.3,10.6-3.2,15.8-11.2c1.1,3.2,1.8,4.3,2.7,5.1c1.9,1.7,4.1,2.2,6.5,1.3
	c5.6-1.7,12.4-13.5,13.5-17.2c0.6-2.7,0.4-3.4-0.3-4.5l-2.5-0.6c-1.3,0.6-4.2,5.9-5,7.8c-2.8,4.8-5.2,7.9-6.5,7.6
	c-1.8-0.4-0.4-7.4,1.1-11.7l17.5-48.7C334,14.4,333,12.2,330.4,11.7 M303.5,54.1c1.5-1.1,2.9-2.4,4.6-1.7l1,0.8
	c-2.2,8.2-8.2,27.8-14.9,29.6h-1.1c-1.3-0.8-1.3-2.4-1.3-3.3c0-0.3,0.4-2.7,0.9-4.8c0.5-1.4,0.8-2.9,2.4-6.4
	C297.3,62.7,300.5,56.8,303.5,54.1"/>
<path class="st0" d="M353,46.6c-3.2-2.5-4.6-3.2-6.5-3.2c-6.1-0.1-10.4,4.7-14.4,10.6c-4.5,6.9-11.3,23.3-8.3,30.1
	c1.5,2.8,3.3,4.2,6,4.6c6.8,0.6,10.8-4.2,15.4-10.2c0.8,3.9,1.4,6.2,3.3,7.4c1.7,1.3,5.1,1.1,7.4,0.5c5-2.3,12.9-15,13.4-17.3
	c0.6-2,0.4-3.3-0.1-4.1l-2.8-0.9l-5.9,7.9l-3.2,4.3c-1.5,2-3.1,3.4-3.8,3.3c-1.3-0.3-1-2.9-0.5-4.6c0.1-0.4,1.1-5,4.8-12.5l0.9-2.2
	c1.1-1.9,5.4-8.5,3.8-11.2C360.1,46,356.4,46.4,353,46.6 M346.7,52.2c1.1-0.5,2.8-0.8,3.4,0.9c-2.2,10.9-15.6,30.6-18.6,28.6
	C329.5,80.4,339.6,55.3,346.7,52.2"/>
<path class="st0" d="M383.7,81.9l-1,5.9c-0.8,2.7-2.7,18.2-7,20.8c-2.2,1.1-7.4-0.3-11-1.1c-2-0.8-3.1-2.3-3.1-3.6l-1-4.1l-2.5-0.9
	c-1.7,0.6-2,2.2-2,3.3c0,3.3,3.9,8.5,6.1,10.2c4.1,3.4,10.8,2.7,14.9,1.3c11.7-4.5,12.6-11.8,14.4-21.7l2.3-13.2
	c0.8-4.1,6-19.4,6.6-20.9l1-2.2c2-4.3,4.2-5.6,3.6-8.2c-0.4-1.8-2.3-2.9-3.6-3.6c-1.5-0.5-4.2-0.8-5.5,1.5l-3.6,8.4
	c-1.8,4.8-2.7,6.6-3.6,8.4c-2.8,5.6-8.5,16.3-10.8,16.2c-1.4-0.3-0.6-10.3,7-23.8c1.4-2.5,2.7-3.1,1.5-5c-1-1.5-2.2-1.9-3.8-2.3
	c-2.2-0.4-4.6,0.8-6.1,3.2c-1.9,3.1-9.2,24.1-7.4,30.3c0.8,2.9,3.1,5.2,5,5.6C377.4,87.8,380.2,85.2,383.7,81.9"/>
<path class="st0" d="M462.4,0.4C448.9,3.7,436,28,434.5,37.6c-1.7,9.6-0.3,13.9,8.9,23.1l1.8,1.4c6.6,5.9,9,8.7,8.9,12.6
	c0,2.5-1.3,3.7-3.3,4.8c-3.7,2.2-10.8,1.4-17.6-3.1c-2.7-1.5-4.6-3.8-6.2-6.2l-4.1-6.8h-3.1c-1.5,0.9-2.4,1.8-2.4,4.3
	c-0.1,3.7,5.5,11.1,9.7,14.3c8.3,5.9,20.8,8.5,30.6,5c4.2-1.5,7.8-4.6,8.5-8.3c1.3-4.7-3.2-7.3-7.3-11.3l-1.8-1.7
	c-8.5-9.4-12.1-15.8-10.4-24.7c1.9-8.5,8.9-24,21-28c3.2-1,5.5-0.9,6.9,0.8c2.8,2.3,2.3,7.9,6.5,9.9c1.7,0.6,3.3,0.5,4.8-0.8
	c2.3-1.5,1.9-1.9,1.7-3.8c-0.5-3.1-2.7-4.7-6.1-7.3l-3.7-3.2l-3.2-3.9C471.4,1.3,465.3-0.4,462.4,0.4"/>
<path class="st0" d="M489.5,55.4c1.4-5.5,5.5-11.8,4.3-13.8c-1.1-1.3-2.7-2.2-4.1-1.9c-2.8,0.1-5.5,6-7.3,11.1
	c-5.4,14.9-9.9,27-19,57.5c-1.4,4.8-3.2,10.2-0.8,12.7c0.8,0.9,1.7,1.4,4.1,1.7c2.2,0.3,4.1,0.1,4.3-1.5c0.4-1.7-0.4-1.7-0.5-3.4
	c-0.4-1.9-0.4-3.4,0.1-6.5c1.3-6.5,1.3-7.5,7.6-23.3c2.8,4.3,5.7,4.1,6.8,3.9c5.2,0.4,10.1-3.3,14.4-9.6c5-7.1,9-21,6.5-27.4
	c-1.4-3.2-3.9-5.1-6.5-5.5C495.5,48.8,493.2,52.2,489.5,55.4 M493,60.3c1.8-2.2,3.6-3.3,4.8-2.8c1.3,0.6,1.8,2.2,1.8,3.8
	c-0.3,3.3-2,8.5-2.9,10.7c-2,5.2-4.1,7.9-5.9,9.8c-1.8,2.2-4.7,3.4-6.4,3.1c-1.5-0.1-3.2-1.4-3.6-2.8C480,77.5,487.1,67,493,60.3"/>
<path class="st0" d="M517.8,74.7c1,0.6,1.8,1.1,3.2,1.5c1.5,0.5,2.3,0.4,2.8,0.4c7.3-1.8,11.3-9,13.6-15.2c1-3.2,2.8-10.1,1.1-12.1
	c-1-1.3-3.9-1.5-6.1-2.4c-1.9-0.8-3.3-2.3-4.8-2.3c-5.4,0.1-9.2,6.1-12,11.3c-3.1,5.4-10.8,24.1-6.8,31.7c2.2,3.7,6.1,5.5,9,5.7
	c9.6,0.5,17.8-5.2,24.2-15.4c2.3-3.7,4.1-6,3.2-8c-0.8-1.7-1.7-2.4-2.4-2.7c-1.8-0.6-2,0.1-3.2,1.9c-5.2,5.9-8.7,16.4-18.2,18.6
	c-2.3,0.6-3.4-0.3-4.3-0.9C515.1,84,517,76.8,517.8,74.7 M523.5,61.3c2.2-3.9,4.3-6.9,5.6-6c1.1,0.6-2.5,16.9-6.6,15.2l-1.5-3.2
	C520.9,66.8,521.5,64.3,523.5,61.3"/>
<path class="st0" d="M565.7,55c-1,2.9-4.8,12.6-4.1,15.4c0.9,1.8,2.7,2.5,4.1,2.7c2.2,0.4,3.2-0.8,4.5-2.5
	c2.3-3.1,5.7-12.2,4.5-15.9c-1.1-3.2-6-6.1-8.2-6.6c-4.5-0.9-6.9-0.9-11,3.1c-6.4,6.4-15.3,26.2-14.1,34.5c0.8,4.7,2.7,7.1,7,9.2
	c5.2,2.3,11.6,2.3,17.7-2.2c5.9-3.9,13.1-15.5,14.1-17.2c0.4-1.3,0.6-1.7-1.4-3.2c-1.8-1-1.9-0.9-2.7-0.3c-0.1,0.1-2.9,4.2-6.5,9
	c-2.7,3.3-6.4,6.2-9.2,7.9c-3.1,1.8-6.6,2.9-8.5,1.8c-2.5-1.1-2.3-2.5-2.4-4.5C549,78,556.8,61.8,565.7,55"/>
<path class="st0" d="M597.4,44.1l-4.3,1.3c-2.7,1.3-3.7,2.8-3.9,4.7c-0.4,2.3,0.4,3.3,1.7,4.6c1.9,1.7,4.3,1.8,6.6,1.1
	c3.3-1,5.4-3.1,6.1-5.4c0.6-1.9,0.1-3.3-0.9-4.5C601,44.1,599.6,43.7,597.4,44.1 M596.7,58.7c0-1.3-2.2-2.3-3.2-2.4
	c-2.7-0.4-5.4,0.5-7,2.3c-5.1,5.1-10.1,22.8-8.8,30.2c0.9,3.8,2.2,6,5.6,7.4c2.5,1.1,6,0.8,8.9-1.4c4.8-3.2,13.5-15.3,14.1-16.8
	s0.4-2.4-0.5-2.9l-2.7-0.9c-1,0-2.2,1.8-2.8,3.1c-3.4,5.2-11.5,13.6-13.6,12.7l-0.9-3.4c0.3-0.5,0.4-2.4,1.1-5.4
	c1-2.9,1.5-4.5,3.4-7.6C596.7,60.3,596.8,60.3,596.7,58.7"/>
<path class="st0" d="M633,60.6c-2.7-2.9-4.1-3.8-6.1-4.2c-6.1-0.6-10.7,3.8-15.4,9.2c-5.2,6.4-13.6,22-11.3,29
	c1.1,2.9,2.8,4.6,5.5,5c6.5,1.5,11.1-2.9,16.3-8.3c0.3,3.9,0.6,6.2,2.4,7.8c1.5,1.3,4.8,1.4,7.3,0.9c5.4-1.7,14.3-13.4,15.2-15.9
	c0.8-1.9,0.8-2.9,0.1-3.8l-2.8-1.3l-6.6,7.1L634,90c-1.8,1.8-3.4,2.9-4.3,2.8c-1.1-0.4-0.5-2.9,0-4.6c0.3-0.4,1.7-4.8,6.2-11.8
	l1.3-2.2c1.1-1.7,6.1-8,4.7-10.7C640.2,60.4,636.4,60.6,633,60.6 M626.1,65.5c1.1-0.5,3.1-0.6,3.6,1C626.3,77.1,611,95.3,608,92.9
	C606.1,91.7,618.8,67.8,626.1,65.5"/>
<path class="st0" d="M656,97.6c-2-0.5-2-3.6-1.8-4.7c0.1-2.2,0.3-2.9,0.9-4.3c1.1-4.3,1.9-5.5,4.5-8.5c0,0,11.3-12.7,17.3-21.8
	c2.3-3.4,6-9.7,6-9.7c2.5-3.9,11.6-18.2,9.2-22.5l-4.1-5.4c-1.5-1.8-1.8-3.3-4.1-3.3c-5.1-0.3-12.6,12.4-17.8,21.7
	C659.6,49.9,655,61.6,652,70.2c-4.5,11.5-8,24.8-3.4,31.3c1.8,2.7,4.8,3.7,7.8,3.4c6.4-0.9,19.4-16.2,20.4-18.3
	c0.6-1.9,0.5-3.6,0-4.5l-2.8-0.9c-1.4,0.3-3.2,3.2-3.9,3.9c-1.5,2.2-2.2,2.8-4.1,4.8c-2.4,2.8-2.7,3.1-4.5,4.7
	C659.2,96.3,657.1,97.7,656,97.6 M676.7,36.9c2-3.6,6.1-8.7,6.6-7.4c0.6,1.5-6.1,14.1-6.1,14.3c0,0-9.6,18.2-15.3,24
	C663.8,60.1,672.9,43.4,676.7,36.9"/>
<path class="st1" d="M403.7,101.3c14.4,2.8,22.7-2,37.3-1.9c46.6,0.5,73.5,1.1,119.8,4.8c13.1,1.7,25.6,3.3,36.7,5.6
	c25.5,4.7,38.9,9.4,63.7,16.4c4.8,1.4,2.7,7.6-2.3,6.1c-24.1-6.9-39-9.9-64.1-14.4c-10.4-2.4-21.7-4.1-34.9-5.6
	c-46.4-3.6-72.1-6.6-118.6-7.4c-14.8,0-23.2,0.3-37.6-2.8V101.3"/>
</svg>
