<?xml version="1.0" encoding="utf-8"?>
<!-- Generator: Adobe Illustrator 24.1.0, SVG Export Plug-In . SVG Version: 6.00 Build 0)  -->
<svg version="1.1" id="Layer_1" xmlns="http://www.w3.org/2000/svg" xmlns:xlink="http://www.w3.org/1999/xlink" x="0px" y="0px"
	 viewBox="0 0 413 384" style="enable-background:new 0 0 413 384;" xml:space="preserve">
<style type="text/css">
	.st0{fill:#FFFFFF;}
</style>
<g>
	<path class="st0" d="M379.7,361.4c0.1-0.1,0.7-0.5,0.5-0.7C380.3,360.6,379.5,361,379.7,361.4z"/>
	<polygon class="st0" points="378.4,355.5 378.3,356.5 378.5,356.2 	"/>
	<path class="st0" d="M377.1,355.4l0.6-0.9l-0.3,0.1c-0.9-0.2-0.5-2.1-1.7-1.5C376.4,353.3,376.7,354.7,377.1,355.4z"/>
	<path class="st0" d="M372.4,353.6c0.1,0,0.1,0,0.2,0c-0.5-1,0-0.5-0.5-0.3C372.3,353.4,372.4,353.5,372.4,353.6z"/>
	<path class="st0" d="M372.4,353.6C371.9,353.6,372.7,353.9,372.4,353.6z"/>
	<path class="st0" d="M370.6,352.6c0-0.3,0.4,0,0.7-0.1v-0.7C370.7,351.9,370.4,352,370.6,352.6z"/>
	<path class="st0" d="M371.7,351.2l-0.1-0.4C371.5,351.2,371.6,351.2,371.7,351.2z"/>
	<path class="st0" d="M371.8,351.5c0.4-0.6,0.1-0.4-0.1-0.3l0.1,0.7C371.8,351.5,372,351.2,371.8,351.5z"/>
	<path class="st0" d="M373,351.5c0,0.8-0.4,0.6-0.8,0.5C372.8,353,373.6,352.5,373,351.5z"/>
	<path class="st0" d="M377.1,352.7l0.1-0.6l-0.6-0.1C376.2,352.3,377.1,352.4,377.1,352.7z"/>
	<path class="st0" d="M369.4,349.6v-0.5c-0.3,0.2-0.8,0.3-1,0.5C368.7,349.3,369.1,349.5,369.4,349.6z"/>
	<path class="st0" d="M369.3,348.2l0.1,0.8C369.6,348.8,369.7,348.6,369.3,348.2z"/>
	<polygon class="st0" points="372.5,349.6 372.6,351.2 372.6,349.8 	"/>
	<polygon class="st0" points="366.8,347.3 366.5,348.4 366.7,347.7 	"/>
	<path class="st0" d="M364.6,345.6c0,0.5-0.1,1.1,0.1,1.5c0.1-0.4,0.8-0.1,1-0.7C365.1,346.4,364.8,346.1,364.6,345.6z"/>
	<path class="st0" d="M364.7,345.7c0.1-0.3,0.1-0.6,0.1-0.8C364.7,345.2,364.7,345.5,364.7,345.7z"/>
	<path class="st0" d="M368.4,347.3l-0.8,0.3c0.4,0.2,0.7,0,0.9-0.1C368.4,347.4,368.3,347.4,368.4,347.3z"/>
	<path class="st0" d="M367.9,346.9c0,0.1,0.2,0.2,0.4,0.4l0,0C368.1,347.1,367.9,347,367.9,346.9z"/>
	<path class="st0" d="M368.5,347.5L368.5,347.5C368.6,347.4,368.5,347.5,368.5,347.5z"/>
	<path class="st0" d="M371.9,347.7c-1-0.2-0.8,0.7-0.9,1.3C371.1,348.1,371.7,348.2,371.9,347.7z"/>
	<path class="st0" d="M369.5,348c0-0.3,0.3-0.4,0.5-0.5l-0.6-0.4L369.5,348z"/>
	<polygon class="st0" points="369.2,347 369.4,347.1 369.4,346.7 	"/>
	<path class="st0" d="M366.8,345c-0.3-0.3-0.6-0.5-1-0.7c0.2,0.3,0.4,0.6,0.3,1C366.4,345.6,366.6,345.2,366.8,345z"/>
	<path class="st0" d="M367.2,346.2C367.2,346.1,367.2,346.2,367.2,346.2C367.3,346.1,367.3,346.1,367.2,346.2z"/>
	<path class="st0" d="M363.4,341.6c0.1,0,0.1-0.1,0.1-0.1C363.5,341.6,363.5,341.6,363.4,341.6L363.4,341.6z"/>
	<path class="st0" d="M366.7,345c0.2,0.2,0.3,0.4,0.4,0.6c0.1-0.3,0.1-0.6-0.2-0.7C366.8,344.8,366.8,344.9,366.7,345z"/>
	<path class="st0" d="M365.1,344c-0.3-0.1-0.5-0.1-0.7-0.1C364.3,344,364.8,344,365.1,344z"/>
	<path class="st0" d="M367,346.2L367,346.2C366.9,346.2,366.8,346.3,367,346.2z"/>
	<path class="st0" d="M367.2,346.1c0-0.1,0-0.3-0.1-0.5c-0.1,0.2-0.1,0.4-0.1,0.6C367.1,346.2,367.2,346.1,367.2,346.1z"/>
	<path class="st0" d="M365.8,337.9l-0.2-0.9c-1.1,0.7-0.4,2.1-1.3,2.4c0.6,0.1,1-0.4,1.3,0.5c-0.1,0.9-1.3,0.3-1.8,0.4
		c0.1,0.8-0.1,1-0.3,1.2c1.4-0.5,3.4-1.8,3.4-2.6c-1,0-1-1-0.5-1.5C366.1,337.4,366,337.8,365.8,337.9z"/>
	<path class="st0" d="M364.3,342.6l-1-1c-0.1,0.2-0.2,0.4-0.2,1c0.7,0,1.1-0.1,1.4,0.1l-0.1-0.3L364.3,342.6z"/>
	<path class="st0" d="M364.5,342.6l0.6,1.3l0,0c0.1,0,0.1-0.1,0.1-0.1c0-0.1-0.2-0.4,0.2-0.2c-0.1,0.1-0.1,0.2-0.1,0.2l0,0
		c0.1,0.1,0,0.1-0.1,0.1l0,0l0,0c-0.1,0-0.1,0-0.1,0c0.2,0.1,0.5,0.2,0.7,0.3c-0.1-0.2-0.3-0.4-0.4-0.6c1,0.4,0.4-1.3,1.2-0.2
		c-0.1-0.6,0.5-0.9,0-1.5c-1,0.3-0.8,1-1.2,1.7C365,343.1,364.8,342.8,364.5,342.6z"/>
	<path class="st0" d="M372.5,346.1c0.1,0,0.1-0.1,0.2-0.1C372.6,345.9,372.6,345.9,372.5,346.1z"/>
	<path class="st0" d="M370.1,346.8c0.1-0.2,1.2-0.3,1.8-0.1v0.1c0.7,0.2,0.7-0.4,0.7-0.7c-0.2,0.2-0.1,0.4-0.5,0.4
		c-0.3-0.2-0.1-0.5-0.1-0.6C371.2,346.1,370.8,346.3,370.1,346.8z"/>
	<path class="st0" d="M369,343.7l0.3-0.2h-0.9l0.4,1.1C369,344.3,369.5,344.1,369,343.7z"/>
	<polygon class="st0" points="362.9,341.1 362.5,342.4 363,341.7 	"/>
	<polygon class="st0" points="361.7,340.5 361.6,341.1 362.1,340.6 	"/>
	<path class="st0" d="M157.6,126.6c-0.1,0.2-0.3,0.4-0.4,0.6l-0.2,0.3c0.1,0.2-0.1,0.3-0.1,0.4c-0.2,0.5-0.3,1.1-0.4,1.7
		c-0.1,0.5-0.2,1-0.3,1.5c-0.3,1.7-0.6,3.7-1,6.1c0,0,0.5-2.5,0.9-5.1c0.1-0.7,0.2-1.4,0.3-2c0.1-0.5,0.2-1,0.3-1.4
		c0.1-0.5,0.4-0.8,0.4-1.2c0.3-0.7,0.7-1.2,1-1.6c0.2-0.4,0.4-0.6,0.4-0.6C158.3,125.6,158,126,157.6,126.6z"/>
	<path class="st0" d="M175.8,55.5l-0.3,1.8C175.6,60.3,175.7,58.9,175.8,55.5z"/>
	<path class="st0" d="M97.5,255.7c-0.3-0.1-0.7-0.2-1-0.3c-0.4-0.1-0.9-0.3-1.3-0.4c-0.9-0.3-1.8-0.6-2.7-0.9l-0.7-0.2
		c-0.4-0.1-0.7-0.3-1.1-0.4c-0.7-0.3-1.5-0.6-2.2-0.9c-1.5-0.6-2.9-1.4-3.9-2.5c-0.5-0.5-0.9-1.3-1.1-2.1c-0.2-0.7-0.3-1.5-0.3-2.4
		c0.1-1.7,0.5-3.6,1.1-5.4c0.7-2.1,1.2-3.1,2-4.5c0.4-0.7,0.8-1.3,1.3-2c0.3-0.3,0.5-0.7,0.8-1l0.4-0.5l0.3-0.4l2.5-3.9
		c0.2-0.5-0.4-0.1-1.4,1.1c-0.5,0.6-1.2,1.3-1.9,2.2c-0.1,0.1-0.2,0.2-0.3,0.3s-0.3,0.3-0.4,0.5c-0.3,0.4-0.6,0.7-0.8,1.1
		c-0.5,0.7-1,1.5-1.4,2.3c-0.5,0.8-0.8,1.6-1.2,2.6c-0.5,1.3-0.9,2.7-1.2,4.1s-0.4,2.8-0.3,4.2c0,0.7,0.2,1.3,0.4,2
		c0.3,0.7,0.6,1.4,1.1,1.8c0.9,1,2.2,1.8,3.7,2.4c0.7,0.3,1.5,0.6,2.2,0.9c0.8,0.3,1.6,0.6,2,0.7c1,0.3,1.9,0.6,2.9,0.9l1.4,0.4
		l1,0.3l0.6,0.2c0.1,0.1,0.2,0.1,0.3,0.1h0.3C98.3,256.1,97.9,255.9,97.5,255.7z"/>
	<path class="st0" d="M29.5,84c1.1,0.5,2.3,1,3.4,1.5c2.3,0.9,4.4,1.8,6.4,2.7c-2.7-1.4-5.8-2.8-9.1-4.4c-0.7-0.2-1.2-0.5-1.9-0.9
		c-0.6-0.4-1.3-0.7-1.9-1.1C27.5,82.5,28.5,83.3,29.5,84z"/>
	<path class="st0" d="M15.8,68.9c-0.2-0.2-0.3-0.3-0.5-0.5L15,68.2c-0.2-0.2-0.3-0.4-0.4-0.6c-0.4-0.7-0.7-1.4-1.1-2.1
		c-0.8-1.5-1.5-2.8-2.1-4c-0.1-0.2-0.2-0.3-0.3-0.5c-0.1-0.2-0.2-0.4-0.3-0.6c-0.2-0.3-0.3-0.5-0.5-0.8c-0.3-0.5-0.6-0.9-0.9-1.4
		c0.4,0.6,0.8,1.3,1.2,2l0.2,0.3c0.1,0.1,0.1,0.3,0.2,0.4l0.3,0.6l0.6,1.1l2.3,4.4l0.4,0.8c0,0.2,0.2,0.4,0.4,0.5l1.7,1.5l3.6,3.3
		C18.6,71.6,17.1,70.2,15.8,68.9z"/>
	<path class="st0" d="M233.9,165.8l0.4,12C234.6,176.3,235.8,184.5,233.9,165.8z"/>
	<path class="st0" d="M217.5,340.5c-0.8,0.4-1.7,0.9-2.7,1.4c-0.8,0.3-1.3,0.5-2,0.7c-0.6,0.2-1.3,0.4-2,0.6
		c-1.3,0.4-2.8,0.6-4.4,0.8c-1.6,0.2-3.2,0.3-5.2,0.2c-0.9,0-2.4-0.2-3.6-0.6c-1.3-0.4-2.5-1-3.6-1.8c-1-0.8-2-1.9-2.6-3.2
		c-0.3-0.7-0.5-1.4-0.7-2.1c-0.1-0.7-0.3-1.5-0.4-2.1c-0.3-2.1-0.5-4.2-0.6-6.3c0,1.2,0.1,2.5,0.2,3.8c0.1,1.3,0.2,2.4,0.7,4.6
		c0.2,1,0.5,1.9,1,2.8s1.2,1.6,2,2.3c1.6,1.4,3.6,2.2,5.8,2.6c0.2,0,0.6,0.1,0.8,0.1l0.7,0.1c0.4,0.1,0.9,0.1,1.3,0.1
		c0.9,0.1,1.6,0,2.4,0c1.6-0.1,3.2-0.3,4.9-0.6c0.9-0.1,1.7-0.3,2.6-0.6c0.9-0.3,1.8-0.5,2.8-1c0.3-0.1,0.5-0.3,0.8-0.4l0.5-0.3
		c0.4-0.2,0.7-0.4,1.1-0.6c0.7-0.4,1.4-0.9,2.1-1.3C218.9,339.9,218.3,340.2,217.5,340.5z"/>
	<path class="st0" d="M178.5,102.4c0,0.1,0,0.3-0.1,0.6c-0.1,0.2-0.2,0.8-0.3,1.1c-0.4,1.6-1.1,4.2-2.1,7.4c0,0.1,0.3-0.5,0.8-1.9
		c0.2-0.7,0.5-1.7,0.8-2.8s0.7-2.4,1-4.2C178.6,102.3,178.6,102.2,178.5,102.4z"/>
	<path class="st0" d="M199.2,294.3l-0.8,1.1l-0.6,0.9c-0.2,0.2-0.3,0.6-0.4,0.9l-0.9,2.5c-1.1,3-2.2,6-3.2,9c-0.5,1.4-1,2.9-1.5,4.4
		c-0.2,0.7-0.5,1.5-0.7,2.2l-0.1,0.4l-0.1,0.5l-0.2,0.7c-0.1,0.4-0.2,0.9-0.3,1.3c-0.6,3.5-0.7,6.7-0.6,9.9
		c-0.1-3.2,0.1-6.2,0.7-9.2c0.1-0.8,0.3-1.5,0.5-2.3l0.2-0.6c0-0.3,0.2-0.6,0.2-0.7l0.3-0.9c0.5-1.2,0.9-2.4,1.3-3.6
		c1.8-4.8,3.4-9.4,5.1-14c0-0.2,0.2-0.4,0.3-0.6l0.4-0.6l0.5-0.8c0.3-0.4,0.6-0.9,0.9-1.4c0.6-1,1.2-1.9,1.8-2.9
		C201,291.7,200.1,293,199.2,294.3z"/>
	<path class="st0" d="M398.4,368h0.1C398.5,368,398.5,367.9,398.4,368z"/>
	<path class="st0" d="M383.9,363.7c-0.1-0.2-0.2-0.4-0.3-0.5C383.7,363.5,383.9,363.6,383.9,363.7z"/>
	<path class="st0" d="M261.4,375.5c1,1,2.2,1.8,3,2.2c0.7,0.4,1,0.5,0.1,0.1c-0.5-0.2-1.2-0.6-2.1-1.3c-0.5-0.4-1.1-0.9-1.5-1.3
		c-0.4-0.5-0.9-1-1.4-1.6C259.8,374,260.5,374.8,261.4,375.5z"/>
	<path class="st0" d="M298.3,353.9c0.3-0.1,1.4-1.2,2.8-2.7C299.9,352.5,299,353.4,298.3,353.9z"/>
	<path class="st0" d="M272.3,244.1c0.2,0.3,0.4,0.4,0.6,0.6C274.2,245.8,274.6,246.1,272.3,244.1z"/>
	<path class="st0" d="M273.6,377.8c-0.1,0.1-0.3,0.1-0.5,0.2s-0.4,0.1-0.6,0.2c-0.6,0.2-1,0.3-1.5,0.4c-0.9,0.2-1.8,0.3-2.6,0.2
		c-1.7-0.1-3-0.6-4.1-1.2c-1-0.6-1.9-1.3-2.5-1.8c1.4,1.2,3.1,2.2,4.8,2.7c0.8,0.2,1.7,0.3,2.6,0.3s1.8-0.2,2.6-0.4l0.6-0.2l0.5-0.2
		c0.2-0.1,0.5-0.2,0.8-0.3c0.6-0.2,1.1-0.4,1.6-0.6c1-0.4,1.9-0.8,2.8-1.2C276.5,376.6,274.9,377.2,273.6,377.8z"/>
	<path class="st0" d="M284.1,373.3c1.1-0.7,1-0.7,0.4-0.4c-2.3,1.4-4.8,2.7-8.2,4.1C280.7,375.4,282.9,374,284.1,373.3z"/>
	<path class="st0" d="M254.9,358.2c0,0.2-0.1,0.4-0.1,0.6c-0.1,0.3-0.2,0.6-0.2,0.9c-0.1,1.3,0,2.6,0.1,3.5c0.3,1.9,0.9,3.4,1.4,4.7
		c1.1,2.5,2.3,4.3,3.5,5.7c-0.2-0.2-0.1-0.2,0.2,0.2c0.3,0.4,0.8,1,1.9,1.9c-1.4-1.2-2.4-2.4-3.3-3.7c-1-1.3-1.7-2.7-2.4-4.2
		c-0.6-1.6-1.2-3.2-1.4-5.2c-0.1-0.4-0.1-1-0.1-1.6c0.1-0.6,0.1-1.1,0.2-1.7c0.1-0.7,0.3-1.5,0.4-2.2
		C255,357.5,254.9,357.9,254.9,358.2z"/>
	<path class="st0" d="M360.6,224.3c-0.1-0.6-0.2-1.4-0.3-2C360.8,229.8,361.2,234,360.6,224.3z"/>
	<path class="st0" d="M104.1,186.5c0.4-0.2,0.8-0.5,1.2-0.7c-0.3,0.2-0.5,0.3-0.9,0.5L104.1,186.5z"/>
	<path class="st0" d="M84.5,197.1c1.8-0.5,3.6-1,5.4-1.5s3.6-1.2,5.4-1.8c0,0,2.3-1.8,4.5-3.6c2.3-1.8,4.4-3.7,4.4-3.7
		c-4.7,2.8-9,5.1-13.7,7.3c-2.3,1.1-4.8,2.1-7.6,3c-2.8,1-5.9,1.8-9.4,2.6C77.2,198.9,80.8,198.1,84.5,197.1z"/>
	<path class="st0" d="M362.8,314.1c-0.1-0.1-0.6-0.6-1.6-1.8c-0.5-0.6-1.2-1.3-2-2.3c-0.4-0.5-0.8-1-1.3-1.6c-0.5-0.5-1-1.1-1.5-1.8
		c0,0,0.2,0.3,0.6,0.7s0.9,0.9,1.4,1.5c1.1,1.1,2.2,2.3,2.2,2.3C361.8,312.7,363,314.3,362.8,314.1z M290.4,296.3
		c2-1.8,3.4-2.9,4.3-3.7c-0.9,0.7-1.8,1.3-2.6,2c-0.8,0.6-1.6,1.3-2.3,1.9c-1.4,1.2-2.8,2.3-4,3.3c-2.5,2-4.4,3.5-5.3,4.1
		c-1,1-1.1,1.2,1.5-0.8C285.8,300,288.5,297.8,290.4,296.3z M311.7,287c0.1,0,0,0-0.5,0s-1.3,0-2.8,0c-0.1-0.1-0.2-0.1-0.3-0.1
		C310.2,287,311.6,286.9,311.7,287z M75.2,91c-0.6,0.2-0.8,0.3-1.3,0.4c-0.9,0.2-1.8,0.3-2.8,0.4c-2,0.2-3.9,0.3-5.7,0.4
		c-3.6,0.1-7.2,0.1-10.3-0.3c4.4,0.3,8.7,0.1,12.4-0.1c1.9-0.1,3.7-0.2,5.2-0.4c0.8-0.1,1.5-0.2,2-0.3c0.7-0.2,1.4-0.3,2-0.5
		C76.2,90.8,75.7,90.9,75.2,91z M146.4,63.9c0.1-1,0.3-1.9,0.4-2.9l0.1-0.7l0.1-0.4v-0.2l0.3-1.2c0.5-1.8,1-3.6,1.7-5.5
		c-0.2,1.3-0.5,3.1-0.9,5.2c-0.1,0.5-0.2,1-0.3,1.6c-0.1,0.2-0.1,0.1-0.1,0.5c0,0.3-0.1,0.6-0.1,0.9c-0.2,1.2-0.3,2.5-0.5,3.7
		c-0.7,5-1.5,10.2-2,13.7C145.6,72.6,146,68.1,146.4,63.9z M198.4,75.5c-0.5,0.9-1.1,1.9-1.5,2.7c-0.4,0.9-0.9,1.9-1.3,2.9
		c-1.7,4-3.3,8.4-4.7,13.1c0.8-3.6,2-7.3,3.3-10.8c0.6-1.8,1.3-3.5,2.1-5.1c0.7-1.5,1.7-3.1,2.6-4.6c1.9-2.9,4-5.7,6.3-7.6
		c0.5-0.5,1.2-0.9,1.6-1.2c0.3-0.2,0.7-0.3,1-0.4c0.4-0.1,0.8-0.1,1.1-0.1h0.5h0.3c0.1,0,0.2,0,0.2,0.1c0.2,0.3,0.4,0.6,0.5,0.9
		c0.2,0.3,0.3,0.7,0.5,1c0.6,1.4,1.2,2.8,1.7,4.2c1,2.7,1.8,5.4,2.2,7.9c0.9,5.6,1.7,10.7,2.4,14.9c0.1,0.7,0.3,1.3,0.4,1.8
		c0,0.2,0.1,0.3,0.1,0.4s0,0.1,0,0.1c0.1,0,0.1,0.1,0.1,0.1c0.1,0,0.1,0.1,0.1,0.1c0.1,0.1,0.1,0.2,0.1,0.3c0,0.2,0.1,0.2,0.1,0.3
		c0.2,0.2,0.4-0.3,0.6-0.1c0.2,0.3,0.4,1.2,0.5,4.2c0.1,1.5,0.2,3.5,0.2,6.3c0,0.3,0,0.7,0,1c0,0.4,0,0.7,0,1.1
		c0,0.7-0.1,1.5-0.1,2.4c-0.1,1.7-0.2,3.7-0.4,5.8c-0.1,0.8-0.1,1.5-0.2,2.2c-0.1,0.6-0.1,1.3-0.2,1.9c0,0.1,0,0.3-0.1,0.4
		c-0.1,0.2-0.1,0.5-0.2,0.7c-0.1,0.6-0.3,1.2-0.5,1.7c-0.7,2.2-1.3,4-1.8,5.5c-1,3-1.6,4.7-2,5.6c-0.7,1.7-0.4-0.1,0.1-2.4
		c1-4.7,2.8-11.7-1.7,2.3l-5.1,20.8l-0.1,0.2v0.1c-0.1,0-0.1,0.1-0.1,0.1l-0.3,0.7c-0.2,0.6-0.5,1.1-0.7,1.6c-0.4,1-0.9,2.1-1.4,3.1
		s-0.9,2-1.4,3c0,0.1-0.1,0.3-0.1,0.2s-0.1-0.1-0.1-0.1v0.1l-0.1,0.1l-0.2,0.3l-0.4,0.6c-0.1,0.1-0.1,0.4-0.2,0.6
		c-0.3,0.9-0.3,1.9-0.4,2.8c0,0.6-0.1,1.3-0.1,1.9c0,0.6-0.1,1.1-0.1,1.7v0.8c0,0.4,0,0.8,0,1.2c0,0.8,0.1,1.6,0.2,2.3
		c0.3,1.5,0.7,2.9,1.3,4.3c0.3,0.7,0.7,1.4,1.1,2.1c0.5,0.7,1.1,1.5,1.7,2.1s1.5,1.3,1.8,1.5l1.3,0.9c0.8,0.6,1.7,1.2,2.5,1.8
		c1.7,1.2,3.4,2.4,5,3.6c3.2,2.3,6.4,4.6,9.5,6.9c1.6,1.1,3.1,2.3,4.6,3.4c1.5,1.2,3,2.4,4.5,3.6c1.5,1.2,3,2.4,4.5,3.6l2.2,1.8
		l0.6,0.5l0.3,0.2l0.2,0.2c0.2,0.2,0.4,0.3,0.7,0.5c0.4,0.1,0.7,0.3,1.1,0.4c0.4,0.1,0.9,0.2,1.4,0.2s1.1-0.1,1.5-0.2
		c0.4-0.2,0.9-0.4,1.2-0.6c0.2-0.1,0.3-0.2,0.5-0.3s0.3-0.2,0.4-0.3c0.2-0.2,0.4-0.4,0.5-0.6c0.6-0.8,0.7-1.3,0.9-1.7
		c0.3-0.9,0.3-1.3,0.4-2c0-0.4,0-0.2,0-0.6v-0.4v-0.9c0-0.3-0.1-0.6-0.1-1.1c0-0.1-0.1-0.3-0.1-0.5v-0.2v-0.1c0,0,0-0.2-0.1-0.5
		c-0.1-0.2-0.2-0.5-0.3-0.7s-0.4-0.5-0.3-0.4l0,0c-1.3-1.5-0.4-0.4-0.7-0.8l-0.4-0.3l-2.3-2c-1.6-1.2-3.1-2.4-4.7-3.6
		c-0.7-0.6-1.5-1.2-2.3-1.8l-1.1-0.8c-0.2-0.1-0.3-0.2-0.4-0.3c-0.1-0.1-0.3-0.4-0.5-0.7c-0.2-0.3-0.4-0.6-0.6-1
		c-0.4-0.8-0.7-1.6-1.1-2.4c-1.3-3.1-1.9-5.5-2.3-7.2c-0.2-0.9-0.3-1.6-0.4-2.1c0-0.2,0-0.3,0-0.4v-0.1l0,0v-0.1c0-0.2,0-0.5,0-0.7
		c-0.4-4.2-0.9-8.4-1.3-12.7c-0.2-2.1-0.4-4.3-0.6-6.4l-0.1-1.6v-0.3c0,0,0,0,0-0.1v-0.6c0.1-1,0.1-2.1,0.2-3.1
		c0.3-4.1,0.8-8.3,1.5-12.3c0.2-1,0.4-2,0.6-2.9c0.2-1,0.5-2,0.7-3c0.5-2,1-4,1.6-5.9c1.1-3.9,2.4-7.6,3.8-11.1s3-6.8,4.7-9.2
		c0.8-1.2,1.8-2.2,2.3-2.5c0.2-0.2,0.5-0.3,0.8-0.2s0.5,0.2,0.7,0.4c0.4,0.6,0.9,1.1,1.3,1.7c0.5,0.7,0.9,1.3,1.4,1.9
		c-1.6-2.4,0.7,0.2,3.4,4c0.7,0.9,1.4,1.9,2.1,2.9c0.7,1,1.3,1.9,1.9,2.8c0.2,0.3,0.4,0.5,0.4,0.8c0,0.2,0,0.3,0,0.4
		c0,0.3,0,0.6,0,0.8l-2.8,45.8c1.2-20.2,1.9-19.3,2.8-23c-0.7,14.3-1.4,21-1.9,30.8c0.5-6,1-12,1-4.4l-0.4,6l-0.2,3c0,0.2,0,0.8,0,1
		v0.7v1.5c0,2-0.1,3.9-0.2,5.8c0,0.4-0.1,1-0.1,1.1c0,0.2-0.1,0.4-0.2,0.6l-0.2,0.4l-0.4,0.7l-0.7,1.3l-0.7,1.3l-0.3,0.7l-0.3,0.6
		c-0.5,0.8-1,1.6-1.5,2.5c-0.4,0.7-0.8,1.4-1.1,2.1v0.1c0.2,0,0.1,0,0.1,0l0,0l0,0v0.1l-0.1,0.3c-0.1,0.2-0.1,0.4-0.1,0.6
		c-0.1,0.4-0.1,0.8-0.1,1.2l-0.2,3.2l-0.3,6.1l-0.1,1.6c0,0.8,0,1.7,0,2.5s0,1.6,0.4,2.3l0.1,0.3l0,0l0,0c0,0-0.2,0.1-0.1,0.1v0.1
		l0.1,0.1l0.4,0.5l0.7,0.9c-0.3-0.4-0.7-0.9-1.2-1.4c0-0.4-0.3-0.6-0.4-1c-0.1-0.3-0.2-0.7-0.2-1.1c-0.1-1.6-0.1-3.8-0.1-4.7
		c0-2.4,0-5,0.1-7.3c-0.1,1.5-0.1,3.3-0.2,5.2c0,0.9-0.1,1.9-0.1,3c0,0.4,0,0.8,0,1.2c0,0.4,0,0.8,0,1.3c0,0.9,0,1.8,0.3,2.6
		c0.1,0.2,0.2,0.4,0.3,0.6l0,0c0,0-0.2,0.1-0.1,0.1l0,0l0.1,0.1l0.1,0.1l0.2,0.3c0.3,0.3,0.6,0.6,0.9,1c0.2,0.2,0.3,0.3,0.5,0.5
		l0.6,0.5c0.3,0.4,0.7,0.7,1.1,1c0.9,0.8,1.9,1.6,2.8,2.4c1.8,1.6,3.7,3.2,5.6,4.9c1.9,1.6,3.9,3.3,5.8,5c2,1.7,4,3.4,6,5
		c2,1.6,3.9,3.2,6.3,4.7c2.1,1.3,4,2.5,5.9,3.6c-0.6-0.5-2.1-1.7-3.6-2.8c-0.7-0.5-1.5-1.1-2.1-1.6c-0.2-0.2-0.4-0.3-0.5-0.4
		c-0.2-0.1-0.4-0.3-0.5-0.4c-0.3-0.3-0.5-0.5-0.6-0.6c-6.2-4.3-10.4-8.1-14-11.3c-3.5-3.2-6.3-6-9-8.6c6.3,5.4,9.8,8.4,11.8,10.1
		s2.4,2,2.4,1.9c0.1-0.2-1.6-1.8,4.8,3.2c2.3,1.9,4.4,3.7,6.7,5.2c2.1,1.4,4,2.6,5.7,3.8l0.3,0.2l0.2,0.1c0.2,0.1,0.4,0.2,0.6,0.3
		c0.5,0.2,1.3,0.4,2.4,0.1c0.6-0.2,1.1-0.6,1.5-1s0.6-0.8,0.7-1.2c0.1-0.3,0.2-0.6,0.2-0.9c0-0.1,0-0.3,0-0.4v-0.1v-0.5
		c0-0.2,0-0.5,0-0.7c0-0.9-0.1-1.7-0.1-2.5c0-1-0.1-1.9-0.1-2.7c0-1.1-0.1-2-0.4-2.7c-0.4-0.7-0.9-1.2-1.4-1.7
		c-0.4-0.5-0.8-0.9-1.2-1.3c-0.2-0.2-0.3-0.3-0.4-0.4c0-0.1-0.1-0.2-0.2-0.3c-0.2-0.2-0.3-0.3-0.3-0.4c-0.1-0.2,0-0.2,0.3-0.1
		c0.2,0.1,0.4,0.2,0.6,0.3c0.1,0.1,0.3,0.2,0.4,0.3c0.2,0.1,0.5,0.3,0.7,0.5l-0.7-0.6l-0.5-0.4c-0.3-0.3-0.6-0.5-0.9-0.8
		c-0.6-0.5-1.2-1-1.8-1.5c-1.2-1-2.3-1.9-3.4-2.8c-1-0.8-2-1.6-3-2.4c-0.2-0.1-0.5-0.2-0.5-0.5c-0.2-0.4-0.3-0.8-0.5-1.2
		c-0.6-1.2-1.1-2.3-1.7-3.4c-0.2-0.5-0.5-1.1-0.8-1.6c-0.2-0.4-0.4-0.8-0.6-1.2c-0.8-1.7-1.3-3.6-1.7-5.6s-0.6-4-0.7-6
		c0-0.5,0-1,0-1.5v-0.7c0.1-0.3,0.1-0.3,0.1-0.5c0.2-1.2,0.3-2.4,0.5-3.6c0.7-4.9,1.6-10.4,2.6-17.1l-1.6,4.9l0.9-6.1l0.4-3.1
		c0.1-1,0.2-2.1,0.4-3c0.7-4,1.5-8,2.4-12c-0.9,3.2-1.7,6.4-2.5,9.6l-0.6,2.4c-0.2,0.7-0.3,1.6-0.5,2.4l-0.9,4.9
		c0.3-3,0.6-5.7,0.9-7.9c0.3-2.2,0.7-4.2,1-6c0.6-3.5,1.2-6.1,1.7-7.9c0.3-0.9,0.5-1.7,0.7-2.3c0.1-0.3,0.1-0.4,0.2-0.6
		c0.1-0.1,0.2-0.3,0.3-0.5c0.4-0.7,0.8-1.2,1.2-1.7c0.8-1,1.7-2.2,4.3-5.8c1.3-1.8,3-4.2,5.5-7.2c0.4-0.3,0.7-0.7,1-1.1
		c0.2-0.2,0.3-0.4,0.5-0.6l0.2-0.3l0.1-0.1l0,0c2.5-1.1-3.5,1.5-2.9,1.2l0,0h0.1c1,0,2.1,0,3.2,0c0.3,0,0.6-0.1,0.9,0
		c0.2,0.2,0.5,0.4,0.7,0.6c0.5,0.4,0.9,0.9,1.4,1.3c0.5,0.6,1,1.1,1.6,1.7l0.7-0.5c1.6,1.8,3.1,3.6,4.3,5.2c0.1,0.2,0.3,0.4,0.4,0.6
		l0.2,0.3l0.1,0.2c0.1,0.3,0.3,0.7,0.5,1.1c0.3,0.8,0.6,1.7,0.9,2.5c1.1,3.4,1.8,6.5,2.4,9.4c0.3,1.4,0.5,2.8,0.6,4.1
		c0.1,1.6,0.2,3.1,0.4,4.7c0.3,3.2,0.7,6.6,1.4,10.5c1.4,19.7-4.6-33.5-0.2,12.7c0,0.5,0.1,1,0.2,1.6c0,0.3,0.1,0.6,0.1,0.9
		c0.1,0.1,0.1,0.3,0.1,0.4v0.1v0.1v0.4c0,0.3,0,0.7,0,1c0,0.7-0.1,1.4-0.1,2.1c-0.2,2.9-0.5,6.2-0.9,9.6c-0.2,0.9-0.3,1.7-0.4,2.6
		l-0.2,1.3l-0.2,1.1c-0.2,1.2-0.8,2.9-1.5,4.4c-1.3,3.1-3,6.3-4.5,9c-0.2,0.3-0.4,0.7-0.6,0.9c-0.1,0.1-0.2,0.2-0.3,0.3
		c-0.3,0.2-0.5,0.4-0.7,0.5c-0.5,0.3-0.6,0.4-0.5,0.2c0.1-0.1,0.2-0.3,0.4-0.5c0.1-0.1,0.2-0.2,0.3-0.3c0-0.1,0.1-0.1,0.1-0.2
		c0,0,0.1-0.1,0.1-0.2l0.1-0.1c0.1-0.1,0.1-0.2,0.2-0.3c0.3-0.5,0.6-1,0.9-1.6c1.3-2.5,2.9-5.7,4.1-8.7c0.6-1.5,1.1-3,1.3-3.9
		c0.3-1.4,0.5-2.8,0.7-3.9c-0.1,1-0.3,2-0.5,3c-0.2,1.1-0.3,1.5-0.6,2.3c-0.5,1.6-1.3,3.3-2,4.8c-0.7,1.6-1.4,3.1-2.2,4.5
		c-0.4,0.7-0.7,1.3-1.1,2c-0.1,0.3-0.3,0.6-0.5,0.9c-0.2,0.3-0.3,0.5-0.5,0.8c-0.1,0-0.1,0.1-0.2,0.2l-0.1,0.1l-0.3,0.3
		c-0.5,0.4-1,0.9-1.5,1.3c-0.4,0.3-0.7,0.5-1,0.8c-0.5,0.4-1,0.7-1.4,1.1c-0.8,0.7-1.7,1.5-2.2,2.3c-0.1,0.2-0.2,0.4-0.3,0.6
		c-0.1,0.3-0.1,0.5-0.2,0.7c-0.1,0.4-0.2,0.9-0.2,1.4c0,1,0.2,2,0.3,3c0.1,0.7,0.2,1.5,0.3,2.2c0.1,0.5,0.1,1.1,0.2,1.6
		c0.3,2.3,0.7,4.1,1,5.9c0.4,1.9,0.7,3.7,1.1,5.4c0.1,0.6,0.3,1.2,0.5,1.7c0.2,0.5,0.6,0.9,1,1.3c0.3,0.4,0.8,0.7,1.2,1.1l0.6,0.5
		l0.4,0.4c1,0.8,2,1.6,3,2.4c2,1.6,4,3,6.2,4.7c2.2,1.7,4.6,3.5,7.6,5.8c1.3,1,2.9,2.4,4.5,3.8c0.4,0.4,0.9,0.8,1.3,1.2
		c0.2,0.1,0.4,0.3,0.7,0.5c0.2,0.2,0.3,0.3,0.7,0.4l0.2,0.1c0.1,0,0.3,0.1,0.4,0.1c0.1,0.1,0.2,0.1,0.4,0.1c0.2,0,0.5,0,0.7,0
		c0.2,0,0.6-0.1,0.9-0.2c0.4-0.2,0.6-0.4,0.9-0.6c0.2-0.3,0.5-0.6,0.6-0.8c0.1-0.2,0.2-0.4,0.3-0.6c0.1-0.3,0.1-0.4,0.1-0.5
		c0.1-0.1,0.1-0.3,0.1-0.4c0-0.2,0-0.3,0-0.5c0-0.6-0.1-0.9-0.2-1.2c-0.2-0.6-0.2-0.5-0.3-0.8c-0.1-0.3-0.1-0.5-0.2-0.8
		c-0.1-0.5-0.3-1.2-0.4-1.8c-0.3-1.3-0.5-2.7-0.8-4.1c-0.1-0.7-0.3-1.4-0.4-2.2c-0.1-0.3-0.1-0.7-0.2-1.1l-0.1-0.5
		c0-0.1,0-0.2,0-0.3c0.2-3.2,0.4-6.7,0.6-10.5c-0.1,10.8,0.5,6.3,0.9,5.5c0.2-0.4,0.4,0.1,0.3,3.9c0,0.2,0,0.4,0,0.7
		c0,0.1,0,0.2,0,0.3v0.1c0.1,0.1,0.1,0.1,0.1,0.3c0.1,0.3,0.1,0.7,0.2,1c0.3,1.3,0.6,2.9,1,4.7c0.2,0.9,0.5,1.9,0.7,2.9
		c0.1,0.5,0.3,1,0.4,1.4l0.1,0.2c0,0,0.3-0.1-0.5,0.2l-0.8,0.3l-0.4,0.2c0.9-0.3-2.4,0.8,1.8-0.6l0.1,0.2c0.1,0.3,0.1,0.5,0.2,0.7
		c0.1,0.2,0.1,0.4,0.2,0.8c0.1,0.1,0.1,0.3,0.1,0.6s0.1,0.5,0,1c0,0.5-0.4,2.7-2.6,3.9c-0.5,0.3-1.1,0.5-1.6,0.6
		c-0.4,0.1-0.8,0.1-1.2,0.1s-0.6-0.1-0.8-0.1c-0.2-0.1-0.4-0.1-0.6-0.2c-0.3-0.1-0.6-0.2-0.8-0.3c-0.2-0.1-0.3-0.2-0.5-0.3
		c-0.5-0.3-0.8-0.6-1.1-0.8c-0.3-0.2-0.5-0.5-0.8-0.7c-0.5-0.4-1-0.8-1.5-1.3c-1.1-0.9-2.2-1.9-3.3-2.8c1,0.8,2.1,1.8,3.2,2.8
		l1.6,1.5l0.4,0.3c0.3,0.3,0.6,0.5,1.1,0.9c0.1,0.1,0.3,0.2,0.5,0.3l0.3,0.2c0.1,0.1,0.3,0.1,0.4,0.2c0.2,0.1,0.9,0.3,1.4,0.4
		c0.8,0,1.8,0.1,3.2-0.6c0.6-0.3,1.1-0.7,1.6-1.3c0.1-0.1,0.2-0.3,0.3-0.4c0.1-0.1,0.1-0.2,0.2-0.3c0.1-0.2,0.2-0.4,0.3-0.6
		c0.1-0.3,0.2-0.5,0.2-0.7c0-0.1,0.1-0.3,0.1-0.4c0.1-0.3,0.1-0.6,0.1-0.8c0-0.3,0-0.7,0-0.9s-0.1-0.4-0.1-0.6
		c0-0.3-0.1-0.6-0.2-0.9l-0.2-0.4l0,0c2-0.7-2.8,0.9-2.2,0.7l0.5-0.2c0.3-0.2,0.7-0.3,1-0.4l0.5-0.2c0.2,0,0.1,0,0.1,0l0,0l0,0v-0.1
		l-0.2-0.9l-0.5-2c-0.3-1.4-0.6-2.9-0.9-4.3l-0.4-2.2l-0.2-0.9c0-0.1,0-0.2,0-0.3l0.1-4.4c0.1-3,0.1-6,0.2-9
		c0.1-6,0.3-12.1,0.5-18.2c0.1-3.1,0.2-6.2,0.4-9.3c0.1-1.6,0.2-3.1,0.3-4.7c0.1-0.8,0.1-1.6,0.2-2.4l0.1-1.2v-0.6
		c0-0.2,0-0.2,0-0.2v-0.1v0.1c-0.1,0-0.1,0-0.1,0.3c0,0.5-0.1,1.1-0.2,1.9c-0.2,1.5-0.4,3.5-0.6,5.6c-0.5,4.1-0.9,8.2-0.9,8.2
		c0.2-4.6,0.5-9.4,0.8-13.7c0-0.5,0.1-1.1,0.1-1.6c0.1-0.2,0.1-0.5,0.1-0.7s0.1-0.3,0.1-0.4c0.1-0.8,0.4-1.6,0.6-2.4
		c0.5-1.6,1-3,1.4-4c0,0-0.3,0.3-0.7,0.7c-0.3,0.4-0.7,0.8-0.7,0.8c0.7-1.7,1.4-3.3,2.2-4.9c0.8-1.5,1.7-3.1,2.6-4.3l0.3-0.4
		c0-0.1,0.1-0.2,0.2-0.3c0.2-0.2,0.4-0.4,0.7-0.6c0.5-0.4,1.2-0.8,1.9-1.2c1.4-0.8,3-1.5,4.5-2.2s3.1-1.3,4.6-1.8l0.9-0.3l0.6-0.2
		c0.4-0.1,0.8-0.3,1.2-0.1c0.3,0.2,0.6,0.4,0.9,0.7c0.1,0.1,0.3,0.3,0.4,0.4l0.2,0.3l0.3,0.4c0.9,1.2,1.7,2.4,2.4,3.7
		c0.7,1.3,1.3,2.6,1.7,3.8c0.2,0.6,0.3,1.2,0.4,1.6c0.1,0.7,0.1,1.4,0.2,2.1c0.3,3,0.6,5.9,0.8,8.7c0.4,5.6,0.7,10.7,0.6,15.4
		c0.2-6.5,0.7-0.7,1.4,8.3c0.2,2.3,0.4,4.7,0.6,7.2c0.1,1.3,0.2,2.5,0.3,3.8l0.1,0.9c0,0.2,0,0.3,0,0.4c-0.1,0.5-0.1,0.9-0.2,1.3
		c-0.9,4.4-2.2,8.7-3.2,11c1.2-2.4,2.4-5.7,3.2-9.1c0.2-0.8,0.3-1.7,0.5-2.6l0.1-0.4c0-0.2,0-0.3,0-0.4c0-0.4-0.1-0.8-0.1-1.2
		c-0.2-2-0.3-4-0.5-6c-0.7-8.1-1.5-16.6-2.2-24.4c-0.3-3.9-0.7-7.6-1-11c-0.1-0.9-0.1-1.7-0.2-2.5c0-0.4-0.1-0.8-0.1-1.2
		c0-0.3,0-0.3,0-0.4l-0.1-0.4c-0.3-1.1-0.7-2.3-1.2-3.4c-0.9-2.2-2-4-2.8-5.3c-0.2-0.3-0.3-0.5-0.5-0.8c-0.1-0.2-0.2-0.4-0.3-0.5
		c-0.1-0.3-0.3-0.5-0.3-0.7c0.4,0.3,0.7,0.6,1,1c0.4,0.5,0.8,1,1.2,1.6c0.8,1.2,1.5,2.3,2.1,3.5c0.6,1.2,1.2,2.4,1.5,3.6
		c0.1,0.5,0.3,1.2,0.3,1.6l0.2,2.1c0.5,5.6,0.9,11.2,1.7,16.9c-0.3-4-0.6-9-0.9-13.3c-0.1-2.2-0.2-4.2-0.3-5.8
		c-0.1-1.4-0.5-2.6-0.7-3.3c0.5,1,0.8,2.1,1,3.1c0.1,1.2,0.3,2.4,0.4,3.5c0.2,2.3,0.5,4.6,0.7,6.8c0.4,4.4,0.8,8.6,1.2,12.6
		c0.7,8,1.2,15.2,1.7,22c0,0.8,0.1,1.8,0.1,2.3c-0.1,0.6-0.2,1.4-0.4,2.2c-0.3,1.5-0.7,3-1.2,4.5c-0.4,1.5-0.9,2.9-1.5,4.3
		c-0.5,1.4-1.2,2.7-1.9,3.6c-1.8,2.2-3.9,4.4-5.9,6.5c-2,2.1-4.1,4.3-6.2,6.3c0,0,0.4-0.5,1.2-1.3c0.8-0.8,2-2,3.3-3.4
		c1.3-1.4,2.9-3.1,4.5-4.9c0.7-0.9,1.6-1.9,2.3-2.8c0.2-0.2,0.3-0.5,0.5-0.7c0.2-0.2,0.3-0.4,0.4-0.6c0.3-0.4,0.6-1,0.8-1.5
		c0.9-2.3,1.7-4.7,2.3-7c0.3-1.1,0.5-2.2,0.7-3.3c0-0.5,0.1-0.9,0.2-1.4c0.1-0.3,0-0.6,0-1c-0.4-4-0.6-6.6-0.6-6.6
		c-0.3,0.8-0.3,2.5-0.2,4.6c0,0.5,0.1,1.1,0.1,1.7c0,0.2,0,0.5,0,0.7c0.1,0.2,0,0.3,0,0.5c-0.1,0.5-0.2,1.1-0.3,1.7
		c-0.1,0.7-0.2,1.3-0.4,2c-0.6,2.7-1.5,5.7-2.7,8.2c-0.3,0.6-0.6,1.2-0.9,1.6c-0.3,0.5-0.8,1.1-1.3,1.6c-1,1.1-2,2.2-3.1,3.2
		c-1.7,2.1-3.3,4-5,5.8c-0.8,0.9-1.7,1.8-2.5,2.6l-0.7,0.7c-0.3,0.4-0.6,0.7-0.9,1.1c-0.5,0.8-0.9,1.4-1.2,2.1
		c-1.3,2.6-1.9,5-2.5,7.5c-0.2,0.6-0.3,1.3-0.4,1.9l-0.1,0.5l-0.1,0.6c0,0.4-0.1,0.9-0.1,1.3c-0.1,0.8,0,1.7,0.2,2.5
		c0.3,0.8,0.7,1.6,1.1,2.3l0.5,0.9l0.5,0.8l0.9,1.5c0.6,1,1.3,1.9,1.9,2.8c1.3,1.9,2.6,3.6,3.9,5.4c0.7,0.9,1.4,1.7,2.1,2.6l1.1,1.3
		l1.1,1.2c1.4,1.6,2.8,3.2,4.3,4.8c-1.5-1.7-2.3-2.7-3.1-3.6c-0.8-1-1.6-1.9-3.1-3.7c1,1.2,1.9,2.3,2.8,3.3c0.9,1,1.8,2,2.7,3
		c1.7,1.9,3.4,3.8,5,5.6c3.2,3.5,6.1,6.8,8.8,9.7c5.4,5.8,9.9,10.5,13.8,14.6c7.9,8.1,13.5,13.6,19.5,20.5c0.7,0.8,1.4,1.6,2.1,2.6
		c0.7,0.9,1.3,2,1.7,3.1c0.3,0.6,0.4,1.1,0.5,1.7c0.1,0.3,0.1,0.5,0.1,0.8c0,0.2,0,0.6,0,0.5v0.1c0,0.1-0.2,0.2-0.3,0.2
		c-0.3,0.1-0.6,0-0.9-0.2c-0.2,0-0.1,0-0.1-0.2c0-0.1,0-0.1,0-0.1l0,0l0,0c0-0.1,0-0.2,0-0.3c0-0.5-0.1-1-0.3-1.5
		c-0.3-1.1-0.8-2.1-1.4-2.9c-0.5-0.8-1.1-1.5-1.6-2c-1.1-1.1-1.7-1.6-1.5-1.1c0.1,0.2,0.4,0.7,0.9,1.4c0.4,0.6,1,1.5,1.5,2.7
		c0.7,1.1,1.3,2.3,1.5,3.1c0.1,0.2,0.1,0.3,0.1,0.4h0.1h0.1c0.1,0,0.2,0.1,0.2,0.1c0.1,0,0,0,0,0c0.1,0.1,0.2,0.2,0.3,0.2l0.1,0.1
		h0.1h0.1c0.1,0,0,0.1,0,0.1l-0.1,0.1l0,0l0,0l0,0c-0.1,0.1,0.1-0.1,0.1-0.1l0,0l0,0c0,0-0.2-0.2-0.3-0.7c0,0.2,0,0.2,0.1,0.4
		c0,0.1,0.1,0.3,0.1,0.4c0.1,0.3,0,0.6,0.3,0.8c-0.5,0-0.5-0.4-0.7-1l-0.2,0.7c-0.2-0.8-0.2-1.1-0.2-1.4s-0.1-0.4-0.4-1
		c0.1,0.3-0.1,0.5-0.3,0.7c-0.2,0.2-0.5,0.3-0.4,0.6c-0.3-0.1-0.6-0.4-0.6-0.9v0.1c-0.9-1-1.4,0.1-2-1.3l0.4-0.2
		c-0.3-0.9-0.8-1.6-1.5-2.4c-0.8-0.9-1.6-1.7-2.1-2.7l0.7,0.3c-0.3-0.1-0.5-1.5-1.4-1.6c0.1,0.2,0.1,0.4,0.2,0.5
		c-0.4,0.3-1.1,0.5-1.5,0.2l0.4-0.6L397,369c-0.5-0.6,0.9-0.5,0.4-1.1c-1.8,1-2.4-2.4-4.2-1.7c0.7-1.3,1.1,1,1.7-0.3
		c-0.3,0-0.6,0.1-1-0.2l0.8-0.4c-1.9-1.4-3-1.6-4.3-3.3l-0.1,0.2c-0.8-0.3-0.9-0.8-0.6-1.5c-0.4,0.1-0.2,0.7-0.7,0.7
		c0.8-2.4-2.9-0.9-2.3-2.5c-1.3,1.2-3.7,1.1-4.2,2.5l-0.2-0.5c-0.7,0.9,1.1,1.3,0.4,2.3l2,0.5c-0.3,0.3-0.6,0.9-0.9,0.8
		c0.2,0.3,0.4,0.6-0.4,0.6c4.9,1.1,5.6,6.1,9.4,8.1c0.1,0.2-0.3,0.4-0.6,0.5c1.3-0.2,0,0.9,0.2,1.3l1.9-0.3
		c-0.1,0.6-0.7,0.7-0.9,0.9c0.6,0.9,1.5,1.4,2.3,2c0.9,0.7,1.8,1.3,2.2,2.3c0.9,0,0.8-1,1.5-0.7c-0.9,0.3-0.6,0.8-0.2,1.3
		c0.5,0.5,1,0.9,0.4,1.2c0.8-0.5,1.5-0.1,2.1,0c0.6,0.1,1.1,0.1,1.5-1.1c0.9,0.3,0.4,1.3,0,1.4c1.2,0.3,2,0.6,3.3,1.4
		c0.2-0.1,0.8-0.1,1.6-0.3c0.4-0.1,0.9-0.2,1.4-0.5c0.3-0.1,0.6-0.3,0.8-0.5l0.2-0.1l0,0l0,0l0.1-0.1l0,0l0.2-0.2
		c0.2-0.2,0.3-0.3,0.4-0.5c0-0.1,0.1-0.3,0.2-0.4c0.2-0.3,0.3-0.5,0.4-0.8c0.2-0.5,0.2-1,0.2-1.4v-0.2l0,0c0,0,0,0,0-0.1
		c0-0.2,0-0.4,0-0.6c0-0.3,0-0.7,0-1c0-0.6-0.1-1.2-0.3-1.8c-0.6-2.3-1.6-4.1-2.8-5.7c-0.3-0.4-0.6-0.8-0.9-1.2
		c-0.3-0.3-0.6-0.7-0.9-1c-0.6-0.7-1.2-1.3-1.7-1.9c-1.1-1.2-2.2-2.4-3.2-3.5c-4.1-4.5-7.5-8.1-9.9-10.5
		c13.2,13.2-0.4-1.5-11.8-15.4l11.4,11.5l-26.7-30.4c-2.7-3.1-4.4-5.1-5.5-6.3c-1.1-1.2-1.5-1.6-1.5-1.6c-2.2-2.5-2-2.1-2.7-2.7
		c-0.3-0.2-0.9-0.8-2-2.1s-2.9-3.4-5.3-6.9c-0.5-0.7-0.9-1.4-1.3-2c-0.2-0.4-0.5-0.8-0.6-1.2c-0.1-0.5,0-0.9,0-1.3
		c0.1-0.5,0.2-1.2,0.3-1.8c0.5-2.4,1.1-4.5,1.9-6.1c0.2-0.4,0.4-0.7,0.6-1c0.2-0.2,0.3-0.4,0.5-0.6c0.3-0.3,0.6-0.6,0.9-0.9
		c0.4-0.3,0.7-0.6,1-0.9c1.2-1.2,2.3-2.3,3.3-3.3c2.1-2,3.8-3.8,5.7-5.8c0.5-0.5,1-1,1.5-1.6s1-1.2,1.6-2c1.2-1.8,1.9-3.5,2.7-5.4
		c0,0-0.4,1.1-0.8,2.2c-0.3,0.6-0.5,1.2-0.7,1.6c-0.2,0.4-0.4,0.7-0.4,0.7s0.2-0.3,0.5-0.9c0.3-0.5,0.6-1.3,1-2.2
		c0.7-1.8,1.5-4.2,2.1-6.6c0.3-1.2,0.6-2.4,0.8-3.6c0.1-0.6,0.2-1.2,0.3-1.7c0.1-0.4,0.1-0.7,0.2-1.1c0.1-0.2,0.1-0.4,0.1-0.6
		c0-0.1,0-0.3,0-0.5c-0.2-1.9-0.3-3.2-0.3-3.2c-0.4-3.4-0.3-2.1-0.1,1.1c0,0.4,0.1,0.8,0.1,1.3c0.1,0.6,0.2,1.5,0,2.2
		c0,0.2-0.1,0.4-0.1,0.6l-0.1,0.4c-0.1,0.2-0.1,0.5-0.2,0.8c-0.1,0.6-0.3,1.1-0.4,1.7c-0.5,2.3-1.2,4.6-2,6.7
		c-0.7,2.1-1.6,3.9-2.4,5.2c-0.4,0.7-0.8,1.2-1,1.4s-0.3,0.3-0.2,0.1c0-0.1,0.1-0.3,0.2-0.5c0.1-0.2,0.3-0.5,0.5-0.9
		c0.4-0.7,0.8-1.8,1.3-3.1s1.1-3,1.6-5c0.3-1.1,0.5-2.2,0.8-3.4c0.2-0.6,0.3-1.2,0.4-1.9c0.1-0.3,0.1-0.6,0.2-1
		c0.1-0.4,0.1-0.8,0.2-1.2c0-0.1,0-0.3,0.1-0.6c0-0.3,0-0.8,0-1.3c0-0.8-0.1-1.9-0.1-3.3c-0.1-2.8-0.3-6.5-0.5-10.6
		c-0.5-8.2-1.3-17.7-2.2-23.7c2.2,22.8,1.2,20,0.1,11.6c0,0-0.8-8-1.6-16c-0.1-1-0.2-2-0.3-3c0-0.5-0.1-1-0.1-1.5
		c-0.1-0.6-0.3-1.2-0.4-1.7c-0.6-2.1-1.4-3.9-2.1-5.3c-0.8-1.5-1.5-2.6-2-3.4s-0.8-1.2-0.8-1.2s2,2.1,3.6,4.6c0.8,1.2,1.5,2.5,2,3.6
		c0.5,1.1,0.8,1.9,0.8,1.9c-0.4-1.8-1-3.3-1.7-4.8c-0.7-1.5-1.4-2.8-2.3-4.2c-0.5-0.7-0.9-1.3-1.4-2c-0.3-0.3-0.5-0.7-0.8-1
		c-0.3-0.4-0.7-0.9-1.1-1.3c-0.8-0.8-1.6-1.6-2.5-2.2c-0.9-0.6-1.9-1.1-3-1.1c-1,0-2.1,0.1-3.2,0.4c-0.5,0.1-1.1,0.2-1.6,0.4
		l-1.2,0.4c-1.5,0.5-2.9,1.1-4.3,1.7c-1.4,0.6-2.8,1.3-4.2,2c-1.4,0.7-2.8,1.5-4.2,2.6c-0.7,0.6-1.4,1.2-2.2,2.1
		c-0.4,0.4-0.6,0.7-0.9,1.1c-0.2,0.4-0.5,0.7-0.7,1.1c-0.9,1.5-1.6,2.9-2.3,4.3c-1.3,2.9-2.4,5.8-3.2,8.9c-0.2,0.8-0.4,1.6-0.5,2.4
		c0,0.4-0.2,1-0.2,1.5v1.2l-0.2,4.4c-0.1,2.9-0.2,5.9-0.3,8.8c-0.4,11.7-0.9,23.5-1.3,35.3l-0.1,1.5c0,0.3,0.1,0.5,0.1,0.8l0.1,0.7
		l0.4,2.2c0.3,1.4,0.6,2.9,0.9,4.4l0.5,2.2l0.3,1.2c0.1,0.4,0.2,0.8,0.4,1.3l0.1,0.3v0.1l0,0c-0.1,0,0,0,0.2-0.1
		c1-0.4,2-0.6,2.6-0.5c0.3,0,0.4,0.2,0.3,0.1c0-0.1,0-0.5,0.2-0.8c0.1-0.4,0.4-0.8,0.7-1.2l0.5-0.7c0.1-0.2,0.1-0.2,0.1-0.2l0,0
		l-1.6-1.4c-1.2-1-2.3-2-3.5-3l-3.5-2.8c-2.3-1.8-4.6-3.7-6.9-5.6c-1.1-0.9-2.3-1.9-3.3-2.8l-3.3-3l-1-0.9c-0.2-0.1-0.2-0.3-0.2-0.5
		l-0.1-0.6l-0.7-4.1c-0.3-1.4-0.5-2.9-0.7-4.3l-0.1-1l-0.1-1.1l-0.2-1.8l-0.1-1.2v-0.3c0-0.1,0.1-0.1,0.2-0.2l0.5-0.4l1-0.8
		c0.6-0.5,1.2-1,1.8-1.5l1-0.8c0.4-0.4,0.8-0.7,1.1-1.2c0.2-0.2,0.4-0.5,0.5-0.7l0.3-0.6l0.6-1c0.8-1.4,1.5-2.7,2.2-4.1
		c1.4-2.7,2.8-5.5,3.9-8.6c0.3-0.8,0.6-1.6,0.8-2.5c0.2-0.9,0.4-1.6,0.5-2.4c0.3-1.5,0.5-3.1,0.7-4.6c0.4-3.1,0.7-6.1,1-9.2l0.2-2.3
		l0.1-1.3c0-0.6-0.1-1.2-0.1-1.5l-0.5-4.5c-0.3-3-0.6-6.1-0.9-9.1c-0.3-3-0.6-6.1-0.9-9.1l-0.5-4.5l-0.2-2.3l-0.1-1.1
		c-0.1-0.5-0.1-0.9-0.2-1.3c-0.6-3.3-1.4-6.3-2.4-9.3c-0.5-1.5-1-3-1.6-4.5c-0.3-0.8-0.6-1.5-1-2.3c-0.4-0.8-0.8-1.6-1.4-2.5
		c-1-1.4-2-2.6-3.1-3.8c-1-1.2-2.1-2.4-3.2-3.5l-1.7-1.7l-0.9-0.9l-1.2-1.2l-1.2-1.1l-0.3-0.3l-0.1-0.1h-0.1h-0.2h-0.8h-3.1
		c0.2,0.1-0.8,0.2-2.6,0.3h-0.1c0.4-0.2-3.6,1.5-1.9,0.8l0,0l0,0l0,0l-0.1,0.1c-0.1,0.1-0.2,0.2-0.3,0.3c-0.1,0.2-0.3,0.4-0.5,0.6
		c-0.4,0.5-0.8,1-1.2,1.5c-0.8,1-1.7,2.2-2.6,3.5c-1.9,2.6-4,5.7-6.1,9.2c-0.5,0.9-1,1.8-1.5,2.8c-0.2,0.5-0.5,1-0.7,1.6
		c-0.1,0.3-0.2,0.6-0.3,0.9l-0.1,0.5l-0.1,0.4c-0.5,2-0.9,4.1-1.3,6.1c-0.9,4.1-1.6,8-2.1,11.8c-0.5,3.7-0.8,7-1.1,9.7
		c-0.5,5.4-0.6,8.1,0.1,6l0.3-3.8c1.6-12,1.7-10.2,1.1-3c-0.3,3.6-0.8,8.5-1.4,13.8c-0.2,1.3-0.3,2.7-0.5,4
		c-0.2,1.4-0.2,2.8-0.1,4.1c0.2,2.7,0.6,5.3,1.1,7.7c-0.6-2.5-0.8-3.8-1-4.3c-0.2-0.4-0.2-0.1-0.2,0.8c0,1.7,0.6,5.4,1.4,8.2
		c0.4,1.4,0.9,2.6,1.1,3.1s0.1,0.6-0.4-0.3c-0.6-0.9-1.5-2.8-2.4-6.1c-0.4-1.6-0.9-3.6-1.2-6c-0.1-1.2-0.3-2.6-0.3-4
		c0-0.7,0-1.4,0-2.3c0-0.5,0.1-0.8,0.1-1.2c0-0.3,0.1-0.7,0.1-1.1c0,0,0,0.6-0.2,1.6c0,0.2-0.1,0.7-0.1,1s0,0.7,0,1.1
		c-0.1,0.8,0,1.6,0,2.6c0.1,2,0.4,4.2,0.8,6.5s1,4.8,2.1,7.3c0.1,0.3,0.2,0.6,0.4,0.9l0.4,0.8c0.2,0.6,0.5,1.1,0.7,1.6
		c0.5,1.1,0.9,2.1,1.3,3.1c0.1,0.2,0.2,0.7,0.4,1c0.2,0.3,0.3,0.7,0.5,1c0.4,0.6,0.9,1.2,1.5,1.6c0.8,0.7,1.6,1.4,2.3,2
		c2.7,2.4,4.5,4,4.5,4c0.5,0.5,1,1,1.5,1.6c0.2,0.3,0.5,0.6,0.8,0.9c0.2,0.1,0.2,0.2,0.3,0.3l0.2,0.3c0.1,0.1,0.3,0.3,0.4,0.5
		c0.1,0.1,0.2,0.2,0.2,0.3v0.4c0,0.2,0,0.5,0,0.7c0,0.1,0,0.1,0,0.2v0.4c0,0.2,0,0.5,0,0.8c0.1,1.1,0.1,2.3,0.2,3.5v0.1
		c-2.4,0.3,3.2-0.4,2.7-0.3h0.1h0.1c0.2,0,0.4,0,0.5,0c0.3,0.1,0.3,0.2,0.3,0.1c-0.1-0.1,0-0.5,0.2-0.8l0.1-0.1
		c-0.3,0.5,2.7-4.3,1.4-2.3l0,0l-0.1-0.1l-0.2-0.1c-0.5-0.4-1-0.7-1.5-1.1c-1.1-0.7-2.2-1.4-3.3-2.2c-0.6-0.3-1.1-0.7-1.7-1.1
		c-0.4-0.3-1-0.7-1.5-1.1c-4.4-3.4-9.2-7.6-14.4-12.1c-2.6-2.2-5.3-4.5-8.1-6.8c-0.4-0.4-0.9-0.7-1.3-1.1l-0.4-0.3
		c-0.1-0.1-0.1-0.3-0.1-0.5v-0.6v-1c0-0.9,0-1.9,0-2.8c0-1.9,0.1-3.8,0.1-5.7v-1.1c0-0.2,0-0.4,0.1-0.6c0.4-0.7,0.7-1.3,1.1-2
		l0.7-1.4l0.7-1.4c0.5-0.9,0.9-1.8,1.3-2.7l0.8-1.7c0.3-0.7,0.4-1.5,0.5-2.3c0.1-0.9,0.1-1.3,0.1-1.9v-1.6c0-2.1,0-4.1-0.1-6.2v-0.8
		c0-0.2,0-0.2,0-0.5v-1.5l0.1-3c0.1-4,0.3-8.1,0.4-12.1c0.3-8.1,0.6-16.1,1-24c0.2-3.9,0.4-7.8,0.6-11.6c0.1-1.9,0.2-3.8,0.3-5.7
		c0.1-1.2,0.1-2.5,0.2-3.7v-0.3c0,0,0-0.1-0.1-0.2l-0.3-0.5l-0.5-0.9c-0.4-0.6-0.7-1.1-1-1.7c0.4,0.6,0.7,1.2,1,1.7
		c0.3,0.6,0.7,1.1,0.8,1.6c-0.1,1-0.1,1.9-0.2,2.5c0,0.1,0,0.3,0,0.4c0,0.1,0,0.2,0,0.3c-0.1,0.1-0.1,0.3-0.1,0.4
		c0,0.2-0.1,0.4-0.1,0.5c0.1-1.1,0.1-2.1,0.2-3.1v-0.9v-0.2c0-0.1-0.1-0.1-0.1-0.2l-0.2-0.4l-0.9-1.6c-0.5-0.8-0.9-1.6-1.4-2.4
		c-0.4-0.7-0.9-1.5-1.3-2.2c-1.8-2.9-3.7-5.8-5.7-8.6c-0.5-0.7-1.1-1.4-1.6-2.1l-0.5-0.7c-0.2-0.2-0.5-0.5-0.7-0.7
		c-0.5-0.5-1-0.8-1.5-1.2c-1.1-0.7-2.2-1.2-3.5-1.5c-1.2-0.3-2.5-0.4-3.8-0.2c-1.2,0.1-2.5,0.6-3.6,1.2c-1.2,0.6-2,1.4-2.8,2.1
		c-1.6,1.5-2.7,3.1-3.7,4.7c-1.9,3.2-3.4,6.4-4.6,9.7c-1.3,3.2-2.3,6.5-3.2,9.7c-0.9,3.3-1.7,6.4-2.4,9.6c-0.2,0.8-0.3,1.6-0.5,2.4
		c-0.1,0.8-0.3,1.6-0.4,2.4c-0.2,1.6-0.4,3.2-0.6,4.7c-0.3,3.1-0.5,6.1-0.7,9c0,1.5-0.1,2.9-0.1,4.4c0,0.2,0,0.5,0,0.7l0.1,0.7
		l0.1,1c0.1,0.7,0.1,1.3,0.2,2c0.6,5.2,1.1,10,1.6,14.3c0.1,1.1,0.2,2.1,0.3,3.1c0.1,0.5,0.1,1,0.2,1.5c0.1,0.6,0.2,1.1,0.3,1.6
		c0.4,2,0.9,3.7,1.4,5.2c1,3.1,2,5.3,2.6,6.8c0,0,0.8,1,1.6,2c0.4,0.5,0.9,1,1.3,1.4c0.4,0.4,0.7,0.6,0.7,0.6c0.3,0.3,0.7,0.6,1,0.9
		s0.5,0.5,0.8,0.7c0.5,0.5,1,0.9,1.5,1.3c1,0.9,2,1.7,2.9,2.5c1,0.8,1.9,1.6,2.7,2.3c0.5,0.4,0.9,0.8,1.3,1.2l0.6,0.6l0.1,0.1
		c0,0.1-0.1,0.1,0.6-0.6c0.4-0.3,1.4-1.4,1.1-1.1c0,0.1-0.1,0.2-0.3,0.2c-0.2,0-0.4,0.1-0.6,0.1l-0.7,0.1c-0.2,0-0.5,0.1-0.7,0.1
		c-0.2,0-0.1,0-0.1,0l0,0v0.2c0,0.4-0.1,1-0.1,1.4c0,0.1,0,0.1,0,0.1l0,0c0,0-0.1,0,0,0c0.3,0.1,0.5,0.1,0.7,0.2
		c0.5,0.1,0.9,0.3,1.1,0.5c0.3,0.2,0.3,0.4,0.3,0.3s0-0.2,0.1-0.3l1.3-1.5l0,0l-0.1-0.1l-0.3-0.3l-0.6-0.5c-0.4-0.3-0.8-0.7-1.2-1
		c-1.6-1.4-3.1-2.7-4.5-3.9c-1.5-1.2-2.8-2.4-4.2-3.6c-0.7-0.5-1.4-1.2-2.1-1.7c-0.6-0.5-1.3-1.1-2-1.6c-2.6-2.1-5.3-4.2-8-6.2
		c-2.7-2.1-5.5-4-8.5-6.2c-0.8-0.5-1.5-1-2.3-1.6c-0.4-0.2-0.8-0.5-1.2-0.8l-0.4-0.3c-0.1-0.1-0.2-0.2-0.3-0.3
		c-0.2-0.2-0.3-0.4-0.5-0.6c-0.2-0.3-0.3-0.6-0.5-0.9c-0.3-0.6-0.5-1.4-0.7-2.2c-0.1-0.4-0.2-0.8-0.2-1.2c0-0.2,0-0.4,0-0.6v-0.8
		c0.1-0.6,0.1-1.1,0.1-1.7c0.1-0.6,0.1-1.1,0.1-1.6c0-0.3,0-0.7,0.1-1c0.1-0.2,0.2-0.3,0.3-0.4c0.3-0.4,0.4-0.7,0.5-1
		c0.5-1.2,1-2.4,1.5-3.6s1.1-2.5,1.6-3.8c0.1-0.3,0.3-0.7,0.4-1c0.2-0.5,0.3-1,0.4-1.3c0.2-0.7,0.4-1.4,0.6-2.1
		c0.9-2.8,1.8-5.8,2.7-9c-0.3,0.6-2.4,6.4-0.1-1.7c2.2-5.9,4.4-12,7.4-20.8c0.1-0.4,0.2-0.7,0.3-1.1c0.2-0.4,0.1-0.9,0.2-1.3
		c0.1-0.6,0.1-1.2,0.2-1.9c0.1-1.3,0.2-2.6,0.3-4c0.1-1.3,0.2-2.8,0.3-4.3c0.1-1.5,0.2-3.1,0.2-4.9c0-3.2-0.1-6.8-0.1-10.6v-0.9V95
		l-0.1-0.5c-0.1-0.5-0.2-1.1-0.3-1.6c-0.2-1-0.4-2-0.6-3c-0.4-2-0.9-4.2-1.3-6.4V85l-1.4-7l-0.3-1.7c0-0.3-0.1-0.7-0.2-1l-0.2-0.9
		c-0.3-1.2-0.7-2.4-1.1-3.6c-0.8-2.4-1.7-4.6-2.8-6.9l-0.4-0.8l-0.6-1.1c-0.4-0.8-0.8-1.6-1.3-2.3c-0.5-0.7-0.9-1.4-1.4-2.1
		l-0.4-0.5c-0.1,0-0.1-0.2-0.2-0.2s-0.2,0-0.3,0H213h-2.6c-0.9,0-1.8,0-2.6,0.2c-0.9,0.2-1.7,0.4-2.5,0.8c-0.4,0.2-0.8,0.4-1.2,0.6
		c-0.4,0.2-0.8,0.4-1.1,0.6c-2.4,1.6-4.2,3.5-5.9,5.5c-1.6,1.9-3.1,4-4.4,6.1c-0.7,1-1.3,2.1-1.9,3.2c-0.7,1.2-1.2,2.3-1.7,3.4
		c0.4,0.1,0,1.6-0.9,4.2c-0.8,2.6-2.1,6.3-3.4,11c0,0.3-0.1,0.6-0.2,0.9l-0.1,0.5c0,0.2-0.1,0.4-0.1,0.6c-0.1,0.6-0.2,1.2-0.3,1.9
		c-0.1,1.3-0.3,2.6-0.5,3.9c-0.4,2.7-0.8,5.5-1.2,8.5c-0.4,2.9-0.9,6-1.3,9.2c-0.1,0.8-0.2,1.6-0.3,2.4c0,0.4-0.1,1.2-0.1,1.5v1.3
		c-0.1,1.6,0,3.3,0,5c0,3.4,0.2,6.7,0.4,10.1c0.1,1.7,0.2,3.4,0.4,5.1c0.2,1.8,0.3,3.4,0.8,5.4c0.9,3.5,2.2,6.5,3.6,9.5
		c0.4,0.8,0.8,1.5,1.2,2.3c0.2,0.4,0.4,0.8,0.7,1.2c0.3,0.5,0.6,0.9,1,1.3c1.1,1.1,2.2,2.2,3.2,3.2c0.8,0.8,1.6,1.6,2.3,2.3
		c0.4,0.2,0.3,0.7,0.3,1v0.5c0,0.2,0,0.4,0,0.6c0,0.5-0.1,1-0.1,1.1c-0.2,0,0.4,0.2,0.7,0.3c0.4,0.1,0.7,0.2,1,0.4
		c0.2,0.1,0.5,0.3,0.6,0.4c0,0.1,0.1,0.1,0.1,0.2l0,0c0,0,0,0,0-0.1l0,0c3.2-4.3,0.9-1.2,1.6-2.2l0,0l-0.2-0.1l-0.4-0.3
		c-1-0.7-1.9-1.3-2.8-1.9c-3.6-2.4-6.5-4.2-8.4-5.2c-2.1-1.8-5.8-4.8-10.3-8.3c-2.2-1.7-4.7-3.7-7.3-5.7c-1.2-1-2.6-2-3.9-3.1
		c-1-0.8-2-1.6-3-2.4l-0.3-0.2c-0.1-0.1,0-0.3,0-0.4l0.1-0.8l0.2-1.7c0.2-1.7,0.5-3.5,0.8-5.2c0.1-0.9,0.3-1.7,0.4-2.6l0.2-1.2
		l0.1-0.7c0.1-0.3,0.3-0.4,0.4-0.6l0.6-0.8c0.5-0.6,1-1.3,1.5-1.9c2.2-2.7,4-5.2,5.8-7.7c0.3-0.3,0.5-0.6,0.7-0.9
		c0.2-0.3,0.4-0.6,0.7-1.1c0.5-0.9,0.8-1.6,1.1-2.3c0.5-1.4,0.9-2.6,1.3-3.8c-0.1-0.2,0.2-1.4,0.8-4.5c0.2-0.7,0.4-1.4,0.6-2.1
		c0.1-0.4,0.2-0.7,0.3-1.1l0.2-0.7l0.1-0.6c0.2-1.4,0.5-3,0.8-4.6c0.6-3.2,1.1-6.7,1.6-10.3c1-7.2,2-15.1,3-23.1
		c0-0.3,0.1-0.7,0.1-1.1v-0.9v-1.5l-0.1-3c-0.1-2-0.2-4-0.3-6c-0.1-2-0.3-3.9-0.4-5.9l-0.1-1.5l-0.1-1c0-0.3,0-0.7-0.2-1
		c-0.4-1-0.8-2-1.2-3c-1.5-3.5-2.9-6.9-4.2-10.1c-0.2-0.4-0.3-0.8-0.5-1.2l-0.1-0.3c-0.1-0.1-0.1-0.3-0.2-0.4l-0.3-0.7
		c-0.4-0.8-0.8-1.6-1.2-2.3c-0.4-0.8-0.9-1.5-1.3-2.2c-0.2-0.3-0.5-0.7-0.7-1c-0.2-0.4-0.5-0.7-0.7-1.1c-0.8-1.1-1.6-2.1-2.4-2.9
		c-0.4-0.4-0.8-0.7-1.2-1c-0.4-0.3-0.8-0.5-1.3-0.5c-1.7-0.3-3.2-0.2-4.2,0s-1.6,0.4-2,0.5c-0.3,0.1-0.4,0-0.2-0.1
		c0.4-0.3,1.7-1,3.8-1.3c0.5,0,1-0.1,1.6-0.1s1.2,0.1,1.8,0.1c1.2,0.3,2.2,1.1,3.2,2c-0.6-0.5-1.2-1-1.8-1.4
		c-0.6-0.4-1.3-0.7-2.1-0.7c-0.4,0-0.8-0.1-1.2-0.1s-0.8,0-1.2,0c-0.8,0.1-1.6,0.2-2.4,0.4c-1.6,0.4-3.2,1.2-4.5,2.1
		c-1.2,0.8-2.2,1.7-3.1,2.7c-1.9,2-3.3,4.2-4.6,6.4s-2.4,4.5-3.4,6.9c-0.5,1.2-1,2.4-1.4,3.7c-0.3,1.2-0.7,2.4-1.1,3.6
		c-0.7,2.4-1.5,4.7-2.2,7.1c-0.1,0.2-0.2,0.5-0.2,0.7l-0.1,0.5l-0.2,0.9l-0.4,1.8c-0.2,1.2-0.5,2.4-0.8,3.6l-0.4,1.8l-0.2,0.9
		l-0.1,0.5c0,0.2-0.1,0.5-0.1,0.7c-0.2,1.2-0.3,2.4-0.5,3.6c-0.7,4.7-1.4,9.2-2,13.5c-0.3,2.2-0.6,4.2-0.9,6.2c-0.1,1-0.3,2-0.4,2.9
		c-0.1,0.5-0.1,0.9-0.2,1.4c0,0.3-0.1,0.6-0.1,0.9c0,0.2,0,0.4,0,0.6V89c-0.1,2,0,3.8,0,5.4c0.1,1.7,0.1,3.2,0.2,4.5
		c0.1,2.7,0.3,4.9,0.5,6.3c0.2,2.9,0.5,5.2,0.8,7.1c0.2,1,0.3,1.8,0.5,2.6c0.2,0.7,0.3,1.4,0.6,2.2c0.8,2.1,1.1,2.5,1.3,2.5
		c0.3-0.1-0.1-2.2,1.4,0.8c0.8,2.1,1.6,3.8,2.4,5.4c0.2,0.4,0.4,0.8,0.6,1.2c0.3,0.5,0.6,0.9,0.9,1.3s0.7,0.8,0.9,1
		c0.2,0.2,0.4,0.4,0.6,0.6c0.3,0.4,0.7,0.8,1,1.1c0.2,0.2,0.3,0.3,0.4,0.5c0.2,0.3,0.3,0.5,0.4,0.7c0.1,0.1-0.1,0.3-0.1,0.4
		c-0.1,0.1-0.1,0.2-0.2,0.2c-0.2,0.1-0.3,0.1-0.4,0.1c-0.1,0-0.2,0-0.3,0.2c0,0.1-0.1,0.2-0.1,0.3c0,0-0.1,0.1-0.1,0.2
		c-0.1,0.3-0.1,0.5-0.2,0.8s-0.1,0.6-0.2,0.7l0,0l0,0l0.6,0.2c0.8,0.4,1.6,0.7,2.2,1.1c0.6,0.3,1.2,0.7,1.3,1c0.1,0.1,0,0.1,0.1,0
		l2.5-3c0.8-0.9,0.6-0.7,0.6-0.7l0,0l0,0l-0.1-0.1c-1-0.8-2-1.6-3.3-2.7c-2.5-2.2-6-4.9-10.1-8.5c3.7,3.5,11.1,9.9,8.1,7.6
		c-3.4-2.7-7.4-6-11.7-9.5c-1.1-0.9-2.2-1.8-3.3-2.7c-1-0.9-2.1-1.8-3.2-2.8c-0.6-0.4-1.2-1-1.4-1.2c-0.3-0.3-0.7-0.6-0.8-1
		c-0.1-0.2-0.2-0.4-0.2-0.6l-0.1-0.3l-0.1-0.5c-0.1-0.7-0.1-1.4-0.2-2.1c-0.2-2.9-0.2-5.8-0.1-8.8c0-1.5,0.1-3,0.1-4.4v-0.8v-0.4
		l0.2-0.4c0.2-0.6,0.5-1.1,0.8-1.7s0.6-1.3,0.9-1.9c0.2-0.4,0.3-0.7,0.5-1c0.2-0.4,0.3-0.8,0.4-1.1c0.4-1.4,0.7-2.6,1-3.9
		c0.6-2.5,1-4.9,1.5-7c0,0-0.4,2.8-0.9,5.7c-0.2,1.5-0.5,2.9-0.8,4c-0.2,0.6-0.3,1.1-0.4,1.4s-0.2,0.5-0.2,0.5
		c0.4-1.1,0.7-2.1,1-3.1s0.6-2,0.8-3c0.3-1,0.5-2.1,0.7-3.1l0.3-1.6l0.3-1.7c0-0.3,0-0.7,0-1v-0.8v-1.6c0-1.1-0.1-2.1-0.1-3.2
		c-0.1-2.1-0.1-4.3-0.2-6.4c-0.3-8.6-0.7-17.1-1-24.8c-0.2-3.8-0.4-7.5-0.5-10.8c0-0.8-0.1-1.6-0.1-2.4c0-0.4,0-0.8,0-1.2
		s0-0.9-0.1-1.3c-0.3-1.6-0.7-2.9-1.1-4.2c-1.5-5.1-2.9-8.5-3-9.9c0,0,0.5,0.6,1,1.2c0.5,0.6,1,1.2,1,1.2c-0.7-1.6-1.4-3.2-2.1-4.6
		c-0.3-0.5-0.5-0.9-0.7-1.3c-0.2-0.5-0.4-0.9-0.7-1.3c-0.5-0.8-1.1-1.5-1.8-2.1c-1.4-1.1-3.1-1.7-4.7-1.8c-1.6-0.2-3.1,0.3-4.3,1.1
		c-1.2,0.7-2.3,1.7-3.1,2.7c-0.2,0.3-0.4,0.6-0.6,0.8s-0.3,0.4-0.5,0.6c-0.3,0.4-0.5,0.8-0.8,1.2c-1,1.6-1.8,3.1-2.4,4.4
		c-1.2,2.6-2,4.6-2.7,6.3s-1.2,3.1-1.7,4.5s-1,2.8-1.5,4.6c-0.3,0.9-0.6,1.9-0.9,3c-0.3,1.2-0.5,2.5-0.8,3.9
		c-0.5,2.9-0.9,6.4-1.1,11.1c0,1.2,0,2.4,0,3.7c0,0.6,0.1,1.3,0.1,2c0,0.7,0.1,1.4,0.1,2.1c0.1,1.5,0.2,2.9,0.3,4.5
		c0.1,0.8,0.1,1.6,0.2,2.4c0,0.4,0.1,0.8,0.1,1.2v0.7c0,0.3,0.1,0.6,0.1,0.8c0,0.1,0.1-0.8,0.1-0.8c0,0.2,0.1,0.5,0.1,0.7l0.1,0.6
		c0,0.4,0.1,0.7,0.1,1.1c0.1,0.7,0.2,1.4,0.3,2.1c0.1,1.4,0.3,2.8,0.5,4.1s0.3,2.6,0.5,3.9c0.1,0.7,0.2,1.3,0.3,1.9
		c0.1,0.8,0.4,1.5,0.6,2.1c0.9,2.3,1.8,4.4,2.8,6.4c0.5,1,1,2,1.5,2.9c0.5,1,1.1,1.8,1.6,2.6c1.1,1.7,2,3.2,3,4.7
		c0.5,0.7,1,1.5,1.4,2.2c0.4,0.7,0.8,1.4,1.2,2.1c0.2,0.3,0.3,0.5,0.5,0.8c0.1,0.1,0.2,0.2,0.2,0.4s0,0.3,0,0.5
		c0,0.3-0.1,0.6-0.1,0.9s-0.1,0.7-0.1,1c-0.1,0.4-0.1,0.6-0.2,0.9c0,0.1-0.1,0.2-0.1,0.3l0,0c0,0-0.1,0,0,0c0.3,0.1,0.7,0.3,0.9,0.5
		c0.3,0.1,0.4,0.3,0.4,0.4c0.1,0.1,0,0,0.2-0.2l0.1-0.1l0,0c-0.9,0.8,1.2-1.2,1-1l0,0v-0.1l-0.1-0.1l-0.2-0.2l-0.7-0.9
		c0,0,0.4,0.3,0.9,0.9c0.1,0.1,0.1,0.1,0.2,0.2l0,0l0,0c1-1-1.5,1.3-1.2,1.1l0,0l0,0c-0.1,0.1-0.1,0.1-0.1,0.1l-0.1,0.1
		c0,0.1,0,0.1,0,0.1s-0.2-0.3-0.5-0.5c-0.2-0.1-0.4-0.2-0.6-0.3l-0.4-0.2c-0.2,0-0.4-0.1-0.3-0.1c0,0,0.1-0.4,0.1-0.8
		c0.1-1.1,0.1-1.7,0.1-2.2c0-0.1,0-0.2,0-0.3s-0.1-0.1-0.1-0.2c-0.1-0.1-0.1-0.2-0.1-0.2l0.2,0.3l0.1,0.1c0,0.1,0,0.1,0,0.2
		c0,0.3,0,0.5,0,0.7c0,0.5-0.1,1-0.1,1.5c0,0.2-0.1,0.4-0.1,0.6c-0.1,0.1-0.1,0.2-0.1,0.2c0,0.1,0,0.1,0,0.1s-0.1,0,0,0l0.2,0.1
		l0.5,0.2c0.6,0.3,1,0.6,1.1,0.8c0,0.1-0.1,0.1,0,0c0,0,0-0.1,0.1-0.2l0,0l0,0c-0.3,0.3,2.5-2.3,1.3-1.2l0,0l0,0
		c-0.2-0.2-0.4-0.4-0.6-0.6c-1.5-1.7-2.9-3.3-4.2-4.7c-2.5-2.8-4.4-5.1-6-6.9c-2-2.4-3.9-4.6-5.7-6.7l-1.4-1.6l-0.7-0.8l-0.5-0.5
		c-0.1-0.2-0.3-0.3-0.5-0.5c-1.1-1-2.2-1.9-3.3-2.9c-4.5-4-9.7-8.5-16.9-14.8c-0.3-0.3-0.7-0.7-1.3-1.2c-0.5-0.5-1.1-1.1-2-1.8
		c-1.6-1.2-3.6-2.6-5.6-3.9c-4-2.6-8.4-4.8-10.5-5.6c0-0.1-0.1-0.1-0.2-0.2c-0.1,0-0.3-0.1-0.6-0.3c-0.3-0.1-0.6-0.3-0.9-0.4
		c-0.3-0.1-0.6-0.2-1-0.4c-1.5-0.6-3.7-1.4-6.3-2.4c-1.3-0.4-2.8-1-4.3-1.5l-0.6-0.2c-0.3-0.1-0.6-0.1-0.9-0.2
		c-0.4-0.1-0.9-0.2-1.3-0.3c-0.9-0.2-1.8-0.4-2.7-0.6c-1.8-0.4-3.7-0.7-5.7-1.1c-1-0.2-2-0.3-3-0.5c-0.5,0-1.1-0.1-1.6-0.2l-0.8-0.1
		c-0.4-0.1-0.7-0.1-1.1-0.1c-1.1,0-2.1,0-3.2,0c-1.2,0-2.3,0.1-3.5,0.2c-1.1,0.1-2.3,0.3-3.5,0.6c-0.6,0.2-1.1,0.3-1.9,0.6
		c-0.6,0.2-1.1,0.5-1.6,0.7c-1.1,0.5-2.1,1-3.1,1.5l-1.5,0.8L7,47l-1,0.6c-1.3,0.8-2.6,1.6-3.6,2.6c-0.5,0.5-0.9,1-1.2,1.6
		C1.1,52,1,52.1,1,52.3s0,0.3,0,0.5c0,0.3,0,0.7,0.1,1c0.2,1.3,0.7,2.7,1.3,4c0.3,0.6,0.6,1.3,0.9,1.9c0.3,0.5,0.6,1,0.8,1.5
		c0.5,0.9,1,1.8,1.5,2.6c0.2,0.5,0.5,0.9,0.6,1.1c0.2,0.4,0.4,0.8,0.6,1.2c0.8,1.6,1.6,3.2,2.3,4.6c0.2,0.5,0.4,0.9,0.6,1.3
		c0.2,0.2,0.3,0.5,0.4,0.7c0.1,0.3,0.3,0.4,0.5,0.6c0.6,0.6,1.2,1.2,1.8,1.7c2,1.8,3.6,3.4,4.7,4.4c-2.1-2.1-3.9-3.8-5.3-5.2
		c-0.5-0.5-0.9-0.9-1.3-1.3c-0.3-0.1-0.4-0.4-0.5-0.7c-0.2-0.2-0.3-0.5-0.4-0.7c-0.4-0.7-0.7-1.4-0.9-1.9c-0.9-2.1-1-2.7-0.8-2.4
		c0.3,0.2,1,1.4,1.8,2.8c0.2,0.4,0.5,0.8,0.7,1.2c0.1,0.3,0.3,0.5,0.4,0.8c0,0.1,0.1,0.1,0.1,0.2l0.2,0.1l0.3,0.3
		c0.4,0.3,0.8,0.7,1.2,1c0.3,0.3,0.7,0.6,1,0.9c1.2,1.3,2.4,2.6,3.5,3.8c0.6,0.6,1.1,1.2,1.7,1.8l0.5,0.5c0.2,0.2,0.4,0.3,0.6,0.5
		l1.1,0.8c1.3,1,2.7,1.9,4,2.8c0.6,0.5,1.3,0.9,2,1.4c0.4,0.2,0.7,0.5,1.1,0.7c0.2,0.1,0.4,0.3,0.7,0.4l0.8,0.3
		c6.2,2.5,13.1,5.1,22.4,8.3c0.1,0.2,0.3,0.3,0.4,0.5c0,0,0.1,0.1,0.2,0.2c0.1,0.1,0.3,0.2,0.4,0.3c0.2,0.2,0.5,0.4,0.9,0.5
		c0.4,0.1,0.9,0.3,1.2,0.4c1.5,0.5,3.6,1,6.8,1.3c1.6,0.1,3.5,0.3,5.8,0.3c1.1,0.1,2.3,0,3.7,0c0.6,0,1.3,0,2.1-0.1
		c0.7-0.1,1.5-0.1,2.5-0.3c0.3-0.1,0.6-0.1,0.9-0.2c0.3-0.1,0.5-0.1,0.7-0.2c0.3-0.1,0.7-0.2,1.1-0.3c0.8-0.2,1.6-0.4,2.4-0.6
		s1.6-0.5,2.5-0.7c0.3-0.1,0.7-0.2,1-0.3c0.1,0,0.3-0.1,0.4-0.1s0.3-0.1,0.4-0.1h0.2c0.1-0.1,0.2-0.1,0.2,0c0.1,0.3,0.3,0.5,0.5,0.7
		c0.5,0.5,1,1.1,1.5,1.7c-0.2-0.2-0.4-0.6-0.7-1c0,0-0.4-0.5-0.5-0.6c-0.1-0.1-0.1-0.2-0.2-0.3s-0.3-0.3-0.4-0.5
		c-0.1,0-0.1-0.2-0.2-0.2s-0.1,0-0.2,0c-0.1,0-0.2,0-0.3,0c-0.2,0-0.1-0.1,0.2-0.3c0.1,0,0.2-0.1,0.3-0.1l0.2-0.1l0.1,0.1
		c0.1,0.1,0.3,0.3,0.5,0.5c0.2,0.3,0.5,0.5,0.7,0.8l0.4,0.5l0.3,0.3c0.7,0.9,1.3,1.7,1.5,2c0.7,0.6,0.4,0.1,0.1-0.5
		c-0.3-0.5-0.8-1.3,0.2-0.6c0.4,0.5,0.8,1.1,1.2,1.6l0.5,0.7l0.3,0.3c0,0.1,0.1,0.1,0.1,0.2s0,0.2-0.1,0.2c-1.6-0.1-2.9-0.1-4.1-0.1
		c-0.6,0-1.2,0.1-1.8,0.1l-1,0.1l-1.2,0.1c-0.8,0.1-1.7,0.2-2.6,0.4l-0.7,0.2l-0.7,0.2l-1.1,0.3c-0.8,0.2-1.5,0.4-2.3,0.6
		c-1.5,0.4-3.1,0.8-4.6,1.3l-1.2,0.4l-0.6,0.2l-0.5,0.2l-0.4,0.1c-0.8,0.3-1.5,0.6-2.3,0.9c-1.5,0.7-3.1,1.3-4.7,1.9
		c-0.9,0.4-1.9,0.7-2.8,1.1c-0.7,0.1-1.2,0.7-1.7,1.1c-0.4,0.4-0.8,0.7-1.2,1c-1.3,1.1-2.8,2.3-4.2,3.5
		c-5.8,4.9-12.2,10.1-19.6,16.1c9.6-7.4,1.7-0.5-1.3,2.6c-0.4,0.1-1.3,0.6-2.6,1.6c-0.7,0.5-1.4,1.1-2.2,1.7c-0.3,0.3-0.8,0.6-1.2,1
		l-0.3,0.3c-0.1,0.1-0.4,0.3-0.5,0.4c-0.4,0.3-0.6,0.6-0.9,0.9c-1.1,1.2-2,2.7-2.6,4.5s-0.8,3.7-0.4,5.8c0.4,2,1.3,4,2.6,5.5
		c0.6,0.7,1.3,1.5,2.1,2c0.9,0.4,1.8,0.5,2.8,0.6c0.5,0.1,1,0.1,1.5,0.1c0.4,0,0.9,0,1.3,0c0.7,0,1.4,0,2,0c0.7,0,1.4,0,2,0
		c0.8-0.1,1.5-0.2,2.1-0.3c2.5-0.5,4.3-1,5.6-1.4c2.6-0.8,3.1-0.7-0.4,0.9c4.7-1.5,9.2-3.2,13.9-5c4.6-1.8,9.3-3.8,14.1-5.8
		c2.4-1,4.8-2,7.2-3.1l1.8-0.8c0.6-0.3,1.3-0.6,1.9-0.9c1.3-0.7,2.5-1.3,3.7-2c2.4-1.4,4.7-2.8,7-4.4c1.2-0.8,2.3-1.6,3.5-2.6
		c0.5-0.5,1.2-1,1.8-1.7l1.3-1.5c1.8-2,3.7-4,5.5-6l2.7-2.9c0.5-0.5,1-1.1,1.6-1.6l0.8-0.8l0.2-0.2c0.1,0,0.1,0,0.1,0h0.1l0.1,0.1
		l0.4,0.4l1.7,1.6l2.6,2.5c1,1,2,1.9,3,2.8c3.7,3.4,7.4,6.8,11.1,10.1c1.1,1,2.3,2,3.4,3c0.6,0.5,1.1,1,1.7,1.5
		c0.1,0.1,0.3,0.3,0.4,0.4c0.1,0.2-0.1,0.4-0.2,0.5c-0.3,0.3-0.6,0.5-0.9,0.7c-0.2,0.1-0.3,0.2-0.5,0.3c0,0-0.1,0.1-0.2,0.1
		c-0.1,0.1-0.2,0-0.3,0l-1.1-0.3c-0.8-0.2-1.5-0.3-2.2-0.4c-0.8-0.2-1.5,0-2.2,0c-0.9,0.1-1.7,0.1-2.6,0.2c-2.5,0.2-5,0.4-7.5,0.8
		c-2.7,0.4-5.1,1-7.4,1.7s-4.6,1.4-6.8,2.2c-1.1,0.4-2.2,0.8-3.3,1.2c-0.5,0.2-1.1,0.5-1.7,0.7c-0.4,0.2-0.7,0.5-1,0.6l-0.7,0.4
		c-3.8,2.2-7.4,4.4-10.8,6.5c-3.4,2.1-6.7,4.1-9.7,5.9c-1.5,0.9-3,1.8-4.4,2.7c-0.8,0.4-1.5,0.9-2.2,1.3c-0.5,0.3-0.8,0.6-1.1,0.8
		s-0.6,0.5-0.9,0.7c-1.2,0.9-2.3,1.8-3.4,2.7c-0.6,0.5-1.1,0.9-1.6,1.3c-0.5,0.4-1.1,0.9-1.6,1.3c-0.1,0.1-0.3,0.3-0.4,0.4l-0.3,0.4
		c-0.2,0.3-0.4,0.5-0.6,0.7c-0.4,0.4-0.7,0.8-1.1,1.2c-0.7,0.9-1.4,1.6-2,2.3c-1.3,1.6-3.1,3.7-5.3,6.1c-1.1,1.2-2.3,2.5-3.5,3.9
		s-2.5,2.9-3.7,4.7c-0.3,0.5-0.7,1.1-0.9,1.7c-0.3,0.6-0.4,1-0.6,1.6c-0.3,1.1-0.5,2.1-0.7,3.3c-0.2,1.4-0.2,2.7-0.1,4
		s0.3,2.6,1.1,3.6c0.9,0.8,2.1,1.3,3.3,1.7c1.2,0.4,2.6,0.8,3.4,1c0.9,0.3,1.8,0.5,2.7,0.7c0.5,0.1,0.9,0.2,1.4,0.3
		c0.2,0.1,0.5,0.1,0.8,0.1s0.5,0,0.8,0c0.1,0-0.5-0.2-1.1-0.4c-0.5-0.3-1-0.6-1-0.6c0.3,0,0.7,0.1,1,0.2c0.3,0,0.7,0,1,0
		c0.5,0.1,1.1,0,1.6,0.1s1,0.1,1.5,0.1c0.6,0,1.1,0,1.6,0c2-0.1,3.9-0.2,5.6-0.4c3.4-0.4,6.3-1,8.8-1.6c5-1.2,8.6-2.3,12.4-3.7
		c1.9-0.7,3.9-1.4,6-2.3c2.2-1,4.4-2,7.1-3.3c2.6-1.3,5.7-2.8,9.2-4.7c0.5-0.2,0.9-0.5,1.4-0.7c0.2-0.1,0.5-0.3,0.7-0.4
		c0.3-0.2,0.6-0.4,0.9-0.6c0.8-0.6,1.8-1.2,2.7-1.9c1.9-1.3,3.9-2.7,6.1-4.2c-14.8,9.8-9,5.1,4.9-6l6.1-4l0.8-0.5
		c0.3-0.2,0.6-0.4,0.9-0.7l1.4-1.3c0.9-0.9,1.8-1.7,2.7-2.6c1.8-1.8,3.5-3.6,5.2-5.5c0.4-0.5,0.8-1,1.3-1.6c0.3-0.4,0.5-0.8,0.7-1.1
		l0.5-0.8l1.9-3.1c0,0,0.1-0.3,0.3-0.8c0.1-0.2,0.2-0.5,0.3-0.8c0-0.3,0.1-0.5,0.1-0.7c0.1-0.5,0.3-1,0.4-1.4s0.2-0.7,0.2-0.7
		c0.4-0.4,0.7-0.8,1-1.2c0.1-0.1,0.3-0.3,0.5-0.5s0.5-0.2,0.7,0c0.8,0.7,1.6,1.3,2.4,2c1.1,0.9,2.2,1.7,3.3,2.6
		c1.3,0.9,2.6,1.9,3.9,2.9c2.7,1.9,5.3,3.9,8,5.9c2.2,1.6,4.4,3.2,6.6,4.8c-3.5-2.7-1.6-1.3-1.1-1.2c0.6,0.9,2.6,2.7,4.9,4.7
		c0.3,0.3,0.6,0.5,0.9,0.8c0.2,0.1,0.3,0.3,0.5,0.4l0.2,0.2c0.1,0.1,0.2,0.2,0.1,0.3c-0.2,0.4-0.7,0.7-1.2,0.9
		c-0.5,0.2-1.1,0.3-1.6,0.1c-2.1-0.5-4.2-1-6.2-1.3c-0.5,0-1,0-1.5,0.1c-0.3,0-1.6,0.2-2.5,0.4c-1.9,0.4-3.8,0.9-5.6,1.4
		c-0.4,0.1-0.9,0.3-1.3,0.4c-0.4,0.2-0.9,0.4-1.3,0.5c-0.8,0.3-1.6,0.6-2.4,0.9c-1.6,0.6-3.2,1.2-4.6,1.7c-2.9,1-5.5,1.9-7.6,2.7
		c-0.3,0.1-0.5,0.2-0.8,0.3c-0.4,0.2-0.8,0.3-1.1,0.5c-0.3,0.1-0.5,0.3-0.8,0.4c-0.2,0.1-0.4,0.2-0.6,0.3c-0.7,0.4-1.3,0.7-1.8,0.9
		c-1.4,1-2.8,2-4.4,3c-0.4,0.3-0.8,0.5-1.2,0.8c-0.2,0.2-1.1,0.7-1.4,1c-0.8,0.6-1.6,1.2-2.4,1.8c-1.6,1.2-3.3,2.4-5,3.7l-0.9,0.6
		c-0.3,0.2-0.5,0.5-0.8,0.8l-1.1,1.2c-0.7,0.8-1.4,1.5-2.1,2.3c-5.7,6.1-11,12-13.7,16c-3,3-6.8,7.1-11,11.5
		c3.7-5.1,4.7-7.3-2.9,1.7c-0.7,0.8-1.2,1.4-1.9,2.1l-0.4,0.6c-0.2,0.3-0.4,0.6-0.5,0.8c-0.3,0.4-0.6,0.9-0.8,1.4
		c-0.4,1-0.8,1.9-1.1,2.9c-0.2,0.4-0.4,0.8-0.6,1.2c-0.2,0.5-0.4,1.1-0.6,1.6c-0.4,1.1-0.7,2.2-0.9,3.3c-0.1,1.1-0.2,2.2-0.1,3.3
		c0.1,0.5,0.2,1,0.4,1.5c0.1,0.2,0.3,0.5,0.4,0.7c0.2,0.2,0.3,0.4,0.5,0.6c1.4,1.5,3.6,2.4,5.7,3.2c0.4,0.2,0.9,0.3,1.3,0.5l1.1,0.4
		c0.7,0.2,1.4,0.5,2.1,0.7c0.3,0.1,0.7,0.2,1,0.3c0.5,0.2,1,0.3,1.5,0.5c0.3,0.1,0.5,0.1,0.8,0.1h0.8c0.3,0,0.7,0,1.1,0
		c0.7,0,1.4,0,2,0c0.3,0,0.7,0,1,0c0.4,0,0.8,0,1.2,0c3-0.2,5.5-0.8,7.6-1.4c-1.9,0.6-4,1.2-6.4,1.5c-1.2,0.2-2.7,0.3-3.6,0.3
		c-0.5,0.1-1.1,0.1-1.6,0.1h-0.8h-1.4c0.9,0,1.7,0,2.5,0c0.6-0.1,1.3-0.1,1.9-0.1s1.5,0,2.2-0.1c0.8-0.1,1.5-0.2,2.2-0.3
		c2.7-0.5,5.2-1.3,7.5-2.2c1.7-0.5,3.3-1.2,4.3-1.6c-0.8,0.3-1.6,0.6-2.6,1c7.2-3,14.1-6.6,23.4-11.8c4.5-2.9,9.1-6,13.7-9.1
		c2.3-1.6,4.7-3.2,7-4.8c1.1-0.8,2.3-1.7,3.5-2.5c1.3-0.9,2.5-1.8,3.6-2.7c2.3-1.9,4.6-3.8,6.8-5.7c2.2-2,4.4-3.9,6.7-6.1l0.9-0.9
		c0.3-0.2,0.7-0.7,0.9-1c0.5-0.7,1-1.3,1.5-1.9c0.9-1.3,1.8-2.5,2.7-3.8c0.4-0.6,0.9-1.3,1.3-2c0.2-0.4,0.5-0.8,0.7-1.2
		c0.1-0.2,0.3-0.5,0.4-0.8l0.3-0.7c0.6-1.4,1.1-2.7,1.7-4.1l0.9-2l0.3-0.6c0.1-0.1,0.1-0.3,0.2-0.4l1-0.7l0.7-0.5
		c0.2-0.1,0.5-0.3,0.7-0.4c0.1-0.1,0.3-0.2,0.4-0.1l0.3,0.3l0.7,0.5l0.3,0.3l0.8,0.6c4.9,3.5,9.7,7.1,14.6,10.6
		c3.2,2.3,6.4,4.6,9.5,6.9l1.4,1l0.4,0.3l0.2,0.1c0.1,0.1,0.1,0.1,0.1,0.2c0,0.2-0.2,0.4-0.4,0.6l-0.6,0.6c-0.1,0.1-0.2,0.2-0.3,0.2
		h-0.4h-0.8h-1c0.8,0,1.6,0,2.4,0c0.3-0.2,0.6-0.5,0.9-0.7c0.1-0.1,0.3-0.3,0.4-0.4c0.1-0.1,0.1-0.1,0.2-0.2c0,0,0.1-0.1,0-0.2
		c-1.1-1-2-1.7-2.2-2.1l2.5,2c0.1,0,0.2,0.1,0.3,0.2c0.1,0.1,0,0.2-0.1,0.3c-0.2,0.2-0.4,0.3-0.6,0.5l-0.6,0.5
		c-0.1,0.1-0.2,0.1-0.3,0.2c-0.1,0.1-0.3,0-0.4,0c-1.2-0.1-2.3-0.1-3.5-0.2l-1.9-0.1h-1h-0.5c-0.2,0-0.2,0-0.6,0c-1.2,0-2.4,0-3.6,0
		h-1.8h-1.3c-0.4,0-0.9,0.1-1.3,0.2c-0.5,0.1-0.9,0.2-1.3,0.4s-0.7,0.3-1,0.4c-0.6,0.3-1.1,0.5-1.7,0.8c-1.1,0.6-2.1,1.1-3.2,1.7
		c-2.1,1.1-4.2,2.3-6.1,3.6c-1.9,1.2-3.8,2.5-5.6,3.7c-3.7,2.4-7.2,4.8-10.7,7.1c-0.9,0.6-1.7,1.1-2.6,1.7c-0.5,0.2-0.9,0.5-1.3,0.8
		l-0.7,0.5c-0.2,0.1-0.4,0.2-0.5,0.3l-0.4,0.4c-0.8,0.7-1.5,1.4-2.3,2.1c-0.7,0.7-1.4,1.4-2.1,2.1c-2.8,2.7-5.4,5.3-7.9,7.9
		c-0.6,0.7-1.3,1.4-1.9,2.1c-0.2,0.2-0.4,0.5-0.5,0.7l-0.4,0.5c-0.2,0.3-0.5,0.7-0.7,1c-1,1.4-1.9,2.7-2.8,3.9l0.3-1.9
		c-4.1,5.9-8,11.3-11.7,16.6c-1.8,2.6-3.6,5.2-5.4,7.7l-0.7,0.9l-1,1.5c-0.5,0.5-0.5,1.2-0.7,1.8c-0.2,0.7-0.3,1.3-0.4,1.9
		c-0.3,1.9-0.3,3.7-0.2,5.5s0.4,3.5,0.9,5.3l0.2,0.8l0.3,0.9c0.2,0.6,0.4,1.1,0.7,1.7c0.5,1.1,1.1,2.2,1.8,3.1l1.1,1.4l0.3,0.3
		l0.1,0.2c0,0,0.1,0,0.2,0l0.9,0.1c1.1,0,2.3,0.1,3.5,0.2l1.8,0.1h0.4h0.3h0.5h1.1h1.2c6.5-0.3,12.5-1.9,18.2-4.1l1.6,0.4
		c1-0.4,2.1-0.9,3.2-1.4c1-0.5,2.4-1.2,3.4-1.8c2.2-1.2,4.4-2.5,6.7-4c2.3-1.4,4.6-3,7-4.7c0.6-0.4,1.2-0.8,1.8-1.3
		c0.8-0.6,1.2-1,1.8-1.5c1.1-0.9,2.2-1.8,3.3-2.8c4.5-3.8,9.2-7.8,13.9-11.8c2.4-2,4.8-4.1,7.2-6.1c0.3-0.2,0.6-0.4,0.8-0.7l0.6-0.6
		l0.8-0.9l1.6-1.8c1-1.2,2-2.4,3-3.6c2-2.5,3.9-4.9,5.8-7.3c0.9-1.2,1.9-2.4,2.8-3.7c0.5-0.6,0.9-1.3,1.4-2c0.3-0.4,0.5-0.8,0.8-1.2
		l0.6-1.1c0.7-1.4,1.4-2.7,2.1-4c0.3-0.7,0.7-1.3,1-2c0.3-0.7,0.6-1.2,1.1-2.6c0.4-1.4,0.4-1.8,0.6-2.5l0.2-0.8v-0.1
		c0-0.2,0.2-0.3,0.3-0.4c0.2-0.1,0.3-0.3,0.5-0.4c0.1-0.1,0.2-0.1,0.3-0.2c0.1,0,0.1,0.1,0.2,0.1c0.2,0.1,0.3,0.2,0.5,0.3
		c0.7,0.6,1.5,1.1,2.2,1.7c3.1,2.5,5.8,4.5,7.9,6c0.7,0.7,1.8,1.8,3.2,3c1.1,1,2.4,2.2,3.9,3.5c0.9,0.8,2.1,1.7,3.4,2.9
		c0,0.1-0.1,0.1-0.2,0.1h-0.3h-0.6c-0.4,0-0.8,0-1.2,0c-0.4-0.1-0.9-0.1-1.3-0.1c-0.6,0-1.1,0-1.6,0c-0.6,0-1.1,0-1.7,0
		c-0.3,0.1-0.7,0-1,0.1l-1,0.3l-0.9,0.3l-0.7,0.3c-0.4,0.2-0.8,0.3-1.2,0.5c-1.5,0.6-2.9,1.3-4.3,2c-2.7,1.4-5.1,2.8-7.3,4.1
		c0,0-0.2,0.2-0.6,0.5c-0.2,0.1-0.4,0.3-0.8,0.6c-0.4,0.2-0.8,0.7-1.1,1c-0.7,1-1.5,1.9-1.5,1.9c-4.6,4.1-8.7,7.9-12.5,11.4
		c-1.9,1.8-3.7,3.4-5.5,5c-0.9,0.8-1.8,1.5-2.6,2.3c-0.5,0.4-0.9,0.7-1.3,1.1c-0.2,0.2-0.6,0.5-0.9,0.8l-0.7,0.9
		c-1.5,1.7-2.8,3.4-4.1,5c-0.6,0.8-1.3,1.6-1.9,2.4c-0.3,0.4-0.6,0.8-0.9,1.2l-0.5,0.6c-0.2,0.2-0.5,0.7-0.6,0.8
		c-1.1,1.7-2.1,3.2-3.2,4.8c-0.6,0.8-1.1,1.5-1.6,2.3l-0.8,1.2l-0.5,0.8c-0.2,0.3-0.5,0.6-0.6,1c-1,3.1-2,6.2-3,9.3
		c-1,2.9-1.9,5.9-2.9,8.8c-0.7,1.8-1,3.5-1.2,5.2s-0.3,3.3-0.4,5c0,1.6,0,3.3,0.1,4.9c0,0.8,0.1,1.7,0.2,2.5l0.2,1.3
		c0.1,0.3,0.2,0.9,0.3,1.5c0.2,1.1,0.5,2.3,1,3.3c0.6,1,1.4,1.9,2.3,2.6c1,0.7,2,1.2,3.1,1.6c0.6,0.2,1.1,0.4,1.7,0.5
		c0.3,0.1,0.6,0.2,0.9,0.2c0.4,0.1,0.5,0.1,0.8,0.1c0.9,0.1,1.8,0.1,2.7,0.1c0.8,0,1.7,0,2.5-0.1c1.6-0.1,3.3-0.3,5-0.7
		c0.9-0.2,1.7-0.5,2.6-0.8c0.4-0.2,0.9-0.3,1.4-0.6l1.1-0.6c1.4-0.8,2.7-1.5,4-2.3c2.6-1.5,5.1-3.1,7.6-4.8c1.2-0.9,2.5-1.7,3.7-2.6
		l1.1-0.8c0.5-0.3,0.9-0.8,1.1-1l1.5-1.5c2-2,4.1-4.1,6.1-6.1c4-4.1,8.1-8.1,12.1-12.1s8-8,11.9-11.9c2-2,3.9-3.9,5.9-5.9
		c1-0.9,1.9-1.9,2.9-2.9l0.5-0.5c0.2-0.2,0.5-0.4,0.6-0.6l0.5-0.7l0.3-0.5c0.4-0.6,0.8-1.3,1.2-1.9l0.1-0.5c0,0,0.3-0.6,1-1.7
		c0.6-1.1,1.5-2.7,2.5-4.7c0.5-1,1-2.1,1.5-3.3c0.3-0.6,0.5-1.2,0.8-1.9c0.2-0.7,0.5-1.3,0.7-2.3c0.2-0.5,0.3-1.1,0.3-1.6
		c0-0.4,0.1-0.7,0.1-1.1c0-0.5,0.1-1,0.1-1.5c0.1-0.5,0.1-1,0.2-1.5c0.2-1,0.3-1.9,0.5-2.7c0.1-0.1,0.2-0.2,0.3-0.1
		c0,0,0.1,0.1,0.2,0.2c0.2,0.2,0.3,0.4,0.5,0.5c0.3,0.3,0.5,0.5,0.8,0.8c1,1,1.7,1.7,1.7,1.7c-0.2-0.1-0.2-0.1-0.2-0.2l-0.1-0.1
		c-0.1-0.1-0.1-0.1-0.2-0.2c-0.1-0.1-0.1-0.2-0.2-0.3s-0.2-0.2-0.1-0.1c0.1,0,0.2,0.2,0.4,0.4c0.1,0.1,0.2,0.3,0.3,0.4
		c0.4,0.4,0.8,0.8,1.3,1.3c3.8,3.7,9.8,9.6,14.8,14.1c0.7,0.6,1.3,1.2,2,1.9c0.2,0.2,0.4,0.4,0.6,0.6c0.3,0.3,0.7,0.7,1.1,1.1
		c0.4,0.4,0.8,0.8,1.2,1.2c0.1,0.1,0.2,0.2,0.3,0.3c0.1,0,0,0.1-0.1,0.1h-0.2c-0.3,0-0.6,0-0.9,0c-0.6,0-1.2,0-1.8,0h-0.5h0.1l0,0
		l0,0h-0.3l-1.5,0.1c-1,0.2-2,0.6-2.9,1l-0.6,0.3l-0.5,0.2l-0.9,0.5c-0.6,0.3-1.2,0.7-1.7,1c-1.1,0.7-2.1,1.4-3.1,2.1
		s-2,1.5-2.9,2.2s-1.8,1.5-2.6,2.2c0,0-5.5,4.6-10.9,9.1c-1.4,1.1-2.7,2.2-4,3.3c-0.6,0.5-1.2,1-1.8,1.5c-0.4,0.4-0.8,0.7-1.2,1
		c-0.5,0.3-0.8,0.8-1.1,1.3c-0.2,0.4-0.5,0.8-0.7,1.1c-0.2,0.3-0.3,0.6-0.5,0.8c-0.3,0.4-0.6,0.9-0.8,1.2c-0.5,0.7-0.7,1.1-0.7,1.1
		c0.6-0.8,1.1-1.6,1.6-2.4c0.2-0.4,0.5-0.7,0.7-1.1c0.4-0.5,0.7-1,1.1-1.5c0.8-0.6,1.5-1.2,2.1-1.7c0.5-0.4,1-0.8,1.4-1.1
		c1.7-1.3,2.7-2.1,3.2-2.4c1-0.7,0.1,0.3-1.6,1.9c-0.8,0.8-1.9,1.8-3,2.8c-0.4,0.4-0.8,0.7-1.2,1.1c-0.4,0.5-0.7,1-1,1.5
		c-0.5,0.8-0.8,1.4-1.2,2.1c-1.5,2.6-2.5,4.9-2.6,5.4c0-0.1-2.4,3.8-4.6,8l-0.4,0.8c-0.1,0.4-0.3,0.7-0.5,1.1
		c-0.2,0.4-0.2,0.8-0.3,1.2c-0.1,0.3-0.1,0.5-0.2,0.8c-0.3,1-0.5,2-0.7,2.8c-0.3,1.7-0.6,2.8-0.6,2.8c-1,7.2,2.9-11.4,0.5,1.8
		c-0.7,3-1.6,7.4-2.7,12.5c-0.2,1.3-0.5,2.6-0.8,4c-0.1,0.7-0.3,1.4-0.4,2.1c0,0.4-0.1,0.7-0.2,1.1c-0.2,0.5-0.2,1-0.2,1.5
		c0,2.1,0.5,3.8,1.1,5.5c0.6,1.6,1.4,3.2,2.4,4.6c0.5,0.7,1,1.4,1.6,2.1c0.3,0.4,0.6,0.7,0.9,1l0.3,0.2l0.3,0.3
		c0.2,0.2,0.4,0.3,0.6,0.5c1.6,1.3,3.7,2.2,5.8,2.1c1-0.1,2-0.3,3-0.6c0.8-0.2,1.5-0.5,2.2-0.7c1.4-0.4,2.7-1,4-1.5
		c2.5-1.1,4.7-2.3,6.7-3.4c0.5-0.2,0.9-0.5,1.4-0.8c0.3-0.1,0.5-0.3,0.7-0.4c0.3-0.2,0.5-0.4,0.8-0.6c0.1-0.1,0.3-0.2,0.4-0.3
		l0.3-0.4c0.2-0.2,0.4-0.4,0.6-0.6c0.3-0.3,0.6-0.6,0.8-0.8c-0.1,0.1-0.2,0.4-0.4,0.6c-0.1,0.1-0.2,0.3-0.3,0.4
		c-0.1,0.3-0.3,0.5-0.5,0.7c-0.1,0.2-0.2,0.3-0.3,0.4c-0.2,0.1-0.3,0.2-0.4,0.3c-0.3,0.2-0.5,0.4-0.8,0.6c-0.3,0.3-0.8,0.6-1.2,0.9
		c-1.8,1.3-4,2.7-6.6,4c-1.6,0.6-1.5,0.6-0.5,0.2c-0.4,0.2-0.8,0.4-1.2,0.6c0.6-0.3,0.8-0.4,1.5-0.7c1.5-0.6,3.9-1.7,4.9-2.2
		c1.4-0.8,2.5-1.5,3.7-2.4c0.4-0.3,0.9-0.6,1.2-0.9c0.3-0.3,0.6-0.7,0.9-1c0.4-0.4,0.7-0.8,1-1.2c1.2-1.4,2.2-2.6,3-3.5
		c1.5-1.8,2.2-2.6,2.5-2.8c0.5-0.5-0.9,1.4-1,1.8c7.8-10.1,14.2-17.8,20.1-24.9c3-3.6,5.8-7,8.6-10.5c0.7-0.9,1.4-1.8,2.1-2.7
		l0.7-0.9c0.4-0.4,0.5-0.8,0.7-1.2c0.2-0.5,0.3-0.7,0.4-1l0.4-0.9c0.9-2.3,1.7-4.7,2.3-7.2c-0.9,3.4-1.4,5-1.4,5.3s0.5-0.7,1.3-2.7
		c0.4-1,0.8-2.2,1.3-3.7c0.3-0.7,0.5-1.5,0.7-2.4c0.1-0.2,0.1-0.5,0.2-0.7c0.1-0.3,0.2-0.7,0.2-1c0.1-0.3,0.1-0.7,0.1-1s0-0.6,0-0.9
		c-0.1-1.7-0.1-3.5-0.2-5.4c0-0.9,0-1.9,0-2.8v-0.4v-0.2v-0.1l0,0c-5.1,0.1-1.4,0-2.6,0l-0.1-0.1c-0.2-0.2-0.3-0.1-0.5-0.1
		c-0.1,0-0.3,0-0.4-0.1c-0.2-0.1-0.2-0.3-0.2-0.2c0.1,0.1,0,0.3-0.2,0.6c-0.1,0.1-0.2,0.3-0.3,0.4l-0.1,0.1l-1.3,1.3
		c-0.4,0.5-0.6,0.7-0.5,0.6l0,0l0,0l0.4,0.5c5.4,5.8,10.9,12,14.3,16c3.4,4,4.8,5.8,1.7,3c13.7,13.4,8.7,9.7,17.7,18.1
		c-9.1-9.9-17.9-20.1-26.1-29.8c-2.1-2.4-4.1-4.8-6.1-7.1l-0.7-0.9l-0.4-0.4l-0.1-0.1l0,0c0-0.1-0.2,0.1,0.2-0.3l0.9-0.8l0.1-0.1
		c0.2-0.3,0.4-0.5,0.5-0.7c0.1-0.1,0.1-0.3,0.1-0.4c0,0,0,0,0.1,0.1s0.3,0.2,0.6,0.2c0.1,0,0.3-0.1,0.4,0l0.2,0.1h0.1
		c-0.3,0,2.8-0.2,1.5-0.1l0,0v1.1c0,0.7,0,1.5,0,2.2s0,1.5,0,2.2s0,1.5,0,2.2v1.1v0.7c0,0.3-0.1,0.5-0.1,0.8
		c-0.2,1.1-0.4,1.8-0.6,2.6c-0.2,0.8-0.5,1.5-0.7,2.2c-1,2.8-2.1,5.5-3.4,8c0,0,0.6-1.3,1.3-3.2c0.7-2,1.6-4.5,2.2-7.3
		c0.2-0.7,0.3-1.4,0.4-2.3c0.1-0.5,0-0.9,0-1.3c-0.1-0.3-0.1-0.6-0.1-0.9c-0.1-1.3-0.2-2.4-0.3-3.4s-0.2-1.8-0.2-2.4s0-0.9,0-0.9
		c-0.2,1.7-0.2,3.7-0.2,6c0,0.6,0,1.2,0,1.8c0,0.7-0.2,1.4-0.3,2.1c-0.3,1.3-0.7,2.5-1.1,3.8c-0.9,2.6-1.9,5.2-3.2,7.9l-0.6,1.1
		l-0.8,1c-0.5,0.6-0.9,1.1-1.4,1.7c-0.9,1.1-1.9,2.3-2.8,3.4c-7.4,9.1-14.7,18.2-19,22.8c5.8-6.2,18-21,18.2-21.7l-2.9,5.1
		c-9.7,11.7-18.7,22-26.9,31.7c-0.5,0.6-1.1,1.2-1.6,1.8c-0.1,0.2-0.3,0.4-0.5,0.6l-0.6,0.5c-0.5,0.3-0.7,0.5-1.1,0.7
		c-1.3,0.9-2.7,1.7-4.1,2.4c-2.8,1.4-5.6,2.6-8.5,3.5l-1.1,0.3c-0.4,0.1-0.9,0.2-1.3,0.3c-0.9,0.2-1.8,0.3-2.7,0.1
		c-1.8-0.3-3.3-1.4-4.6-2.6c-2.2-2.2-3.7-4.8-4.7-7.6c1.1,2.6,2.1,3.9,2.6,4.5c0.5,0.7,0.5,0.6,0.2,0.1c-0.6-1.1-2.5-4-3-7.8
		c0-0.9-0.1-2,0.2-2.9c0.2-0.8,0.4-1.6,0.6-2.4c0.3-1.5,0.7-2.8,0.9-3.7c0.5-1.7,0.7-1.8,0.2,1.9c0,0-0.2,1-0.5,2.5
		c-0.1,0.7-0.3,1.6-0.5,2.5c-0.1,1,0,2,0.2,3c0.4,2,1.3,3.9,2.1,5.2c0.8,1.3,1.5,2.1,1.5,2.1c1.3,1.4,1.8,1.5,1.4,1.1
		c-0.4-0.5-1.4-1.6-2.4-3.4c-0.9-1.7-2-4.1-2.1-6.6c0-0.6,0-1.2,0.2-1.8c0.1-0.6,0.3-1.3,0.4-1.9c0.3-1.2,0.5-2.4,0.8-3.5
		c1.1-6.2,2.4-13.1,3.7-20.4l0.3-1.4c0.1-0.5,0.1-0.9,0.3-1.3c0.4-0.8,0.8-1.7,1.2-2.5c0.9-1.7,1.8-3.4,2.7-5.1s1.9-3.4,2.9-5.1
		c0.5-0.8,1.1-1.7,1.6-2.5c0.6-0.8,1-1.7,1.8-2.2c6.2-5.1,12.6-10.4,18.9-15.7c1.6-1.3,3.3-2.5,5-3.6c1.7-1.1,3.5-2.1,5.3-2.8
		c0.4-0.2,0.9-0.1,1.4-0.1h1.6c1.1,0,2.1,0,3.2,0c2.1,0.1,4.1,0.2,6.1,0.3c1.1,0.1,2,0.1,3,0.1h1.4c0.5,0,0.9,0.1,1.4,0
		c0.2,0,0.3-0.1,0.3-0.2c0-0.1,0-0.2-0.1-0.3c-0.1-0.2-0.3-0.3-0.5-0.5l-1-1c-0.7-0.7-1.3-1.3-2-2c-1.4-1.3-2.8-2.7-4.2-4
		s-2.8-2.6-4.2-3.9c-5.3-4.9-10.3-9.5-14.7-13.6c-2.3-2-4.4-3.9-6.3-5.7c-2-1.7-3.8-3.4-5.4-4.8c-0.8-0.7-1.6-1.4-2.3-2
		c-0.2-0.1-0.3-0.3-0.5-0.4c-0.2-0.2-0.5-0.1-0.6,0.1c-0.2,0.4-0.2,0.9-0.3,1.3c-0.3,1.7-0.5,3.1-0.5,4.3c0.1-1.3,0.3-2.7,0.5-4.2
		c0-0.3,0.1-0.7,0.2-1.1c0-0.2,0.2-0.3,0.4-0.3c0.2,0,0.4,0.2,0.5,0.3c0.6,0.5,1.2,1.1,1.8,1.6c2.5,2.3,5.1,4.7,7.7,7.1
		c5.2,4.9,10.3,9.8,13.5,13c0,0-4.5-3.9-8.9-7.9c-2.2-2-4.4-3.9-6-5.4c-1.4-1.3-2.4-2.1-2.4-2.1c1.7,1.4,3.2,2.9,4.8,4.3
		c1.7,1.5,3.4,3.1,5.1,4.6c3.4,3.1,6.8,6.1,10.5,9.4c1.8,1.5,3.5,3.1,5.4,4.8c1.9,1.8,3.8,3.5,5.8,5.4c0.5,0.4,1,0.9,1.5,1.4
		c0.3,0.2,0.6,0.4,0.8,0.7c0.1,0.1,0.2,0.3,0.1,0.5c-0.1,0.1-0.3,0.2-0.5,0.2c-1.4-0.1-2.9-0.1-4.4-0.2c-3-0.1-6.3-0.4-9.6-0.4
		c1.1-0.2,0.6-0.4-0.2-0.6c-0.2-0.1-0.4-0.1-0.6-0.2c-0.2,0-0.2-0.1-0.4-0.1c-0.1,0-0.3-0.1-0.5-0.1c-0.4,0-0.8-0.2-1.1-0.1
		c-0.3,0-0.6,0.1-0.9,0.1c-1.1,0.2-1.8,0.2-0.4-0.6c0.4-0.2,0.8-0.4,1.5-0.6c0.4,0,0.8-0.1,1.2-0.1c0.1,0,0.2,0,0.3,0h0.1
		c0,0,0.1,0,0.2,0c0.5-0.1,1.8-0.3,3.1-0.3c0.9,0.1,1.8,0.1,2.6,0.1c0.4,0,0.8,0,1.2,0c0.2,0,0.4,0,0.6,0c0.1,0,0.4,0.1,0.5-0.1
		c0.1-0.2-0.2-0.4-0.3-0.5l-0.4-0.4c-0.3-0.3-0.6-0.5-0.9-0.8c-0.6-0.5-1.1-1-1.6-1.5c-0.9-0.9-1.8-1.8-2.7-2.6
		c-1.3-1.2-2.5-2.3-3.6-3.4c-5.6-5.4-9.8-9.6-14.2-14.1c-1.7-1.7-3.3-3.4-5.2-5.3c-0.5-0.5-1-1-1.5-1.5c-0.3-0.3-0.5-0.5-0.8-0.8
		c-0.2-0.1-0.3-0.3-0.5-0.3c-0.2,0-0.3,0.1-0.3,0.3c-0.3,1.3-0.6,2.7-0.8,4.4c-0.1,0.8-0.2,1.7-0.3,2.6c-0.1,1-0.2,2-0.3,3.1
		c0,0.3-0.1,0.7-0.1,1c-0.1,0.3-0.1,0.8-0.2,1.2c-0.2,0.8-0.4,1.5-0.7,2.2c-0.5,1.4-1.1,2.8-1.8,4.2c-1.3,2.8-2.9,5.7-4.9,8.8
		c-0.2,0.4-0.5,0.7-0.8,1.2c-0.1,0.2-0.3,0.4-0.5,0.6l-0.5,0.5c-0.7,0.7-1.3,1.3-2,2c-1.4,1.3-2.8,2.7-4.2,4.2
		c-4.4,4.2,10.5-8.9-14.4,15.7c-3.9,3.8-7.7,7.5-11.4,11.1c-1.9,1.8-3.6,3.5-5.4,5.2c-0.9,0.9-1.7,1.7-2.6,2.5l-0.7,0.7l-0.8,0.6
		c-0.5,0.3-1,0.7-1.5,1c-3.9,2.6-7.6,4.8-11.2,6.8c-0.9,0.5-1.8,1-2.7,1.4c-0.4,0.3-0.9,0.5-1.3,0.7c-0.5,0.2-0.9,0.4-1.4,0.5
		c-1.8,0.6-3.7,0.8-5.4,0.9s-3.3,0.1-4.9-0.1c-1.6-0.2-3.1-0.6-4.2-1.3c-1.1-0.7-2-1.7-2.2-2.8s-0.3-2.1-0.3-3
		c-0.1-3.7,0.4-5.6,0.8-5.6c-0.1,1.2-0.1,2.4,0,3.6c0.1,1.2,0.2,2.6,0.4,3.6c0.1,0.5,0.2,1.1,0.5,1.6s0.8,0.9,1.3,1.2
		c0.5,0.3,1.1,0.5,1.7,0.7c0.3,0.1,0.6,0.2,0.9,0.2s0.6,0.1,1,0.1c2.9,0.3,6.1,0.1,9-0.7c0.8-0.2,1.5-0.4,2.1-0.7
		c0.7-0.3,1.4-0.7,2.1-1.1c1.3-0.7,2.7-1.5,4-2.3c2.6-1.5,5.1-3.1,7.4-4.7c1.1-0.8,2.3-1.6,3.2-2.3c0.9-0.9,1.7-1.8,2.5-2.6
		c3.1-3.3,5.4-5.8,6.2-7c-1.7,1.6-3.5,3.4-5.4,5.2c-0.9,0.9-1.9,1.8-2.9,2.8l-0.7,0.7c-0.1,0.2-0.3,0.3-0.6,0.5
		c-0.6,0.4-1.1,0.8-1.7,1.2c-4.6,3.1-9.6,6.1-14.1,8.5c-0.9,0.6-2,0.8-3.1,1.1s-2.2,0.4-3.3,0.5c-2.1,0.1-4.2,0.1-5.5-0.2
		c-1.2-0.2-2-0.7-2.5-1.2c-0.4-0.5-0.5-0.9-0.5-1.1c-0.3-0.6-0.5-1.2-0.6-1.6c-0.1-0.5-0.2-0.9-0.3-1.1c-0.1-0.4-0.2,0.1-0.1,1
		c0.1,0.4,0.1,0.8,0.2,1.3c0.1,0.2,0.1,0.5,0.2,0.8s0.3,0.6,0.5,0.8c0.4,0.5,1,0.9,1.7,1.1c0.3,0.1,0.6,0.2,1,0.3
		c0.2,0,0.3,0.1,0.5,0.1c0.2,0.1,0.4,0.1,0.6,0.1c0.9,0.1,1.8,0.1,2.7,0.1c0.9-0.1,1.8-0.1,2.5-0.2c1.5-0.2,2.6-0.4,3.2-0.5
		c0.5-0.1,0.5,0-0.3,0.3s-2.6,0.8-5.6,1c-0.8,0.1-1.5,0.1-2.2,0c-0.3,0-0.7,0-1-0.1c-0.2-0.1-0.5-0.1-0.8-0.2
		c-1.1-0.3-2-0.8-2.7-1.5s-0.7-1.7-0.9-2.5c0-0.2-0.1-0.4-0.1-0.6c-0.1-0.2-0.1-0.5-0.1-0.7c0-0.5-0.1-0.9-0.1-1.4
		c-0.1-3.6,0.2-6.5,0.6-9.3c-0.3,2-0.4,2.3-0.5,1.6c-0.1-0.7-0.1-2.5,0.3-4.6c0.1-0.5,0.2-1.1,0.3-1.6s0.3-1.1,0.5-1.7
		c0.4-1.2,0.8-2.4,1.1-3.5c0.7-2.2,1.3-4.2,1.5-5.1c0.8-2.5,1.7-4.9,2.5-7.3c0.3-0.7,0.3-1.1,0.7-1.6c0.3-0.5,0.7-1,1-1.5
		c0.7-1,1.3-2,2-3c0.6-1,1.3-2,1.9-3c0.4-0.5,0.7-1,1-1.5s0.7-0.9,1-1.4c1.3-1.9,2.7-3.7,4.1-5.4c0.7-0.9,1.4-1.7,2.1-2.6
		c0.3-0.5,0.6-0.9,1-1.2l1.2-1.1c1.6-1.5,3.1-3,4.7-4.4c3.2-2.9,6.3-5.8,9.4-8.7c1.6-1.4,3.1-2.8,4.7-4.3c0.8-0.7,1.6-1.5,2.4-2.2
		l1.2-1.1c0.3-0.4,0.7-0.7,1.2-1c3.6-2.4,7.6-4.5,11.8-6.4c0.5-0.2,1.1-0.4,1.6-0.6l0.8-0.3c0.2,0,0.5,0,0.8,0c1.2,0,2.4,0,3.6,0
		c2.6,0,5,0.2,7.6,0.4c2.5,0.3,5.1,0.3,7.7,0.3c0.3,0,0.7,0.1,1,0c0.1,0,0.3-0.1,0.4-0.2c0.1-0.2,0-0.4-0.1-0.5
		c-0.5-0.5-1-0.9-1.5-1.4c-1-1-2-1.9-3.1-2.8c-1.1-0.8-2.8-2-4-2.9c-1.3-0.9-2.1-1.4-1.9-1c-1.9-1.7-3.9-3.5-5.9-5.3
		c-2.2-2-4.4-4-6.6-6c-2.1-2-4.3-4-6.3-5.9c-1-0.9-2-1.9-3-2.8c-0.5-0.5-1-1-1.5-1.4c-0.3-0.3-0.6-0.5-0.8-0.7s-0.5-0.6-0.8-0.4
		c-1.2,0.4-2.2,1-3.2,1.6s-1.9,1.2-2.8,1.8c-0.4,0.3-0.9,0.6-1.2,0.9c-0.5,0.2-0.5,0.7-0.7,1.1c-0.1,0.4-0.3,0.7-0.4,1.1
		c-0.1,0.3-0.2,0.7-0.3,0.9c-0.8,2-1.2,2.4-0.9,0.3c-0.1,0.4-0.2,0.8-0.3,1.2c0,0.3-0.1,0.6-0.2,0.8c-0.1,0.3-0.3,0.6-0.4,0.9
		c-0.2,0.3-0.3,0.6-0.5,0.9c-0.6,1.2-1.2,2.4-1.8,3.5c-0.6,1.1-1.2,2.2-1.7,3c-0.6,0.9-1.2,1.8-1.8,2.6c-2.4,3.3-4.4,5.9-6.3,8.4
		c-2,2.5-3.9,4.9-6.2,7.6c-0.2,0.3-0.5,0.6-0.8,0.9s-0.7,0.6-1,0.9c-0.8,0.6-1.6,1.3-2.4,2c-1.7,1.4-3.6,2.9-5.7,4.7
		c3.2-3,5.6-5.1,7.2-6.6c0.4-0.4,0.8-0.7,1.1-1c0.1-0.1,0.2-0.2,0.3-0.3c0.1-0.1,0.1-0.2,0.2-0.3c0.4-0.5,0.7-0.8,0.8-1
		c0.3-0.4,0.1-0.2-0.4,0.4c-0.1,0.2-0.2,0.3-0.4,0.5c-0.1,0.1-0.2,0.3-0.4,0.4c-0.5,0.4-1.1,0.9-1.7,1.4c-5,4.3-13.7,11.8-15.5,12.5
		c-4.3,3.6-6.8,5.8-8.2,7.1c-0.6,0.5-1.1,0.9-1.4,1.2c-0.3,0.2-0.4,0.4-0.5,0.5c-0.2,0.4,0.8,0.1-3.3,3.1c-1.6,1-4.3,2.6-6.7,3.9
		c-2.4,1.2-4.6,2.2-4.8,2.1c-2.8,1.6-2.9,1.9-1.3,1.5c0.4-0.1,0.9-0.2,1.4-0.4s1-0.4,1.7-0.7c1.3-0.5,2.8-1.2,4.2-1.9
		c2.9-1.4,5.6-2.8,6.9-3.3s1.1,0-2.2,2.5c-1.1,0.8-2.8,2-4.8,3.3c-1.1,0.7-2.2,1.4-3.4,2.1s-2.6,1.3-4,2c-5.7,2.6-12.8,5-20.1,5.3
		h-1.3h-0.7h-0.8c-1.1,0-2.2,0-3.2,0h-0.8h-0.4c-0.2-0.1-0.2-0.2-0.3-0.3c-0.3-0.4-0.6-0.8-0.9-1.2c-0.6-0.8-1.1-1.7-1.5-2.6
		c-0.2-0.5-0.4-0.9-0.6-1.4c0-0.2-0.1-0.5-0.2-0.7l-0.2-0.6c-0.3-0.8-0.5-1.6-0.6-2.4c-0.3-1.5-0.4-3.1-0.4-4.5c0-0.7,0-1.4,0.1-2.1
		s0.3-1.5,0.4-2.2c0-0.2,0.1-0.3,0.1-0.5c0.1-0.1,0.2-0.3,0.3-0.4c0.1-0.3,0.3-0.5,0.5-0.8c0.3-0.4,0.6-0.8,0.8-1.2
		c0.9-1.4,1.6-2.3,1.8-2.7c3.5-4.1,5.7-4.9,6-2.9c0.2,1-0.2,2.7-1,5c-0.4,1.1-1,2.4-1.7,3.9c-0.1,0.3-0.3,0.7-0.5,1.1
		c-0.1,0.2-0.1,0.4-0.2,0.6c0,0.2,0,0.4,0,0.6v0.1v0.1v0.1c0,0.2,0,0.4,0,0.6c0.1-0.1,0.2-0.2,0.2-0.4c0-0.1,0.1-0.2,0.1-0.3
		c0.1-0.1,0.1-0.1,0.1-0.2s0.1-0.2,0.1-0.4c0.1-0.2,0.2-0.3,0.3-0.5c1.3-1.8,2.8-4.3,4.5-7c3.4-5.4,7.2-11.7,10-15.8
		c1-1.5,1.9-3,2.8-4.4c0.5-0.7,1-1.4,1.4-2.1c0.3-0.3,0.5-0.7,0.7-1c0.2-0.2,0.3-0.3,0.5-0.6c2.1-2.3,4.2-4.5,6.2-6.5
		c2-2.1,4-3.9,6-5.7l0.7-0.6l0.3-0.2c0.1-0.1,0.1-0.2,0.2-0.2c0.6-0.4,1.1-0.7,1.6-1c1.1-0.7,2.2-1.3,3.3-2c4.4-2.7,8.7-5.3,13.1-8
		c1.1-0.7,2.2-1.4,3.3-2.1l0.8-0.5l0.8-0.5c0.6-0.4,1.1-0.7,1.7-1c1.1-0.7,2.3-1.3,3.5-1.9c1.2-0.6,2.5-1.2,3.6-1.7
		c0,0-0.2,0.1-0.6,0.2c-0.4,0.2-1,0.4-1.7,0.7c-1.5,0.7-3.5,1.6-5.4,2.6c-0.4,0.3-0.9,0.5-1.4,0.8c-0.3,0.2-0.5,0.3-0.7,0.4
		c-0.2,0.1-0.5,0.3-0.7,0.4c-0.9,0.6-1.8,1.1-2.5,1.5c-1.4,0.9-2.4,1.5-2.4,1.5c0.4-0.3,1.2-0.9,2.3-1.6c0.6-0.4,1.2-0.8,1.9-1.3
		c0.4-0.2,0.7-0.4,1.1-0.7c0.2-0.1,0.3-0.2,0.5-0.3c0.2-0.2,0.4-0.3,0.6-0.4c1.6-1,3.5-2,5.5-3c1-0.4,2-0.9,3-1.3
		c0.4-0.2,0.6-0.3,1-0.3h1.5c1.3,0,2.5,0,3.7,0h0.9h1.2c0.8,0,1.6,0.1,2.4,0.1c3.2,0.1,6.2,0.2,9,0.3c0.7,0.1,1.3,0.1,2,0.1
		c0.4,0,0.6-0.1,0.8-0.1c0.2-0.1,0.4-0.2,0.6-0.2c0.8-0.2,1.6-0.4,2.3-0.6c1.6-1,2.6-1.9,3.2-2.5c0-0.2-0.9,0.6-2.5,1.6
		c-0.2,0.1-0.4,0.3-0.6,0.4s-0.5,0.3-0.7,0.3c-0.5,0-0.9,0.1-1.4,0.1s-0.9,0.1-1.4,0.1c-0.2,0-0.5,0-0.7,0s-0.3,0-0.4,0l-0.4-0.1
		c-4.7-0.6-7-1.2-1.2-1.2c1.4,0,2.6-0.1,3.9-0.2c0.6-0.3,1.1-0.8,1.7-1.2c0.6-0.5,1.1-0.9,1.6-1.4c0.2-0.2,0.4-0.5,0.6-0.8
		c0.1-0.2,0.2-0.3,0.2-0.5s-0.2-0.3-0.3-0.4l-1.3-1.3c-0.9-0.8-1.7-1.7-2.7-2.6c-1-0.9-2.3-1.9-3.4-2.8c-1.2-1-2.3-1.9-3.5-2.8
		c-1.1-0.8-2.2-1.7-3.3-2.5c-1-0.7-2-1.5-3-2.2c-3.9-3-7.7-5.8-11.2-8.5c-1.8-1.3-3.5-2.6-5.1-3.9c-1-0.7-1.9-1.4-2.8-2.1
		c-1-0.8-2.1-1.6-3.1-2l-0.4-0.2c-0.1,0-0.3,0-0.4,0c-0.3,0-0.5,0.1-0.8,0.2c-0.5,0.2-1,0.4-1.5,0.7c-1,0.5-2,1.2-2.9,1.9
		c-0.4,0.3-0.8,0.6-1.2,0.9c-0.4,0.3-0.9,0.6-1.3,1c-0.4,0.3-0.7,0.8-0.9,1.3c-0.3,0.4-0.5,0.9-0.7,1.3c-0.7,1.3-1.3,2.6-1.9,3.8
		c-0.3,0.6-0.5,1.2-0.8,1.7s-0.6,1.2-0.7,1.3c-0.3,0.3-0.5,0.6-0.7,0.9c-0.2,0.3-0.5,0.6-0.7,0.9c-0.5,0.5-0.9,1-1.2,1.3
		c-0.6,0.7-1,0.8-0.9,0.5c0.7-1,1.5-2.1,2.1-3.1l0.4-0.7l0.1-0.2c0-0.1,0-0.1,0.1-0.3l0.8-1.9l1.6-3.8l1.1-2.5
		c0.1-0.2,0.3-0.5,0.4-0.7c0.1-0.1,0.1-0.3,0.3-0.3l0.3-0.3c0.3-0.4,0.8-0.8,1.2-1.1l2.3-1.8c0.8-0.7,1.7-1.3,2.6-1.8
		c0.9-0.6,1.8-0.9,2.7-1.1c0.5-0.1,0.9,0.1,1.3,0.2c0.4,0.2,0.9,0.4,1.3,0.6c0.9,0.5,1.7,1.2,2.6,1.8l2.2,1.6l3.3,2.4l12.6,9.7
		l3.3,2.5l4.1,3.1c1.6,1.2,3.2,2.5,4.7,3.7l2.2,1.8c0.8,0.6,1.3,1.2,1.7,1.8c0.2,0.1,0.3,0.1,0.2-0.1c-0.1-0.1-0.3-0.5-0.7-1
		c-0.4-0.5-1.2-1.1-2.1-1.9s-2-1.7-3.2-2.7c-1.2-1-2.6-2.1-4.1-3.3c-0.6-0.5-1.2-0.9-1.8-1.4c-0.5-0.4-1.1-0.8-1.6-1.2
		c-2.2-1.6-4.5-3.3-6.8-5.1c-2.3-1.7-4.7-3.5-6.8-5.1c-2.2-1.7-4.1-3.1-5.8-4.5c-1.3-1-2.6-2-3.7-2.8c-0.6-0.4-1.1-0.6-1.6-0.8
		c-0.4-0.1-0.8-0.3-1.2-0.3c-0.4-0.1-0.7,0-1,0c-0.3,0.1-0.5,0.1-0.7,0.1c-0.3,0-0.3,0-0.1-0.2c0,0-0.3,0.1-1,0.4s-1.6,0.8-2.8,1.7
		c-0.6,0.5-1.2,1-1.9,1.5c-0.6,0.5-1.2,1-1.9,1.5c-0.4,0.3-0.8,0.7-1.1,1.1c-0.1,0.1-0.1,0.3-0.3,0.3l-0.2,0.3
		c-0.2,0.2-0.3,0.4-0.4,0.7c-0.2,0.5-0.5,1.1-0.7,1.6c-0.1,0.3-0.3,0.6-0.4,1c-0.5,1.3-1.1,2.8-1.7,4.3c-0.2,0.4-0.3,0.8-0.5,1.2
		l-0.2,0.5l-0.1,0.1c-0.2,0.4-0.7,1.1-1.1,1.8c-0.9,1.4-1.9,2.8-2.9,4.2l-0.8,1l-0.4,0.5l-0.3,0.4c-0.4,0.4-1.1,1.1-1.7,1.7
		c-2.6,2.5-5.4,5-8,7.3c-2.7,2.3-5.2,4.4-7.2,5.9c-2.3,1.6-4.2,3-5.5,3.9c-1.3,1-2.1,1.5-2.1,1.5c1.5-1.1,3.9-2.7,6.4-4.4
		c0.7-0.4,1.3-0.9,1.9-1.3c0.6-0.4,1.2-0.8,1.8-1.3c1.3-0.9,2.4-1.9,3.5-2.7c4.3-3.5,7-5.7,3.8-2.5c-2.4,2.1-4.4,3.8-6,5.1
		c-1.7,1.4-2.9,2.3-4,3.1c-2.2,1.6-3.3,2.4-4.2,3.1c-1.8,1.3-2.6,2.2-9.7,7.1c3.2-1.8,6.7-3.9,10.4-6.2c1.8-1.2,3.7-2.4,5.6-3.6
		c1.8-1.2,3.7-2.6,5.6-4c3.8-2.8,7.7-5.9,11.4-9.1c0.4-0.4,0.8-0.8,1.2-1.2c0.4-0.5,0.8-0.9,1.2-1.4c0.8-1,1.5-1.9,2.3-2.9
		s1.5-2,2.2-3c0.4-0.5,0.7-0.9,0.9-1.5l0.8-1.7c0.5-1.1,1.1-2.2,1.6-3.3c0.2-0.6,0.5-1.2,0.8-1.7l0.4-0.8c0.1-0.2,0.2-0.5,0.5-0.7
		c2-1.4,3.9-2.8,5.8-3.7c0.1,0,0.3-0.1,0.4-0.1c0.1,0.1,0.2,0.2,0.3,0.3l0.7,0.5c0.5,0.3,0.9,0.7,1.3,1c0.9,0.7,1.7,1.4,2.5,2.1
		c1.7,1.4,3.4,2.8,5,4.1c3.2,2.7,6.2,5.1,8.8,7.3c1.3,1.1,2.6,2.2,3.7,3.1c0.6,0.5,1.1,1,1.6,1.4c0.5,0.4,1,0.9,1.2,1.1l-1.3-1
		l-1.5-1.2l-3.1-2.3L208,196l-6.2-4.7l-5.5-4.2c0,0-0.3-0.2-0.7-0.4c-0.1-0.1-0.2-0.1-0.3-0.2c-0.1,0-0.3,0.1-0.4,0.2
		c-0.3,0.1-0.5,0.4-0.8,0.6c-0.5,0.5-1,1-1.3,1.3c-0.2,0.1-0.3,0.2-0.5,0.4c-0.1,0.1-0.2,0.2-0.2,0.2c-0.4,0.3-0.7,0.5-1,0.8
		l-0.6,1.1c-0.5,1.1-1,2.3-1.5,3.4c-0.5,1.2-1,2.3-1.5,3.5c-0.4,0.8-0.7,1.3-1.1,1.9c-0.4,0.6-0.7,1.1-1.1,1.6
		c-1.4,2.1-2.9,4-4.6,5.9c-1,1-1.9,1.8-2.8,2.6s-1.8,1.6-2.7,2.3c-3.6,3-7.2,5.7-10.8,8.2c-1.8,1.2-3.6,2.3-5.4,3.4
		s-3.5,2.1-5.2,3.1c-13.6,7.8-24.5,12.4-29.4,14.3c-5,2.7-8.4,4.3-10.5,5.3s-2.9,1.6-2.9,1.9c0,0.7,3.5,0.3,6.1-0.6
		c-5.2,2.1-10.1,3.6-14.5,3.4c-1.1-0.1-2.2-0.1-3.2-0.1c-0.2-0.1-0.5,0-0.7-0.1l-0.7-0.2c-0.5-0.2-0.9-0.3-1.4-0.5
		c-0.9-0.3-1.8-0.7-2.7-1c-0.9-0.4-1.6-0.7-2.3-1s-1.4-0.6-2-1c-0.3-0.2-0.6-0.3-0.7-0.7c-0.1-0.4-0.1-0.7-0.1-1.1
		c0.1-1.4,0.6-2.7,1.1-3.8c0.1-0.3,0.2-0.5,0.4-0.8c0.2-0.3,0.3-0.6,0.5-0.9c0.3-0.6,0.7-1.2,1.1-1.7c0.4-0.6,0.8-1.1,1.2-1.5
		l1.5-1.5c8.2-8,16.3-16.1,31.6-33.4L115,215.3c1.8-2,4.9-5.3,8.3-9.2c0.9-1,1.8-2,2.7-3l0.7-0.8c0.2-0.2,0.3-0.3,0.4-0.4
		c0.5-0.4,1-0.7,1.5-1.1c1.1-0.9,2.2-1.7,3.3-2.5s2.2-1.6,3.2-2.3c2.2-1.3,4.4-2.6,6.3-3.7c1-0.6,1.9-1.1,2.8-1.6
		c0.3-0.1,1.4-0.5,2.1-0.8c3.1-1.1,4.7-1.7,3.7-1.2c4.2-1.9,8.1-4,9.8-5.1c1.6-1,1.2-1.4-3.7,0.3c0,0,0.6-0.2,1.7-0.6
		c0.5-0.1,1.2-0.4,1.9-0.6c0.6-0.2,1.5-0.5,2.4-0.7c1.8-0.4,3.9-0.9,6.2-1.2c0.4,0,0.7-0.1,1.1-0.1c0.4,0,0.9,0,1.3,0
		c0.9,0.1,1.9,0.2,2.9,0.3c1,0.2,2,0.4,3,0.6c0.9,0.2,1.7,0.2,2.5,0.3c3.1,0.1,5.2,0.1,7.1,0.2c0.5,0.1,1,0,1.5-0.3
		c0.5-0.2,1-0.6,1.4-1c0.4-0.5,0.8-0.9,1-1.5c0-0.2,0-0.3,0-0.4l-0.2-0.3c-0.2-0.2-0.3-0.3-0.4-0.5c-2-2.5-3.1-4.3-3.1-4.3
		c1.4,2.1,1.1,2.3,0.5,2.3c-0.6-0.1-1.5-0.4-0.8,0.4c-1.5-1.3-2.9-2.5-4.1-3.7l-0.5-0.4c-0.1-0.2-0.3-0.3-0.5-0.5
		c-0.4-0.4-0.8-0.7-1.2-1c-0.8-0.7-1.6-1.3-2.3-1.9c-2.9-2.4-5.8-4.9-6.8-6c-2.6-2.7-2.4-3.3,1.8-0.3c-6.5-4.6-11.1-7.7-14.5-10.1
		c-0.8-0.6-1.6-1.2-2.3-1.7l-0.3-0.2l-0.4-0.2c-0.2-0.1-0.5-0.3-0.7-0.4c-0.4-0.3-0.9-0.5-1.3-0.8c-1.7-1.1-3.2-2-4.6-2.9
		c-0.1-0.1-0.3-0.3-0.5-0.3s-0.4,0-0.6,0.1c-0.4,0.1-0.7,0.4-1,0.6c-0.6,0.4-1.1,1-1.7,1.7c-1.1,1.4-2.1,3.1-3.2,5.1
		c-0.8,1.6-1.7,3.3-2.7,5.5c-0.3,0.7-0.3,0.9-0.7,1.4c-0.3,0.5-0.7,1.1-1.1,1.6c-0.8,1.1-1.7,2.2-2.7,3.5c-3.2,3.5-3.4,2.9-2.2,1
		c0.6-1,1.5-2.3,2.5-3.8c0.5-0.7,1-1.5,1.5-2.2c0.2-0.3,0.5-0.7,0.7-1c0.2-0.3,0.3-0.4,0.4-0.7c-0.1,0.3-0.2,0.3-0.3,0.5l-0.5,0.7
		c-0.4,0.5-0.8,0.9-1.2,1.4c-0.8,0.9-1.6,1.8-2.4,2.7c-1.6,1.7-3.1,3.3-4.6,4.8l-0.6,0.5l-0.2,0.2l-0.1,0.1
		c-0.4,0.3-0.7,0.5-1.1,0.8c-0.8,0.6-1.6,1.2-2.4,1.8c-1.6,1.1-3.1,2.2-4.5,3.3c-2.9,2.1-5.4,4-7.8,5.8c-1.2,0.9-2.3,1.8-3.4,2.6
		c-0.5,0.4-1.1,0.8-1.6,1.2c-0.3,0.2-0.5,0.3-0.7,0.5c-0.1,0-0.1,0-0.2,0.1l-0.4,0.2c0.2-0.1,0.4-0.2,0.6-0.3c0.1,0,0.1-0.1,0.2-0.1
		l0.3-0.2c0.5-0.3,0.9-0.6,1.3-0.9c0.8-0.6,1.6-1.1,2.3-1.6c1.5-1,2.8-1.9,3.9-2.6c2.2-1.5,3.9-2.5,5.1-3.1c2.4-1.2,3-1,2.8-0.2
		c-0.3,1.5-3.5,5.3-0.4,3.8l-8.1,5.1l-4,2.6l-1,0.7l-1.1,0.6l-2.2,1c-2.9,1.3-5.8,2.6-8.7,3.9c-3,1.3-5.9,2.5-8.9,3.5
		c-6,2-12.2,3.6-18.3,4.6c-3,0.5-6.1,0.9-9.1,0.9c-0.7,0-1.5,0-2.2,0l-1.1-0.1l-1.2-0.1l-1.2-0.1h-0.6h-0.3H53
		c-0.2,0-0.4-0.1-0.6-0.2l-1.1-0.3c0.3,0.1,0.6,0.2,1,0.4c0.3,0.2,0.4,0.3,0.7,0.4c0.1,0.1,0.4,0.1,0.6,0.2l0.7,0.2
		c0.5,0.2,1,0.3,1.4,0.4c1.8,0.5,3.1,0.9,2.9,1c-0.4-0.1-1-0.1-2-0.2c-0.5,0-1.1-0.1-1.7-0.1s-1.3-0.1-2-0.1c-0.3,0-0.5-0.1-0.9-0.2
		c-0.4-0.1-0.8-0.2-1.2-0.3c-0.9-0.3-1.8-0.5-2.7-0.8c-0.7-0.2-1.4-0.4-2.1-0.7c-0.3-0.1-0.7-0.3-1-0.5c-0.3-0.3-0.3-0.7-0.4-1.1
		c0-0.8,0-1.6,0.1-2.5c0.1-0.3,0.2-1.1,0.3-1.6c0.2-0.6,0.3-1.1,0.5-1.7l0.1-0.4l0.1-0.3c0.1-0.2,0.2-0.3,0.4-0.6
		c0.4-0.5,0.8-1.1,1.2-1.6c0.9-1.1,1.8-2.3,2.8-3.4c2-2.2,4.1-4.6,6.4-7c1.2-1.2,2.3-2.4,3.5-3.6c0.6-0.6,1.2-1.2,1.8-1.8l0.4-0.5
		c0.1-0.1,0.2-0.2,0.3-0.3l0.9-0.7c1.4-1.1,2.8-2.1,4.2-3.2c0.7-0.5,1.4-1.1,2.1-1.6l0.5-0.4c0.2-0.2,0.3-0.2,0.4-0.3l1.1-0.7
		c3.1-1.9,6.3-3.7,9.4-5.6c3.1-1.8,6.3-3.7,9.4-5.6c1.6-0.9,3.1-1.9,4.7-2.8c0.8-0.5,1.5-0.9,2.3-1.4l1-0.6l1-0.4
		c3.2-1.3,6.5-2.4,9.7-3.3c1.6-0.4,3.2-0.9,4.7-1.2s3-0.5,4.6-0.7s3.2-0.4,4.7-0.5c0.9,0,1.9-0.1,2.8-0.2c0.5,0,1-0.1,1.6-0.1
		c0.6,0,1.2,0,1.8,0.1s1.3,0.2,1.9,0.3c0.7,0,1.3,0,1.7,0c0.9-0.1,1.7-0.2,2.4-0.3c1.3-0.2,2.4-0.2,3.4-0.2c0,0-1.2,0-2.6,0.1
		c-0.7,0-1.5,0.1-2.2,0.2c-0.6,0.1-1.2,0.1-1.2,0.1c-0.8,0-1.5-0.1-1.9-0.2c-0.4,0-0.4-0.1-0.3-0.1s0.5,0,1.1,0
		c0.5-0.1,1.1-0.1,1.8-0.2c0.7,0,1.4-0.2,2.1-0.2s1.4,0,2.2,0c0.2,0,0.4,0,0.6,0s0.4,0.1,0.7-0.1c0.4-0.3,0.9-0.7,1.4-1.1
		s0.9-0.8,1.3-1.4c0.1-0.1,0.1-0.2,0.2-0.4c0-0.2,0.1-0.4,0-0.5c-0.1-0.2-0.3-0.4-0.4-0.6c-0.6-0.9-1.2-1.8-2-2.8
		c-0.4-0.5-0.9-1-1.4-1.6s-1.2-1.2-1.9-1.8c-1.4-1.1-2.7-2.4-4.1-3.6c-1.2-1.2-2.5-2.3-3.7-3.4c-4-3.7-7.7-7.2-10.4-9.8
		c1.6,1.9,4.3,4.2,9,8.5c-2.7-2.2-5.2-4.4-7.4-6.4c-1.2-1.1-2.2-2-3.2-3c-1.1-1.1-2.2-2.2-3.2-3.2c-1.2-1.2-2.4-2.6-3.6-3.4
		c-0.3-0.2-0.6-0.3-0.9-0.5l-0.4-0.2h-0.1h-0.1l-0.2,0.1c-0.6,0.3-1.2,0.6-1.8,1c-1.2,0.8-2.4,2-3.6,3c-0.9,0.9-1.9,1.8-2.9,2.7
		c-1.8,1.6-3.5,3.2-5.2,4.9c-0.8,0.8-1.7,1.7-2.6,2.6l-0.7,0.7c-0.2,0.1-0.3,0.2-0.5,0.4c-0.3,0.3-0.8,0.6-1.3,1
		c-1.9,1.4-4.3,2.9-6.8,4.5c-1.3,0.8-2.6,1.6-4,2.4s-2.7,1.5-4.4,2.3c1.5-0.7,2.7-1.2,4-1.9c1.3-0.7,2.5-1.4,3.6-2
		c2.2-1.3,4.1-2.5,5.8-3.6c0.8-0.6,1.5-1.1,2.2-1.6c0.6-0.5,1.2-1,1.5-1.3c1.1-1.2,2-2.1,2.8-2.9c3.1-3.1,4-3.6,3.8-2.9
		c-0.9,0.9-1.9,2-3,3.1c-1.1,1.1-2.2,2.3-3.3,3.5c-1,0.9-2.5,1.9-3.9,2.9c-1.5,1-3,2-4.6,2.9c-1.6,1-3.3,1.9-4.9,2.7
		c-0.9,0.5-1.6,0.8-2.5,1.2c-0.9,0.4-1.7,0.7-2.6,1.1c-3.5,1.5-7,2.9-10.2,4.2c-6.4,2.5-12,4.5-15.4,5.5s-4.6,1-2.3-0.2
		c-3.2,1.2-6.4,2.2-9.1,2.9c-0.7,0.2-1.3,0.3-1.9,0.4c-0.7,0.1-0.9,0.1-1.7,0.1c-1.2,0-2.3,0-3.3,0c-0.3,0-0.5,0-0.8,0
		c-0.2,0-0.5,0.1-0.7-0.1c-0.4-0.3-0.7-0.6-0.9-0.8c-0.4-0.4-0.7-0.7-0.8-0.4c-0.3-0.6-0.4-1.3-0.4-1.9c0-0.7,0.1-1.4,0.4-2.1
		c0.3-0.6,0.7-1.3,1.2-1.8c0.1-0.1,0.3-0.3,0.4-0.4c0.2-0.1,0.2-0.2,0.5-0.4l1.3-1l10.4-8.2l20.9-16.5c-1.6,1.2-3.1,2.2-2.8,1.7
		c0.2-0.3,0.9-0.9,2.2-2.1c0.9-0.8,0.9-1.1,1.9-1.4c1.3-0.5,2.8-1.1,4.6-1.8c-1.6,0.7-3.3,1.3-5,2l-0.4,0.1c-0.1,0-0.2,0.1-0.3,0.2
		l-0.9,0.7c-0.7,0.5-1.4,1.1-2.1,1.7c-2.9,2.3-5.7,4.6-8.5,6.8c-5.5,4.4-10.9,8.7-16,12.7c-1.2,1-2.5,2-3.7,3
		c-0.6,0.4-1.2,0.9-1.8,1.4l-0.4,0.3c-0.1,0.1-0.2,0.2-0.3,0.3c-0.2,0.2-0.4,0.4-0.6,0.6c-1.4,1.7-1.7,4-1.2,5.6
		c0.3,0.9,0.7,1.6,1.3,2.2c0.1,0.1,0.2,0.3,0.4,0.4c0.2,0.2,0.4,0.2,0.6,0.2c0.4,0,0.8,0,1.2,0c0.5,0,0.9,0,1.3,0c0.5,0,1.1,0,1.6,0
		c0.6,0,1.1-0.1,1.6-0.1c0.3,0,0.7-0.1,1.1-0.2c0.2,0.2-0.2,0.5-0.8,0.8c-0.2,0.1-0.6,0.2-1,0.3c-0.3,0.1-0.7,0.2-0.9,0.3
		c-0.4,0.2-0.5,0.4,0.5,0.6c0.5,0.1,1.2,0.3,2.2,0.3c1.1,0,2.4-0.2,4.2-0.5c-1.7,0.4-3.5,0.8-5.2,0.8c-1.7-0.1-3.5-0.1-5.1-0.2
		c-0.4,0-0.8-0.1-1.2-0.1c-0.2,0-0.4-0.1-0.6-0.1c-0.1,0-0.4,0-0.5-0.2c-0.6-0.5-1.1-1.1-1.5-1.8c-0.8-1.3-1.2-2.9-1.2-4.4
		c0-1.6,0.5-3.1,1.3-4.3c0.4-0.6,0.9-1.2,1.4-1.7c0.6-0.4,1.2-0.9,1.8-1.4c2.4-1.9,4.7-3.7,7-5.5c9.1-7.1,17.4-13.5,25.2-19.5
		c0.4-0.3,0.7-0.6,1.2-0.7s1.1-0.3,1.6-0.5c1.1-0.4,2.2-0.9,3.4-1.2s2.3-0.7,3.4-1.1c0.5-0.2,1.1-0.4,1.5-0.5l1.6-0.4
		c2.3-0.5,4.5-1.1,6.7-1.6l1.6-0.4c0.4-0.1,0.9-0.1,1.4-0.2c1-0.2,2-0.2,3.1-0.3c3.2-0.2,6.4-0.3,9.9-0.2c1.6-0.1,2.8-0.4,3.9-0.7
		l2.7-0.9c0.2-0.1,0.4-0.1,0.6-0.3c0.1-0.1,0.2-0.3,0.2-0.4c0-0.1,0-0.2,0-0.3l-0.4-1.2c-0.3-0.9-0.6-1.8-1.1-2.9
		c-0.3-0.6-0.6-1.2-1.1-1.8c-0.4-0.6-1-1.3-1.6-1.9c-1.1-1.3-2.3-2.6-3.4-3.9l-3.1-3.4l-1.6-1.8c-0.5-0.6-1.1-1.2-1.7-1.6
		c-0.6-0.5-1.2-0.9-1.9-0.8c-0.7,0-1.5,0.1-2.3,0.3l-2.3,0.7l-1.9,0.6l-6,1.9l-0.6,0.2c-0.1,0-0.3,0.1-0.5,0.1
		C72.9,90,72.5,90,72,90.1c-1,0.1-2,0.2-3,0.3c-4,0.3-8.2,0.4-12.2,0.2c-1,0-2.1-0.1-2.5-0.2l-2.7-1l-5.9-2.2l-1.8-1.3l-8.7-2
		c-1.4-0.7-2.7-1.3-3.9-1.8c-0.3-0.2-0.5-0.3-0.8-0.4c-0.2-0.1-0.4-0.2-0.5-0.3c-0.4-0.3-0.8-0.6-1.2-0.9c-1.6-1.1-2.7-1.9-3.3-2.2
		c-1-0.5,0.2,0.5,2.2,2c-1.1-0.7-2.2-1.4-3.2-2.1c-0.5-0.3-1-0.7-1.5-1c-0.2-0.2-0.5-0.3-0.7-0.5L22,76.5l-0.2-0.2
		c-0.2-0.1-0.2-0.3-0.4-0.4c-0.1-0.1-0.3-0.3-0.5-0.5c-0.4-0.3-0.7-0.7-1-1c-0.6-0.7-1.2-1.2-1.6-1.7c-0.9-0.4,0.1,1,2.1,3.5
		c0.1,0.2,0.3,0.3,0.4,0.5c0.1,0.1,0.2,0.3,0.3,0.4c0.3,0.2,0.6,0.5,1,0.8c0.7,0.6,1.5,1.2,2.4,1.9c0.9,0.6,1.8,1.3,2.7,2
		c0.5,0.4,0.9,0.7,1.4,1.1l0.7,0.5c0.3,0.2,0.5,0.3,0.8,0.4c4.4,1.4,8.8,2.9,13.3,4.4c9,4.2,15.5,7.4,2.4,2.8
		c-1.8-0.7-4.1-1.7-6.5-2.8c5.7,2.7,9.2,4.5,4.8,3c0,0-2.2-0.9-5.6-2.3c-1.6-0.6-3.6-1.4-5.7-2.3c-1-0.4-2.1-0.9-3.2-1.3
		c-0.3-0.1-0.6-0.2-0.9-0.4l-0.8-0.5l-1.5-1c-2-1.3-4-2.7-5.9-4c-0.6-0.3-1-0.8-1.4-1.2s-0.7-0.7-1.1-1.1c-0.8-0.8-1.5-1.5-2.1-2.1
		c-2.6-2.7-4.4-4.4-4.4-4.4c0.9,0.7,1.8,1.6,2.9,2.5c1,0.9,2.1,1.9,3.3,2.9c0.5,0.5,1.2,1.1,1.8,1.6c0.3,0.2,0.6,0.6,1,0.8
		c0.3,0.2,0.7,0.5,1.1,0.7c1.5,0.9,3.1,1.8,4.8,2.8c-1.2-0.8-2.4-1.7-3.7-2.6c-0.6-0.4-1.2-0.9-1.8-1.3c-0.5-0.5-1.1-1.1-1.6-1.6
		c-2.1-2.1-4.1-4.3-6.1-6.3c-0.5-0.4-0.6-1-0.9-1.6c-0.3-0.7-0.5-1.3-0.8-1.9c-0.5-1.2-1-2.4-1.5-3.5c-0.2-0.3-0.3-0.5-0.4-0.8
		c-0.1-0.3-0.3-0.7-0.4-0.9c-0.2-0.5-0.5-1-0.7-1.5c-0.4-1-0.9-1.9-1.2-2.7c-1.1-2.7-1.2-4.1-0.9-4c0.2,0,0.4,0.5,0.8,1.2
		c0.5,0.9,1.3,2.1,2.3,3.9c0,0-0.2-0.4-0.6-1.1c-0.2-0.3-0.4-0.7-0.6-1.1c-0.1-0.3-0.3-0.7-0.5-1s-0.4-0.7-0.6-1.2
		c-0.1-0.2-0.2-0.4-0.2-0.7c-0.1-0.3,0.1-0.5,0.3-0.7c0.4-0.3,0.8-0.7,1.3-1L9.2,51l0.8-0.5c1.5-0.9,3-1.7,4.5-2.4
		c0.4-0.2,0.7-0.3,1.1-0.5c0.2-0.1,0.6-0.2,0.9-0.3c0.7-0.2,1.4-0.4,2-0.5c1.3-0.2,2.3-0.3,3.1-0.4c0.8-0.1,1.2-0.1,1.2-0.1
		c1.1,0,2.1,0.1,3.1,0.1c0.2,0.1,0.3,0.1,0.5,0.1c0.3,0,0.5,0.1,0.7,0.1c0.5,0,1,0.1,1.4,0.2c1.8,0.4,3.4,0.7,5,1.1
		c1.5,0.3,3,0.7,4.3,1c0.6,0.2,1.3,0.3,1.9,0.5c0.3,0,0.6,0.1,0.9,0.2c0.3,0.1,0.3,0.1,0.6,0.2c4.6,1.8,8.2,3.1,12,4.5
		c0.6,0.3,0.6,0.2,1.1,0.5c0.4,0.3,0.9,0.5,1.3,0.7c0.9,0.4,1.8,0.9,2.8,1.5c1.9,1.1,4.1,2.4,6.4,4c1.2,0.8,2.5,1.7,3.7,2.7
		c0.6,0.5,1.1,0.9,1.8,1.6c0.7,0.6,1.4,1.2,2.1,1.9c2.9,2.7,6.2,5.7,10.1,9.3c2.1,1.2-6.1-6.5-0.2-1.8c3.1,2.9,6.3,6,9.7,9l0.6,0.6
		c0.1,0.1,0.2,0.2,0.3,0.3l1.1,1.3c0.8,0.8,1.5,1.7,2.3,2.6c1.5,1.8,3.1,3.5,4.6,5.3c1,1.1,2.1,2.3,3.1,3.5c1.1,1.1,2.1,2.3,3.2,3.4
		c1.1,1.1,2.2,2.2,3.2,3.3c0.6,0.5,1.1,1.1,1.6,1.6l0.2,0.2c0.1,0.1,0,0,0.3,0.3c0.1,0.1,0.3,0.2,0.4,0.3c0.2,0.1,0.5,0.2,0.7,0.3
		c0.4,0.2,1.3,0.3,1.8,0.2c0.7-0.1,1-0.3,1.4-0.6c0.1-0.1,0.2-0.2,0.3-0.3c0.1-0.1,0.3-0.2,0.3-0.3c0.1-0.2,0.2-0.4,0.3-0.5
		c0.3-0.5,0.4-0.9,0.5-1.2c0.1-0.4,0.2-0.6,0.2-0.9c0.1-0.5,0.1-1,0.1-1.4v-1.3c0-1.1,0.2-2.1-0.3-3c-0.3-0.4-0.5-0.9-0.8-1.3
		c-0.2-0.4-0.5-1-0.7-1.2c-0.4-0.5-0.8-1.1-1.2-1.7c-1.5-2.3-3-4.4-4.4-6.5c-0.3-0.5-0.7-1-1-1.5s-0.6-0.9-0.9-1.4
		c-0.6-0.9-1-1.9-1.5-2.8c-0.9-1.9-1.7-3.6-2.2-5.1c-0.1-0.4-0.2-0.8-0.3-1c-0.1-0.1-0.1-0.3-0.1-0.4c-0.1-0.2-0.1-0.3-0.1-0.5
		c-0.1-0.7-0.1-1.4-0.2-2c-0.1-1.2-0.1-2.1-0.1-2.7c-0.3-3.1-0.6-5.6-0.8-7.6c0-0.5-0.1-0.9-0.1-1.3c0-0.4,0-0.7,0-1.1
		c0-0.8,0-1.5,0-2.1c0-2.3,0.1-3.4,0.2-4.1c0.1-0.7,0.2-1.1,0.3-2.4c0-0.6,0.1-1.4,0.1-2.5c0.1-1.1,0.1-2.5,0.3-4.4
		c-0.2,0.7-0.6,2.1-0.3-2.3c0,0,0.1-1.1,0.4-2.8c0.2-1.7,0.7-3.9,1.2-6c0.3-1,0.6-2,0.9-3s0.6-1.9,0.9-2.7c0.6-1.6,1-2.7,1-2.7
		c1-3.5-0.5,0.4-1.4,2.8c-0.4,1.2-0.7,2-0.6,1.3c0.2-0.7,0.7-3,2.3-7.9c1.3-3.3,2.7-6.4,4.2-9c0.4-0.7,0.8-1.4,1.3-2.1
		c0.2-0.3,0.5-0.6,0.7-0.9l0.3-0.4l0.2-0.2c0.6-0.6,1.2-1.2,2-1.3c0.8-0.1,1.6,0.2,2.1,0.7c0.3,0.3,0.5,0.6,0.6,0.9
		c0.2,0.4,0.4,0.9,0.6,1.3c1.3,2.7,2.3,5.6,3.2,8.4c0.5,1.4,0.9,2.8,1.2,4.2c0.1,0.7,0.3,1.6,0.3,1.7v1.9
		c0.1,12.2,0.4,23.9,0.8,37.5c0.1,5.3,0.1,9.1,0.1,11.6c0,0.1,0,0.3,0,0.4s0,0.1,0,0.2c0,0.1-0.1,0.2-0.1,0.3
		c-0.1,0.4-0.2,0.8-0.3,1.1c-0.2,0.6-0.3,1-0.4,1.2c-0.1,0.3-0.1-0.1-0.1-0.9c0-0.4,0.1-0.9,0.1-1.5c0-0.1,0-0.2,0-0.3v-0.1
		c0,0,0,0,0-0.1v-0.5c-0.2-2.7-0.5-5.6-0.6-5.6s-0.1,0.7-0.1,2.6c0,0.9,0,2.1,0,3.6c0,0,0,0,0,0.2c0,0.4-0.1,0.9-0.2,1.3
		c-0.2,0.9-0.4,1.8-0.6,2.9c-0.1,1.3-0.1,2.6-0.3,4c-0.1,0.7-0.2,1.5-0.3,2.2c0,0.1-0.1,0.2-0.1,0.4v0.1v0.1l-0.1,0.1
		c-0.2,0.4-0.4,0.9-0.6,1.4c-0.3,0.6-0.5,1.1-0.8,1.7c-0.1,0.1-0.1,0.2-0.2,0.4c-0.2,0.2-0.3,0.5-0.4,0.7c-0.1,0.3-0.3,0.5-0.4,0.8
		l-0.2,0.4l-0.1,0.2v0.1c0.2,0,0.1,0,0.1,0l0,0l0,0v0.1c-0.2,0.5-0.3,1.2-0.3,1.8c-0.1,0.4-0.1,0.9-0.1,1.4c0,0.8-0.1,1.7-0.1,2.6
		c-0.1,1.9-0.2,3.9-0.3,6.4c0,1.2,0,2.5,0,3.9c0,0.6,0.1,1.4,0.1,2.1c0,0.4,0.1,0.8,0.1,1.2c0,0.5,0.1,1.1,0.2,1.6
		c0.2,1.2,0.5,2.3,1.1,3.1c0.3,0.4,0.6,0.8,0.9,1.2s0.5,0.7,0.8,1c0.8,0.9,1.5,1.7,2.1,2.4c0.6,0.8,1.2,1.4,1.8,2.1
		c0.6,0.6,1.2,1.2,1.8,1.9c1.3,1.4,2.7,2.8,4.8,4.9c2.2,2.1,4.9,4.6,8.8,8l-0.2-1.7c0.9,0.8,1.8,1.6,2.7,2.3
		c0.4,0.4,0.9,0.7,1.3,1.1l0.7,0.6h0.1l0.1,0.1l0.2,0.2c0.1,0.1,0.2,0.2,0.4,0.3c0.3,0.2,0.7,0.3,1.2,0.4s1,0.1,1.4,0.1
		c0.5-0.1,0.8-0.2,1.2-0.3c0.3-0.1,0.5-0.2,0.8-0.4c0.2-0.2,0.3-0.3,0.5-0.4c0.1-0.1,0.2-0.2,0.3-0.3c0.7-0.8,0.8-1.2,1-1.5
		c0.3-0.7,0.5-1.1,0.6-1.5c0.1-0.4,0.2-0.7,0.3-1.1c0.1-0.3,0.1-0.7,0.2-1s0.1-0.7,0.2-1c0.1-0.8,0.2-1.7,0.3-2.5c0-0.4,0-0.8,0-1.2
		c0-0.4,0-0.8-0.2-1.1c-0.5-1.4-1.6-2.6-2.7-3.7c-0.8-0.8-1.6-1.6-2.3-2.3l-0.4-0.4c-0.1-0.1-0.2-0.1-0.2-0.2s-0.1-0.1-0.1-0.2
		l-0.2-0.3c-0.4-0.5-0.7-1.2-1-1.8c-1.3-2.5-2.1-4.7-2.7-6.1c-0.4-1-0.7-2-0.9-2c-0.4-3.5-0.6-7.1-0.8-10.3
		c-0.2-3.2-0.3-6.2-0.4-8.9c-0.1-1.3-0.1-2.6-0.1-3.8c0-0.3,0-0.5,0-0.8c0-0.1,0-0.1,0-0.2l0.1-0.5c0.1-0.6,0.1-1.2,0.2-1.8
		c0.3-2.3,0.5-4.5,0.7-6.5c2.1-14.2,2-8.9,1.4,0.8c-0.1,2.4-0.3,5.1-0.5,7.8c0,0.5,0,0.4,0,0.5v0.9c0,0.6,0.1,1.3,0.1,1.9
		c0.1,1.3,0.2,2.6,0.3,3.8c0.5,5,1,9.2,1.3,10.8c-0.4-3.4-0.8-6.7-1-9.8c-0.1-1.6-0.2-3.1-0.3-4.6c-0.1-0.7-0.1-1.4-0.1-2.1v-0.8
		l0,0c0,0,0,0,0-0.1l0.1-0.6c0.7-6,1.2-11.5,1.8-16.7c0.3-2.6,0.6-5.1,0.8-7.5c0.1-1.1,0.2-2.2,0.3-3.3c0.1-1,0.3-2.1,0.5-3.1
		c0.4-2.2,0.8-4.3,1.1-6.4l0.1-0.3c0-0.1,0,0,0-0.1l1.3-0.4c0.1-0.5,0.2-1,0.3-1.5c0.2-1,0.4-2,0.6-3c0,0-0.5,1.5-1.2,3.7
		c-0.2,0.5-0.3,1-0.5,1.5c-0.2,0.7-0.3,1.3-0.5,2c-0.3,1.4-0.7,2.9-1,4.4c-0.2,0.8-0.3,1.6-0.5,2.3c0,0.4-0.1,0.7-0.2,1.1
		c0,0.1,0,0.1,0,0.2l-0.1,0.5c-0.2,1.4-0.3,2.7-0.5,3.9c-0.3,2.3-0.5,3.8-0.5,3.8c0.2-1.7,0.4-3.3,0.5-4.8c0.1-0.8,0.1-1.6,0.2-2.3
		c0-0.4,0.1-0.7,0.1-1.1v-0.3l0.1-0.4c0.6-2.8,1.1-5.5,1.6-7.9c0.1-0.5,0.2-1.1,0.3-1.6c0.2-0.5,0.3-1.1,0.5-1.6
		c0.4-1.2,0.7-2.2,1-3.3c0.3-1,0.6-2,0.9-3c0.1-0.5,0.3-0.9,0.4-1.4c0.1-0.2,0.1-0.5,0.2-0.7c0.1-0.2,0.1-0.4,0.2-0.6
		c2.3-6.6,5.1-11,7.6-13.4c0.7-0.6,1.2-1,1.8-1.4c0.3-0.2,0.3-0.2,0.5-0.3c0.1-0.1,0.3-0.2,0.4-0.2c0.3-0.1,0.6-0.1,0.9-0.1
		c0.1,0,0.3-0.1,0.4,0c0.2,0.1,0.3,0.2,0.4,0.3c0.1,0.1,0.2,0.2,0.3,0.3l0.2,0.2l0.1,0.1l0,0l0.1,0.1c0.6,0.7,1.2,1.5,1.8,2.4
		c0.6,0.9,1.3,1.8,1.9,2.9c0,0.1,0.1,0.1,0.1,0.2c0,0,0.1,0.1,0.1,0.2l0.1,0.2c0.2,0.3,0.3,0.6,0.5,0.9c0.3,0.6,0.6,1.3,1,2
		c-0.4-1.1-0.9-2.1-1.3-3.2c-0.1-0.3-0.1-0.3-0.2-0.5l-0.4-0.7c-0.3-0.5-0.5-0.9-0.8-1.4c-0.5-0.9-1-1.8-1.6-2.7l-0.4-0.6l-0.3-0.5
		c-0.2-0.2-0.3-0.4-0.5-0.6s-0.3-0.4-0.5-0.6c-0.1-0.2-0.4-0.3-0.6-0.3c-0.5,0-1,0-1.4,0.1s-0.8,0.3-1.2,0.5c-0.5,0.3-1,0.7-1.5,1.1
		c-1.9,1.7-3.2,3.5-3.7,4c-0.5,0.6-0.4,0,0.9-2.1c0,0,0.2-0.3,0.6-0.8c0.4-0.5,1-1.1,1.8-1.8c0.4-0.3,0.8-0.6,1.3-0.9
		c0.4-0.3,0.8-0.5,1.2-0.6c0.8-0.3,1.8-0.4,2.7-0.2c0.4,0.3,0.7,0.6,1,1c0.1,0.1,0.3,0.3,0.4,0.5c0.1,0.3,0.3,0.5,0.4,0.7
		c0.8,1.2,1.5,2.4,2,3.4c0.2,0.5,0.5,1,0.7,1.4s0.4,0.7,0.5,1c0.2,0.6,0.3,0.9,0.3,0.9c0.4,0.7,0.2,0.1-0.1-0.8
		c0-0.1-0.1-0.1-0.1-0.2c-0.1-0.1-0.1-0.3-0.2-0.4c-0.1-0.3-0.3-0.6-0.4-0.9c-0.3-0.5-0.6-1.2-0.9-1.7c-0.6-1.1-1.1-1.9-1-1.9
		s0.2,0.2,0.6,0.7c0.3,0.5,0.9,1.4,1.6,2.6c0.2,0.4,0.4,0.8,0.6,1.3c0.1,0.2,0.1,0.3,0.2,0.5c0.1,0.3,0.2,0.5,0.3,0.8
		c0.3,1.1,0.8,2.3,1.2,3.5c0.8,2.5,1.8,5.1,2.7,7.8l0.3,1l0.2,0.5l0.1,0.3c0.1,0.2,0.1,0.3,0.1,0.5v0.3v0.1v0.3c0,1.3,0,2.7,0,3.9
		c0,2.5-0.1,4.7-0.1,6.4l0.1-0.4c0,0,0.1,2.9,0.1,7.3c0,0.2,0,0.5,0,0.7c0.1,0.1,0,0.2,0,0.4c-0.1,0.6-0.2,1.2-0.3,1.8
		c-0.2,1.3-0.4,2.6-0.6,4c-0.4,2.7-0.8,5.7-1.2,8.6c-1.7,11.8-3.4,23.5-3.4,23.5c1.2-8.9,1.9-11.1,0.7-2.1l-0.3,1.9
		c-0.1,0.3-0.1,0.7-0.2,0.9l-0.2,0.9c-0.3,1.2-0.6,2.4-0.9,3.6s-0.7,2.3-1.1,3.5c-0.3,1.1-0.8,2.3-1.2,3.2c-0.1,0.2-0.2,0.4-0.3,0.5
		l-0.4,0.6l-1.1,1.5l-2.3,3.1l-2.3,3l-1.2,1.5l-1.2,1.6c0.8-1,1.4-1.7,1.8-2.2c0.1-0.2,0.2-0.3,0.3-0.4c0.1-0.1,0.1-0.1,0.2-0.2
		c0.1-0.1,0.2-0.2,0.2-0.2c0.1-0.1-0.2,0.5-1.1,1.8c-0.5,0.8-1.2,1.7-1.9,2.8c-0.8,1.3-0.9,3.6-1.1,4.7c-0.2,1.3-0.4,2.8-0.6,4.4
		c-0.1,0.8-0.2,1.7-0.3,2.5c-0.2,1-0.3,2.1-0.4,3.2c-0.1,0.9-0.2,1.9-0.1,2.7c0,0.8,0.3,1.6,1,2.1c0.6,0.6,1.2,1.2,1.8,1.7
		c0.3,0.3,0.6,0.5,0.9,0.8c0.2,0.2,0.5,0.4,0.8,0.6c1.7,1.3,3.3,2.6,4.8,3.7c3,2.3,5.4,4.2,7.5,5.9c4.2,3.4,7,5.9,9.6,8.2
		c2.6,2.3,5,4.4,8.4,7c0.8,0.7,1.7,1.4,2.7,2.1c0.3,0.2,0.5,0.4,0.8,0.6l0.2,0.1c0.3,0.2,0.7,0.4,1,0.5c0.1,0.1,0.3,0.1,0.5,0.2
		c0.2,0.1,0.4,0.2,0.7,0.2c0.5,0.1,1,0.1,1.5,0c0.5-0.1,1-0.2,1.4-0.4c0.2-0.1,0.3-0.1,0.5-0.2c0.1-0.1,0.3-0.2,0.4-0.3
		c0.6-0.4,0.8-0.7,1.1-1l0.2-0.2l0.1-0.2l0.2-0.3c0.2-0.2,0.2-0.3,0.3-0.5c0.1-0.3,0.2-0.5,0.3-0.8c0.3-0.9,0.4-1.4,0.5-2
		s0.1-1.1,0.1-1.6c0-0.3,0-0.5,0-0.8c0-0.4,0-0.7,0-1c0-0.6,0-1.3-0.1-1.9c-0.1-0.4-0.1-0.7-0.2-1c0-0.1-0.1-0.3-0.2-0.4l-0.1-0.2
		v-0.1l0,0c0,0,0.2-0.1,0.1-0.1l-0.1-0.1c-0.5-0.5-0.9-1.1-1.3-1.6c-0.4-0.6-1-1.1-1.5-1.6c-0.4-0.3-0.7-0.6-1.1-1
		c-0.7-0.6-1.4-1.2-2.1-1.9c0.8,0.8,1.4,1.4,2,2c0.7,0.7,1.3,1.4,1.9,2c0.3,0.4,0.7,0.8,1,1.3c0.1,0.2,0.3,0.5,0.5,0.7l0.1,0.2
		l0.1,0.1l0,0l0,0l0,0c-0.2,0-0.1,0-0.1,0l0,0l0,0c0.1,0.1,0.1,0.3,0.2,0.4c0.4,1.1,0.3,2.7,0.3,4.6c0,0,0-0.4,0-1.1s0-1.8-0.2-3
		c-0.3-1.2-1.3-2.2-2.3-3.4c-0.2-0.2-0.5-0.5-0.8-0.8c-0.2-0.2-0.4-0.4-0.6-0.6c-0.4-0.3-0.7-0.7-1.1-1c-0.8-0.7-1.5-1.4-2.2-2
		c-0.4-0.3-0.7-0.6-1-0.9c-0.1-0.1-0.2-0.2-0.3-0.3c-0.3-0.3-0.6-0.8-0.8-1.1s-0.3-0.5-0.3-0.5c0.1-0.5-0.5-2-1.3-4.5
		c-0.4-1.3-0.9-2.8-1.3-4.3c-0.1-0.4-0.2-0.8-0.2-1c-0.1-0.3-0.1-0.8-0.2-1.2c-0.1-0.9-0.2-1.9-0.3-3c-0.4-4.3-0.7-9.5-0.8-14.9
		c0-1.3,0-2.7,0-4v-1c0-0.4,0-0.1,0-0.5c0.1-0.8,0.2-1.5,0.3-2.2c0.3-2.8,0.7-5.8,1.1-8.7c0.3-2.9,0.7-5.8,1.1-8.7
		c0.2-1.5,0.4-2.9,0.6-4.3c0-0.6,0.1-1.2,0.2-1.8l0.2-0.7l0.2-0.9c1.4-5,3.2-9.7,5-13.5c0.4-0.9,0.9-1.8,1.3-2.5
		c0.4-0.8,0.9-1.6,1.4-2.3c1-1.4,1.9-2.6,2.7-3.5c1.6-1.8,2.8-2.7,3.2-2.7c0.7-0.9,1.3-1.5,1.8-1.9c0.1-0.1,0.2-0.2,0.3-0.3l0.1-0.1
		l0,0v-0.1c0-0.2,0.1-0.2,0.1-0.3c0.1-0.1,0-0.3-0.4-0.2c0.1-0.1-0.5,0.2-1,0.6c-0.6,0.4-1.2,0.9-1.8,1.5c-1.2,1.3-2.7,3.1-4.2,5.2
		c-0.7,1-1.5,2.2-2.2,3.4c-0.1,0.3-0.3,0.6-0.5,0.9c-0.1,0.2-0.3,0.6-0.5,0.9c-0.3,0.6-0.7,1.3-1,2c-1.4,2.8-2.7,5.9-3.9,9.2
		c0,0,0.4-1.4,1.1-3.5c0.6-2,1.6-4.8,2.7-7.4c1-2.4,2.5-4.9,3.6-6.7c1.1-1.8,1.9-2.9,1.9-2.9C201.5,71.5,200.2,73.3,198.4,75.5z"/>
	<path class="st0" d="M18.5,72.7c0.5,0.2,1,0.4,2.5,1.7C16.7,70.5,16.6,70.6,18.5,72.7z"/>
	<path class="st0" d="M234.4,179.9c0-0.1,0-0.1-0.1-0.1c0-0.2,0-0.5,0-0.8c0-0.5,0-1.1,0-1.1c0,0.2,0,0.5,0,1.1l0.1,0.5V179.9
		C234.4,179.8,234.4,179.8,234.4,179.9L234.4,179.9z"/>
	<path class="st0" d="M171.8,286.3c-1.7,1.1-2.1,1.4-1.9,1.4c1.9-1.2,5-3.2,10.4-6.9C176.2,283.6,173.4,285.3,171.8,286.3z"/>
	<path class="st0" d="M334.5,308.9c0,0.3-0.1,0.5-0.1,0.8c0,0.2-0.1,0.4-0.1,0.6c-0.2,0.7-0.3,1.1-0.4,1.4c-0.2,0.6-0.3,0.6-0.3,0.5
		c-0.1-0.3,0.1-1.6,0.1-1.9c-0.3,1.5-0.6,2.7-1,4c-0.4,1.2-0.8,2.5-1.3,3.9c-0.6,1.4-1.2,2.9-2.1,4.8c-0.2,0.4-0.4,0.7-0.6,1.1
		s-0.5,0.7-0.8,1c-0.3,0.4-0.7,0.8-1.1,1.3c-0.7,0.9-1.5,1.7-2.3,2.7l3.6-4.2c0.6-0.5,0.8-1.2,1.2-1.9l0.6-1.3
		c0.4-0.9,0.8-1.7,1.2-2.6c0.7-1.8,1.4-3.5,2-5.3c0.3-0.9,0.5-1.8,0.8-2.8l0.2-0.8l0.1-0.4l0.1-0.6c0.1-0.8,0.1-1.5,0.1-2.3
		C334.4,307.6,334.4,308.3,334.5,308.9z"/>
	<path class="st0" d="M367.5,340.4l0.3-0.3c0-0.1-0.1-0.2-0.1-0.3C367.3,339.6,367.2,340,367.5,340.4z"/>
	<path class="st0" d="M351.8,325.3c0.6,0.6,1.1,1.2,1.7,1.9c-9.6-11-18.1-21-19.8-21.7C343.8,317.3,353.9,329.1,351.8,325.3z"/>
	<path class="st0" d="M362.7,337.6c0.4,0.4,0.7,0.7,0.9,1l0,0c0,0,0,0,0.1-0.1l0,0l-1.1-1.2c-0.8-0.8-1.5-1.7-2.3-2.5
		c-1.5-1.7-3-3.4-4.5-5.1C358.4,332.8,360.9,335.7,362.7,337.6z"/>
	<path class="st0" d="M260.2,333.3c0.2-0.9,0.4-1.8,0.5-2.5c0.1-0.3,0.1-0.6,0.2-0.8s0.2-0.5,0.3-0.7c0.2-0.4,0.4-0.7,0.5-1
		c1-2,1.5-3,1.5-3.2c0.1-0.2-0.3,0.3-0.9,1.4c-0.3,0.6-0.7,1.2-1.1,2c-0.1,0.2-0.3,0.5-0.4,0.8c-0.1,0.3-0.4,0.6-0.4,1
		c-0.1,0.6-0.3,1.2-0.4,1.8c-1.8,7.6-4.3,18.9-3.1,15.2c0.4-3.9,1.1-1.2,2.2-8C259.6,337,260,335,260.2,333.3z"/>
	<polygon class="st0" points="334.3,302.8 339.2,309.4 343.4,312.7 	"/>
	<path class="st0" d="M279.5,370.9c1.5-0.8,3.6-1.9,6-3.6c0.3-0.2,0.7-0.4,1-0.7c0.3-0.3,0.5-0.6,0.8-0.9c0.5-0.6,1-1.2,1.5-1.8
		c1.1-1.3,2.2-2.6,3.3-3.9c2.3-2.6,4.7-5.5,7-8.2c-2.4,2.8-4.4,5-4.3,4.6l-7.5,9l-1,1.2c-0.4,0.3-0.8,0.6-1.2,0.9
		c-0.8,0.5-1.7,1.1-2.5,1.6c-1.7,1-3.4,2-5.2,2.8C277.3,372,278.1,371.7,279.5,370.9z"/>
	<path class="st0" d="M311.4,337.7c-2.8,3.1-7.4,8.5-12.3,14.2C303.1,347.4,308.8,340.8,311.4,337.7z"/>
	<path class="st0" d="M327.5,313.3c-0.6,1.9-1.3,3.7-2.1,5.5c-0.4,0.9-0.8,1.8-1.3,2.6l-1.9,2.2l-3.8,4.5l5.3-6.3
		c0.5-0.4,0.8-1.1,1.1-1.7c0.3-0.6,0.6-1.3,0.9-1.9c0.5-1.2,1-2.5,1.5-3.8c0,0,0.6-1.6,1-3.3c0.2-0.8,0.4-1.7,0.5-2.3
		c0.1-0.6,0.1-1,0.1-1C328.5,309.7,327.9,311.6,327.5,313.3z"/>
	<path class="st0" d="M244.1,313.7c-6.8,6.7-11.6,11.7-9.5,10.1l18.1-17.9C255.2,302.9,248.5,309.6,244.1,313.7z"/>
	<path class="st0" d="M292.4,260.1c-1-1.1-2.3-2.1-3.6-3.2c-2.6-2.1-5.3-4.3-5.3-4.3s0.2,0.4,0.4,0.8c0.2,0.4,0.4,0.8,0.4,0.8
		c1.5,1.2,2.5,1.8,3.7,2.7c0.7,0.4,1.4,0.9,2.3,1.6c0.2,0.1,0.4,0.3,0.7,0.5c0.3,0.2,0.6,0.4,0.9,0.7c0.5,0.5,1.2,1.1,1.9,1.7
		C293.8,261.4,293.2,260.9,292.4,260.1z"/>
	<path class="st0" d="M248.8,304.8c-22.8,22.9,1.9-1.2,3.9-2.8C269,285.2,250.8,303.1,248.8,304.8z"/>
	<path class="st0" d="M146.6,296.5c0.5,0.1,1.2,0.4,1.9,0.6c1.4,0.5,2.9,0.8,2.9,0.8s0.2-0.5,0.4-1c0.2-0.5,0.4-1,0.4-1
		s-1.6,0.2-3.2,0.2c-0.8,0-1.6,0-2.2,0s-1,0-1,0S146.1,296.2,146.6,296.5z"/>
	<path class="st0" d="M95.7,238.5c0-0.1,0.1-0.3,0.2-0.4c0.1-0.2,0.1-0.3,0.2-0.4c0.3-0.4,0.3-0.6,0.3-0.7s-0.2,0.1-0.6,0.4
		c-0.1,0.2-0.4,0.4-0.6,0.6c-0.2,0.1-0.4,0.3-0.6,0.6c-0.4,0.5-0.9,1.2-1.4,2.2c-0.2,0.3-0.3,0.5-0.4,0.8c-0.1,0.2-0.1,0.3-0.2,0.5
		c-0.2,0.3-0.3,0.6-0.4,1c-0.1,0.3-0.2,0.8-0.2,1.2c0,0.2,0,0.4,0.2,0.6s0.4,0.3,0.6,0.4c0.4,0.2,0.8,0.4,1.3,0.6l0.4,0.2
		c0.2,0.1,0.5,0.2,0.7,0.3c0.5,0.2,1,0.4,1.5,0.6c-1.6-0.6-1.2-0.5,0.3-0.1c0.4,0.1,0.8,0.3,1.3,0.4c0.2,0.1,0.4,0.1,0.7,0.2
		c0.1,0,0.3,0.1,0.4,0.1s0.3,0,0.4,0c0.3,0,0.6,0,0.9,0c0.7,0,1.4,0,2.1,0c0.8,0,1.2,0,1.8-0.1c0.5,0,1.1-0.1,1.6-0.2
		c1-0.2,2-0.5,2.7-0.7c1.5-0.4,1.9-0.6,0.3-0.3c-1.4,0.5-2.7,0.7-3.8,0.9c-0.6,0-1.1,0.1-1.5,0.1c-0.2,0-0.5,0-0.7,0
		c-0.3,0-0.5,0-0.8,0c-1,0-1.8,0-2.5,0c-0.3,0-0.5-0.1-0.8-0.2c-2-0.7-2.5-1-3.1-1.4c-0.3-0.2-0.7-0.4-1.1-0.6
		c-0.2-0.1-0.4-0.2-0.7-0.4c-0.2-0.1-0.4-0.2-0.6-0.3c-0.3-0.1-0.2-0.5-0.2-0.8c0.1-0.3,0.2-0.7,0.3-1.1l0.1-0.2l0.1-0.3
		c0.1-0.3,0.3-0.6,0.4-0.9c0.3-0.5,0.6-1.1,1-1.7C95.5,239.1,95.7,238.8,95.7,238.5z"/>
	<path class="st0" d="M97.9,247.6c0.4,0.1,0.9,0.3,1.4,0.5c0.2,0.1,0.4,0.1,0.6,0.1c0.4,0,0.8,0,1.3,0c1,0,2.3,0,3.3,0
		c-0.3,0-0.7,0-1,0c-0.4,0-0.8,0-1.2,0c-0.8-0.1-1.5-0.1-2.3-0.1c-0.2-0.1-0.4,0-0.6-0.1l-0.7-0.2c-0.7-0.2-1.3-0.5-2-0.7
		C97.1,247.3,97.5,247.4,97.9,247.6z"/>
	<polygon class="st0" points="381.4,361.9 380.7,362 381.4,362.2 	"/>
	<path class="st0" d="M381.3,360.1l-0.6,1l1-0.7C381.4,360.5,381.3,360.2,381.3,360.1z"/>
	<path class="st0" d="M155.4,125.2c-0.3-0.3-0.6-0.6-1-1c-0.3-0.4-0.7-0.7-1.1-1.1c-0.5-0.4-1.1-1-1.8-1.6c-0.1,0-0.2-0.1-0.2-0.1
		l0,0l-0.1-0.2l-0.3-0.5c-0.8-1.3-1.6-2.9-2.1-4.1c-0.5-1.1-0.8-1.9-0.8-1.9c0.7,1.9,1.4,3.6,2.1,5c0.3,0.7,0.6,1.4,0.9,1.8
		c0.1,0.2,0.1,0.2,0.1,0.2l0.1,0.1c0.1,0.1,0.1,0.1,0.1,0.1l0,0l0.2,0.2c1.2,1.1,2.2,2.1,3.1,2.9c0.3,0.3,0.6,0.6,0.9,0.9
		c0.3,0.3,0.5,0.6,0.7,0.9s0.4,0.6,0.6,0.9c0.1,0.1,0.2,0.3,0.3,0.4v0.1l0,0l0,0l0,0c-0.4,0.2-0.1,0.1-0.2,0.1l0,0l0.1,0.1l0.1,0.2
		c0,0,0,0,0-0.1v-0.1v-0.1l0,0l0,0l0,0l0,0l0,0l0,0l0.2-0.1l0,0c-0.1-0.2-0.3-0.5-0.4-0.8c-0.3-0.6-0.6-1.2-0.6-1.2
		S156.1,125.8,155.4,125.2z"/>
	<path class="st0" d="M165.3,154.8c-1.2-0.7-2.5-1.5-3.7-2.2l-1.9-1.1l-0.9-0.5c-0.4-0.3-0.9-0.7-1.4-1c0,0,0.3,0.4,0.9,0.8
		c0.4,0.3,0.9,0.7,1.4,1.1c0.9,0.7,1.8,1.4,1.8,1.4C162.8,153.8,164.1,154.4,165.3,154.8z"/>
	<path class="st0" d="M217.5,108.3c0-0.2,0-0.6,0-0.8c0-0.1,0-0.2,0-0.4s0-0.4,0-0.6c0-0.9-0.1-1.9-0.1-3.2
		c-0.1-1.3-0.1-2.7-0.2-4.3c0-0.8-0.1-1.6-0.1-2.5c0-0.3,0-0.5,0-0.7c0-0.1,0-0.1,0-0.1l0,0l0,0c0-0.2,0-0.5-0.1-0.7
		c-0.8-3.7-1.7-8-2.6-12.8c0.4,2.2,0.8,4.5,1.3,6.9c0.4,2.2,0.8,4.5,1.2,6.7c0,2.2,0,4.4,0,6.6c0,1.2,0,2.4,0,3.6c0,0.5,0,1.1,0,1.6
		s0,1,0,1.5C217.2,109.7,217.4,109.4,217.5,108.3z"/>
</g>
</svg>
