<?xml version="1.0" encoding="utf-8"?>
<!-- Generator: Adobe Illustrator 24.1.0, SVG Export Plug-In . SVG Version: 6.00 Build 0)  -->
<svg version="1.1" id="Layer_1" xmlns="http://www.w3.org/2000/svg" xmlns:xlink="http://www.w3.org/1999/xlink" x="0px" y="0px"
	 viewBox="0 0 341 272" style="enable-background:new 0 0 341 272;" xml:space="preserve">
<style type="text/css">
	.st0{fill:#FFFFFF;}
</style>
<g>
	<path class="st0" d="M27.4,83.8c-0.1,0.3-0.7-0.1-0.9-0.2C26.9,83.3,27.6,83.9,27.4,83.8z"/>
	<polygon class="st0" points="31.1,80.5 30.8,80.4 31.8,80.2 	"/>
	<path class="st0" d="M33.2,76.7c0.9,1-0.9,1.2-0.9,2.1l0.2,0.3l-1.1-0.2C32,78.2,33.2,77.5,33.2,76.7z"/>
	<path class="st0" d="M31.9,73.3c0.4,0.4,0.6-0.2-0.1,0.5c0-0.1,0-0.1-0.1-0.1C31.8,73.6,31.9,73.5,31.9,73.3z"/>
	<path class="st0" d="M31.7,73.7C31.5,74.1,31.5,73.2,31.7,73.7z"/>
	<path class="st0" d="M33.1,72.1l-0.7,0.3c-0.2-0.3,0-0.8-0.3-0.7C32.7,71.2,32.9,71.5,33.1,72.1z"/>
	<path class="st0" d="M34.2,72.1l-0.3,0.2C33.8,72.1,33.8,72,34.2,72.1z"/>
	<path class="st0" d="M33.2,72.6l0.7-0.4c0.1,0.2,0.5,0.4-0.3,0.2C33.9,72.6,33.6,72.5,33.2,72.6z"/>
	<path class="st0" d="M33.1,73c0.1,0.4,0,0.9,0.7,0.6C33.1,74.5,32.4,73.9,33.1,73z"/>
	<path class="st0" d="M34.4,77.2l0.1,0.6L34,77.9C34.3,77.9,34.1,77,34.4,77.2z"/>
	<path class="st0" d="M34.5,68.5c0.3,0.1,0.5,0.6,0.8,0.8l-0.5,0.2C34.8,69.2,34.9,68.8,34.5,68.5z"/>
	<path class="st0" d="M35.3,69.3l0.8-0.3C35.8,69.5,35.6,69.5,35.3,69.3z"/>
	<polygon class="st0" points="35.5,72.8 34.1,73.1 35.6,72.6 	"/>
	<polygon class="st0" points="36,66.3 35.2,66.3 36.4,66.2 	"/>
	<path class="st0" d="M37.4,64.6c-0.6-0.1-0.4-0.9-0.9-0.9c0.4-0.3,1-0.3,1.5-0.3C37.6,63.6,37.4,64,37.4,64.6z"/>
	<path class="st0" d="M38.8,63.4c-0.2,0.1-0.5,0.1-0.8,0.1C38.2,63.4,38.5,63.4,38.8,63.4z"/>
	<path class="st0" d="M36.6,68c-0.1-0.1-0.4-0.5-0.4-0.9l0.5,0.7C36.7,67.8,36.7,67.9,36.6,68z"/>
	<path class="st0" d="M36.8,67.8L36.8,67.8c0.1-0.3,0.2-0.4,0.3-0.5C37,67.3,36.9,67.5,36.8,67.8z"/>
	<path class="st0" d="M36.6,68C36.6,68,36.6,68,36.6,68C36.7,68,36.7,68.1,36.6,68z"/>
	<path class="st0" d="M35.8,70.9c0.6-0.1,1.4-0.5,1.5,0.5C36.7,71.3,36.6,70.8,35.8,70.9z"/>
	<path class="st0" d="M37.2,68.9L37,69.5c-0.2-0.1-0.3-0.4-0.6-0.4L37.2,68.9z"/>
	<polygon class="st0" points="37.6,68.7 37.2,68.9 37.3,68.6 	"/>
	<path class="st0" d="M38.6,64.8c0.5,0,0.7-0.2,1-0.5c-0.1,0.4-0.3,0.8-0.6,1.1C38.8,65.3,38.3,65.1,38.6,64.8z"/>
	<path class="st0" d="M37.6,66.3C37.7,66.3,37.7,66.3,37.6,66.3C37.7,66.4,37.7,66.4,37.6,66.3z"/>
	<path class="st0" d="M41.9,61.6c0,0,0,0.1,0.1,0.1C41.9,61.7,41.9,61.7,41.9,61.6L41.9,61.6z"/>
	<path class="st0" d="M39,65.5c-0.1,0.3-0.3,0.3-0.7,0.3c0.3-0.2,0.4-0.3,0.6-0.5C39.1,65.4,39.1,65.5,39,65.5z"/>
	<path class="st0" d="M39.7,62.9c0,0.2,0,0.4,0,0.7C39.6,63.3,39.5,62.8,39.7,62.9z"/>
	<path class="st0" d="M37.6,66C37.6,66.1,37.6,66.1,37.6,66C37.5,65.9,37.6,65.9,37.6,66z"/>
	<path class="st0" d="M37.6,66c0.2-0.1,0.5-0.2,0.8-0.2c-0.2,0.2-0.5,0.3-0.7,0.4C37.7,66.2,37.7,66.1,37.6,66z"/>
	<path class="st0" d="M46.4,64c-0.6-0.4-1.6-0.3-1.4,0.7c-0.8,0.1-2.4-1.7-3-3c0.3,0.2,0.5,0.4,1.2,0.1c0.1,0.4-0.3,1.7,0.6,1.7
		c0.9-0.4,0.3-0.7,0.3-1.3c0.4,0.9,1.7,0,2.6,1l-0.9,0.3C46,63.7,46.4,63.7,46.4,64z"/>
	<path class="st0" d="M41.2,62.7l-0.2,0.2c0.1-0.3,0-0.7-0.1-1.4c0.6-0.1,0.8,0,1,0.1L41,62.7L41.2,62.7z"/>
	<path class="st0" d="M40.1,63.8c0.7,0.3,1.4,0,1.8,0.9c-0.6,0.6-0.9,0-1.4,0.2C41.5,64,39.9,64.9,40.1,63.8
		c-0.2,0.2-0.4,0.3-0.6,0.5c0.1-0.2,0.1-0.5,0.2-0.8c0,0,0,0,0,0.1l0,0l0,0c0,0.1,0.1,0.2,0.1,0.1c0,0,0,0,0,0
		C39.9,63.8,40,63.8,40.1,63.8c0.1-0.4-0.1-0.2-0.3-0.2c0,0-0.1,0-0.1-0.1l0,0l1.2-0.7C40.8,63.2,40.6,63.4,40.1,63.8z"/>
	<path class="st0" d="M39.1,71.7c0-0.1-0.1-0.1-0.1-0.1C39.1,71.6,39.2,71.6,39.1,71.7z"/>
	<path class="st0" d="M39,71c-0.1,0-0.5-0.1-0.6,0.2c0,0.4,0.3,0.2,0.5,0.4c-0.3,0-0.8,0.2-0.8-0.5l0.1,0c0.1-0.6-0.3-1.7-0.5-1.7
		C38.3,69.9,38.7,70.3,39,71z"/>
	<path class="st0" d="M39.6,67.5c0,0,0.3-0.2,0.6-0.4c0.3-0.1,0.5-0.3,0.5-0.3l0.2,0.9l-0.3-0.3C40.2,68,39.9,67.6,39.6,67.5z"/>
	<polygon class="st0" points="41.7,61.2 41,60.8 42.3,61.1 	"/>
	<polygon class="st0" points="42.7,60.2 42.1,59.8 42.7,59.8 	"/>
	<path class="st0" d="M82.9,105.8l-1.2,1.1C82.2,106.4,82.6,106.1,82.9,105.8z"/>
	<path class="st0" d="M90.7,97.1l0.5,0C90.7,97.4,90.4,97.4,90.7,97.1z"/>
	<path class="st0" d="M199.1,26.3c2.9-0.2,6.6-0.4,5.7,0.1l-1.3,0.4C201.9,26.5,200.4,26.4,199.1,26.3z"/>
	<path class="st0" d="M176.7,54.1c0.2-0.2,0.4-0.3,0.6-0.5c0.6,0.1,1.2,0.1,1.8,0.2C178.3,53.9,177.5,54,176.7,54.1z"/>
	<path class="st0" d="M174,51.6l-2.8,1.6C171.8,52.8,172.7,52.3,174,51.6z"/>
	<path class="st0" d="M39.1,153l-1.9,0.9C39.3,151.7,38.7,152.9,39.1,153z"/>
	<path class="st0" d="M102.1,29.8c0.7-0.4,1.3-0.7,1.8-1.1c0.3-0.2,0.5-0.3,0.7-0.5c0.2-0.2,0.4-0.3,0.6-0.5
		c-0.5,0.7-1.2,1.2-1.7,1.7C102.9,29.8,102.4,30,102.1,29.8z"/>
	<path class="st0" d="M92.2,108c-0.8,0.6-1.2,0.8-1.3,0.7C91.7,108.1,92.2,107.7,92.2,108z"/>
	<path class="st0" d="M109.8,24.3c-0.2,0.3-0.5,0.5-0.8,0.8c-0.6,0.4-1.3,0.8-2,1.3c-0.6,0.4-1.2,0.8-1.8,1.3
		c0.1-0.1,0.2-0.2,0.3-0.4l0.2-0.2l0.3-0.3c0.4-0.3,0.7-0.7,1.1-1C107.9,25.3,108.8,24.7,109.8,24.3z"/>
	<path class="st0" d="M30,103.9c0,0,0-0.1-0.1-0.1C30,103.8,30,103.8,30,103.9z"/>
	<path class="st0" d="M26.8,88.5c-0.1,0.1-0.2,0.3-0.2,0.5C26.5,88.9,26.6,88.8,26.8,88.5z"/>
	<path class="st0" d="M59.9,39.7C58.7,40.8,59.7,39.9,59.9,39.7z"/>
	<path class="st0" d="M57.2,47.4c0.3-0.2,0.5-0.3,0.7-0.2C57.6,47.2,57.4,47.3,57.2,47.4z"/>
	<path class="st0" d="M125.1,19.4c0,0,0.1,0,0.1-0.1C124.9,19.7,125,19.7,125.1,19.4z"/>
	<path class="st0" d="M58.4,41.7c0.3-0.5,0.8-1,1.3-1.6C59.5,40.4,59.1,40.8,58.4,41.7z"/>
	<path class="st0" d="M58.4,41.2c-0.3,0.4-0.6,0.8-0.8,1.1C57.3,42.3,57.4,42.1,58.4,41.2z"/>
	<path class="st0" d="M61.6,38.2c-0.7,0.6-1.3,1.2-1.8,1.8c0.2-0.3,0.3-0.4,0.2-0.3C60.3,39.4,60.7,39,61.6,38.2z"/>
	<path class="st0" d="M12.5,149c0-0.1,0-0.2,0-0.3C13.3,147.3,13,147.9,12.5,149z"/>
	<path class="st0" d="M221.5,35.6C221.5,35.6,221.5,35.5,221.5,35.6c0.1,0,0.2,0,0.3,0L221.5,35.6z"/>
	<path class="st0" d="M223,36.3c0.2,0,0.4-0.1,0.6-0.1c0.1,0,0.2-0.1,0.3-0.1c0.2-0.1,0.3-0.1,0.4-0.2c0.2-0.1,0.1-0.2-0.1-0.2
		c-0.4-0.1-1.3-0.1-2.4-0.1l10.7-1.3c0,0-2.2,0.5-4.5,1.1c-1.2,0.3-2.4,0.5-3.3,0.7c-0.5,0.1-0.9,0.2-1.2,0.2
		C223.2,36.3,223,36.3,223,36.3z"/>
	<path class="st0" d="M12,132.7l0.1-1C12.5,131.2,12.9,130.6,12,132.7z M71.5,30.6c-1,0.9-1.9,1.7-2.4,1.7c-0.1,0.2,0,0.4,0.4,0.1
		C70.9,31.6,71.4,31,71.5,30.6z M75.6,26.8c0.4,0,0.8,0.1,0.8,0.1c0.1,0,0,0-0.4,0c-0.4-0.2-0.9,0.4-1.6,1.1c-0.1,0-0.1,0-0.2,0.1
		C74.9,27.6,75.3,27.1,75.6,26.8z M180.8,51c1.2-0.8,2.4-1.4,3.3-1.4C182.9,50.3,181.8,50.7,180.8,51z M99.8,87.2
		c0.2-1,2.1-2.2,3-2.9C101.7,85.9,101.4,87,99.8,87.2z M67,123.3c-2.6,4.4-6.8,7.1-9.1,8.7c-1,1.7,2.4,0.1-1.6,3.9
		c-5.6,5.4-0.4-2.3-3.7,1l-1.3,3.4c-4.7,3.8-7,7.6-10.3,11.5c-0.8,0.8-1.3,1.1-1.6,1.2c-1.6,2.2-3.7,4-5.7,5.8c-1,0.9-2,1.7-2.9,2.5
		c-0.4,0.4-0.9,0.8-1.2,1.2c-0.3,0.3-0.6,0.7-0.9,1c-0.1,0.2-0.2,0.4-0.3,0.5c-0.1,0.2-0.2,0.4-0.3,0.5c0.8-0.7-0.6,2.5-0.6,3.1
		c0,0-0.3,0.4-0.7,1c-0.4,0.6-1,1.4-1.5,2.1c-0.5,0.8-1.1,1.6-1.5,2.2c-0.4,0.6-0.7,1-0.7,1c1.9-2.8,2.5-2.3,3.4-2.5
		c-0.6,1-1.1,1.7-1.6,2.3c-0.5,0.6-0.9,1.2-1.3,1.9c0.7-0.8,1.3-1.5,1.1-0.3c0,0-1.2,1.6-2.3,3.3c-1.1,1.7-2.2,3.5-2.2,3.4
		c0-0.4,0.4-1.3,0.7-2c-0.2,0.5-0.5,1.1-0.8,1.7c0,0.1-0.1,0.2-0.1,0.2l0,0l-0.1,0.1c0,0-0.1,0.1-0.1,0.1c-0.1,0.1-0.1,0-0.2,0.2
		c-0.7,0.8-1.4,1.6-1.8,2.6c0.3,0.1,0.8-0.2,1.1-0.1c0.3-1,0.6-1.5,1.1-1.8c0.1-0.1,0.2-0.2,0.3-0.2c0.1-0.1,0.2-0.1,0.3-0.1
		c0.2,0,0.4-0.1,0.6-0.1c0,0.1-0.1,0.2-0.2,0.3c-0.1,0.1-0.2,0.2-0.3,0.3c-0.2,0.2-0.3,0.4-0.4,0.5c-0.2,0.3-0.2,0.3-0.1,0.4
		c0.1,0.1,0.4,0,0,1c-1,1.2-1.8,1.8-2.3,1.9c-0.5,0.1-0.7-0.2-0.7-0.8c-0.9,1.3-1.4,2.2-2.1,2.9c-0.3,0.4-0.6,0.7-1,1
		c-0.1,0.1-0.2,0.2-0.3,0.2c-0.1,0-0.1,0.1-0.2,0.1c-0.1,0-0.2,0.1-0.3,0c0,0,0.2,1.4,0.2,1.4c0,0-0.3,0.3-0.6,0.4
		c-0.4,0.2-0.8,0-0.8,0c0,0,0,0.2,0.1,0.3c0.1,0.2,0.2,0.4,0.4,0.6c0.3,0.3,0.6,0.5,0.6,0.5c-0.8,1.2-1.6,1.2-1.9,0.9
		c-0.2-0.2-0.2-0.4-0.2-0.6c0-0.2,0-0.5,0-0.7c0.1-0.5,0.1-0.9,0-1.5c0-0.3-0.1-0.5-0.1-0.8c-0.1-0.3-0.2-0.7-0.3-1.3l-0.7,1
		c-0.1-1.5,0.2-2.9,0.3-3.9c0.1-1,0.1-1.8-0.5-2.4c0-1.4,0.5-0.6,0.8-0.2c0.3,0.4,0.6,0.4,0.2-2.3c-0.6-0.6-1.2-2.5-1.6-4.1
		c0-1,0.4-0.7,0.6-0.1c0.3,0.6,0.6,1.6,0.6,2.1c-0.2-2-0.6-3.3-1-4.2c-0.1-0.2-0.2-0.4-0.3-0.6c-0.1-0.1-0.1-0.2-0.2-0.3l-0.1-0.1
		c-0.2-0.2-0.4-0.3-0.5-0.5c-0.3-0.3-0.4-1.2-0.3-2.4c0.1-1.2,0.4-2.7,1.1-5.1c0,3.4,2.2-2.4,0.7,5.4c1.2-3.6,0.2-7.6,1.8-11.3
		l-1.6,2.3c0.2-1.4,1-2.9,1.2-3.6l-0.9,0.1c0.6-1.1,1-2.3,1.2-3.4c0-0.2,0.1-0.4,0.1-0.6c0.1-0.2,0.1-0.4,0.2-0.6
		c0.1-0.5,0.3-1,0.4-1.5c0.5-2,1.1-3.7,2.5-4.8c-2.1,1.4,1.3-3.5,1.3-5.5c-2.3,3.5-3.7,11.1-5.3,11.1c0.2-1.9,1.4-3.3,1.6-5.2
		c-0.6,1.1-1.6,2.8-2,3.2c1.2-6.2,4-9,5.5-12.5l-2.5,6.2c1.5,0,1.2-2.8,2.9-4.2c0.3-3.4,2.2-5.5,2.7-8.3c-0.2,0.7-0.4,0.7-0.6,1.4
		c2.4-6.9,0.8-9.6,1.7-12.3c0.1-0.3,0.2-0.7,0.4-1.1c0.1-0.2,0.1-0.4,0.2-0.6c0,0,0-0.1,0.1-0.1c0.1-0.1,0.3-0.3,0.4-0.4
		c0.3-0.2,0.7-0.2,0.9,0c0.3-0.2,0,0.3-0.1,0.7c0.1-0.1-0.3,1.3-0.3,1.8c0,0.5,0.3,0.6,1.1-0.2c0-0.3-0.1-0.6-0.1-0.9l0-0.2l0-0.1
		c0,0-0.1-0.1-0.1-0.1c-0.1-0.1-0.1-0.3-0.1-0.4c0-0.2,0.2-0.4,0.4-0.6c0.4-0.4,1-0.9,0.6-2c-1,0.5-1-0.8-1.8-0.3
		c0.4-0.8,0.8-0.7,1.5-0.9l-0.6-0.5c1.8-0.6,1.4,0.2,2.7-1.2c-0.7,0.4-0.7-1-1.3-0.7c0.1-0.5,0.4-0.8,0.9-1l-0.1,0
		c0.9-1.5-0.4-1.6,0.9-2.9l0.3,0.3c1.7-1.6,1.9-4.3,3-6.1l0.1,0.8c-0.1-0.3,1.1-1.1,0.7-2c-0.1,0.1-0.3,0.3-0.3,0.4
		c-0.4-0.2-1-0.6-0.9-1.1l0.7,0l-0.4-0.4c0.2-0.7,0.9,0.5,1.1-0.2c-1.7-1.1,0.8-3.3-0.6-4.5c1.5,0-0.3,1.5,1.1,1.3
		c-0.1-0.3-0.4-0.5-0.3-1l0.8,0.4c0.3-2.4-0.1-3.5,0.7-5.4l-0.2,0c-0.1-0.8,0.2-1.1,1-1.2c-0.3-0.3-0.7,0.2-0.9-0.2
		c2.5-0.5-0.7-3,1-3.3c-1.7-0.5-2.7-2.6-4.2-2.4l0.4-0.4c-1.1-0.2-0.6,1.6-1.8,1.5l0.6,2c-0.4-0.2-1.1-0.1-1.1-0.4
		c-0.2,0.4-0.3,0.7-0.7,0c1.5,4.8-2.6,7.8-2.4,12.1c-0.2,0.2-0.5-0.1-0.7-0.2c0.8,1.1-0.8,0.5-1.1,0.8l1.2,1.5
		c-0.6,0.3-0.9-0.2-1.3-0.3c-1,1.8-0.1,4.2-1.5,5.5c0.4,0.7,1.3,0.3,1.2,1c-1.3-1.4-1.4,1.7-2.3,0.7c1.4,1.2-0.4,2.5,2,3
		c-0.1,0.8-1.2,0.3-1.3,0c-0.2,0.9-0.5,1.7-1.4,2.2c0.2,0.3-0.3,1.3-0.7,2.4c-0.2,0.5-0.3,1.1-0.3,1.6v0.1c0,0.1-0.1,0.3-0.1,0.4
		c-0.1,0.3-0.1,0.6-0.2,0.8c-0.1,0.5-0.2,1.1-0.3,1.5c-0.2,1-0.2,1.7-0.2,2.3c-0.2-3.2-0.7,0-2.1,2.5l-0.2-2.8l-1.9,6.1
		c-0.5,1.2-0.6,1.6-0.5,1.6c-0.3,1,0.7,0,0,2.6c-1.3,4.1-1.9,4.2-3.2,6.3l0.1-0.7l-1,2.8c-0.7,2.1,3.5-6.9,1.7-0.1
		c-0.3,0-3,3.5-2.9,5.6c1.1-3.4,1.7-2.8,1.5-1.4L6.2,152l-0.7-2c-0.3,0.9-0.6,1.7-0.9,2.6l-0.3,0.9c-0.1,0.2-0.1,0.3-0.1,0.5
		l-0.1,0.4l-0.2,1.4c-0.3,1.8-0.6,3.7-0.9,5.5c-0.6,3.7-1.2,7.4-1.8,11.2l-0.2,1c0,0.3-0.2,0.7-0.1,1l0.2,1l0.1,0.5l0.1,0.4
		c0.2,1.1,0.4,2.1,0.7,3.2c0.4,2.1,0.9,4.2,1.3,6.4c0.4,2.1,0.8,4.2,1.2,6.4c0.2,1.1,0.4,2.1,0.6,3.2l0.3,1.6l0.1,0.8l0.3,0.7
		c0.2-0.3,0.5,0.2,1.1,1c0.3,0.4,0.7,0.9,1.2,1.3c0.5,0.4,1.3,0.8,2,0.8c0.8,0,1.4-0.3,2-0.6c0.3-0.2,0.5-0.3,0.7-0.5
		c0.2-0.2,0.4-0.4,0.6-0.6c0.7-0.7,0.9-1.4,0.7-1.7c0,0-0.1,0.2-0.2,0.3c-0.1,0.2-0.2,0.3-0.2,0.3c-0.7,0.6-1.1,0.7-1,0.6
		c0-0.1,0.3-0.5,0.7-1.1c0.4-0.6,0.9-1.4,1.4-2.2c0.5-0.8,1.1-1.5,1.6-2.1c-1,1.6,0,1,0.8,0.6c0.7-0.3,1.1-0.2-1.8,3.4l4.8-4.5
		c1,0,2.4-1,4-2.7c0.8-0.8,1.7-1.8,2.5-2.9c0.2-0.2,0.5-0.6,0.8-1c0.1-0.2,0.3-0.3,0.4-0.5l0.3-0.7l0.3-0.7l0.2-0.5
		c0.1-0.3,0.2-0.5,0.3-0.8c0.7-2.1,1.7-4.5,2.6-6.8c0.5-1.1,1.1-2.2,1.7-3.3c0.3-0.5,0.6-1,0.9-1.5c0.3-0.5,0.7-0.9,1-1.3
		c-0.4,0.5-0.7,0.5-0.8,0.5c0.6-0.7,1.3-1.6,1.8-2.4c0.1-0.1,0.2-0.3,0.3-0.4c0,0,0.3-0.3,0.5-0.5l1.1-1.2c1.4-1.6,2.7-3.3,3.9-4.8
		c2.3-3,4.1-5.5,5-6l-0.2-1.1c5.7-4.3,6.4-4.8,11.6-11.4c-0.2,0-1,0.5-0.3-0.6c1.8-1,3.7-2.1,7.4-6.5l-0.4,0l6.1-6.6
		c-2.1-1.8,11.6-10.3,11.1-14.3c1.8-0.8,6.4-5.5,8.6-7.4c-0.1-0.1,0-0.3,0.2-0.8c3.4-1.6,6.3-7.7,9-10.4c1.9-1.6,1.6-0.5,1.2,0.6
		c1.2-2.2,3.7-4.5,6.1-6.5c1.2-1,2.3-1.9,3.1-2.6c0.4-0.4,0.8-0.7,1.1-1c0.1-0.1,0.1-0.1,0.2-0.2c0,0,0,0,0-0.1s0,0,0-0.1
		c0,0,0-0.1,0.1-0.1c0.2-0.1,0.4-0.4,0.6-0.6c0.2-0.2,0.3-0.3,0.4-0.5c0.2-0.3,0.1-0.4,0-0.6c-0.2-0.3-0.7-0.4-0.5-0.9
		c2-1.5,2.3-0.8,2.5-0.4c0.3,0.4,0.6,0.5,3.1-1.9c-0.7,0.3-2,1.1-1.6,0.6c0.5-0.4,1-1.1,1.5-1.8c0.5-0.8,1.1-1.5,1.7-2.4
		c0.6-0.8,1.2-1.6,1.9-2.2c0.7-0.6,1.3-1,2-1.2l-1.3,1.2c1.1-0.4,2.3-1.1,3.4-1.8c1.1-0.7,2.3-1.3,3.3-1.9c2.1-1.2,3.8-2.2,4.5-1.4
		l-0.1,1c7.7-4.1,3.6-0.9,11.4-4.9l-0.2-0.1c3.6-1.2,5.2-2.9,7.4-2.2l-1.2,0.6c4.5-1.5,4.8-1.8,9.3-3.5c0.6-0.1,2.8-0.7,3.4-1.2
		c0.6,1,10.7-3.4,12.7-4.2c-3.6,1.2-2.1,0.1-1.3-0.8c2.4,0.1,3.9-0.3,6.6-2c0.9,1.2,2,2.4,7.8,0.4c-1,0.1-2.4,0.5-1.9,0
		c0.5-0.5,1.9-0.7,2.4-0.7c0.5-0.5-1.5,0-1-0.7c0.3,0,0.5,0,0.8,0c0.2,0,0.6-0.1,0.6,0c0.1,0,0.3,0,0.5,0c0.2,0,0.5,0,0.7-0.1
		c0.9-0.1,1.8-0.3,2.8-0.6c1-0.3,2-0.6,3.1-0.8c1.1-0.3,2.4-0.6,3.9-0.7c-1.9-0.1-0.4-0.7,0.2-1.3c0.7,1.5,7.7-2.8,5.9-0.3
		c0.3-0.1,0.7-0.2,1.1-0.3l0.5-0.1l0.1,0l0.3-0.1c0.2,0,0.3-0.1,0.5-0.1c0.9-0.3,1.7-0.6,2.6-1c1.8-0.6,3.6-1.3,5.4-1.9
		c3.7-1.2,7.5-2.4,11.1-3.5c7.1-2.2,13.3-4.1,14.7-4.8c0.1,0,0.2-0.1,0.4-0.2c0.1,0,0.2-0.1,0.3-0.1c0.1,0,0.2-0.1,0.3-0.1
		c0.4-0.1,0.9-0.3,1.4-0.6c0.5-0.2,1-0.5,1.4-1c0.2-0.2,0.3-0.5,0.3-0.8c0-0.3-0.2-0.5-0.3-0.7l-0.6,0.3c-0.3-0.5-0.6-0.8-0.8-1
		c-0.2-0.2-0.4-0.4-0.6-0.5c-0.1-0.1-0.2-0.1-0.3-0.2c-0.1-0.1-0.2-0.1-0.3-0.1c-0.3,0-0.6-0.1-0.8-0.1c-1.1-0.2-2.4-0.4-5.1-1
		c1.8,0.6,0,0.5-3.8,0.4l-3-1.1l-2.3,0.3c-1.5-0.4-3.9-0.6-6.3-0.7c1.1,0.1,0.4,0.1,0.1,0.2c0.6-0.8-8.4-1.8-9.2-2.4
		c-1.8,0.3-3.1,0.1-4.5-0.2c-1.3-0.2-2.6-0.5-3.9-0.1c-0.6-0.2-1.4-0.4-2.3-0.7c1.5-0.3,2.4-0.7,0.2-0.8c-0.2,0-0.3-0.1-0.5-0.1
		l-1.4,0.5c-1.9-0.4-4-0.7-5.3-0.9c0.7,0,1.5,0,2.3-0.1c-1,0-1.9,0-2.7,0c-0.3,0-0.6-0.1-0.7-0.1c0.1,0,0.3,0.1,0.4,0.1
		c-1.4,0-2.7-0.1-4.3-0.5c-3.9,0.1-7.6-0.7-11.6-1.6c-2-0.4-4.1-0.9-6.1-1.2l-0.4-0.1l-0.7,0l-0.5,0c-0.3,0-0.7,0-1,0
		c-0.4,0-0.8,0-1.1,0l-0.6,0l-0.6,0c0.5,0.1,1,0.1,1.5,0.2c0.5,0.1,0.8,0.2,1,0.4c-2.4-0.4-5.1-1.1-7.4-2c-0.6-0.2-1.1-0.5-1.6-0.7
		c-0.5-0.3-1-0.5-1.4-0.8c-0.4-0.3-0.8-0.6-1.2-0.9c-0.4-0.5-0.8-1-1.2-1.4c0,0,0.2-0.1,0.4-0.2c0.2-0.1,0.4-0.2,0.4-0.2
		c-0.3-0.3-0.6-0.7-0.9-0.9c-0.4-0.2-0.8-0.4-1.2-0.6l-0.6-0.3l-0.4-0.2c-0.2-0.1-0.5-0.2-0.7-0.3c-0.9-0.4-1.8-0.9-2.6-1.3
		c-1.7-0.8-3.3-1.5-5-2.2l0.2-0.9c-1.3-0.4-2.8-1.1-4.5-1.8c-0.6-0.3-1.2-0.5-1.8-0.8c-0.8-0.4-1.6-0.7-2.5-1.1
		c-1.7-1.4-3.3,0.2-5,0.8c-0.7,0.3-1.5,0.7-2.2,1c-0.5,0.2-0.9,0.4-1.4,0.6c-0.8,0.5-1.6,0.9-2.3,1.4c-1.4,0.9-2.5,1.8-3,2.6
		c-0.8,0-2.4,1-4.2,2.2c-1.8,1.3-3.9,2.8-5.1,3.6l-0.2,1c-3,2.6-5.1,3.9-7.1,5.1c-0.7,0.8-1.4,1.5-2.1,2.1l-0.5,0.5l-0.4,0.4
		l-0.8,0.7c-1.2,0.7-2.6,1.3-4.1,1.5c-0.4,0.1-0.7,0.1-1.1,0.2l-1.1,0c-0.7,0.1-1.4-0.1-2.1-0.1c-0.7,0-1.3-0.3-1.9-0.3
		c-0.3-0.1-0.5-0.2-0.8-0.3l-0.4-0.1l-0.6-0.2c-0.2-0.1-0.4-0.1-0.6-0.1L92,29.4l-0.1,0.2L85,27.9c1.7,0.9-1.3-0.7-3.4-0.8
		c-0.1,0-0.3-0.1-0.4-0.1c-0.2,0-0.2-0.1-0.6-0.1c-0.5-0.1-1.1-0.2-1.7-0.3c-0.6-0.1-1.2-0.2-1.9-0.3c-0.3,0-0.6-0.1-1-0.2l-0.5-0.1
		c-0.1,0-0.2-0.1-0.2,0l-0.2,0.2c-1.9,1.7-4.2,3.8-4.8,4.6l-3.6,3c4.3-2.9,0.4,1,0.7,1.8c0,0-0.2,0.1-0.4,0.2
		c-0.2,0.1-0.6,0.3-0.9,0.5c-0.7,0.4-1.3,0.8-1.3,0.8c-0.6,1.1,1.8-0.8,0.4,0.8c-0.9,0.5-2.4,1.8-3.9,3c-0.7,0.6-1.6,1.2-2.2,1.7
		c-0.6,0.5-1.2,1-1.6,1.2c0-0.4,0.3-1,0.8-1.8c0.2-0.1,0.2-0.1,0-0.1c0-0.1,0.1-0.1,0.1-0.2c-0.1,0.1-0.1,0.1-0.1,0.2
		c-0.2,0.1-0.6,0.3-0.8,0.4c-2.2,2.9-1.6,1.6-1.8,1.3c-1.7,4-3.8,5.1-4.7,8.5c1.5-4.3-6,7.1-5.6,4c-1,3.2-1.3,1.6-1.7,3.8
		c2.5-3.5,6.1-5.9,8.8-8.2L51,54.8c2.5-0.7,4.5-6.1,6.2-7.3c-1.1,0.8-2.8,3.3-2.7,3.6l-0.2-1.4c1.4-2,2.9-3.6,4.3-4.9
		c0.7-0.7,1.4-1.3,2.2-1.9c0.8-0.5,1.6-1,2.3-1.5c-2.1,2.5,3.4-2.2,2.2-0.1l-2,1.6c-0.6,1.1,1.5-0.4,2.7-1.1
		c0.7-0.8,1.4-1.6,2.2-2.4c0.4-0.4,0.8-0.9,1.3-1.3c0.5-0.4,0.9-0.8,1.4-1.2c1.9-1.7,4-3.4,5.8-4.9l0.2-0.1l0.1-0.1l0.1,0l0.4,0.1
		c0.3,0,0.6,0.1,0.9,0.1c0.6,0.1,1.1,0.2,1.7,0.3c1.1,0.2,2.2,0.3,3.1,0.4c1.9,0.2,3.4,0.4,4.1,0.3c-1.7,0-4.6-0.7-6-1.3l3.8,0.2
		c-1.5-0.3-2.9-0.3-4.5-0.3c-0.8,0-1.7-0.1-2.6-0.2c-0.2,0-0.5-0.1-0.7-0.1L77,31.1c-0.1,0-0.1,0-0.2,0l-0.2,0.1
		c-0.4,0.3-0.8,0.7-1.3,1c0.2-0.6-0.6-0.5-1.1-0.7c-0.5-0.2-0.8-0.5,0.8-2.5c0.3-0.3,0.6-0.5,0.8-0.8l0.1-0.1c0,0,0.1,0,0.1,0l0.3,0
		c0.2,0,0.3,0,0.5,0.1c0.7,0.1,1.3,0.1,1.9,0.2c0.6,0.1,1.1,0.2,1.6,0.3c0.2,0,0.4,0.1,0.6,0.1c0.2,0,0.3,0.1,0.5,0.1
		c1.2,0.3,2.1,0.7,3,1.2c0.9,0.4,1.9,0.9,3.3,1.4c0.7,0.2,1.5,0.5,2.4,0.7c0.5,0.1,1,0.2,1.5,0.3c0.3,0,0.7,0.2,1.1,0.3
		c0.3,0.1,0.5,0.1,0.8,0.2c0.4,0.2,0-0.2,0.1-0.4c0-0.1,0.2-0.2,0.6-0.2c0.2,0,0.5,0,0.9,0.1c0.4,0,0.8,0.2,1.5,0.2
		c3.1,0.5,5.9,0.3,8.1,0.2c1-0.2,2-0.2,2.7-0.2c0.7,0,1.2,0.1,1.4,0.4c-0.4,0.2-0.8,0.4-1.2,0.6c-0.5,0.2-0.9,0.3-1.4,0.5
		c-0.2,0.1-0.5,0.2-0.8,0.3l-0.8,0.2c-0.5,0.1-1,0.3-1.5,0.4c-1,0.2-1.9,0.4-2.7,0.6c-0.7,0.1-1.3,0.4-1.5,0.7
		c0.8,0,1.7,0.1,2.7-0.1c0.5-0.1,1-0.1,1.5-0.2c0.5-0.1,0.9-0.2,1.4-0.3c0.5-0.1,0.9-0.2,1.3-0.3c0.4-0.1,0.7-0.2,1.1-0.3
		c0.6-0.2,1.1-0.2,1.2-0.1c1.2-1.5-0.2-0.6-1.5-0.1c-0.3,0.1-0.6,0.3-0.9,0.4c-0.3,0.1-0.5,0.1-0.6,0.1c-0.2,0,0-0.2,0.8-0.9
		c2-0.9,3-1.2,4-1.6c-0.8,0.2-0.5-0.3,0-0.8c0.4-0.6,1.1-1.3,1.3-1.6c2.6-2,4.7-3.7,6.7-5.4c1-0.9,2-1.8,3.2-2.7
		c1.2-0.8,2.5-1.8,4-2.7c0.2-0.4,0.7-1.1,0.4-1.3c3.2-1.5,8.5-2.1,7.7-0.8c0.9-0.5,1.6-0.9,2.1-1.1c0.3-0.2,0.5-0.3,0.8-0.4
		c0.2-0.1,0.3-0.2,0.5-0.3c0.3-0.2,0.6-0.4,1-0.6c0.1,0,0.2-0.1,0.3-0.1c0.1,0,0.2-0.1,0.3,0c0.2,0.1,0.5,0.2,0.8,0.4
		c-0.2,0-0.4,0-0.6,0c-0.2,0-0.3,0-0.4,0.1c-0.2,0.2-0.3,0.3-0.3,0.3c-0.1,0.1,0.1,0,0.4-0.2c0.1-0.1,0.2,0,0.2,0
		c0.1,0,0.2,0.1,0.3,0.1c0.2,0.1,0.4,0.2,0.6,0.3c0.4,0.2,0.6,0.5,0.6,0.8c3.2,1.5,1.4-0.1,3,0.3c0.5,0.3,1.7,1.3,1.6,1.6
		c2.4,0-3-3.9-0.2-3.9c1.9,0,9.5,1.8,10,1.9c1.2,1.6-0.9,5.4-3.8,5.8c0,0.4,0.8,0.5,1.9,0.6c0.5,0.1,1.1,0.1,1.6,0.2
		c0.3,0,0.6-0.1,0.7,0c0.2,0,0.3,0.1,0.4,0.2l0.2,0.1c0.1,0.1,0.2,0.2,0.4,0.3c0.5,0.4,0.9,0.7,1.3,1c0.4,0.3,0.8,0.7,1.2,1
		c0.4,0.3,0.7,0.6,1.1,0.9c0.4,0.3,0.7,0.6,1.1,0.9c0.4,0.3,0.7,0.5,1.1,0.8c0.4,0.3,0.8,0.5,1.2,0.7c0.5,0.2,0.9,0.4,1.5,0.5
		c0,0-0.7-0.5-1.4-0.9c-0.6-0.5-1.3-1-1.3-1c0.2,0,0.7,0.2,1.3,0.5c0.6,0.3,1.4,0.6,2.2,1c1.6,0.7,3.3,1.4,3.8,1.7
		c0.1-0.2-0.6-0.8-1-1.5c-0.4-0.7-0.6-1.3,0.4-1.3c0.9,0.2,1.7,0.4,2.6,0.6c0.9,0.2,1.7,0.3,2.6,0.5h0c0,0-0.2,0-0.1,0l0,0l0,0l0,0
		l0.1,0l0.1,0l0.3,0.1c0.2,0,0.3,0.1,0.5,0.1c0.3,0.1,0.6,0.2,0.9,0.3c0.6,0.2,1.1,0.4,1.6,0.6c1.8,0.9,2.4,1.8,1.9,2.4
		c0,0-1.8-0.5-3.6-1c-0.5-0.1-1-0.2-1.4-0.4c-0.1,0-0.2-0.1-0.3-0.1l-0.2,0l0,0l0,0l0,0c-0.2,0,0.3,0,0.3,0h0l0,0l-0.1,0
		c-0.3-0.1-0.7-0.1-0.9-0.2c-0.6-0.1-1.1-0.2-1.4-0.3c-0.3-0.1-0.5-0.1-0.5-0.1c-0.1,0.2,0.3,0.5,1.1,0.8c0.4,0.1,0.9,0.2,1.4,0.3
		c0.1,0,0.3,0.1,0.4,0.1l0.1,0l0,0c-0.1,0,0.3,0-0.3,0h0l0,0l0,0l0.1,0l0.1,0c0.2,0,0.3,0.1,0.5,0.1c1.3,0.4,2.5,0.8,2.1,1.4
		l6.7,0.2c-0.8-0.1-3.1-0.6-1.7-1c3,0.3,1.7,0,4.3-0.3c-1.1-0.8-2.9-2.1-5.4-3.5c-0.6-0.4-1.2-0.7-2-1.1c-0.7-0.4-1.4-0.7-2-1
		c-0.6-0.3-1.2-0.7-1.8-1c-0.1-0.1-0.3-0.2-0.4-0.2l0,0c0,0-0.3,0-0.2,0l0,0l0,0l0,0l0,0l-0.1-0.1l-0.1-0.1
		c-0.2-0.1-0.4-0.3-0.5-0.4c0,0,0.3,0.1,0.6,0.2c0,0,0.1,0,0.2,0l0,0l0.2,0l0,0l0,0l0,0l0,0l0.1,0c0.1,0,0.3,0.1,0.4,0.1
		c0.3,0.1,0.6,0.2,0.9,0.2c1.3,0.3,2.5,0.6,2.5,0.6l1.4-0.4c1.6,0.4,3.2,0.9,4.6,1.5c0.7,0.3,1.3,0.6,1.9,0.9
		c0.3,0.2,0.6,0.3,0.9,0.5c0.1,0.1,0.3,0.2,0.4,0.2l0.2,0.3c1.3,1.4,1.3,2.6,1.3,3.1c1.6,0,3-0.5,3.9-1c0.9-0.5,1.3-1.2,1.2-1.4
		c3.6,0.3,4.2,1.1,4.4,1.9c0.3,0.8,0.2,1.5,3.5,1.6l-3.2,0.2c0.5,0.1,2.1,0.2,3.5,0.3c1.4,0.1,2.5,0.2,1.7,0.3
		c2.5-0.4,7.4-1.3,6.9-1.7c0,0,0.1,0.5,0.1,1c-0.1,0.5-0.3,1-0.3,1c-0.1-0.2,5.6-1.5,6.1-1.7c1.3,0.1,0.8,0.5-0.5,1
		c-1.2,0.4-3.1,0.9-4.2,0.9c4-0.3,5.3-0.3,6.6-0.4c1.3-0.1,2.5-0.1,7-0.5c0.5,0.1-1.3,0.4-3.3,0.7c-2,0.3-4.3,0.6-5,0.6
		c0.9,0.6,3.2,0.5,5.2,0.5c-0.7-0.4,2.6-1.1,6.8-1.8c1.8-0.3,3.8-0.6,5.5-0.9c0.8-0.1,1.4-0.3,1.6-0.4c0,0,0.3,0.2,0.8,0.4
		c0.1,0.1,0.2,0.1,0.4,0.2c0.1,0,0.1,0.1,0.2,0.1l0.1,0.1l0.1,0c0,0,0,0,0,0l0,0c-0.5,0.3-1.1,0.5-1.8,0.8c-0.3,0.1-0.7,0.3-1,0.4
		c-0.4,0.1-0.8,0.3-1.1,0.4c-0.8,0.3-1.7,0.6-2.5,0.8c-0.9,0.3-1.6,0.5-2.1,0.6c-0.6,0.2-0.9,0.3-0.9,0.3c0.7-0.1,2.9-0.5,5.1-0.8
		c2.1-0.3,4.1-0.6,4.6-0.7c-0.8,0.1-1.4,0.3-1.8,0.6c-0.2,0.1-0.4,0.3-0.7,0.6c-0.3,0.3-0.8,0.5-1.3,0.6c-2,0.6-3.9,0.9-5.8,1.2
		c-3.6,0.7-6.5,1.4-8.3,2L220,40c1.1,0,1.1,0.3,0.2,0.6c-0.8,0.3-2.4,0.7-3.6,0.7c0.8,0.1,1,0,1.8-0.2c-0.2,0.4-0.9,0.5-1.8,0.6
		c-0.8,0.1-1.8,0-2.6-0.1c-0.8-0.1-1.6-0.2-2.2-0.2c-0.6,0-1,0.2-1.4,0.6c1.1-0.4,1.9-0.4,2.6-0.4c0.7,0.1,1.2,0.2,1.5,0.5
		c-1.5,0.1-3.4,0.6-4.9,0.8c-0.4,0.1-0.7,0.1-1,0.1c-0.2,0-0.3,0-0.3,0c-0.1,0-0.3,0-0.5-0.1c-0.6-0.1-0.8-0.4-0.5-0.9
		c-2.1,0.8-4.2,0.9-3.8,1.8c0,0-2.2,0.1-4.3,0.2c-1.1,0-2.1,0.2-3,0.2c-0.8,0.1-1.3,0.1-1.3,0.1c0.7,0,1.3,0.4-1.1,1.1
		c4.6-1.4,9.5-0.4,11.8-2c0.3,1.1-1.3,2,1,2.5c-4.5,0.5-8.1,0.5-11.3,0.6c-1.6,0-3.1-0.1-4.6-0.1l-1.1,0l-0.6,0c-0.2,0-0.5,0-0.7,0
		c-0.6,0.1-0.9,0.1-1.3,0.2c-0.4,0-0.7,0.1-1.1,0.1l-7.2,3.5l-0.5-0.4l-0.9,1.7c-1,0.1-1.7,0-1.9,0.2c-0.1,0.2,0.2,0.2,0.6,0.3
		c-0.8,0.2-1.6,0.4-2,0.4c-0.1,0.7,1.5,1,3.2,1.1c0.6-0.5,1.2-1,1.8-1.4c1.7,0.1,3,0.3,1.1,1.5c-0.3,0-0.7,0.1-1.1,0.1
		c1.1,0.1,1.8,0.3,1.2,0.7l-6,1.5c0.6-0.4,1.4-1.1,2.4-1.9c-3.9,0.5-8.4,1.1-5.4-0.9l-4.1,2.3c-5.6,0.7-4.6,0.6-11.2,2
		c-0.2,0.6,1.6,0.3,0.6,1c-5.1,0.3-10.6,5.7-12,4.9c-3.8,1.1-1.9-0.5-4.4,0c0.2,0.1,0.5,0.3-0.2,0.6l-3.1,0.2
		c-1,0.7,2.8-0.3-0.2,1.2c-2.8,0.7-5,1.2-7.1,1.8c-1,0.3-2,0.6-3,1c-0.5,0.2-1,0.4-1.5,0.6c-0.5,0.2-1,0.4-1.8,0.8
		c-6.8,3.2,2-3.1-3.5,0c-0.2,0.6-0.4,1.1-1,1.8c-0.5,0.7-1.3,1.5-2.9,2.5c-2,0.6-2.1-0.1-5.1,1.6l0.8,0.8c-0.7,0.4-1.3,0.8-1.8,1.2
		c-0.6,0.4-1,0.8-1.4,1.1c-0.8,0.7-1.2,1.2-0.9,1.6c-0.3,0.2-0.6,0.3-0.8,0.5c-0.3,0.2-0.6,0.4-0.9,0.6c-0.2,0.2-0.5,0.5-0.7,0.7
		c-0.2,0.2-0.3,0.3-0.5,0.5c-0.6,0.6-1.1,1.2-1.4,1.8c-1.7,1.5-1.6,0.5-1-1.1c0.3-0.8,0.7-1.6,1.1-2.4c0.1-0.2,0.2-0.4,0.3-0.5
		c0-0.1,0.1-0.2,0.2-0.4c0.1-0.1,0.2-0.3,0.3-0.4c0.3-0.5,0.6-0.7,0.7-0.9c-0.5,0.5-1.4,1.6-1.5,1.9c-0.3,0.4-0.6,0.8-0.9,1.2
		c-0.6,0.8-1.1,1.5-1.6,2.1c-1,1.3-1.8,2.5-2.1,3.9l2.9-2.7c-4.6,7.2-6.6,4.8-7.3,9.3c1.9-2.2,4.6-4.3,4-2.7l-3.2,2.7
		c-0.1,0.6,1.8-1.6,0.7,0c-1,0.7-3.1,2.1-4.1,2.7l0.1,0l-5.2,5.5c0.9-1.1,1.5-1.1,0.6,0l-3.8,3.3c1.2-0.9,0.5,0.5-0.9,2.2
		c-4,5-5.4,2-7.8,6.5c0.5-0.5,0.6-0.5,1.1-1.1l-1.3,2.2c-2.2-1.3-10.2,10.9-12.4,9.7c-1.7,3.3,0.3,0.6,4.3-2.1l-2.1,3.3
		C64.9,125.5,65.7,124.4,67,123.3z"/>
	<path class="st0" d="M174.3,51.9c-0.2,0.2-0.3,0.4-0.3,0.6C173.6,52.5,173.5,52.4,174.3,51.9z"/>
	<path class="st0" d="M39.5,152.8l-0.1,0.1c-0.1,0-0.2,0-0.2,0L39.5,152.8z"/>
	<path class="st0" d="M142.2,18.1c1,0.3,1.6,0.4,2.1,0.4C144.2,18.7,143.7,18.7,142.2,18.1z"/>
	<path class="st0" d="M49.1,51.5l2.3-2.4c-1.1,1.2-1.3,1.8-1.7,2.5C49.6,51.4,49.8,50.7,49.1,51.5z"/>
	<path class="st0" d="M44.2,65.6c-0.1,0-0.1,0.1-0.3,0.1l-0.3-0.3C43.9,65.2,44.4,65.2,44.2,65.6z"/>
	<path class="st0" d="M49.3,55.8c0.4,0.7-1.1,2.1-2.8,3.8c0.1-0.1,0.2-0.2,0.3-0.3C45.6,59.1,47.4,57.4,49.3,55.8z"/>
	<path class="st0" d="M46.2,59.9l-0.7,0.8l-0.3,0.4l-0.2,0.2l0,0c-0.1-0.1-0.1-0.1-0.1-0.1c0,0,0,0,0.2-0.2
		C45.3,60.8,45.7,60.4,46.2,59.9z"/>
	<path class="st0" d="M64.2,36.6c-0.7,0.9-1.2-0.2-1.4,0.5C61.1,37.2,69.1,32.6,64.2,36.6z"/>
	<polygon class="st0" points="49.9,58.8 49.8,57.6 51.2,57.1 	"/>
	<path class="st0" d="M61.2,44.4l-2.2,3c-0.1-0.1-0.4,0.2-0.9,0.5C59.6,46.2,61.1,44.2,61.2,44.4z"/>
	<path class="st0" d="M58.2,47.9c-0.8,0.9-1.5,1.8-2,2.2C56.5,49.6,57.5,48.6,58.2,47.9z"/>
	<polygon class="st0" points="53.4,55.1 54,54.2 55.6,52.1 	"/>
	<path class="st0" d="M96.1,33.9c0,0,1,0.1,1.9,0.1c0.5,0,1,0,1.3,0c0.4,0,0.6,0,0.6,0c0.5,0.2-0.6,0.6-2.1,0.6
		C97,34.4,95.5,34.2,96.1,33.9z"/>
	<path class="st0" d="M83.8,34.3c1.1,0,1.2-0.2,1.9-0.4L85.6,35L83.8,34.3z"/>
	<path class="st0" d="M95.5,36.7c0.2,0.2,1.8,0.4,2.7,0.6c0.9,0.1,1,0.3-1.9,0.3c-0.2-0.1-1.5-0.4-2.1-0.7
		C93.5,36.6,93.4,36.5,95.5,36.7z"/>
	<polygon class="st0" points="149.1,17.6 148.2,17.2 149,15.5 	"/>
	<path class="st0" d="M191.6,34.1c-4,0.1,1.1-1.1-2.9-0.9c-0.2-0.5,3.3-0.2,3.1-0.6C193.2,33.3,194.7,33.2,191.6,34.1z"/>
	<path class="st0" d="M191.7,32.7c-0.2-0.1-0.5-0.2-0.7-0.3C191.4,32.5,191.6,32.6,191.7,32.7z"/>
	<polygon class="st0" points="26.5,86.1 26.4,85.4 26.8,86 	"/>
	<path class="st0" d="M28.2,85.4l-1.1-0.5l1.1,0C28.2,85,28,85.3,28.2,85.4z"/>
	<path class="st0" d="M108.2,76.1l0.4,0.1c-0.2,0.5-0.8,1.1-2.1,2.1L108.2,76.1z"/>
	<polygon class="st0" points="79.4,107.9 79.9,107.4 79.8,109.1 	"/>
	<path class="st0" d="M54.9,133c0.9-1.1,2.2-2.2,3.2-3.3C55.8,131.9,55.6,134.2,54.9,133z"/>
	<path class="st0" d="M41.7,233.1c0.1-0.2,0.7,0.3,0.8,0.3C42.1,233.6,41.5,233,41.7,233.1z"/>
	<polygon class="st0" points="38,235.7 38.3,235.8 37.4,236 	"/>
	<path class="st0" d="M36.2,239.4c-1-0.9,0.9-1.2,0.8-2.1l-0.2-0.2l1.1,0.2C37.3,237.9,36.1,238.6,36.2,239.4z"/>
	<path class="st0" d="M37.8,242.5c-0.4-0.3-0.6,0.2,0.1-0.5c0,0.1,0.1,0.1,0.1,0.1C37.9,242.2,37.8,242.3,37.8,242.5z"/>
	<path class="st0" d="M37.9,242.1C38.1,241.7,38.2,242.5,37.9,242.1z"/>
	<path class="st0" d="M36.9,243.7l0.6-0.3c0.2,0.2,0.1,0.7,0.4,0.6C37.4,244.4,37.2,244.2,36.9,243.7z"/>
	<path class="st0" d="M35.8,243.8l0.3-0.2C36.2,243.7,36.2,243.8,35.8,243.8z"/>
	<path class="st0" d="M36.7,243.3l-0.6,0.4c-0.2-0.2-0.5-0.3,0.2-0.2C36,243.3,36.4,243.4,36.7,243.3z"/>
	<path class="st0" d="M36.7,242.9c-0.1-0.4-0.1-0.8-0.8-0.5C36.5,241.5,37.3,242,36.7,242.9z"/>
	<path class="st0" d="M34.9,239l-0.1-0.6l0.6-0.1C35,238.3,35.2,239.2,34.9,239z"/>
	<path class="st0" d="M36.3,247.1c-0.3-0.1-0.6-0.4-1-0.6l0.4-0.3C35.8,246.5,35.9,246.9,36.3,247.1z"/>
	<path class="st0" d="M35.3,246.5l-0.6,0.4C34.8,246.4,35,246.3,35.3,246.5z"/>
	<polygon class="st0" points="34.5,243.4 35.8,242.8 34.4,243.5 	"/>
	<polygon class="st0" points="35.6,249.1 36.3,249 35.2,249.3 	"/>
	<path class="st0" d="M34.5,251.4c0.6,0,0.6,0.7,1.1,0.6c-0.3,0.4-0.9,0.5-1.4,0.6C34.6,252.4,34.7,252,34.5,251.4z"/>
	<path class="st0" d="M33.5,252.9c0.2-0.1,0.5-0.2,0.8-0.3C34,252.7,33.8,252.8,33.5,252.9z"/>
	<path class="st0" d="M34.5,247.9c0.1,0.1,0.5,0.3,0.6,0.7l-0.7-0.5C34.4,248,34.4,247.9,34.5,247.9z"/>
	<path class="st0" d="M34.4,248.1L34.4,248.1c0,0.3-0.1,0.4-0.1,0.5C34.3,248.5,34.3,248.4,34.4,248.1z"/>
	<path class="st0" d="M34.5,247.8C34.5,247.8,34.5,247.8,34.5,247.8C34.4,247.8,34.4,247.8,34.5,247.8z"/>
	<path class="st0" d="M34.4,245.1c-0.5,0.2-1.2,0.7-1.6-0.2C33.4,244.9,33.7,245.4,34.4,245.1z"/>
	<path class="st0" d="M33.7,247.2l0-0.7c0.2,0.1,0.4,0.3,0.7,0.2L33.7,247.2z"/>
	<polygon class="st0" points="33.3,247.4 33.7,247.2 33.6,247.5 	"/>
	<path class="st0" d="M33.3,251.5c-0.4,0.1-0.6,0.4-0.8,0.7c0-0.4,0.1-0.8,0.3-1.2C33,251.1,33.5,251.1,33.3,251.5z"/>
	<path class="st0" d="M33.9,249.8c0,0-0.1,0.1-0.1,0.1C33.7,249.8,33.7,249.7,33.9,249.8z"/>
	<path class="st0" d="M30.9,255.4c0,0-0.1-0.1-0.1-0.1C30.9,255.3,30.9,255.3,30.9,255.4L30.9,255.4z"/>
	<path class="st0" d="M32.7,250.9c0-0.3,0.2-0.4,0.5-0.5c-0.2,0.2-0.3,0.4-0.4,0.6C32.7,251,32.6,251,32.7,250.9z"/>
	<path class="st0" d="M32.7,253.6c-0.1-0.2-0.1-0.4-0.2-0.6C32.7,253.2,32.9,253.6,32.7,253.6z"/>
	<path class="st0" d="M33.9,250.2C33.9,250.1,33.9,250.1,33.9,250.2C34,250.3,34,250.3,33.9,250.2z"/>
	<path class="st0" d="M33.9,250.2c-0.2,0.2-0.5,0.3-0.7,0.3l0.1-0.1l0.1-0.2c0.1-0.1,0.2-0.2,0.3-0.3
		C33.8,250,33.8,250.1,33.9,250.2z"/>
	<path class="st0" d="M26,254.3c0.7,0.3,1.6-0.1,1.2-1.1c0.8-0.4,2.7,1.1,3.7,2.1c-0.3-0.1-0.6-0.2-1.2,0.2c-0.3-0.4-0.2-1.8-1-1.5
		c-0.7,0.6-0.1,0.8,0.1,1.3c-0.6-0.7-1.7,0.5-2.8-0.3l0.8-0.5C26.5,254.4,26,254.5,26,254.3z"/>
	<path class="st0" d="M31.3,254.1l0.2-0.2c0,0.3,0.1,0.7,0.5,1.3c-0.5,0.3-0.8,0.2-1,0.2l0.5-1.3L31.3,254.1z"/>
	<path class="st0" d="M32.1,252.8c-0.8-0.1-1.4,0.3-2-0.4c0.4-0.7,0.8-0.2,1.4-0.5C30.7,252.9,32,251.7,32.1,252.8
		c0.2-0.2,0.3-0.4,0.4-0.6c0,0.3,0,0.5,0,0.8c0,0,0,0,0,0l0,0l0,0c-0.1-0.1-0.1-0.1-0.1-0.1c0,0,0,0,0,0
		C32.3,252.8,32.2,252.8,32.1,252.8c0,0.4,0.2,0.1,0.3,0.1c0,0,0.1,0,0.1,0l0,0l-1,1C31.6,253.6,31.7,253.3,32.1,252.8z"/>
	<path class="st0" d="M31.1,244.9c0.1,0.1,0.1,0.1,0.2,0.1C31.1,245.1,31,245.1,31.1,244.9z"/>
	<path class="st0" d="M31.3,245.6c0.1-0.1,0.5,0,0.5-0.3c-0.1-0.3-0.4-0.1-0.6-0.2c0.3-0.1,0.7-0.4,0.9,0.3l-0.1,0
		c0.1,0.6,0.8,1.5,0.9,1.5C32.3,246.5,31.9,246.2,31.3,245.6z"/>
	<path class="st0" d="M31.7,249.2c0,0.1-0.9,0.9-0.9,0.9l-0.4-0.8l0.4,0.2c0.1-0.3,0.2-0.4,0.4-0.4
		C31.3,249.1,31.5,249.2,31.7,249.2z"/>
	<polygon class="st0" points="31.2,255.7 32.1,255.9 30.7,256 	"/>
	<polygon class="st0" points="30.5,257 31.2,257.2 30.6,257.4 	"/>
	<path class="st0" d="M288,71.6l-1.8,1.2C287,72.2,287.6,71.8,288,71.6z"/>
	<path class="st0" d="M300.1,61.7l0.5,0C300,62.1,299.7,62.2,300.1,61.7z"/>
	<path class="st0" d="M130.8,84.6c1.9-2.7,3.7-5.9,4-5.1l-0.2,1.2C132.9,82.2,131.7,83.5,130.8,84.6z"/>
	<path class="st0" d="M282.8,23.3c-0.3,0.2-0.5,0.4-0.8,0.6c-0.8,0-1.6,0.1-2.3,0.1C280.7,23.8,281.7,23.5,282.8,23.3z"/>
	<path class="st0" d="M286.1,25.5l3.7-2.1C289,23.9,287.8,24.6,286.1,25.5z"/>
	<path class="st0" d="M232.5,128.9l-2.7,0.2C233.5,127.6,232.1,128.7,232.5,128.9z"/>
	<path class="st0" d="M33.2,184.8c0.9-2.8,2-4.9,2.9-6.7c-0.6,1.6-1.1,3.1-1.6,4.3C34.1,183.7,33.7,184.6,33.2,184.8z"/>
	<path class="st0" d="M298,74.3c-1.2,0.7-1.7,1-1.8,0.8C297.4,74.4,298.2,74,298,74.3z"/>
	<path class="st0" d="M40.4,171.1c-0.2,0.5-0.5,0.9-0.7,1.4c-1.2,1.7-2.4,3.5-3.6,5.7c0.4-1.2,1.1-2.4,1.8-3.7
		C38.5,173.3,39.3,172.1,40.4,171.1z"/>
	<path class="st0" d="M45.5,214c0,0,0,0.1,0,0.1C45.4,214.1,45.4,214,45.5,214z"/>
	<path class="st0" d="M43.3,229.5c0.1-0.1,0.3-0.2,0.4-0.4C43.6,229.2,43.5,229.3,43.3,229.5z"/>
	<path class="st0" d="M19.5,244.6C19.1,246.6,19.4,244.9,19.5,244.6z"/>
	<path class="st0" d="M20.6,255c0.2-0.4,0.4-0.7,0.5-0.7C20.9,254.4,20.7,254.7,20.6,255z"/>
	<path class="st0" d="M58.8,159.3c0,0,0.1-0.1,0.1-0.1C58.6,159.7,58.7,159.6,58.8,159.3z"/>
	<path class="st0" d="M19.3,247.7c0.1-0.8,0.2-1.7,0.3-2.6C19.5,245.5,19.5,246.3,19.3,247.7z"/>
	<path class="st0" d="M19,247.2c-0.1,0.7-0.2,1.3-0.3,1.8C18.5,249.2,18.5,249,19,247.2z"/>
	<path class="st0" d="M20.2,241.8c-0.3,1.1-0.4,2.2-0.6,3.3c0-0.4,0-0.6,0-0.5C19.7,244,19.9,243.2,20.2,241.8z"/>
	<path class="st0" d="M97.6,184.2c-0.1,0.1-0.2,0.2-0.4,0.3C95.2,185.1,96,184.8,97.6,184.2z"/>
	<path class="st0" d="M182.6,68c-0.1,0-0.1,0-0.2,0.1C182.5,68,182.6,67.9,182.6,68L182.6,68z"/>
	<path class="st0" d="M189.7,65.7c-3.3,0.3-4.9,1.1-7,2.2l1.4-3L189.7,65.7z"/>
	<path class="st0" d="M81.8,198.7l-1.1,0.8C79.8,199.6,78.9,199.8,81.8,198.7z M24.3,226.1c-0.3,1.8-0.6,3.3-0.9,3.7
		c0.1,0.3,0.2,0.4,0.4-0.3C24.4,227.5,24.4,226.6,24.3,226.1z M24.9,222.5c0,0,0,0.1-0.1,0.1C25.1,220.3,25.2,219.1,24.9,222.5z
		 M277.2,27.2c-1.7,1-3.2,1.8-4.4,2C274.4,28.3,275.9,27.7,277.2,27.2z M313.4,48.3c-0.2,0.4-0.4,0.7-0.7,1.1
		c-0.2,0.3-0.6,0.7-0.9,0.7c0-0.1-0.1-0.1,0-0.3c0.1-0.2,0.1-0.4,0.2-0.6c0.2-0.4,0.5-0.9,0.7-1.3c0.6-0.9,1.2-1.8,1.7-2.5
		C314.1,46.5,313.8,47.5,313.4,48.3z M261.9,92.2c-0.8,3.7-1.7,7-2.6,10c-0.1,0.4-0.2,0.8-0.3,1.1c-0.1,0.2-0.1,0.2-0.1,0.3
		c0,0.1-0.1,0.1-0.1,0.2c-0.3,0.6-0.5,1.2-0.8,1.8c-0.5,1.1-1,2.1-1.4,3c-0.4,2.6,2.3-1.5-0.1,5.6c-0.1,0.3-0.2,0.5-0.4,0.7
		c-0.1,0.1-0.4,0.4-0.5,0.6c-0.4,0.4-0.7,0.6-0.9,0.7c-0.4,0.1-0.3-0.2-0.2-0.7c0.1-0.5,0.2-1,0.1-1.1c0-0.1-0.1-0.1-0.3,0.1
		c-0.1,0.1-0.2,0.2-0.3,0.3c-0.2,0.1-0.3,0.3-0.5,0.6c0,0-0.1,0.2-0.2,0.6c-0.1,0.4-0.3,0.8-0.5,1.3c-0.2,0.5-0.4,0.9-0.6,1.3
		c-0.2,0.3-0.3,0.6-0.3,0.6c-0.7,0.5-1.4,1.1-2.1,1.5c-0.3,0.2-0.7,0.5-1,0.7c-0.3,0.2-0.7,0.4-1,0.7c-0.3,0.2-0.6,0.4-0.9,0.7
		c-0.3,0.2-0.6,0.4-0.9,0.6c-0.6,0.4-1.1,0.7-1.6,1l-0.4,0.2l-0.6,0.3l-1.1,0.5c-0.7,0.3-1.5,0.7-2.2,1c-1.5,0.7-3,1.4-4.5,2.1
		c-1.5,0.5-2.2,0.6-2.6,0.7c-6.5,3.2-14.5,4.5-19.4,7c1.3-0.2-2.6,1.9-3,2.4l-9.4,3c4.1-1.3,4.3-0.6,5.3-0.2c-2.9,1.1-4.4,1.3-6.3,2
		c1.3-0.2,2.6-0.5,1.2,0.4l-10,2.7c0.5-0.3,1.6-0.8,2.5-1.2c-2.4,1-7.7,2.6-10.9,4.6c0.4,0.1,1.7-0.1,2.1,0.1c2.6-1.9,4.4-1.9,6.1-2
		c-6.6,2.6-1.6,0.8-4.5,2.6c-4.7,1.9-6.9,1.7-5.9,0.7c-5.1,2.4-6.7,3.2-12.4,4.7l1.4,0.5l-5,1.7l4.5-0.5c-9.2,4.5-2.4-0.9-12.6,3.9
		l0.3,0.8c-4.2,1.3-6.1,0.5-8.8,2.8c-4.1,1.1,6.2-3.9-3-0.3c-1.4,1.1-4.8,2.8-7.4,4c-3.1,0.8,1.8-1.9,3.8-2.5
		c-7,2.6-8.9,4.2-10.6,5.6c-0.9,0.7-1.7,1.4-3.1,2.1c-0.3,0.2-0.8,0.4-1.1,0.6c-0.1,0.1-0.2,0.1-0.4,0.2c-0.1,0-0.3,0-0.4,0.1
		c-1.2,0.2-2.6,0.3-4.4,0.5c2.3-0.7,1.3-1,1-1.3c-0.1-0.2,0-0.3,0.8-0.6c0.4-0.1,1-0.3,1.9-0.4c0.2,0,0.6-0.1,0.5-0.1c0,0,0,0,0.1,0
		c0.1,0,0.2-0.1,0.4-0.2c0.3-0.1,0.6-0.2,0.9-0.4c-0.3,0.1-0.6,0.2-0.9,0.3l-0.4,0.1l-1.2,0.3c-1.3,0.3-2.7,0.6-4,1
		c-1.3,0.4-2.6,0.8-3.9,1.1c-1.3,0.3-2.7,0.6-4.1,0.7l3.8,0.2c-1.9,0.5-4.2,0.7-5.3,0.8l0.7,0.7c-0.9,0-1.7,0.2-2.6,0.3
		c-0.4,0.1-0.8,0.2-1.2,0.3c-0.4,0.1-0.8,0.2-1.3,0.4c-0.3,0.1-0.5,0.2-0.8,0.3l-0.6,0.3c-0.3,0.2-0.7,0.4-1,0.5
		c-0.6,0.4-1.3,0.7-1.9,1c-2.4,1.4-4.5,2.5-6.8,2.5c3.2,0.1-4.5,2.2-6.6,3.9c5.4-1.5,14-7.2,15.3-6.2c-2.1,1.6-4.4,2-6.4,3.5
		c1.6-0.6,4-1.4,4.8-1.4c-7.1,4.6-12.2,5.3-16.9,7.2l8.2-3.8c-1.3-1-3.7,1.6-6.5,1.8c-3.7,2.7-7.3,3.4-10.4,5.5
		c0.9-0.5,1-0.4,1.9-0.8c-8.8,4.5-10.2,7.8-13.6,9.6c-0.2,0.1-0.5,0.3-0.7,0.4c-0.2,0.2-0.5,0.3-0.7,0.5c-0.2,0.1-0.4,0.3-0.7,0.5
		c0,0-0.1,0-0.1,0c-0.2,0.1-0.4,0.1-0.6,0.1c-0.4,0-0.7-0.2-0.7-0.6c-0.3,0,0.2-0.2,0.5-0.5c0,0,0.1-0.1,0.1-0.1l0,0l0,0l0.1-0.1
		c0.1-0.1,0.3-0.2,0.4-0.3c0.3-0.2,0.5-0.4,0.7-0.6c0.2-0.2,0.6-0.4,0.7-0.5c0.3-0.2,0.3-0.4,0.2-0.5c-0.1,0-0.2-0.1-0.4-0.1
		c-0.1,0-0.7,0.1-1.1,0.3c-0.3,0.4-0.5,0.7-0.8,1l-0.2,0.2l0,0.1c0,0,0,0.1,0,0.1c0,0.2-0.1,0.3-0.2,0.4c-0.2,0.2-0.4,0.2-0.8,0.3
		c-0.6,0.1-1.5,0.2-1.8,1.3c1.1,0.1,0.4,1.3,1.3,1.3c-0.8,0.4-1,0.2-1.7-0.1l0.2,0.7c-1.8-0.5-1-0.9-2.9-0.4
		c0.8,0.1,0.1,1.2,0.7,1.3c-0.4,0.3-0.8,0.5-1.4,0.4l0.1,0c-1.6,0.9-0.6,1.6-2.3,2.1l-0.1-0.4c-1.2,0.3-2.1,1-3.1,1.8
		c-0.9,0.8-1.8,1.7-2.8,2.4l0.3-0.8c0,0.2-0.4,0.3-0.8,0.5c-0.2,0.1-0.5,0.3-0.7,0.6c-0.1,0.1-0.2,0.3-0.3,0.4
		c-0.1,0.1-0.1,0.2-0.1,0.3c0.1,0,0.1-0.1,0.3-0.1c0.1-0.1,0.2-0.2,0.3-0.3c0.2,0.2,0.3,0.4,0.4,0.7c0.1,0.3,0.1,0.5,0,0.8l-0.7-0.3
		l0.3,0.5c-0.5,0.6-0.6-0.8-1.1-0.2c1.3,1.6-1.9,2.8-0.9,4.4c-1.5-0.5,0.8-1.3-0.6-1.6c0,0.3,0.2,0.6-0.1,1l-0.6-0.7
		c-1.1,2.1-1.1,3.3-2.5,4.8l0.2,0c-0.2,0.8-0.6,1-1.4,0.8c0.2,0.4,0.7,0.1,0.8,0.5c-2.5-0.4-0.4,3.1-2.1,2.7c1.4,1,1.6,3.4,3.2,3.7
		l-0.5,0.3c1,0.6,1.1-1.3,2.2-0.8l0.1-2.1c0.3,0.3,1,0.5,0.9,0.8c0.3-0.3,0.6-0.6,0.7,0.3c0.2-5,5.1-6.5,6.4-10.6
		c0.2-0.1,0.5,0.2,0.6,0.5c-0.2-0.6,0-0.7,0.3-0.6c0.3,0.1,0.7,0.4,0.8,0.4c0,0-0.2-0.4-0.3-0.8c-0.1-0.5-0.2-0.9-0.2-0.9
		c0.6,0,0.8,0.6,1,0.8c0.8-0.6,1.3-1.4,1.8-2.2c0.5-0.8,1.1-1.5,2-1.7c0-0.8-0.9-0.9-0.6-1.5c0.4,1.9,2-0.7,2.3,0.6
		c-0.6-1.8,1.6-1.8-0.1-3.5c0.6-0.6,1.2,0.4,1.1,0.7c0.7-0.7,1.3-1.1,2.4-1c0-0.4,1-0.9,1.9-1.5c0.4-0.3,0.9-0.7,1.2-1.1l0.1-0.1
		c0.1-0.1,0.3-0.2,0.4-0.3c0.3-0.2,0.6-0.5,0.8-0.6c0.6-0.4,1.2-0.7,1.7-1.1c1.1-0.7,1.9-1.4,2.5-1.9c-3,2.9,0.6,0.4,4.2-0.9
		l-2.6,2.5l7.6-4c1.6-0.7,2-1,2-1.1c1.3-0.7-0.6-0.4,2.6-2.3c5.2-2.7,5.7-2.4,8.8-3.3l-0.7,0.5l3.6-1.7c2.6-1.4-9.7,3.8-1.4-1
		c0.3,0.2,5.9-1.1,7.8-3c-4.3,2.3-4.1,1.3-2.7,0.2l6.1-3.2l-1.4,2.2c1.1-0.6,2.2-1.1,3.3-1.7l1.3-0.7l1.5-0.5c2.2-0.8,4.6-1.4,6.9-2
		c1.2-0.3,2.4-0.6,3.6-0.8l1.8-0.4c0.6-0.1,1.2-0.2,1.8-0.3l1.8-0.3l1.3-0.2c0.5-0.1,0.9-0.4,1.3-0.5c1.2-0.5,2.3-1,3.5-1.5
		c9.4-4.1,18.9-8.1,28.6-12.1c-0.7-1,13.7-5.6,11.3-6.5l-0.7,0.5c-4.8,1.8,0.9-1.8,4.8-3.2c-3.9,2.2,7.9-1.4-1.8,2.9l7.9-2.4
		c5.5,1.3,20.3-8.5,32.3-12.2c-0.9,0.2-1.1,0.1-1.3,0.1c10.7-3.2,22.7-10.2,25.3-10.7l0.6-1.2c2.3-0.6,4.2-1,5.7-1.4
		c0.8-0.2,1.5-0.4,2.2-0.7c0.8-0.3,1.6-0.7,2.3-1c0.7-0.4,1.4-0.8,2.1-1.3c0.7-0.5,1.4-1.1,2.2-1.7c1.5-1.3,3.2-2.9,5.2-5.3
		c-0.2,0-1.3,0.9-0.2-0.7c0.6-0.4,1.2-0.9,1.8-1.5c0.3-0.3,0.6-0.6,1-1c0.3-0.3,0.7-0.9,1.2-1.5l0.2-0.2c0-0.1,0.1-0.2,0.1-0.3
		c0.1-0.2,0.1-0.4,0.2-0.6c0.1-0.3,0.2-0.7,0.4-1c0.2-0.6,0.4-1.2,0.6-1.8c0.4-1.3,0.9-2.9,1.4-4.8l-0.4,0.2c0,0,0.2-0.7,0.5-1.8
		c0.2-0.6,0.4-1.2,0.6-1.9c0.1-0.2,0.1-0.5,0.2-0.8c0-0.2,0.1-0.4,0.1-0.6c0.1-0.3,0.1-0.7,0.2-1c0.3-1.4,0.6-2.8,0.9-3.8
		c0.3-1,0.5-1.7,0.5-1.7c-0.7-0.2-0.6-1.4,0.1-3.2c0.3-0.9,0.8-1.9,1.4-2.9c0.5-1,1.3-2,1.9-2.5c0.3-0.3,0.7-0.5,1.1-0.6l0.3-0.1
		c-0.1,0.1,0,0,0.1,0l0.3-0.1c0.4-0.1,0.7-0.2,1.1-0.4c0.7-0.3,1.4-0.5,2.1-0.8c0.6-0.3,1.2-0.6,1.8-0.9c2.3-1.1,3.9-2.4,4.4-3.5
		c0.6-0.1,1.6-0.4,2.8-1c0.6-0.3,1.2-0.6,1.9-1c0.6-0.4,1.4-0.7,2-1.2c2.5-1.7,5.1-3.6,6.8-4.6c-0.1-0.1,0.1-0.4,0.5-0.9
		c1.2-0.4,2.4-1.2,3.6-2.1c0.6-0.5,1.3-1,1.9-1.5c0.6-0.5,1.3-1.1,1.9-1.8c2.4-2.6,4.7-5.4,6.7-7.2c2.6-2.3,1.9-0.9,1.2,0.6
		c1-1.5,2.3-3,3.8-4.5c0.4-0.4,0.8-0.8,1.2-1.1l1.4-1.4l0.2-0.2l0.2-0.3l0.3-0.5l0.3-0.5l0.2-0.3c0.3-0.4,0.6-0.9,0.8-1.3
		c2.2-3.4,4.2-6.4,4.6-7.6c2.1-4.4-0.1-2.1-0.1-3.6c3.5-6.3,1.7,2.2,5.1-6.9c-0.6,1-1.6,2.8-1.4,2c1.5-3.4,1.6-10.8,3.8-13.8
		l-0.7,2.4c1.8-2.9,3.1-6.7,4.3-9.8c0.6-1.6,1.1-3,1.6-4c0.2-0.5,0.6-1,0.8-1.4c0.2-0.4,0.5-0.6,0.7-0.7c0,0,0.2,0.2,0.3,0.5
		c0.2,0.2,0.3,0.5,0.3,0.5c0.4-1.8,0.4-3.4,0.1-4.8c-0.4-1.4-1.3-2.6-2.1-3.1c-0.4-0.3-0.8-0.5-1.2-0.6c-0.3-0.1-0.7-0.2-1-0.3
		c-0.6-0.1-1-0.2-1.4-0.2c-0.9-0.1-1.7,0-3.1,0.4c-0.8,0.2-1.4,0.6-2.3,1c-0.9,0.4-1.9,1-3.3,1.6l0.2,0.1c-4.8,1.8-7,3.9-9.9,3.5
		l1.6-0.8c-6,2.3-6.5,2.6-12.5,5.2c-0.8,0.2-3.7,1.2-4.5,1.8c-0.7-1-14.2,5.2-16.9,6.4c4.8-1.8,2.8-0.4,1.6,0.6
		c-3.2,0.3-5.1,1-8.8,3.2c-1.1-1.1-2.4-2.2-10.2,0.8c1.3-0.3,3.2-0.9,2.5-0.3c-0.7,0.6-2.6,1-3.2,1.2c-0.7,0.6,1.9-0.2,1.2,0.6
		c-5.7,0.8-9,3.6-16.7,6.2c2.5-0.6,0.6,0.5-0.1,1.3c-1.2-1.3-9.8,5.5-7.7,2.4c-14.3,7.2-37.4,15.4-42.6,19c-1.3,1.2-5.8,2-8.4,3
		l0.6,0.5c-7.7,1.7-5.8,1.8-14.7,4.1c3.8-0.6,2.5,0.3-0.8,2.4l-6.4,1l-0.7,1.5c-2.5,0.6-5.1,1.8-7.7,3.1c1.3-0.5,0.6-0.1,0.6,0.1
		c-0.5-0.2-1.5-0.1-2.7,0.2c-0.3,0-0.4,0.1-0.6,0.1c-0.1,0-0.2,0-0.3,0c-0.1,0-0.4,0-0.6,0c-0.9,0-1.7,0.2-2.6,0.3
		c-3.4,0.6-6.7,1.7-7.6,1.8c-2.2,2.5-7.4,2.9-8.8,6.2c-0.8,0.5-1.8,1.2-2.8,2c0.5-1.4,0.4-2.3-1.2-0.3c-0.2,0.1-0.3,0.3-0.4,0.4
		l-0.2,1.4c-2,1.6-4,3.4-5.2,4.5c0.5-0.6,1.1-1.3,1.6-2.1c-0.7,0.9-1.3,1.7-2,2.5c-0.3,0.2-0.5,0.5-0.7,0.6c0.1-0.1,0.3-0.2,0.4-0.4
		c-1,1.2-2.1,2.4-3.9,3.8c-5.6,7.2-15.8,12.4-21.7,20.6c1-1.2,2.4-2.7,3-2.8c-6.1,5.7-11.2,12.2-15.5,15.4l-0.3-0.8
		c-4.7,3.9-8.3,7-11.8,10.4l-0.8-0.5c-4.9,5.2-17.1,14.6-18.9,19c-1.8,0.7-7,6.9-10.1,9.6l-0.3,1.2c-0.9,1-1.8,1.8-2.6,2.6
		c-0.4,0.4-0.8,0.7-1.1,1.1c-0.4,0.4-0.8,0.7-1.2,1.1c-0.6,0.5-1,1.1-1.3,1.5c-0.3,0.4-0.6,0.7-0.8,1.1c-0.5,0.7-1.1,1.4-1.6,2
		c-1.1,2.6-2.4,5-3.6,7.4c-0.6,1.2-1.3,2.3-1.8,3.6c-0.3,0.6-0.6,1.2-0.9,1.8l-0.5,0.9l-0.3,0.6c-0.1,0.2-0.2,0.4-0.3,0.6
		c-0.2,0.7-0.3,1.5-0.5,2.2c-0.2,0.6-0.3,1.2-0.5,1.8c-0.3,1.2-0.6,2.4-0.9,3.5c-0.6,2.3-1.1,4.7-1.6,7l0.2,0.1l-2.4,9.2
		c1.1-2.3-0.8,1.7-1.2,4.6c-1,2.9-1.8,7.7-2,11.3l-1.2,5.9c1.8-6.5,0.9,0.7,1.6,1.2l-1.4,3.7c0.1,1.6,1.1-2.3,0.7,0.5
		c-1,2.4-2.5,10-3.8,12.1c-0.1-0.4-0.1-1.4,0-2.5c0.1-0.3,0.1-0.3,0-0.1c0-0.1,0-0.2,0-0.3c0,0.1,0,0.2,0,0.3
		c-0.1,0.3-0.4,0.8-0.5,1c-0.8,4.8-0.8,3-1.1,2.7c0.1,2.8-0.3,4.9-0.5,6.9c-0.1,1-0.3,1.9-0.3,2.9c0,0.5,0,1,0,1.6
		c0,0.6,0.1,1.1,0.2,1.8c-0.2-1.7-0.4-1.6-0.6-0.7c-0.1,0.2-0.1,0.5-0.2,0.9c-0.1,0.4-0.1,0.8-0.1,1.5c0,0.2,0,0.4,0,0.8l0.1,0.4
		l0,0.2l0.1,0.3l0.1,0.3l0.1,0.2l0.1,0.2c0.1,0.2,0.2,0.5,0.4,0.7c0.1,0.1,0.2,0.2,0.2,0.3c0.1,0.1,0.1,0.2,0.4,0.4
		c0.4,0.3,0.8,0.6,1.3,0.9c0.5,0.2,0.9,0.3,1.5,0.3c0.3,0,0.5,0,0.8,0c0.1,0,0.3,0,0.4-0.1c0.1,0,0.3-0.1,0.3-0.1
		c0.2-0.1,0.5-0.2,0.7-0.3c0.2-0.1,0.5-0.3,0.6-0.4l0.3-0.2l0.3-0.2l0.1-0.1l0.1-0.1c0.4-0.4,0.5-0.7,0.7-0.9
		c0.5-0.8,0.7-1.2,0.9-1.7c0.2-0.5,0.4-0.9,0.6-1.4c0.1-0.3,0.3-0.7,0.4-1c0.2-0.3,0.3-0.6,0.4-0.9c0.2-0.3,0.3-0.6,0.5-0.8
		c0.6-1,1-1.3,0.9-0.3c0.6-4.2,1.2-2.5,1.3-5.4c-0.5,1.3-1.2,2.6-1.8,3.9c-0.3,0.6-0.7,1.2-1,1.8l-0.5,0.9l-0.3,0.4
		c-0.1,0.1-0.1,0.1-0.2,0.2c-0.3,0.5-0.7,1.3-1,1.9c-0.2,0.3-0.4,0.7-0.6,1c-0.1,0.2-0.3,0.4-0.4,0.6c-0.1,0.1-0.2,0.3-0.4,0.5
		c-0.1,0.1-0.2,0.2-0.4,0.4c-0.3,0.2-0.3,0.3-1,0.6c-0.1,0.1-0.3,0.1-0.4,0.2c-0.2,0.1-0.6,0.1-0.8,0.1c-0.6,0-1.2-0.2-1.7-0.5
		c-0.2-0.1-0.5-0.4-0.6-0.5c-0.1-0.1-0.2-0.2-0.3-0.4c-0.2-0.2-0.3-0.6-0.3-0.7c-0.1-0.3-0.2-0.6-0.2-0.7c0-0.1,0-0.3,0-0.4
		c0-0.4,0-0.6,0.1-0.9c0.1-0.5,0.2-0.8,0.2-1.2c0.2-0.7,0.4-1.3,0.5-1.9c0,0,0,0.3,0,0.8c0,0.5,0,1.1,0,1.8c0,0.4,0,0.7,0.1,1.2
		c0,0.1,0,0.3,0.1,0.5c0,0.1,0.1,0.2,0.1,0.4c0,0.1,0,0.1,0.1,0.2c0.1,0.1,0.2,0.3,0.3,0.4c0.1,0.1,0.1,0.1,0.2,0.2
		c0.1,0.1,0.2,0.2,0.4,0.3c0.3,0.2,0.5,0.3,0.8,0.3c0.3,0,0.6,0,0.8-0.1c0.1,0,0.3-0.1,0.4-0.2c0.3-0.2,0.3-0.2,0.4-0.3l0.1-0.1
		l0.1-0.1c0.3-0.5,0.4-0.6,0.5-0.8c0.1-0.1,0.1-0.2,0.1-0.2c-0.2,0.2-0.4,0.3-0.7,0.6c-0.1,0.1-0.2,0.2-0.3,0.3
		c-0.1,0.1-0.2,0.1-0.3,0.2c-0.1,0.1-0.2,0.1-0.3,0.1c-0.1,0-0.2,0.1-0.4,0.1c-0.4,0-0.9-0.1-1.2-0.4c-0.1-0.1-0.1-0.1-0.2-0.2
		l-0.1-0.1c-0.1-0.1-0.1-0.2-0.1-0.3c0-0.1-0.1-0.2-0.1-0.3l0-0.2c0-0.5,0-0.7,0.1-1.1c0-0.3,0.1-0.6,0.1-0.9
		c0.2-1.2,0.4-2.5,0.5-3.7c0.3-2.5,0.4-5,0.9-6.3c-0.7,1.7-1.2,5.8-0.9,6l-0.8-1.4c0.9-6.4,2.8-11.3,4.3-15.7
		c-0.5,4.3,1.7-5,1.9-1.8l-0.8,3.3c0.1,1.6,1.1-1.6,1.8-3.4c1.4-10.8,6.1-30.1,6.1-34c-0.2,2.2-1.2,6.2-2,8l0.6-5.1
		c-0.9,4-0.6,7.4-2.2,13.3c-0.5-1.1-2.3,3-2.3-1.7c1.3-11.6,3.8-9,6.3-22.8c0.5-1.2-1.7,2.6,0.2-4.6c0.7-2.3,1.3-4.4,2-6.2
		c0.1-0.3,0.2-0.6,0.3-0.8c0.1-0.3,0.3-0.5,0.4-0.7c0.3-0.5,0.5-0.8,0.8-1.2c0.5-0.7,1-1.4,1.5-2c2-2.3,3.5-3.4,4.1-3
		c-0.6,0.8-1.3,1.8-2,2.9c-0.7,1.1-1.4,2.3-2,3.4c-0.1,0.3-0.3,0.5-0.4,0.8c-0.2,0.2-0.2,0.5-0.3,0.8c-0.1,0.5-0.2,1.1-0.3,1.6
		c-0.1,1-0.1,1.7,0.1,2.1c0.3-0.9,0.6-2.1,1-3.2c0.1-0.2,0.1-0.4,0.2-0.7l0.4-0.7c0.3-0.5,0.6-1,0.9-1.5c1.1-1.9,2.2-3.3,2.6-3.3
		c0.4-2.1-0.6-0.5-1.4,0.9c-0.5,0.7-0.8,1.4-1,1.6c-0.2,0.2-0.2-0.1,0.1-1.4c1.3-2.4,2.3-3.2,3.1-4.2c-1.4,1.3,0.5-2.6,0.7-3.4
		c0.3-0.5,0.6-0.9,0.8-1.4c0.3-0.4,0.6-0.9,0.9-1.3c0.5-0.8,1.1-1.6,1.6-2.4c0.5-0.7,1.2-1.3,1.9-2c0.6-0.7,1.3-1.3,1.9-2
		c2.5-2.6,5.1-5.3,8.6-8.6c0.2-0.5,0.7-1.5,0.3-1.6c3.7-3,9.9-6.2,9.1-4.4c4-3.8,3.8-4.4,7.5-7.4c-4.7,6,0.9-1.2,2.4-0.8
		c3.6-3.2,0.8-1.6,2.2-3.3c0.7-0.5,2.3-1.5,2.7-1.3c1.5-2.7-5.8,2.2-4.1-1c1.3-2.2,7.9-10.2,8.4-10.8c2.4-0.8,4.9,2.8,3.3,6.2
		c0.8,0.3,2.8-3.7,4.2-5.2c3.6-5.1,7.4-5.8,10.8-9.6l-3.3,2.2c0.4-0.8,6.1-5.7,7.2-6.2c-0.1-0.4-4.3,1.1-2.9-0.8
		c6.5-6.4,14.3-10.8,14.7-9.5l-11,8.7c0.3,1.1,7.9-6.1,8.3-4.8l9.1-9.1c-1.2,1.1-5,4.3-4,2.6c4.1-3.8,2-2.1,4.3-5
		c-5.5,3.4-16.2,9-20.3,10.7l5.3-4.1l0.8-1.6c6.8-5.4,15.3-7.9,17.7-8.7c3.4-3.6,0.7-4-0.5-3.5c3.5-3.4,5.8-4.5,8.1-5.7
		c1.1-0.6,2.3-1.1,3.6-2c0.2-0.1,0.3-0.2,0.5-0.3c0.2-0.1,0.2-0.1,0.3-0.2c0.1-0.1,0.3-0.1,0.4-0.2c0.1-0.1,0.3-0.2,0.5-0.3
		c0.7-0.4,1.6-0.9,2.6-1.5c0,0-0.7,0.5-1.4,1c-0.4,0.2-0.6,0.5-0.9,0.7c-0.2,0.2-0.4,0.3-0.4,0.3c0.8-0.5,3-1.7,4.9-2.6
		c1-0.4,1.9-0.8,2.5-1.1c0.6-0.2,1-0.3,0.8-0.1c1.5-1.2,2.8-3,0.6-2.7c0,0,0.5,0,1.4-0.1c0.4,0,0.9-0.1,1.4-0.1c0.5,0,1,0,1.6,0
		c0.5,0,1,0,1.5,0.1c0.1,0,0.2,0,0.3,0c0.1,0,0.3,0,0.5,0c0.3,0,0.7,0,1-0.1c0.3-0.1,0.6-0.1,0.8-0.2c0.2,0,0.3-0.1,0.5-0.1
		c0.2,0,0.4-0.1,0.4-0.1c-1.3,0.3-1.1-1.7-1.8-1.7c3.3-1.4,6.3-0.4,4.4,0.7c5.9-3.8,4.6-2.5,9.2-6c1.9-0.7,0.5,1.8-0.8,2.5
		c4.4-1.3,6.8-2.5,8.8-3.5c-7.3,2.2-3.4-2.8-5.2-3.5l17.1-1.3c-0.6-0.1-2.4-1.1-2.4-1.4c1.8,0.9,19.2-6,27.6-9.6l-1.3,0.5
		c-1.9,0.2,5.2-3.2,8.4-3.9c-0.6-0.1-1.3,0.3-2.6,0.8c5.2-3.4,8.2-0.8,13.5-4.4c-5.2,2.3-6.4,2.1-6.4,1.4c4.5-1.2,14.2-5.8,12.8-3.3
		c2.6-1.5,5.2-2.3,4.6-3l10.9-3.3c-0.9,0.1-1.7-0.1,1.3-1.5c-5.8,2.6-12.1,3.4-14.8,5.8c-0.6-1,1.4-2.4-1.8-2.2
		c11.6-4.1,18.5-4.9,26.2-6.6l9.7-4.8l0.6,0.3l1.3-1.9c1.4-0.2,2.3-0.3,2.5-0.5c0.2-0.2-0.2-0.2-0.8-0.2c1.1-0.4,2.1-0.7,2.6-0.7
		c0.1-0.8-1.9-0.8-4.1-0.7c-0.8,0.6-1.7,1.2-2.5,1.8c-2.2,0.2-3.9,0.2-1.3-1.4c0.4-0.1,0.9-0.2,1.5-0.3c-1.4,0.1-2.4,0-1.5-0.6
		l7.9-2.5c-0.8,0.5-2,1.4-3.3,2.4c5.1-1.2,11-2.4,7,0.1l5.6-3.1c7.3-1.6,6-1.4,14.7-3.9c0.3-0.6-2.1-0.1-0.7-1
		c6.6-1.1,14.2-7.6,16-7c5-1.7,2.5,0.2,5.7-0.7c-0.2-0.1-0.6-0.2,0.3-0.6c0,0,0.3,0,0.6-0.1c0.1,0,0.2,0,0.3,0c0.1,0,0.2,0,0.3,0
		c0.1,0,0.3,0,0.5,0c0.7,0.1,1,0.3,1,0.3c0.1-0.1,0.1-0.2,0-0.2c0,0-0.1-0.1-0.1-0.1c-0.1,0-0.1-0.1-0.2-0.1
		c-0.1-0.1-0.3-0.1-0.2-0.2c0-0.1,0.4-0.3,0.7-0.3c0.1,0,0.1,0,0.1,0.1c0,0,0,0,0,0l0.1-0.2c0-0.1,0-0.1,0.1-0.2
		c0.2-0.3,0.2-0.2,0.1-0.2c-0.1,0.1-0.3,0.2-0.4,0.2c-0.1,0.1-0.2,0.1-0.3,0.1c-0.1,0-0.1,0-0.1,0c0,0,0,0,0,0c0,0,0,0.1,0,0.1
		c0,0.1,0,0.1-0.1,0.2c-0.1,0.3-0.2,0.7-0.4,1.1c-0.1,0.1-0.1,0.2-0.2,0.4c-0.2,0.3-0.4,0.6-0.6,1c-1.4,2.5-2.7,5-3.9,8
		c-4.3,8.1,0.1-4.3-3.2,2.7c0.2,1.4,0.5,2.7-1.6,7c-1.6,2-2,1.5-4.3,5.2l1.2,0.3c-1.9,3.6-3.5,6.3-2.7,6.8c-1.9,2.7-2.9,4.8-3.5,6.4
		c-3.3,5.2-0.1-5.1,0.2-6.6c-1,2.9-2,5.2-2.9,7.2c-0.4,1-0.8,2-1.1,2.9l-0.1,0.3c0,0.1,0,0.1,0,0.1c0,0.1,0.1,0.1,0.1,0.2l0,0.3
		l0,0.2l-0.1,0.3c0,0,0.1-0.1,0.2-0.2c0.1-0.1,0.1-0.1,0.2-0.2c0.1-0.1,0.2-0.2,0.3-0.2c0.1-0.1,0.1-0.1,0.3-0.4
		c0.7-1.1,1.3-2.3,1.3-2.3c-0.2,0.7-0.5,1.3-0.7,1.9c-0.1,0.3-0.2,0.6-0.3,0.8c-0.1,0.2-0.1,0.2-0.1,0.4c0,0.1-0.1,0.2-0.2,0.3
		c-0.1,0.1-0.1,0.2-0.3,0.4c-0.3,0.3-0.6,0.6-0.9,0.9c-1.1,1.1-2,1.8-2.7,2.4c-1.5,1.1-2.3,1.9-3.3,4.5c1.4-1.3,2.8-2.7,3.9-3.5
		c1.1-0.8,1.7-1,1.2,0c0,0-1,0.9-2.1,1.8c-1,0.9-2.1,1.7-2.1,1.7c-0.2,0.7,2.4-2,0.8,0c-1.3,0.9-4,2.6-5.3,3.3l0.1,0
		c0,0-0.5,0.4-1.1,1c-0.3,0.3-0.7,0.7-1.2,1c-0.5,0.4-1,0.7-1.5,1.1c-2,1.5-4,3-4,3c1.5-1.2,2.1-1.2,0.6,0.1l-5.6,3.6
		c1.8-1,0.4,0.5-1.9,2.5c-0.4,0.3-0.8,0.7-1.1,0.9c-0.4,0.2-0.7,0.4-1,0.6c-0.6,0.4-1.2,0.6-1.7,0.8c-1,0.4-1.8,0.5-2.6,0.6
		c-1.5,0.2-2.7,0.4-5.2,2.3c0.8-0.4,1-0.4,1.8-0.8l-2.7,1.9c-0.4-0.4-1.7-0.3-3.3,0.1c-1.5,0.5-3.5,1.3-4.9,2.9
		c-1.6,1.7-2.3,3-3.1,4.4c-1.4,2.8-2.3,5.4-3.1,7.4c-0.8,2-1.4,3.4-2.1,3.4c-0.1,2.8,0,2.9,0.5,1.5c0.5-1.4,1.3-4.2,3-7.3
		c0,0-0.1,0.4-0.2,0.9c-0.1,0.5-0.2,1.2-0.3,1.9c-0.2,1.4-0.4,2.8-0.4,2.8C260.5,96.3,260.8,94.5,261.9,92.2z"/>
	<path class="st0" d="M285.7,25.2c0.3-0.3,0.4-0.5,0.4-0.7C286.7,24.5,286.8,24.6,285.7,25.2z"/>
	<path class="st0" d="M233,128.9l-0.2,0.1c-0.1,0-0.2,0-0.3-0.1L233,128.9z"/>
	<path class="st0" d="M81.4,142.7c1-1.1,1.4-1.7,1.7-2.2C83.3,140.6,82.9,141.1,81.4,142.7z"/>
	<path class="st0" d="M14.9,266.4c0,0,0-0.1,0-0.4c0-0.2,0-0.5,0.1-0.8c0.1-0.6,0.2-1.2,0.3-1.9c0.1-0.6,0.3-1.2,0.4-1.6
		c0.1-0.4,0.2-0.7,0.2-0.7c-0.1,0.5-0.2,1-0.3,1.4c-0.1,0.4-0.1,0.8-0.1,1.1c-0.1,0.7-0.1,1.2-0.1,2c-0.1-0.1-0.2-0.4-0.3-0.5
		c0,0-0.1,0-0.1,0.1C15,265.5,15,265.7,14.9,266.4z"/>
	<path class="st0" d="M27.6,252.1c0.1,0,0.1-0.2,0.2-0.2l0.4,0.2C28,252.5,27.6,252.6,27.6,252.1z"/>
	<path class="st0" d="M24.3,265c-0.1-0.1-0.1-0.2-0.1-0.3c0-0.1,0-0.3,0-0.4c0-0.2,0.2-0.7,0.4-1.2c0.5-1,1.2-2.3,1.9-3.7
		c-0.1,0.2-0.2,0.3-0.2,0.5c0.7-0.2,0.6,0.4,0.1,1.4c-0.2,0.5-0.6,1.1-1,1.8c-0.2,0.3-0.4,0.7-0.6,1c-0.1,0.2-0.2,0.2-0.2,0.4
		C24.5,264.5,24.4,264.8,24.3,265z"/>
	<path class="st0" d="M26.9,258.7c0.2-0.4,0.4-0.9,0.7-1.3l0.3-0.7l0.1-0.3l0-0.1c0.1,0,0.1,0.1,0.2,0.1c0,0,0,0,0,0
		c0,0.1-0.1,0.2-0.1,0.3C27.8,257.2,27.3,257.9,26.9,258.7z"/>
	<path class="st0" d="M21.5,238.1c-0.1,1.5-1.1,0.7-1,1.6C19.3,241.1,23.6,230.2,21.5,238.1z"/>
	<path class="st0" d="M23.1,261.8l0.3,1.4c0,0-0.1,0.1-0.2,0.2c-0.1,0.1-0.3,0.2-0.5,0.4c-0.3,0.3-0.7,0.7-0.7,0.7s0.1-0.2,0.1-0.4
		c0.1-0.3,0.2-0.6,0.3-0.9C22.8,262.5,23.1,261.8,23.1,261.8z"/>
	<path class="st0" d="M23.1,248.7l-0.8,4.9c-0.1-0.1-0.4,0.5-0.6,1.2C22.3,251.8,22.8,248.5,23.1,248.7z"/>
	<path class="st0" d="M21.7,254.9c-0.3,1.6-0.6,3.1-1,3.9C20.9,257.9,21.4,256.1,21.7,254.9z"/>
	<path class="st0" d="M20.6,266.3c0,0,0-0.4,0-0.7c0-0.4,0-0.7,0-0.7s0.1-0.9,0.3-1.7c0.2-0.9,0.3-1.7,0.3-1.7s-0.2,1.2-0.4,2.5
		c-0.1,0.6-0.1,1.2-0.2,1.7C20.6,266,20.6,266.3,20.6,266.3z"/>
	<path class="st0" d="M33.8,196.1l1.4-5.3c0.4-0.5,0.3,1-0.2,3C34.4,195,33.9,197,33.8,196.1z"/>
	<path class="st0" d="M32.9,212.7c0.1-1.5-0.1-1.6-0.2-2.5l1.1,0.1L32.9,212.7z"/>
	<path class="st0" d="M36.4,197.2c0.4-0.5,2.5-7.6,1-0.8C37,196.9,35.6,202.2,36.4,197.2z"/>
	<polygon class="st0" points="85.3,134.6 84.3,135.6 83.2,134.1 	"/>
	<path class="st0" d="M140.9,88c-4.4,4.8-1.9,0.2-5.7,4.6c-1.4,0.7,3.1-3.6,1.8-2.8C140,87.5,141.3,85.9,140.9,88z"/>
	<path class="st0" d="M136.9,89.9c-0.5,0.4-1,0.8-1.6,1.2C136.1,90.3,136.6,90,136.9,89.9z"/>
	<polygon class="st0" points="42.7,231.9 42.6,232.6 42.3,231.9 	"/>
	<path class="st0" d="M40.8,231.9l0.8,0.9l-1.1-0.4C40.7,232.3,41,232.2,40.8,231.9z"/>
	<path class="st0" d="M317.6,34l0.4-0.2c0,0.7-0.4,1.6-1.3,3.3L317.6,34z"/>
	<path class="st0" d="M283.3,73.7c0,0,0.7-0.5,0.7-0.5c0,0-0.2,0.4-0.4,0.9c-0.2,0.4-0.4,0.9-0.4,0.9L283.3,73.7z"/>
	<path class="st0" d="M254.1,111.7c0.5-1.9,1.3-4,1.8-5.9C254.6,109.9,255.3,112.6,254.1,111.7z"/>
</g>
</svg>
