<?xml version="1.0" encoding="utf-8"?>
<!-- Generator: Adobe Illustrator 24.1.0, SVG Export Plug-In . SVG Version: 6.00 Build 0)  -->
<svg version="1.1" id="Layer_1" xmlns="http://www.w3.org/2000/svg" xmlns:xlink="http://www.w3.org/1999/xlink" x="0px" y="0px"
	 viewBox="0 0 327 90" style="enable-background:new 0 0 327 90;" xml:space="preserve">
<style type="text/css">
	.st0{fill:#3B2331;}
</style>
<g>
	<path class="st0" d="M264.9,84.8h1.9c2.1,0,2.6-0.8,2.6-1.4s-0.6-1.4-2.6-1.4h-1.9 M264.9,89H263v-8h3.7c3,0,4.5,1,4.5,2.4
		s-1.4,2.4-4.5,2.4h-1.9"/>
	<path class="st0" d="M283.7,85.6l-1.7-3.1l0,0l-1.7,3.1H283.7z M285.7,89l-1.4-2.3h-4.6l-1.4,2.3h-2l4.8-8h1.7l4.9,8H285.7z"/>
	<path class="st0" d="M295.5,85.2h1.2c0.8,0,3.5,0,3.5-1.6c0-0.7-0.7-1.5-2.8-1.5h-1.9 M299.8,89l-4.2-3.7l0,0V89h-1.9v-8h3.9
		c1.8,0,2.7,0.3,3.4,0.7c0.8,0.5,1.2,1.2,1.2,1.9c0,2.1-2.8,2.5-3.6,2.5l3.6,3L299.8,89L299.8,89z"/>
	<rect x="308.7" y="81" width="1.9" height="8"/>
	<path class="st0" d="M318.6,86.6c0,0.3,0.2,1.4,2.1,1.4c1.2,0,2.1-0.5,2.1-1.4s-1.2-1.1-2.1-1.3c-1.7-0.4-2.1-0.6-2.7-0.9
		c-0.6-0.4-0.8-1-0.8-1.5c0-1,1.2-2.2,3.6-2.2c2.1,0,3.6,0.9,3.6,2.3h-1.9c0-0.9-1-1.2-1.8-1.2c-1.1,0-1.7,0.6-1.7,1.1
		c0,0.8,1.2,1,1.7,1.1c1.6,0.4,3.9,0.7,3.9,2.6c0,1.4-1.6,2.4-3.9,2.4c-1.8,0-3.9-0.8-3.9-2.5L318.6,86.6L318.6,86.6z"/>
	<path class="st0" d="M134.1,17.2h-1.6l0.7,1.7c0,0,0.6,1.6,0.6,4.8v29.5c0,9.2-6.7,15.6-14.6,15.6c-7.8,0-14-6.3-14-15.6v-28
		c0-2.5,0-4.7,0.6-6.3l0.6-1.6h-9.6l0.5,1.6c0.6,1.6,0.6,3.8,0.6,6.3v27.7c0,12.9,9.1,22.4,20.4,22.4c11.1,0,20.2-9.4,20.2-22.4
		V23.7c0-3.3,0.6-4.9,0.6-4.9l0.6-1.7h-1.5"/>
	<path class="st0" d="M324.3,67.7c-2.5,1-4.3,1.4-6.3,1.4h-15.7V43.7h17.6l1.7-4.6h-19.3V22.2h12.6c2.1,0,3.9,0,6.6,1.1l2.4,1
		l-1.3-6.9h-0.8h-28.5l0.6,1.6c0.7,1.8,0.7,4.3,0.7,7.2v38.9c0,4.5,0,5.4-0.7,7.4l-0.6,1.6h31.3l1.8-7.1L324.3,67.7z"/>
	<path class="st0" d="M262.4,69.1H250V25.9c0-3.6,0.1-5.4,0.5-6.8c0.1-0.5,0.6-1.9,0.6-1.9H241l0.6,1.6c0.6,1.8,0.6,4.3,0.6,7.3V65
		c0,4.5,0,5.5-0.6,7.4L241,74h28l1.8-7.1l-2.1,0.8C266.2,68.7,264.4,69.1,262.4,69.1"/>
	<path class="st0" d="M165.1,69.1h-10.6V22h7.8c12,0,20.8,10.8,20.8,25.8C183.2,58.3,177.5,69.1,165.1,69.1 M165.7,17.2h-18.2h-1.6
		l0.6,1.7c0.6,1.4,0.6,3.4,0.6,5.8v1.4V65c0,4.5,0,5.5-0.6,7.4l-0.6,1.6h19.4c16.1,0,25.7-14.9,25.7-29.2
		C191,29.6,179.7,17.2,165.7,17.2"/>
	<path class="st0" d="M63.8,48.6c3.4-8.9,6.6-17,7.2-18.5c0.6,1.6,3.7,9.7,7.1,18.5H63.8z M92.2,64.7L73.3,16.2h-1.7L52.2,64.5
		c-1.7,4.1-2.5,5.2-3.9,7l-1.8,2.4h7.4c0,0,4-10.3,8.1-21h17.7c4.1,10.7,8,21,8,21h10.6L96,71.1C94.8,69.7,93.9,68.6,92.2,64.7"/>
	<path class="st0" d="M204.4,48.6c3.4-8.9,6.6-17,7.2-18.5c0.6,1.6,3.7,9.7,7.1,18.5H204.4z M232.8,64.7l-18.9-48.4h-1.6l-19.5,48.3
		c-1.7,4.1-2.5,5.2-3.9,7l-1.8,2.4h7.5c0,0,4-10.3,8.1-21h17.7c4.1,10.7,8,21,8,21h10.7l-2.4-2.8C235.4,69.7,234.5,68.6,232.8,64.7"
		/>
	<path class="st0" d="M283.8,18.9l0.6-1.6h-1.6h-8.6l0.7,1.7c0.7,1.7,0.6,3.9,0.6,6.4v40.5c0,2.6,0,4.7-0.6,6.5l-0.7,1.7h10.2
		l-0.6-1.6c-0.7-1.9-0.7-4.5-0.7-7.4V26.2C283.1,23.2,283.1,20.7,283.8,18.9"/>
	<path class="st0" d="M28.9,69.8c-8.6,0-19.6-8.7-19.6-26.9c0-10,5.5-21.8,19.7-21.8c5.4,0,12,4,15.8,10.5l1.3,2.4l-0.8-12.7
		L44.8,21c-4.5-3.1-10.1-4.8-15.8-4.8c-15.5,0-28.4,14-28.4,30.5c0,16,12.7,28.1,28.4,28.1c5.6,0,11.2-2,15.9-5.7l1.7-9.7
		C43.3,62.5,40.7,69.8,28.9,69.8"/>
	<path class="st0" d="M283,9c-3.1,1.9-6.5,1.8-7.6-0.1S276,4,279,2.2c3.2-1.9,6.5-1.8,7.7,0.1C287.7,4.1,286.1,7.1,283,9"/>
</g>
</svg>
