<?xml version="1.0" encoding="utf-8"?>
<!-- Generator: Adobe Illustrator 24.1.0, SVG Export Plug-In . SVG Version: 6.00 Build 0)  -->
<svg version="1.1" id="Layer_1" xmlns:serif="http://www.serif.com/"
	 xmlns="http://www.w3.org/2000/svg" xmlns:xlink="http://www.w3.org/1999/xlink" x="0px" y="0px" viewBox="0 0 272 272"
	 style="enable-background:new 0 0 272 272;" xml:space="preserve">
<style type="text/css">
	.st0{fill-rule:evenodd;clip-rule:evenodd;fill:#FFFFFF;}
</style>
<path class="st0" d="M136,0c75.1,0,136,60.9,136,136s-60.9,136-136,136S0,211.1,0,136S60.9,0,136,0z M217.4,95.1
	c-2-7.3-7.7-13.1-15-15c-13.3-3.6-66.4-3.6-66.4-3.6s-53.2,0-66.4,3.6c-7.3,2-13.1,7.7-15,15C51,108.3,51,136,51,136
	s0,27.7,3.6,40.9c2,7.3,7.7,13.1,15,15c13.3,3.6,66.4,3.6,66.4,3.6s53.2,0,66.4-3.6c7.3-2,13.1-7.7,15-15C221,163.7,221,136,221,136
	S221,108.3,217.4,95.1z M119,161.5v-51l44.2,25.5C163.2,136,119,161.5,119,161.5z"/>
</svg>
