<?xml version="1.0" encoding="utf-8"?>
<!-- Generator: Adobe Illustrator 24.1.0, SVG Export Plug-In . SVG Version: 6.00 Build 0)  -->
<svg version="1.1" id="Layer_1" xmlns:serif="http://www.serif.com/"
	 xmlns="http://www.w3.org/2000/svg" xmlns:xlink="http://www.w3.org/1999/xlink" x="0px" y="0px" viewBox="0 0 272 272"
	 style="enable-background:new 0 0 272 272;" xml:space="preserve">
<style type="text/css">
	.st0{fill-rule:evenodd;clip-rule:evenodd;fill:#FFFFFF;}
</style>
<path class="st0" d="M136,0c75.1,0,136,60.9,136,136s-60.9,136-136,136S0,211.1,0,136S60.9,0,136,0z M136,51c-23.1,0-26,0.1-35,0.5
	c-9,0.4-15.2,1.8-20.6,4c-5.6,2.2-10.3,5.1-15.1,9.8s-7.6,9.5-9.8,15.1c-2.1,5.4-3.5,11.6-4,20.6c-0.4,9.1-0.5,12-0.5,35
	s0.1,26,0.5,35c0.4,9,1.8,15.2,4,20.6c2.2,5.6,5.1,10.3,9.8,15.1c4.7,4.7,9.5,7.6,15.1,9.8c5.4,2.1,11.6,3.5,20.6,4
	c9.1,0.4,12,0.5,35,0.5s26-0.1,35-0.5c9-0.4,15.2-1.8,20.6-4c5.6-2.2,10.3-5.1,15.1-9.8c4.7-4.7,7.6-9.5,9.8-15.1
	c2.1-5.4,3.5-11.6,4-20.6c0.4-9.1,0.5-12,0.5-35s-0.1-26-0.5-35c-0.4-9-1.8-15.2-4-20.6c-2.2-5.6-5.1-10.3-9.8-15.1
	c-4.7-4.7-9.5-7.6-15.1-9.8c-5.4-2.1-11.6-3.5-20.6-4C162,51.1,159.1,51,136,51z M136,66.3c22.7,0,25.4,0.1,34.3,0.5
	c8.3,0.4,12.8,1.8,15.8,2.9c4,1.5,6.8,3.4,9.8,6.4c3,3,4.8,5.8,6.4,9.8c1.2,3,2.5,7.5,2.9,15.8c0.4,9,0.5,11.7,0.5,34.3
	s-0.1,25.4-0.5,34.3c-0.4,8.3-1.8,12.8-2.9,15.8c-1.5,4-3.4,6.8-6.4,9.8c-3,3-5.8,4.8-9.8,6.4c-3,1.2-7.5,2.5-15.8,2.9
	c-9,0.4-11.6,0.5-34.3,0.5s-25.4-0.1-34.3-0.5c-8.3-0.4-12.8-1.8-15.8-2.9c-4-1.5-6.8-3.4-9.8-6.4c-3-3-4.8-5.8-6.4-9.8
	c-1.2-3-2.5-7.5-2.9-15.8c-0.4-9-0.5-11.7-0.5-34.3s0.1-25.4,0.5-34.3c0.4-8.3,1.8-12.8,2.9-15.8c1.5-4,3.4-6.8,6.4-9.8
	c3-3,5.8-4.8,9.8-6.4c3-1.2,7.5-2.5,15.8-2.9C110.6,66.4,113.3,66.3,136,66.3z M136,92.4c-24.1,0-43.6,19.5-43.6,43.6
	s19.5,43.6,43.6,43.6s43.6-19.5,43.6-43.6S160.1,92.4,136,92.4z M136,164.3c-15.6,0-28.3-12.7-28.3-28.3s12.7-28.3,28.3-28.3
	s28.3,12.7,28.3,28.3S151.6,164.3,136,164.3z M191.6,90.6c0,5.6-4.6,10.2-10.2,10.2c-5.6,0-10.2-4.6-10.2-10.2s4.6-10.2,10.2-10.2
	C187,80.4,191.6,85,191.6,90.6z"/>
</svg>
