<?xml version="1.0" encoding="utf-8"?>
<!-- Generator: Adobe Illustrator 24.1.0, SVG Export Plug-In . SVG Version: 6.00 Build 0)  -->
<svg version="1.1" id="Layer_1" xmlns="http://www.w3.org/2000/svg" xmlns:xlink="http://www.w3.org/1999/xlink" x="0px" y="0px"
	 viewBox="0 0 272 272" style="enable-background:new 0 0 272 272;" xml:space="preserve">
<style type="text/css">
	.st0{fill-rule:evenodd;clip-rule:evenodd;fill:#FFFFFF;}
</style>
<path class="st0" d="M135.5,272l0.1,0L135.5,272C135.6,272,135.5,272,135.5,272z M136.4,272L136.4,272L136.4,272L136.4,272z
	 M135.1,272l0.1,0L135.1,272L135.1,272z M136.9,272L136.9,272L136.9,272L136.9,272z M134.7,272L134.7,272L134.7,272
	C134.7,272,134.7,272,134.7,272z M137.3,272L137.3,272L137.3,272L137.3,272L137.3,272z M137.8,272L137.8,272L137.8,272L137.8,272
	L137.8,272z M134.2,272l0.1,0L134.2,272L134.2,272L134.2,272z M138.2,272L138.2,272L138.2,272L138.2,272L138.2,272z M133.7,272
	l0.1,0L133.7,272L133.7,272L133.7,272z M138.6,272L138.6,272L138.6,272L138.6,272z M133.3,272l0.1,0L133.3,272
	C133.4,272,133.3,272,133.3,272z M132.8,272l0.1,0L132.8,272C132.9,272,132.8,272,132.8,272z M139.1,272L139.1,272L139.1,272
	L139.1,272z M132.4,272l0.2,0L132.4,272L132.4,272z M139.5,272L139.5,272L139.5,272L139.5,272z M139.9,271.9l-0.1,0L139.9,271.9
	L139.9,271.9L139.9,271.9z M132,271.9l0.2,0L132,271.9C132.1,271.9,132,271.9,132,271.9z M131.6,271.9l0.1,0L131.6,271.9
	L131.6,271.9L131.6,271.9z M140.4,271.9l-0.1,0L140.4,271.9l0.1,0L140.4,271.9z M140.8,271.9L140.8,271.9l0.1,0L140.8,271.9z
	 M131.1,271.9l0.2,0l-0.1,0L131.1,271.9z M130.7,271.9l0.2,0L130.7,271.9L130.7,271.9z M141.3,271.9l-0.1,0L141.3,271.9L141.3,271.9
	z M130.3,271.9l0.2,0L130.3,271.9L130.3,271.9L130.3,271.9z M141.7,271.9l-0.1,0L141.7,271.9L141.7,271.9L141.7,271.9z M129.7,271.9
	l0.2,0l0,0L129.7,271.9z M142.1,271.9L142.1,271.9l0.2,0L142.1,271.9L142.1,271.9z M129.3,271.8l0.2,0l-0.1,0L129.3,271.8z
	 M142.6,271.8L142.6,271.8l0.1,0L142.6,271.8z M128.9,271.8l0.2,0L128.9,271.8L128.9,271.8z M143,271.8l-0.1,0L143,271.8L143,271.8z
	 M143.4,271.8l-0.2,0L143.4,271.8l0.2,0L143.4,271.8L143.4,271.8z M128.6,271.8l0.2,0L128.6,271.8l-0.2,0L128.6,271.8L128.6,271.8z
	 M143.9,271.8L143.9,271.8l0.1,0L143.9,271.8z M128,271.8l0.2,0l-0.1,0L128,271.8z M127.6,271.7l0.2,0L127.6,271.7L127.6,271.7
	L127.6,271.7z M144.3,271.8l-0.1,0L144.3,271.8L144.3,271.8L144.3,271.8z M127.3,271.7l0.2,0L127.3,271.7l-0.2,0
	C127.1,271.7,127.3,271.7,127.3,271.7z M144.7,271.7l-0.2,0L144.7,271.7l0.2,0L144.7,271.7L144.7,271.7z M145.2,271.7L145.2,271.7
	l0.1,0L145.2,271.7L145.2,271.7z M126.7,271.7l0.2,0l-0.1,0L126.7,271.7z M126.3,271.7l0.2,0L126.3,271.7
	C126.4,271.7,126.3,271.7,126.3,271.7z M145.6,271.7l-0.1,0L145.6,271.7L145.6,271.7z M125.9,271.6l0.2,0L125.9,271.6L125.9,271.6
	L125.9,271.6z M146,271.6l-0.1,0L146,271.6L146,271.6L146,271.6z M125.4,271.6l0.2,0l0,0L125.4,271.6z M146.5,271.6L146.5,271.6
	l0.1,0L146.5,271.6z M146.9,271.6L146.9,271.6L146.9,271.6L146.9,271.6z M125,271.6l0.2,0L125,271.6
	C125.1,271.6,125,271.6,125,271.6z M124.6,271.5l0.1,0L124.6,271.5L124.6,271.5z M147.3,271.5L147.3,271.5L147.3,271.5L147.3,271.5z
	 M124.2,271.5L124.2,271.5L124.2,271.5L124.2,271.5L124.2,271.5z M147.8,271.5L147.8,271.5L147.8,271.5L147.8,271.5L147.8,271.5z
	 M148.2,271.5L148.2,271.5L148.2,271.5L148.2,271.5L148.2,271.5z M123.8,271.5L123.8,271.5L123.8,271.5L123.8,271.5L123.8,271.5z
	 M123.4,271.4L123.4,271.4L123.4,271.4L123.4,271.4z M148.6,271.4L148.6,271.4L148.6,271.4L148.6,271.4z M114.8,270.3
	C49.8,260.1,0,203.8,0,136C0,60.9,60.9,0,136,0s136,60.9,136,136c0,67.8-49.8,124.1-114.8,134.3v-95h31.7l6-39.3h-37.7v-25.5
	c0-10.8,5.3-21.2,22.2-21.2h17.1V55.8c0,0-15.6-2.7-30.4-2.7c-31.1,0-51.4,18.8-51.4,52.9v30H80.2v39.3h34.5V270.3z"/>
</svg>
