<?xml version="1.0" encoding="utf-8"?>
<!-- Generator: Adobe Illustrator 24.1.0, SVG Export Plug-In . SVG Version: 6.00 Build 0)  -->
<svg version="1.1" id="Layer_1" xmlns:serif="http://www.serif.com/"
	 xmlns="http://www.w3.org/2000/svg" xmlns:xlink="http://www.w3.org/1999/xlink" x="0px" y="0px" viewBox="0 0 272 272"
	 style="enable-background:new 0 0 272 272;" xml:space="preserve">
<style type="text/css">
	.st0{fill-rule:evenodd;clip-rule:evenodd;fill:#FFFFFF;}
</style>
<path class="st0" d="M136,0c75.1,0,136,60.9,136,136s-60.9,136-136,136S0,211.1,0,136S60.9,0,136,0z M112,208.3
	c60.2,0,93.1-49.9,93.1-93.1c0-1.4,0-2.8-0.1-4.2c6.4-4.6,11.9-10.4,16.4-17c-5.8,2.6-12.1,4.3-18.8,5.2
	c6.8-4.1,11.9-10.4,14.4-18.1c-6.3,3.7-13.3,6.4-20.8,7.9c-6-6.4-14.5-10.3-23.9-10.3c-18,0-32.7,14.7-32.7,32.7
	c0,2.6,0.3,5.1,0.9,7.5c-27.2-1.4-51.3-14.4-67.4-34.2c-2.8,4.8-4.4,10.4-4.4,16.4c0,11.3,5.8,21.4,14.6,27.2
	c-5.4-0.1-10.4-1.6-14.8-4.1v0.4c0,15.9,11.3,29,26.3,32.1c-2.7,0.7-5.6,1.2-8.6,1.2c-2.1,0-4.1-0.2-6.2-0.6
	c4.1,13,16.2,22.5,30.5,22.7c-11.2,8.8-25.3,14-40.6,14c-2.6,0-5.2-0.1-7.8-0.5C76.4,202.9,93.6,208.3,112,208.3L112,208.3z"/>
</svg>
